<svg width="32" height="32" viewBox="0 0 32 32" fill="none" xmlns="http://www.w3.org/2000/svg">
<path d="M30.5 28H29V7.5C29 7.36739 28.9473 7.24021 28.8536 7.14645C28.7598 7.05268 28.6326 7 28.5 7H24.5C24.3674 7 24.2402 7.05268 24.1464 7.14645C24.0527 7.24021 24 7.36739 24 7.5V28H22V11.5C22 11.3674 21.9473 11.2402 21.8536 11.1464C21.7598 11.0527 21.6326 11 21.5 11H17.5C17.3674 11 17.2402 11.0527 17.1464 11.1464C17.0527 11.2402 17 11.3674 17 11.5V28H15V14.5C15 14.3674 14.9473 14.2402 14.8536 14.1464C14.7598 14.0527 14.6326 14 14.5 14H10.5C10.3674 14 10.2402 14.0527 10.1464 14.1464C10.0527 14.2402 10 14.3674 10 14.5V28H8V17.5C8 17.3674 7.94732 17.2402 7.85355 17.1464C7.75979 17.0527 7.63261 17 7.5 17H3.5C3.36739 17 3.24021 17.0527 3.14645 17.1464C3.05268 17.2402 3 17.3674 3 17.5V28H1.5C1.36739 28 1.24021 28.0527 1.14645 28.1464C1.05268 28.2402 1 28.3674 1 28.5C1 28.6326 1.05268 28.7598 1.14645 28.8536C1.24021 28.9473 1.36739 29 1.5 29H30.5C30.6326 29 30.7598 28.9473 30.8536 28.8536C30.9473 28.7598 31 28.6326 31 28.5C31 28.3674 30.9473 28.2402 30.8536 28.1464C30.7598 28.0527 30.6326 28 30.5 28ZM7 28H4V18H7V28ZM14 28H11V15H14V28ZM21 28H18V12H21V28ZM28 28H25V8H28V28ZM4 30H3.5C3.36739 30 3.24021 30.0527 3.14645 30.1464C3.05268 30.2402 3 30.3674 3 30.5C3 30.6326 3.05268 30.7598 3.14645 30.8536C3.24021 30.9473 3.36739 31 3.5 31H4C4.13261 31 4.25979 30.9473 4.35355 30.8536C4.44732 30.7598 4.5 30.6326 4.5 30.5C4.5 30.3674 4.44732 30.2402 4.35355 30.1464C4.25979 30.0527 4.13261 30 4 30ZM7.5 30H5.5C5.36739 30 5.24021 30.0527 5.14645 30.1464C5.05268 30.2402 5 30.3674 5 30.5C5 30.6326 5.05268 30.7598 5.14645 30.8536C5.24021 30.9473 5.36739 31 5.5 31H7.5C7.63261 31 7.75979 30.9473 7.85355 30.8536C7.94732 30.7598 8 30.6326 8 30.5C8 30.3674 7.94732 30.2402 7.85355 30.1464C7.75979 30.0527 7.63261 30 7.5 30ZM11 30H10.5C10.3674 30 10.2402 30.0527 10.1464 30.1464C10.0527 30.2402 10 30.3674 10 30.5C10 30.6326 10.0527 30.7598 10.1464 30.8536C10.2402 30.9473 10.3674 31 10.5 31H11C11.1326 31 11.2598 30.9473 11.3536 30.8536C11.4473 30.7598 11.5 30.6326 11.5 30.5C11.5 30.3674 11.4473 30.2402 11.3536 30.1464C11.2598 30.0527 11.1326 30 11 30ZM14.5 30H12.5C12.3674 30 12.2402 30.0527 12.1464 30.1464C12.0527 30.2402 12 30.3674 12 30.5C12 30.6326 12.0527 30.7598 12.1464 30.8536C12.2402 30.9473 12.3674 31 12.5 31H14.5C14.6326 31 14.7598 30.9473 14.8536 30.8536C14.9473 30.7598 15 30.6326 15 30.5C15 30.3674 14.9473 30.2402 14.8536 30.1464C14.7598 30.0527 14.6326 30 14.5 30ZM18 30H17.5C17.3674 30 17.2402 30.0527 17.1464 30.1464C17.0527 30.2402 17 30.3674 17 30.5C17 30.6326 17.0527 30.7598 17.1464 30.8536C17.2402 30.9473 17.3674 31 17.5 31H18C18.1326 31 18.2598 30.9473 18.3536 30.8536C18.4473 30.7598 18.5 30.6326 18.5 30.5C18.5 30.3674 18.4473 30.2402 18.3536 30.1464C18.2598 30.0527 18.1326 30 18 30ZM21.5 30H19.5C19.3674 30 19.2402 30.0527 19.1464 30.1464C19.0527 30.2402 19 30.3674 19 30.5C19 30.6326 19.0527 30.7598 19.1464 30.8536C19.2402 30.9473 19.3674 31 19.5 31H21.5C21.6326 31 21.7598 30.9473 21.8536 30.8536C21.9473 30.7598 22 30.6326 22 30.5C22 30.3674 21.9473 30.2402 21.8536 30.1464C21.7598 30.0527 21.6326 30 21.5 30ZM25 30H24.5C24.3674 30 24.2402 30.0527 24.1464 30.1464C24.0527 30.2402 24 30.3674 24 30.5C24 30.6326 24.0527 30.7598 24.1464 30.8536C24.2402 30.9473 24.3674 31 24.5 31H25C25.1326 31 25.2598 30.9473 25.3536 30.8536C25.4473 30.7598 25.5 30.6326 25.5 30.5C25.5 30.3674 25.4473 30.2402 25.3536 30.1464C25.2598 30.0527 25.1326 30 25 30ZM28.5 30H26.5C26.3674 30 26.2402 30.0527 26.1464 30.1464C26.0527 30.2402 26 30.3674 26 30.5C26 30.6326 26.0527 30.7598 26.1464 30.8536C26.2402 30.9473 26.3674 31 26.5 31H28.5C28.6326 31 28.7598 30.9473 28.8536 30.8536C28.9473 30.7598 29 30.6326 29 30.5C29 30.3674 28.9473 30.2402 28.8536 30.1464C28.7598 30.0527 28.6326 30 28.5 30Z" fill="#064EE3"/>
<path d="M3.62102 11.878C3.6867 11.8782 3.75177 11.8653 3.81245 11.8402C3.87313 11.815 3.92821 11.7781 3.97452 11.7315L7.86402 7.84252L10.6925 10.671C10.7863 10.7648 10.9134 10.8174 11.046 10.8174C11.1786 10.8174 11.3058 10.7648 11.3995 10.671L15.642 6.42852L18.824 9.61052C18.9178 9.70425 19.0449 9.75691 19.1775 9.75691C19.3101 9.75691 19.4373 9.70425 19.531 9.61052L26.4765 2.66452L26.5 4.00852C26.5024 4.13956 26.5561 4.26443 26.6496 4.35627C26.7431 4.4481 26.869 4.49954 27 4.49952H27.009C27.0747 4.49834 27.1395 4.48425 27.1997 4.45803C27.2599 4.43182 27.3144 4.394 27.36 4.34673C27.4056 4.29946 27.4414 4.24367 27.4654 4.18255C27.4895 4.12144 27.5012 4.05618 27.5 3.99052L27.456 1.47002C27.4538 1.33889 27.4001 1.21388 27.3066 1.12194C27.2131 1.03001 27.0872 0.978497 26.956 0.978516H26.95L24.4955 0.999516C24.3629 1.00011 24.236 1.05336 24.1426 1.14755C24.0493 1.24174 23.9972 1.36916 23.9978 1.50177C23.9984 1.63437 24.0516 1.76131 24.1458 1.85466C24.24 1.94801 24.3674 2.00011 24.5 1.99952H24.5045L25.7385 1.98902L19.1775 8.54952L15.9955 5.36752C15.9018 5.27378 15.7746 5.22112 15.642 5.22112C15.5094 5.22112 15.3823 5.27378 15.2885 5.36752L11.046 9.61002L8.21752 6.78152C8.12375 6.68778 7.9966 6.63512 7.86402 6.63512C7.73143 6.63512 7.60428 6.68778 7.51052 6.78152L3.26752 11.0245C3.19761 11.0944 3.15001 11.1835 3.13072 11.2805C3.11144 11.3775 3.12134 11.478 3.15918 11.5693C3.19701 11.6607 3.26108 11.7388 3.34329 11.7937C3.42549 11.8487 3.52214 11.878 3.62102 11.878ZM1.50002 13.9995C1.63261 13.9995 1.75977 13.9468 1.85352 13.853L2.56052 13.146C2.60827 13.0999 2.64636 13.0447 2.67257 12.9837C2.69877 12.9227 2.71256 12.8571 2.71314 12.7907C2.71372 12.7243 2.70107 12.6585 2.67593 12.597C2.65079 12.5356 2.61366 12.4798 2.56671 12.4328C2.51977 12.3859 2.46394 12.3487 2.40249 12.3236C2.34104 12.2985 2.2752 12.2858 2.20881 12.2864C2.14243 12.287 2.07682 12.3008 2.01581 12.327C1.95481 12.3532 1.89964 12.3913 1.85352 12.439L1.14652 13.146C1.07661 13.2159 1.02901 13.305 1.00972 13.402C0.99044 13.499 1.00034 13.5995 1.03818 13.6908C1.07601 13.7822 1.14008 13.8603 1.22229 13.9152C1.30449 13.9702 1.40114 13.9995 1.50002 13.9995Z" fill="#064EE3"/>
</svg>
