<svg width="29" height="32" viewBox="0 0 29 32" fill="none" xmlns="http://www.w3.org/2000/svg">
<g clip-path="url(#clip0_438_891)">
<path d="M24.1724 19.1608C23.9181 18.9943 23.6371 18.887 23.3458 18.8452C23.0546 18.8034 22.7589 18.8279 22.4761 18.9174L21.1337 16.1542C21.0959 16.0764 21.0404 16.0116 20.9731 15.9664C20.9058 15.9213 20.829 15.8974 20.7508 15.8974H19.0006V14.407H19.8757C19.9917 14.407 20.103 14.3546 20.1851 14.2615C20.2671 14.1683 20.3132 14.0419 20.3132 13.9102C20.3132 13.7784 20.2671 13.6521 20.1851 13.5589C20.103 13.4657 19.9917 13.4134 19.8757 13.4134H19.0006V12.4198H20.3132C20.4293 12.4198 20.5406 12.3674 20.6226 12.2743C20.7047 12.1811 20.7508 12.0547 20.7508 11.923V10.9021C20.8232 10.9157 20.8963 10.9248 20.9696 10.9294C21.3745 10.9303 21.7697 10.7891 22.1013 10.5252C22.4328 10.2613 22.6845 9.88756 22.8218 9.45508C22.9592 9.02261 22.9755 8.55252 22.8686 8.10911C22.7616 7.66569 22.5367 7.27061 22.2245 6.97789L24.2543 4.67326C24.334 4.57957 24.3781 4.45407 24.3771 4.32382C24.3761 4.19356 24.33 4.06896 24.2489 3.97685C24.1678 3.88474 24.0581 3.83249 23.9433 3.83136C23.8286 3.83023 23.7181 3.8803 23.6356 3.97079L21.394 6.51588C21.2548 6.47897 21.1125 6.45964 20.9696 6.45825C20.5475 6.45867 20.1367 6.61309 19.7978 6.89872C19.4588 7.18436 19.2097 7.5861 19.0872 8.0447C18.9646 8.50329 18.9751 8.99447 19.1171 9.44578C19.259 9.8971 19.525 10.2847 19.8757 10.5513V11.4262H19.0006C18.9992 10.9869 18.8695 10.5606 18.6321 10.2138C18.3946 9.86703 18.0626 9.61938 17.688 9.50956V8.11854L19.6674 5.22818C20.0831 5.46149 20.5581 5.52021 21.0083 5.39394C21.4585 5.26766 21.8548 4.96454 22.1269 4.53827C22.3991 4.11201 22.5296 3.59012 22.4953 3.06506C22.4611 2.54 22.2642 2.04567 21.9396 1.66964C21.6476 1.32614 21.2653 1.09951 20.8501 1.02381C20.8312 1.01834 20.8121 1.01386 20.7928 1.01039C20.7063 0.998131 20.6192 0.992487 20.532 0.993503C20.1627 0.992939 19.8007 1.11048 19.4875 1.33266C19.1743 1.55484 18.9225 1.87269 18.761 2.24979C18.5995 2.6269 18.5348 3.04803 18.5743 3.46495C18.6138 3.88187 18.7559 4.27772 18.9844 4.60719L16.9047 7.6436C16.8451 7.73085 16.8128 7.83818 16.8129 7.94863V9.43902H15.5002V7.40216C15.9948 7.28814 16.4394 6.98349 16.7588 6.53985C17.0781 6.09621 17.2526 5.54084 17.2526 4.96786C17.2526 4.39488 17.0781 3.83952 16.7588 3.39587C16.4394 2.95223 15.9948 2.64759 15.5002 2.53357V0.496708C15.5001 0.431876 15.4887 0.367713 15.4665 0.30794C15.4444 0.248167 15.4121 0.193974 15.3714 0.148501C15.3307 0.103029 15.2824 0.0671826 15.2294 0.0430406C15.1764 0.0188985 15.1198 0.00694123 15.0627 0.0078619C14.946 0.00943259 14.8346 0.0632303 14.7526 0.15756C14.6707 0.25189 14.6249 0.379127 14.6251 0.511612V2.53357C14.1306 2.64759 13.6859 2.95223 13.3666 3.39587C13.0472 3.83952 12.8727 4.39488 12.8727 4.96786C12.8727 5.54084 13.0472 6.09621 13.3666 6.53985C13.6859 6.98349 14.1306 7.28814 14.6251 7.40216V9.43902H13.3125V8.44543C13.3125 8.36304 13.2944 8.28195 13.26 8.20945L11.4135 4.31706C11.5993 4.11058 11.7469 3.86403 11.8476 3.59188C11.9482 3.31973 12 3.02747 11.9998 2.73229C11.9993 2.32966 11.9032 1.93464 11.7216 1.58878C11.54 1.24293 11.2797 0.959037 10.9681 0.766964C10.7176 0.612284 10.4403 0.521583 10.1557 0.5012C9.87112 0.480818 9.58604 0.531245 9.32039 0.648959C9.05474 0.766672 8.81494 0.948832 8.61774 1.18271C8.42054 1.41658 8.2707 1.69653 8.17869 2.00299C5.50964 4.05873 5.35694 7.25312 5.25061 9.59849C5.2505 10.3289 5.17353 11.0568 5.02134 11.7665C4.6026 13.1968 3.00249 15.557 2.33435 16.5054C2.12032 16.8105 1.98641 17.178 1.94798 17.5656C1.90956 17.9532 1.96819 18.3453 2.11713 18.6968C2.26608 19.0483 2.4993 19.345 2.79003 19.5528C3.08076 19.7606 3.41721 19.8712 3.76076 19.8717H4.98152C4.96664 21.0273 5.07341 23.7566 6.30773 25.2699C6.58485 25.6145 6.92395 25.8876 7.30208 26.0705C7.68021 26.2534 8.08853 26.3419 8.49942 26.33C9.48942 26.2895 10.4753 26.1648 11.4489 25.957L10.5594 31.2041C10.5472 31.276 10.5492 31.35 10.5651 31.4209C10.5811 31.4919 10.6106 31.5579 10.6517 31.6144C10.6928 31.6708 10.7443 31.7162 10.8026 31.7474C10.8609 31.7786 10.9246 31.7948 10.9891 31.7948H22.4047C22.4692 31.7948 22.5329 31.7786 22.5912 31.7474C22.6495 31.7162 22.7011 31.6708 22.7421 31.6144C22.7832 31.5579 22.8127 31.4919 22.8287 31.4209C22.8446 31.35 22.8466 31.276 22.8344 31.2041L22.7119 30.4837C22.3373 28.2585 22.3982 25.967 22.8904 23.7715C22.9486 23.777 23.0068 23.7865 23.0654 23.7865C23.5455 23.7861 24.0122 23.6066 24.3934 23.2754C24.7747 22.9442 25.0495 22.4798 25.1754 21.9538C25.3013 21.4278 25.2713 20.8694 25.09 20.3647C24.9088 19.8599 24.5863 19.4369 24.1724 19.1608ZM20.9696 7.45184C21.1012 7.45068 21.2318 7.47852 21.3542 7.53381H21.3568L21.3647 7.53778C21.6015 7.64336 21.7985 7.83936 21.9217 8.09204C22.045 8.34472 22.0869 8.63829 22.0401 8.92222C21.9933 9.20615 21.8608 9.46269 21.6654 9.64768C21.47 9.83268 21.224 9.93457 20.9696 9.93581C20.8073 9.93707 20.6469 9.89576 20.501 9.81509C20.277 9.69397 20.096 9.49003 19.9876 9.23672C19.8791 8.98341 19.8497 8.69579 19.9042 8.42103C19.9587 8.14627 20.0938 7.90069 20.2874 7.72458C20.481 7.54848 20.7215 7.4523 20.9696 7.45184ZM20.532 1.98709C20.5662 1.98709 20.599 1.98709 20.6313 1.99206C20.6483 1.99699 20.6656 2.00064 20.683 2.00299C20.9222 2.03778 21.1437 2.16433 21.3109 2.36168L21.3139 2.36515C21.5143 2.59508 21.6264 2.90564 21.6259 3.22908C21.6259 3.55848 21.5107 3.87438 21.3055 4.1073C21.1004 4.34022 20.8221 4.47107 20.532 4.47107C20.2423 4.46976 19.9647 4.33849 19.7598 4.10585C19.5549 3.87322 19.4393 3.55807 19.4382 3.22908C19.4382 2.89968 19.5534 2.58378 19.7585 2.35086C19.9637 2.11794 20.2419 1.98709 20.532 1.98709ZM13.75 4.96786C13.75 4.67309 13.827 4.38494 13.9712 4.13985C14.1155 3.89476 14.3205 3.70373 14.5603 3.59093C14.8002 3.47812 15.0641 3.44861 15.3187 3.50611C15.5734 3.56362 15.8073 3.70557 15.9908 3.914C16.1744 4.12244 16.2994 4.388 16.3501 4.6771C16.4007 4.96621 16.3747 5.26588 16.2754 5.53821C16.176 5.81054 16.0078 6.04331 15.7919 6.20707C15.5761 6.37084 15.3223 6.45825 15.0627 6.45825C14.7145 6.45825 14.3806 6.30122 14.1345 6.02172C13.8883 5.74222 13.75 5.36314 13.75 4.96786ZM18.1255 11.4262V16.3941C18.1255 16.6577 18.0333 16.9104 17.8692 17.0967C17.7051 17.2831 17.4825 17.3877 17.2504 17.3877H12.8749C12.6428 17.3877 12.4202 17.2831 12.2561 17.0967C12.092 16.9104 11.9998 16.6577 11.9998 16.3941V11.4262C11.9998 11.1627 12.092 10.91 12.2561 10.7236C12.4202 10.5373 12.6428 10.4326 12.8749 10.4326H17.2504C17.4825 10.4326 17.7051 10.5373 17.8692 10.7236C18.0333 10.91 18.1255 11.1627 18.1255 11.4262ZM10.0308 1.4903C10.2109 1.49017 10.3882 1.54142 10.5463 1.63934C10.7147 1.74165 10.8565 1.89233 10.9575 2.07634C11.0586 2.26034 11.1154 2.47122 11.1222 2.68793C11.129 2.90464 11.0856 3.11959 10.9964 3.31131C10.9072 3.50303 10.7752 3.66482 10.6137 3.78052C10.4404 3.90887 10.2377 3.97627 10.0308 3.97427C9.74073 3.97427 9.4625 3.84342 9.25735 3.6105C9.05221 3.37758 8.93697 3.06168 8.93697 2.73229C8.93765 2.63159 8.94971 2.53142 8.97285 2.43421C9.02966 2.1645 9.16509 1.9245 9.35714 1.75316C9.54919 1.58182 9.78659 1.48919 10.0308 1.4903ZM11.5185 30.8012L12.429 25.4303C12.4426 25.3502 12.4386 25.2675 12.4174 25.1896C12.3961 25.1116 12.3583 25.0408 12.3072 24.9834C12.2561 24.926 12.1934 24.8837 12.1245 24.8604C12.0556 24.8371 11.9827 24.8334 11.9123 24.8496C10.7868 25.107 9.64605 25.2697 8.49942 25.3365C8.2094 25.348 7.92066 25.2877 7.65319 25.1599C7.38573 25.0321 7.14595 24.8398 6.95049 24.5962C5.64966 23.0015 5.87062 19.4484 5.87412 19.4127C5.87871 19.3443 5.87079 19.2756 5.85087 19.2109C5.83094 19.1462 5.79944 19.0869 5.75834 19.0367C5.71725 18.9865 5.66744 18.9465 5.61207 18.9192C5.55669 18.8919 5.49694 18.8779 5.43657 18.8781H3.76076C3.58204 18.8778 3.407 18.8204 3.25572 18.7123C3.10444 18.6043 2.98302 18.45 2.90538 18.2672C2.82775 18.0845 2.79703 17.8806 2.81676 17.6789C2.83649 17.4772 2.90586 17.2859 3.01692 17.1269C3.88415 15.8974 5.40551 13.6056 5.85137 12.08C6.03271 11.2863 6.12446 10.4696 6.1244 9.64966C6.21803 7.58647 6.33836 5.0712 8.13275 3.29466C8.19905 3.59308 8.31938 3.87255 8.48608 4.11525C8.65277 4.35795 8.86217 4.55856 9.10092 4.70429C9.33968 4.85003 9.60256 4.93768 9.8728 4.96168C10.143 4.98567 10.4147 4.94548 10.6705 4.84366L12.4374 8.57062V9.50956C12.0628 9.61938 11.7308 9.86703 11.4933 10.2138C11.2558 10.5606 11.1262 10.9869 11.1247 11.4262H9.37452C9.25847 11.4262 9.14718 11.4785 9.06512 11.5717C8.98307 11.6649 8.93697 11.7912 8.93697 11.923C8.93697 12.0547 8.98307 12.1811 9.06512 12.2743C9.14718 12.3674 9.25847 12.4198 9.37452 12.4198H11.1247V13.4134H8.49942C8.38337 13.4134 8.27208 13.4657 8.19002 13.5589C8.10797 13.6521 8.06187 13.7784 8.06187 13.9102C8.06187 14.0419 8.10797 14.1683 8.19002 14.2615C8.27208 14.3546 8.38337 14.407 8.49942 14.407H11.1247V15.4006H9.37452C9.25847 15.4006 9.14718 15.4529 9.06512 15.5461C8.98307 15.6392 8.93697 15.7656 8.93697 15.8974C8.93697 16.0291 8.98307 16.1555 9.06512 16.2486C9.14718 16.3418 9.25847 16.3941 9.37452 16.3941H11.1247C11.1247 16.9212 11.3091 17.4266 11.6373 17.7993C11.9656 18.172 12.4107 18.3813 12.8749 18.3813V19.8717C12.8749 20.0035 12.921 20.1298 13.0031 20.223C13.0851 20.3162 13.1964 20.3685 13.3125 20.3685C13.4285 20.3685 13.5398 20.3162 13.6219 20.223C13.7039 20.1298 13.75 20.0035 13.75 19.8717V18.3813H14.6251V20.8653C14.6251 20.9971 14.6712 21.1234 14.7533 21.2166C14.8353 21.3098 14.9466 21.3621 15.0627 21.3621C15.1787 21.3621 15.29 21.3098 15.3721 21.2166C15.4541 21.1234 15.5002 20.9971 15.5002 20.8653V18.3813H16.3753V19.8717C16.3753 20.0035 16.4214 20.1298 16.5035 20.223C16.5855 20.3162 16.6968 20.3685 16.8129 20.3685C16.9289 20.3685 17.0402 20.3162 17.1222 20.223C17.2043 20.1298 17.2504 20.0035 17.2504 19.8717V18.3813C17.6373 18.3797 18.0128 18.2325 18.3182 17.9629C18.6236 17.6932 18.8417 17.3163 18.9385 16.8909H20.4926L21.6968 19.3699C21.441 19.6014 21.2345 19.8953 21.0927 20.2299C20.9509 20.5645 20.8774 20.9311 20.8777 21.3025C20.8802 21.7541 20.9905 22.1965 21.1969 22.5826C21.4033 22.9687 21.6981 23.2839 22.0499 23.4948C21.5193 25.8414 21.4519 28.292 21.8525 30.6715L21.8744 30.8012H11.5185ZM23.0654 22.7929C22.9386 22.7931 22.8125 22.7715 22.6913 22.7288C22.44 22.6438 22.2168 22.4752 22.0506 22.2449C21.8844 22.0145 21.7828 21.7329 21.7588 21.4363C21.7349 21.1398 21.7898 20.8419 21.9164 20.5811C22.043 20.3203 22.2355 20.1085 22.4691 19.9731C22.6543 19.8679 22.8584 19.8128 23.0654 19.8121C23.2986 19.8114 23.5277 19.8823 23.7283 20.0173C23.9767 20.1828 24.1702 20.4365 24.279 20.7393C24.3878 21.042 24.4059 21.377 24.3306 21.6925C24.2552 22.0081 24.0905 22.2868 23.8619 22.4856C23.6333 22.6845 23.3534 22.7924 23.0654 22.7929Z" fill="#3E57DA"/>
<path d="M15.5003 11.9231C15.5003 11.7913 15.4542 11.665 15.3721 11.5718C15.2901 11.4787 15.1788 11.4263 15.0628 11.4263H13.3126C13.1965 11.4263 13.0852 11.4787 13.0032 11.5718C12.9211 11.665 12.875 11.7913 12.875 11.9231V15.8975C12.875 16.0292 12.9211 16.1556 13.0032 16.2488C13.0852 16.3419 13.1965 16.3943 13.3126 16.3943C13.4286 16.3943 13.5399 16.3419 13.6219 16.2488C13.704 16.1556 13.7501 16.0292 13.7501 15.8975V12.4199H15.0628C15.1788 12.4199 15.2901 12.3676 15.3721 12.2744C15.4542 12.1812 15.5003 12.0549 15.5003 11.9231ZM16.8129 11.4263C16.6969 11.4263 16.5856 11.4787 16.5036 11.5718C16.4215 11.665 16.3754 11.7913 16.3754 11.9231V15.4007H15.0628C14.9467 15.4007 14.8354 15.453 14.7534 15.5462C14.6713 15.6393 14.6252 15.7657 14.6252 15.8975C14.6252 16.0292 14.6713 16.1556 14.7534 16.2488C14.8354 16.3419 14.9467 16.3943 15.0628 16.3943H16.8129C16.929 16.3943 17.0403 16.3419 17.1223 16.2488C17.2044 16.1556 17.2505 16.0292 17.2505 15.8975V11.9231C17.2505 11.7913 17.2044 11.665 17.1223 11.5718C17.0403 11.4787 16.929 11.4263 16.8129 11.4263ZM26.2925 12.0771C26.0311 11.7806 25.7011 11.5741 25.3407 11.4815C24.9804 11.3888 24.6043 11.4138 24.2559 11.5536C23.9075 11.6933 23.601 11.9421 23.3719 12.2713C23.1428 12.6004 23.0003 12.9964 22.961 13.4135H22.0635V13.1095L25.8702 8.36804C25.9429 8.26971 25.9792 8.14325 25.9716 8.01518C25.964 7.88711 25.913 7.76736 25.8293 7.68103C25.7456 7.5947 25.6358 7.54849 25.5228 7.5521C25.4098 7.5557 25.3024 7.60883 25.2231 7.70035L21.3026 12.5838C21.2295 12.6749 21.1888 12.7935 21.1884 12.9167V13.9103C21.1884 14.042 21.2345 14.1684 21.3166 14.2616C21.3987 14.3547 21.5099 14.4071 21.626 14.4071H23.0555C23.1918 14.8415 23.4428 15.2177 23.7742 15.4844C24.1056 15.7511 24.5014 15.8953 24.9076 15.8975C25.1931 15.8979 25.475 15.8265 25.7333 15.6883C26.0742 15.5095 26.363 15.2237 26.5656 14.8647C26.7681 14.5056 26.8761 14.0883 26.8766 13.6619C26.8773 13.3668 26.8259 13.0746 26.7256 12.8025C26.6253 12.5303 26.478 12.2837 26.2925 12.0771ZM25.3627 14.7886C25.2205 14.8653 25.065 14.9047 24.9076 14.9039C24.642 14.9016 24.386 14.7905 24.1867 14.5909C23.9875 14.3914 23.8585 14.1169 23.8234 13.8179C23.8159 13.7663 23.8127 13.7141 23.8137 13.6619C23.8137 13.3325 23.929 13.0166 24.1341 12.7837C24.3393 12.5508 24.6175 12.4199 24.9076 12.4199C25.0501 12.4195 25.1913 12.4512 25.323 12.5132C25.4547 12.5752 25.5742 12.6662 25.6746 12.7811H25.6768C25.78 12.8958 25.8619 13.0329 25.9177 13.1842C25.9735 13.3354 26.002 13.4979 26.0015 13.6619C26.001 13.8994 25.9406 14.1318 25.8274 14.3315C25.7142 14.5312 25.5529 14.6898 25.3627 14.7886ZM17.3787 2.83523C17.4612 2.92573 17.5718 2.9758 17.6865 2.97467C17.8012 2.97354 17.9109 2.92129 17.9921 2.82918C18.0732 2.73707 18.1192 2.61247 18.1202 2.48221C18.1212 2.35195 18.0771 2.22646 17.9974 2.13277L17.2505 1.28474V0.521661C17.2499 0.389903 17.2033 0.263803 17.1208 0.171101C17.0383 0.0784001 16.9268 0.0266912 16.8108 0.02735C16.6947 0.0280088 16.5837 0.0809813 16.502 0.174614C16.4204 0.268247 16.3748 0.394871 16.3754 0.526629V1.49041C16.3754 1.62216 16.4215 1.7485 16.5036 1.84165L17.3787 2.83523ZM13.3126 2.484C13.4286 2.484 13.5399 2.43166 13.6219 2.33849C13.704 2.24533 13.7501 2.11896 13.7501 1.98721V0.64586C13.7495 0.514101 13.7029 0.388001 13.6204 0.2953C13.5379 0.202599 13.4264 0.15089 13.3104 0.151549C13.1943 0.152207 13.0833 0.20518 13.0016 0.298813C12.92 0.392446 12.8744 0.519069 12.875 0.650828V1.98721C12.875 2.11896 12.9211 2.24533 13.0032 2.33849C13.0852 2.43166 13.1965 2.484 13.3126 2.484ZM23.5044 7.80318C23.5864 7.89632 23.6977 7.94864 23.8137 7.94864C23.9298 7.94864 24.041 7.89632 24.1231 7.80318L25.2476 6.52642C25.2894 6.48059 25.3227 6.42577 25.3456 6.36516C25.3686 6.30455 25.3806 6.23936 25.3811 6.1734C25.3817 6.10743 25.3706 6.04202 25.3486 5.98096C25.3266 5.91991 25.2941 5.86444 25.253 5.81779C25.2119 5.77115 25.1631 5.73426 25.1093 5.70928C25.0555 5.6843 24.9979 5.67173 24.9398 5.67231C24.8817 5.67288 24.8243 5.68658 24.7709 5.71262C24.7175 5.73866 24.6693 5.7765 24.6289 5.82395L23.5044 7.10072C23.4224 7.19388 23.3763 7.32022 23.3763 7.45195C23.3763 7.58368 23.4224 7.71002 23.5044 7.80318ZM24.8989 16.8911H23.595L22.4136 15.1026C22.344 14.9972 22.2403 14.9275 22.1254 14.9089C22.0105 14.8902 21.8938 14.9242 21.801 15.0032C21.7082 15.0823 21.6468 15.2 21.6304 15.3304C21.614 15.4608 21.6439 15.5933 21.7135 15.6987L23.0262 17.6859C23.0669 17.7476 23.1198 17.7977 23.1805 17.8322C23.2413 17.8667 23.3083 17.8846 23.3762 17.8846H24.8989C25.0149 17.8846 25.1262 17.8323 25.2083 17.7391C25.2903 17.646 25.3364 17.5196 25.3364 17.3878C25.3364 17.2561 25.2903 17.1297 25.2083 17.0366C25.1262 16.9434 25.0149 16.8911 24.8989 16.8911ZM20.6831 25.1845C20.5711 25.151 20.452 25.1693 20.3518 25.2353C20.2517 25.3013 20.1787 25.4097 20.1488 25.5368C19.8824 26.7573 19.8561 28.0294 20.0718 29.2627C20.095 29.3708 20.1495 29.4669 20.2266 29.5356C20.3036 29.6043 20.3987 29.6417 20.4967 29.6418C20.5317 29.6418 20.5667 29.6371 20.6008 29.6279C20.6567 29.6124 20.7093 29.5847 20.7557 29.5461C20.8021 29.5076 20.8414 29.459 20.8712 29.4032C20.9011 29.3475 20.921 29.2855 20.9298 29.221C20.9386 29.1565 20.9361 29.0907 20.9224 29.0273C20.7426 27.9546 20.7672 26.8506 20.9946 25.7896C21.0237 25.6625 21.0072 25.5275 20.9488 25.4141C20.8905 25.3007 20.7949 25.2182 20.6831 25.1845Z" fill="#3E57DA"/>
</g>
<defs>
<clipPath id="clip0_438_891">
<rect width="28.0032" height="31.7949" fill="white" transform="translate(0.186035)"/>
</clipPath>
</defs>
</svg>
