<svg width="32" height="32" viewBox="0 0 32 32" fill="none" xmlns="http://www.w3.org/2000/svg">
<path d="M15.1421 9.05664C11.2823 9.05664 8.14209 12.1968 8.14209 16.0566C8.14209 19.9165 11.2823 23.0566 15.1421 23.0566C19.0019 23.0566 22.1421 19.9165 22.1421 16.0566C22.1421 12.1968 19.0019 9.05664 15.1421 9.05664ZM15.1421 22.0566C11.8337 22.0566 9.14209 19.3651 9.14209 16.0566C9.14209 12.7482 11.8337 10.0566 15.1421 10.0566C18.4505 10.0566 21.1421 12.7482 21.1421 16.0566C21.1421 19.3651 18.4505 22.0566 15.1421 22.0566ZM27.2281 16.5566C27.4345 17.1386 27.9903 17.5566 28.6421 17.5566C29.4692 17.5566 30.1421 16.8837 30.1421 16.0566C30.1421 15.2296 29.4692 14.5566 28.6421 14.5566C27.9903 14.5566 27.4345 14.9747 27.2281 15.5566H24.128C24.091 14.8793 23.9771 14.2083 23.7885 13.5566H24.6421C24.7349 13.5566 24.826 13.5308 24.9049 13.482C24.9839 13.4332 25.0478 13.3633 25.0893 13.2803L25.9511 11.5566H27.2281C27.4345 12.1386 27.9903 12.5566 28.6421 12.5566C29.4692 12.5566 30.1421 11.8837 30.1421 11.0566C30.1421 10.2296 29.4692 9.55664 28.6421 9.55664C27.9903 9.55664 27.4345 9.9747 27.2281 10.5566H25.6421C25.5492 10.5566 25.4582 10.5825 25.3792 10.6313C25.3003 10.6801 25.2364 10.75 25.1949 10.833L24.3331 12.5566H23.4337C23.0038 11.5423 22.393 10.6226 21.6421 9.83802V6.86564L23.3657 6.00383C23.4488 5.9623 23.5186 5.89847 23.5674 5.81949C23.6162 5.7405 23.6421 5.64949 23.6421 5.55664V3.97064C24.224 3.76427 24.6421 3.20845 24.6421 2.55664C24.6421 1.72958 23.9692 1.05664 23.1421 1.05664C22.315 1.05664 21.6421 1.72958 21.6421 2.55664C21.6421 3.20845 22.0602 3.7642 22.6421 3.97064V5.24764L20.9185 6.10945C20.8354 6.15098 20.7656 6.21481 20.7168 6.29379C20.668 6.37278 20.6421 6.46379 20.6421 6.55664V8.93789C20.0287 8.46241 19.3565 8.0682 18.6421 7.76508V3.97064C19.224 3.76427 19.6421 3.20845 19.6421 2.55664C19.6421 1.72958 18.9692 1.05664 18.1421 1.05664C17.315 1.05664 16.6421 1.72958 16.6421 2.55664C16.6421 3.20845 17.0602 3.7642 17.6421 3.97064V7.41027C16.9904 7.22171 16.3195 7.10781 15.6421 7.07077V1.55664C15.6421 1.42403 15.5894 1.29686 15.4956 1.20309C15.4019 1.10932 15.2747 1.05664 15.1421 1.05664H12.1421C12.0095 1.05664 11.8823 1.10932 11.7885 1.20309C11.6948 1.29686 11.6421 1.42403 11.6421 1.55664V4.57627C10.9617 4.78349 10.3013 5.05114 9.66859 5.37602L7.49559 3.20302C7.40182 3.10928 7.27465 3.05662 7.14206 3.05662C7.00947 3.05662 6.8823 3.10928 6.78853 3.20302L2.28853 7.70302C2.24209 7.74944 2.20525 7.80456 2.18012 7.86523C2.15498 7.92589 2.14205 7.99091 2.14205 8.05658C2.14205 8.12224 2.15498 8.18727 2.18012 8.24793C2.20525 8.3086 2.24209 8.36372 2.28853 8.41014L4.46146 10.5831C4.13664 11.2158 3.86902 11.8763 3.66178 12.5566H1.14209C1.00948 12.5566 0.882305 12.6093 0.788536 12.703C0.694768 12.7968 0.64209 12.924 0.64209 13.0566V19.0566C0.64209 19.1892 0.694768 19.3164 0.788536 19.4101C0.882305 19.5039 1.00948 19.5566 1.14209 19.5566H3.66178C3.86904 20.2369 4.13667 20.8973 4.46146 21.53L2.28853 23.703C2.24209 23.7494 2.20525 23.8046 2.18012 23.8652C2.15498 23.9259 2.14205 23.9909 2.14205 24.0566C2.14205 24.1222 2.15498 24.1873 2.18012 24.2479C2.20525 24.3086 2.24209 24.3637 2.28853 24.4101L6.78853 28.9101C6.8823 29.0039 7.00947 29.0565 7.14206 29.0565C7.27465 29.0565 7.40182 29.0039 7.49559 28.9101L9.66859 26.7371C10.3013 27.062 10.9617 27.3296 11.6421 27.5369V30.5566C11.6421 30.6892 11.6948 30.8164 11.7885 30.9102C11.8823 31.004 12.0095 31.0566 12.1421 31.0566H15.1421C15.2747 31.0566 15.4019 31.004 15.4956 30.9102C15.5894 30.8164 15.6421 30.6892 15.6421 30.5566V25.0425C16.3195 25.0055 16.9904 24.8916 17.6421 24.703V28.1426C17.0602 28.3491 16.6421 28.9048 16.6421 29.5566C16.6421 30.3837 17.315 31.0566 18.1421 31.0566C18.9692 31.0566 19.6421 30.3837 19.6421 29.5566C19.6421 28.9048 19.224 28.3491 18.6421 28.1426V24.3482C19.3565 24.0451 20.0287 23.6509 20.6421 23.1754V25.5566C20.6421 25.6495 20.668 25.7405 20.7168 25.8195C20.7656 25.8985 20.8354 25.9623 20.9185 26.0038L22.6421 26.8656V28.1426C22.0602 28.3491 21.6421 28.9048 21.6421 29.5566C21.6421 30.3837 22.315 31.0566 23.1421 31.0566C23.9692 31.0566 24.6421 30.3837 24.6421 29.5566C24.6421 28.9048 24.224 28.3491 23.6421 28.1426V26.5566C23.6421 26.4638 23.6162 26.3728 23.5674 26.2938C23.5186 26.2148 23.4488 26.151 23.3657 26.1095L21.6421 25.2476V22.2753C22.393 21.4907 23.0038 20.571 23.4337 19.5566H24.3331L25.1949 21.2803C25.2364 21.3633 25.3003 21.4332 25.3792 21.482C25.4582 21.5308 25.5492 21.5566 25.6421 21.5566H27.2281C27.4345 22.1386 27.9903 22.5566 28.6421 22.5566C29.4692 22.5566 30.1421 21.8837 30.1421 21.0566C30.1421 20.2296 29.4692 19.5566 28.6421 19.5566C27.9903 19.5566 27.4345 19.9747 27.2281 20.5566H25.9511L25.0893 18.833C25.0478 18.75 24.9839 18.6801 24.9049 18.6313C24.826 18.5825 24.7349 18.5566 24.6421 18.5566H23.7885C23.977 17.905 24.0909 17.234 24.128 16.5566H27.2281ZM28.6421 10.5566C28.9178 10.5566 29.1421 10.781 29.1421 11.0566C29.1421 11.3323 28.9178 11.5566 28.6421 11.5566C28.3664 11.5566 28.1421 11.3323 28.1421 11.0566C28.1421 10.781 28.3664 10.5566 28.6421 10.5566ZM23.1421 2.05664C23.4178 2.05664 23.6421 2.28095 23.6421 2.55664C23.6421 2.83233 23.4178 3.05664 23.1421 3.05664C22.8664 3.05664 22.6421 2.83233 22.6421 2.55664C22.6421 2.28095 22.8664 2.05664 23.1421 2.05664ZM18.1421 2.05664C18.4178 2.05664 18.6421 2.28095 18.6421 2.55664C18.6421 2.83233 18.4178 3.05664 18.1421 3.05664C17.8664 3.05664 17.6421 2.83233 17.6421 2.55664C17.6421 2.28095 17.8664 2.05664 18.1421 2.05664ZM18.1421 30.0566C17.8664 30.0566 17.6421 29.8323 17.6421 29.5566C17.6421 29.281 17.8664 29.0566 18.1421 29.0566C18.4178 29.0566 18.6421 29.281 18.6421 29.5566C18.6421 29.8323 18.4178 30.0566 18.1421 30.0566ZM23.1421 30.0566C22.8664 30.0566 22.6421 29.8323 22.6421 29.5566C22.6421 29.281 22.8664 29.0566 23.1421 29.0566C23.4178 29.0566 23.6421 29.281 23.6421 29.5566C23.6421 29.8323 23.4178 30.0566 23.1421 30.0566ZM28.6421 20.5566C28.9178 20.5566 29.1421 20.781 29.1421 21.0566C29.1421 21.3323 28.9178 21.5566 28.6421 21.5566C28.3664 21.5566 28.1421 21.3323 28.1421 21.0566C28.1421 20.781 28.3664 20.5566 28.6421 20.5566ZM28.6421 15.5566C28.9178 15.5566 29.1421 15.781 29.1421 16.0566C29.1421 16.3323 28.9178 16.5566 28.6421 16.5566C28.3664 16.5566 28.1421 16.3323 28.1421 16.0566C28.1421 15.781 28.3664 15.5566 28.6421 15.5566ZM7.14209 16.0566C7.14209 11.6455 10.7308 8.05664 15.1421 8.05664C19.5533 8.05664 23.1421 11.6455 23.1421 16.0566C23.1421 20.4678 19.5533 24.0566 15.1421 24.0566C10.7308 24.0566 7.14209 20.4678 7.14209 16.0566ZM12.6421 30.0566V27.1604C12.6421 27.0505 12.6059 26.9436 12.539 26.8563C12.4722 26.7691 12.3784 26.7063 12.2723 26.6776C11.4175 26.4471 10.5939 26.1136 9.81959 25.6843C9.72464 25.6316 9.6151 25.6113 9.50755 25.6264C9.4 25.6415 9.30029 25.6912 9.22353 25.768L7.14209 27.8495L3.34915 24.0566L5.43059 21.9752C5.50738 21.8984 5.55707 21.7987 5.57217 21.6912C5.58727 21.5836 5.56695 21.4741 5.51428 21.3791C5.08509 20.6048 4.75157 19.7812 4.52103 18.9265C4.49242 18.8203 4.42963 18.7266 4.34237 18.6597C4.25512 18.5929 4.14826 18.5566 4.03834 18.5566H1.64209V13.5566H4.03834C4.14827 13.5566 4.25513 13.5204 4.3424 13.4536C4.42966 13.3867 4.49247 13.293 4.52109 13.1868C4.75163 12.3321 5.08516 11.5085 5.51434 10.7341C5.56701 10.6392 5.58733 10.5296 5.57224 10.4221C5.55714 10.3146 5.50744 10.2149 5.43065 10.1381L3.34915 8.05664L7.14209 4.2637L9.22353 6.3452C9.30035 6.42193 9.40005 6.47158 9.50757 6.48668C9.61509 6.50177 9.72461 6.48149 9.81959 6.42889C10.5939 5.99971 11.4175 5.66617 12.2723 5.43558C12.3784 5.40697 12.4722 5.34416 12.539 5.2569C12.6059 5.16963 12.6421 5.06276 12.6421 4.95283V2.05664H14.6421V7.07077C9.91115 7.33114 6.14209 11.2618 6.14209 16.0566C6.14209 20.8515 9.91115 24.7821 14.6421 25.0425V30.0566H12.6421ZM17.6421 13.5566V18.5566C17.6421 18.6892 17.5894 18.8164 17.4956 18.9102C17.4019 19.004 17.2747 19.0566 17.1421 19.0566C17.0095 19.0566 16.8823 19.004 16.7885 18.9102C16.6948 18.8164 16.6421 18.6892 16.6421 18.5566V13.5566C16.6421 13.424 16.6948 13.2969 16.7885 13.2031C16.8823 13.1093 17.0095 13.0566 17.1421 13.0566C17.2747 13.0566 17.4019 13.1093 17.4956 13.2031C17.5894 13.2969 17.6421 13.424 17.6421 13.5566ZM14.121 13.413C14.0901 13.3099 14.0269 13.2196 13.9406 13.1554C13.8543 13.0912 13.7496 13.0565 13.6421 13.0565C13.5345 13.0565 13.4299 13.0912 13.3436 13.1554C13.2573 13.2196 13.194 13.3099 13.1632 13.413L11.6632 18.413C11.6255 18.5398 11.6398 18.6764 11.7027 18.7928C11.7656 18.9092 11.8721 18.9959 11.9988 19.034C12.1256 19.072 12.2622 19.0582 12.3788 18.9957C12.4955 18.9332 12.5825 18.8269 12.621 18.7003L12.9641 17.5566H14.3201L14.6632 18.7003C14.7014 18.8273 14.7884 18.934 14.9051 18.9968C15.0219 19.0597 15.1588 19.0736 15.2858 19.0356C15.3487 19.0167 15.4073 18.9856 15.4582 18.9441C15.5091 18.9026 15.5513 18.8515 15.5824 18.7937C15.6136 18.7359 15.633 18.6725 15.6396 18.6072C15.6463 18.5418 15.64 18.4758 15.6211 18.413L14.121 13.413ZM13.2641 16.5566L13.6421 15.2967L14.0201 16.5566H13.2641Z" fill="#3E57DA"/>
</svg>
