<svg width="34" height="34" viewBox="0 0 34 34" fill="none" xmlns="http://www.w3.org/2000/svg">
<path d="M7.08619 21.2358H0.708361C0.317361 21.2358 2.77078e-05 20.9199 2.77078e-05 20.5275C2.77078e-05 20.1351 0.317361 19.8192 0.708361 19.8192H7.08619C7.34686 19.8192 7.58486 19.6775 7.70811 19.4494L9.44069 16.2648C9.67728 15.8313 10.1363 15.5904 10.6208 15.6244C11.1124 15.6627 11.5204 15.9743 11.6861 16.4376L14.2503 23.7533L15.4459 21.0758C15.7874 20.3122 16.5495 19.8178 17.3868 19.8178H20.5417C20.9327 19.8178 21.25 20.1337 21.25 20.5261C21.25 20.9185 20.9327 21.2344 20.5417 21.2344H17.3868C17.1077 21.2344 16.8541 21.3988 16.7394 21.6538L15.3524 24.7591C15.1442 25.2068 14.6455 25.4816 14.1667 25.4816C13.6652 25.4575 13.2374 25.1359 13.0688 24.6628L10.4904 17.3032L8.95619 20.1252C8.58361 20.8094 7.86819 21.2344 7.08903 21.2344L7.08619 21.2358ZM0.779194 17.0496C1.20136 17.0524 1.53853 16.6728 1.48328 16.2548C1.25661 14.4302 1.62636 12.7826 2.58403 11.356C3.39861 10.1448 4.62119 9.24233 6.02511 8.81592C8.17986 8.15858 10.4097 8.52267 12.1494 9.81183C13.8819 11.0953 14.8764 13.0659 14.8764 15.2178C14.8764 15.6088 15.1938 15.9262 15.5848 15.9262C15.9758 15.9262 16.2931 15.6103 16.2931 15.2178C16.2931 12.6508 15.0592 10.2043 12.9923 8.67425C10.8899 7.11733 8.19828 6.67675 5.61286 7.46158C3.89728 7.98292 2.40269 9.0865 1.40819 10.5669C0.253611 12.2839 -0.194056 14.2559 0.0765277 16.4291C0.120444 16.7875 0.426444 17.0496 0.779194 17.0496ZM27.9367 19.9311C27.591 19.7611 27.1618 19.9042 26.9889 20.2555C24.8469 24.6245 20.6678 28.8249 17.5384 31.5789C16.0211 32.9134 13.7417 32.9219 12.2329 31.5959C10.37 29.9583 7.68544 27.4026 5.47261 24.5211C5.23603 24.2123 4.79119 24.1528 4.47953 24.3908C4.16786 24.6287 4.10978 25.0736 4.34919 25.3824C6.63144 28.3546 9.38686 30.9797 11.2979 32.6584C12.3151 33.5523 13.5915 33.9986 14.8694 33.9986C16.1571 33.9986 17.4449 33.5453 18.4748 32.6414C21.7005 29.8024 26.0185 25.4561 28.2625 20.8774C28.4339 20.5261 28.2894 20.1025 27.9381 19.9311H27.9367ZM28.3334 8.49433C28.3334 10.0555 27.0626 11.3263 25.5 11.3263C23.9374 11.3263 22.6667 10.0569 22.6667 8.49433C22.6667 6.93175 23.9374 5.66242 25.5 5.66242C27.0626 5.66242 28.3334 6.93175 28.3334 8.49433ZM26.9167 8.49433C26.9167 7.71375 26.282 7.07908 25.5 7.07908C24.718 7.07908 24.0834 7.71375 24.0834 8.49433C24.0834 9.27492 24.718 9.90958 25.5 9.90958C26.282 9.90958 26.9167 9.27492 26.9167 8.49433ZM25.5 0C20.8123 0 17 3.81083 17 8.49433C17 11.3758 18.445 14.0378 20.8633 15.6145C21.1934 15.827 21.6311 15.7349 21.8436 15.4077C22.0561 15.0804 21.9654 14.6413 21.6368 14.4288C19.6194 13.1141 18.4167 10.897 18.4167 8.49433C18.4167 4.59142 21.5943 1.41525 25.5 1.41525C29.4058 1.41525 32.5834 4.59142 32.5834 8.49433C32.5834 10.8956 31.3792 13.1141 29.3633 14.4288C29.036 14.6427 28.9439 15.0818 29.1564 15.4077C29.2924 15.6159 29.5191 15.7293 29.75 15.7293C29.8832 15.7293 30.0164 15.6924 30.1368 15.6145C32.555 14.0378 34 11.3758 34 8.49433C34 3.81083 30.1878 0 25.5 0ZM26.2084 17.6956V13.4484C26.2084 13.0574 25.891 12.7401 25.5 12.7401C25.109 12.7401 24.7917 13.056 24.7917 13.4484V17.6956C24.7917 18.0866 25.109 18.4039 25.5 18.4039C25.891 18.4039 26.2084 18.088 26.2084 17.6956Z" fill="#064EE3"/>
</svg>
