<svg width="116" height="126" viewBox="0 0 116 126" fill="none" xmlns="http://www.w3.org/2000/svg">
<path d="M44.5087 24.3132L48.5113 34.2884C50.7076 39.7569 54.2211 44.7233 58.8014 48.8337C63.3817 52.944 68.9159 56.097 75.0097 58.0679L86.1255 61.6599C86.3449 61.7321 86.5344 61.8631 86.6683 62.0351C86.8022 62.2071 86.8739 62.4118 86.8739 62.6216C86.8739 62.8314 86.8022 63.0361 86.6683 63.2081C86.5344 63.3801 86.3449 63.5111 86.1255 63.5833L75.0097 67.1753C68.9159 69.1462 63.3817 72.2992 58.8014 76.4096C54.2211 80.5199 50.7076 85.4863 48.5113 90.9548L44.5087 100.93C44.4282 101.127 44.2822 101.297 44.0906 101.417C43.8989 101.537 43.6708 101.602 43.437 101.602C43.2032 101.602 42.975 101.537 42.7834 101.417C42.5917 101.297 42.4458 101.127 42.3653 100.93L38.3626 90.9548C36.1663 85.4863 32.6528 80.5199 28.0725 76.4096C23.4923 72.2992 17.958 69.1462 11.8642 67.1753L0.748486 63.5833C0.528994 63.5111 0.339509 63.3801 0.205646 63.2081C0.0717838 63.0361 0 62.8314 0 62.6216C0 62.4118 0.0717838 62.2071 0.205646 62.0351C0.339509 61.8631 0.528994 61.7321 0.748486 61.6599L11.8642 58.0679C17.958 56.097 23.4923 52.944 28.0725 48.8337C32.6528 44.7233 36.1663 39.7569 38.3626 34.2884L42.3653 24.3132C42.4435 24.1142 42.5886 23.9419 42.7806 23.8201C42.9725 23.6982 43.2019 23.6328 43.437 23.6328C43.6721 23.6328 43.9014 23.6982 44.0934 23.8201C44.2853 23.9419 44.4304 24.1142 44.5087 24.3132ZM94.5445 0.341366L96.5733 5.3916C97.6864 8.16038 99.4659 10.6749 101.785 12.7563C104.105 14.8376 106.907 16.4345 109.992 17.4334L115.62 19.254C115.731 19.2904 115.827 19.3568 115.895 19.444C115.963 19.5312 116 19.6351 116 19.7416C116 19.8481 115.963 19.952 115.895 20.0392C115.827 20.1264 115.731 20.1927 115.62 20.2292L109.992 22.0498C106.907 23.0487 104.105 24.6456 101.785 26.7269C99.4659 28.8083 97.6864 31.3228 96.5733 34.0916L94.5445 39.1418C94.5039 39.2419 94.43 39.3283 94.3328 39.3894C94.2356 39.4504 94.1198 39.4832 94.0012 39.4832C93.8825 39.4832 93.7668 39.4504 93.6696 39.3894C93.5724 39.3283 93.4985 39.2419 93.4579 39.1418L91.4291 34.0916C90.316 31.3228 88.5365 28.8083 86.2172 26.7269C83.8979 24.6456 81.0958 23.0487 78.0105 22.0498L72.3828 20.2292C72.2713 20.1927 72.175 20.1264 72.107 20.0392C72.0389 19.952 72.0024 19.8481 72.0024 19.7416C72.0024 19.6351 72.0389 19.5312 72.107 19.444C72.175 19.3568 72.2713 19.2904 72.3828 19.254L78.0105 17.4334C81.0958 16.4345 83.8979 14.8376 86.2172 12.7563C88.5365 10.6749 90.316 8.16038 91.4291 5.3916L93.4579 0.341366C93.4985 0.241314 93.5724 0.154892 93.6696 0.0938246C93.7668 0.0327568 93.8825 0 94.0012 0C94.1198 0 94.2356 0.0327568 94.3328 0.0938246C94.43 0.154892 94.5039 0.241314 94.5445 0.341366ZM94.5445 86.1059L96.5733 91.1561C97.6864 93.9249 99.4659 96.4394 101.785 98.5207C104.105 100.602 106.907 102.199 109.992 103.198L115.62 105.019C115.731 105.055 115.827 105.121 115.895 105.208C115.963 105.296 116 105.4 116 105.506C116 105.613 115.963 105.716 115.895 105.804C115.827 105.891 115.731 105.957 115.62 105.994L109.992 107.814C106.907 108.813 104.105 110.41 101.785 112.491C99.4659 114.573 97.6864 117.087 96.5733 119.856L94.5445 124.906C94.5039 125.006 94.43 125.093 94.3328 125.154C94.2356 125.215 94.1198 125.248 94.0012 125.248C93.8825 125.248 93.7668 125.215 93.6696 125.154C93.5724 125.093 93.4985 125.006 93.4579 124.906L91.4291 119.856C90.316 117.087 88.5365 114.573 86.2172 112.491C83.8979 110.41 81.0958 108.813 78.0105 107.814L72.3828 105.994C72.2713 105.957 72.175 105.891 72.107 105.804C72.0389 105.716 72.0024 105.613 72.0024 105.506C72.0024 105.4 72.0389 105.296 72.107 105.208C72.175 105.121 72.2713 105.055 72.3828 105.019L78.0105 103.198C81.0958 102.199 83.8979 100.602 86.2172 98.5207C88.5365 96.4394 90.316 93.9249 91.4291 91.1561L93.4579 86.1059C93.6423 85.6496 94.3651 85.6496 94.5445 86.1059Z" fill="#008258"/>
</svg>
