<svg width="138" height="24" viewBox="0 0 138 24" fill="none" xmlns="http://www.w3.org/2000/svg">
<path d="M77.2918 4.90653C78.1067 4.90653 78.7651 5.04348 79.2666 5.31696C79.7681 5.58481 80.1589 5.8983 80.4381 6.25732C80.7231 6.61637 80.9425 6.93294 81.0964 7.2065H81.2845V5.07795H83.7891V18.4997C83.7891 19.6279 83.5268 20.5539 83.0026 21.2776C82.4783 22.0014 81.7688 22.5374 80.874 22.8851C79.985 23.2327 78.9819 23.4062 77.8649 23.4062C76.822 23.4062 75.9244 23.2693 75.1721 22.9958C74.4255 22.7222 73.8153 22.3607 73.3423 21.9104C72.8693 21.4602 72.5161 20.967 72.2824 20.4313L74.4796 19.5252C74.6334 19.776 74.8383 20.0414 75.0947 20.3206C75.3568 20.6054 75.7103 20.8471 76.1546 21.0465C76.6048 21.2459 77.1837 21.3462 77.8903 21.3462C78.8589 21.3462 79.6596 21.1098 80.2922 20.637C80.9248 20.1697 81.2414 19.4226 81.2414 18.3968V15.8147H81.0787C80.9249 16.094 80.7033 16.4053 80.4127 16.7472C80.1277 17.0892 79.7338 17.3849 79.2323 17.6357C78.7309 17.8864 78.0786 18.0118 77.2752 18.0118C76.2379 18.0118 75.3028 17.7694 74.4707 17.285C73.6445 16.7949 72.9892 16.0738 72.5048 15.1222C72.0262 14.1648 71.7868 12.9881 71.7868 11.5919C71.7868 10.1958 72.0231 8.99915 72.496 8.00189C72.9746 7.0047 73.63 6.24075 74.4619 5.71074C75.294 5.17504 76.2375 4.90655 77.2918 4.90653ZM20.3539 4.90653C21.5849 4.90653 22.66 5.18864 23.5776 5.75286C24.4951 6.31707 25.2068 7.1101 25.714 8.13021C26.2212 9.15032 26.4751 10.3416 26.4751 11.7036C26.475 13.0598 26.2212 14.245 25.714 15.2593C25.2068 16.2737 24.4951 17.0637 23.5776 17.6279C22.66 18.1921 21.5849 18.4742 20.3539 18.4742C19.1231 18.4741 18.0487 18.192 17.1312 17.6279C16.2137 17.0636 15.5011 16.2738 14.9939 15.2593C14.4868 14.245 14.2338 13.0597 14.2337 11.7036C14.2337 10.3417 14.4868 9.15024 14.9939 8.13021C15.5011 7.11007 16.2137 6.31707 17.1312 5.75286C18.0487 5.18871 19.1231 4.9066 20.3539 4.90653ZM91.9742 4.90653C92.7151 4.90653 93.4339 5.02978 94.1292 5.27484C94.8243 5.51991 95.4484 5.90452 96.0011 6.42874C96.5539 6.95305 96.9897 7.63435 97.3088 8.47207C97.6279 9.3041 97.7878 10.3157 97.7878 11.5067V12.4128H88.4567C88.4764 13.213 88.6276 13.8997 88.9141 14.4728C89.2275 15.0881 89.6634 15.5584 90.2218 15.8833C90.7803 16.2024 91.4333 16.3623 92.1799 16.3623C92.6643 16.3623 93.1063 16.2934 93.5052 16.1566C93.904 16.0141 94.2491 15.8039 94.5396 15.5248C94.8302 15.2456 95.0519 14.9005 95.2057 14.4904L97.6252 14.9263C97.4314 15.6386 97.0834 16.2625 96.582 16.7982C96.0862 17.3281 95.4622 17.741 94.7101 18.0373C93.9636 18.3279 93.1118 18.4742 92.1544 18.4742C90.8607 18.4742 89.7459 18.1973 88.8113 17.6445C87.8824 17.086 87.1644 16.3023 86.6572 15.2936C86.1558 14.2792 85.905 13.091 85.905 11.729C85.905 10.384 86.1557 9.19818 86.6572 8.17233C87.1644 7.14668 87.871 6.34606 88.777 5.77049C89.6887 5.19494 90.7548 4.90659 91.9742 4.90653ZM132.579 4.90653C133.576 4.90653 134.466 5.09252 135.247 5.46291C136.027 5.82766 136.657 6.34067 137.136 7.00177C137.62 7.66282 137.909 8.43513 138 9.31839H135.512C135.375 8.70289 135.062 8.17215 134.572 7.72762C134.087 7.28316 133.437 7.06153 132.622 7.06153C131.91 7.06154 131.286 7.24962 130.75 7.62574C130.22 7.99619 129.807 8.52597 129.51 9.21554C129.214 9.89929 129.067 10.7085 129.067 11.6429C129.067 12.6002 129.212 13.4268 129.502 14.1221C129.793 14.8173 130.203 15.3565 130.733 15.7383C131.268 16.1201 131.899 16.3113 132.622 16.3114C133.107 16.3114 133.546 16.2225 133.939 16.0459C134.338 15.8636 134.671 15.6043 134.939 15.2681C135.212 14.932 135.404 14.5273 135.512 14.0545H138C137.909 14.9035 137.632 15.6613 137.17 16.328C136.709 16.9948 136.09 17.5193 135.315 17.9012C134.546 18.2829 133.643 18.4741 132.606 18.4742C131.335 18.4742 130.24 18.1858 129.322 17.6102C128.411 17.0289 127.709 16.2284 127.219 15.2084C126.729 14.1884 126.485 13.0199 126.484 11.7036C126.484 10.37 126.735 9.19248 127.237 8.17233C127.738 7.14667 128.445 6.34606 129.357 5.77049C130.268 5.19495 131.343 4.9066 132.579 4.90653ZM117.003 5.07795H119.696V7.12912H117.003V14.3532C117.003 14.849 117.078 15.2221 117.226 15.4729C117.374 15.7179 117.565 15.8861 117.799 15.9773C118.038 16.0628 118.297 16.1056 118.577 16.1056C118.782 16.1056 118.962 16.091 119.115 16.0625C119.269 16.0341 119.389 16.012 119.474 15.995L119.935 18.1059C119.787 18.1628 119.577 18.2204 119.303 18.2773C119.03 18.34 118.687 18.3744 118.277 18.3801C117.605 18.3915 116.977 18.2714 116.396 18.0207C115.815 17.7699 115.345 17.3822 114.986 16.8579C114.627 16.3337 114.448 15.6752 114.448 14.8832V7.12912H112.524V5.07795H114.448V1.93166H117.003V5.07795ZM6.41111 0.701353C7.65353 0.701353 8.68267 0.906166 9.49765 1.31651C10.3123 1.72107 10.9219 2.271 11.3265 2.96606C11.7311 3.65566 11.9338 4.43404 11.9338 5.30031C11.9338 6.0297 11.8 6.64527 11.5322 7.14675C11.2643 7.64257 10.9049 8.04169 10.4547 8.34375C10.0102 8.64004 9.52002 8.85642 8.98437 8.99319V9.16461C9.56568 9.19311 10.133 9.38118 10.6858 9.72882C11.2442 10.0708 11.7062 10.5578 12.0709 11.1903C12.4355 11.8228 12.6175 12.5922 12.6175 13.4981C12.6175 14.3928 12.4064 15.1964 11.9847 15.9088C11.5687 16.6155 10.925 17.1775 10.0531 17.5936C9.18119 18.0038 8.06702 18.2087 6.71085 18.2087H0V0.701353H6.41111ZM35.1117 4.8987C35.3337 4.91008 35.5075 4.92375 35.6328 4.94082V7.38576C35.5302 7.3573 35.348 7.32586 35.0863 7.29172C34.8241 7.25183 34.5618 7.23197 34.2997 7.23197C33.6957 7.23197 33.1574 7.36058 32.6844 7.61693C32.2172 7.86764 31.8462 8.21787 31.5726 8.66798C31.2991 9.11251 31.1622 9.62027 31.1622 10.1902V18.2087H28.6066V5.07795H31.077V7.1634H31.2131C31.4525 6.45689 31.8748 5.90179 32.4787 5.4972C33.0885 5.08687 33.7782 4.88108 34.5475 4.88106C34.7071 4.88106 34.8952 4.8873 35.1117 4.8987ZM43.6112 4.90653C44.5058 4.90653 45.2897 5.09476 45.9621 5.47075C46.6345 5.84111 47.156 6.39419 47.5265 7.12912C47.8968 7.86421 48.0828 8.77352 48.0828 9.85616V18.2087H45.5262V10.1647C45.5262 9.21302 45.2785 8.46903 44.7828 7.93332C44.2869 7.3919 43.6057 7.12128 42.7394 7.12128C42.147 7.1213 41.6199 7.249 41.1584 7.50526C40.7026 7.76168 40.34 8.13799 40.0721 8.63369C39.81 9.12382 39.6793 9.71725 39.6793 10.4125V18.2087H37.1227V5.07795H39.5765V7.21531H39.7391C40.0411 6.52002 40.5144 5.96105 41.1584 5.53932C41.808 5.11778 42.6256 4.90658 43.6112 4.90653ZM70.9699 18.2087H68.1664L66.5658 13.5755H59.7247L58.1212 18.2087H55.3177L61.6182 0.701353H64.6694L70.9699 18.2087ZM106.39 4.90653C107.285 4.90654 108.069 5.09465 108.741 5.47075C109.413 5.84113 109.935 6.39411 110.305 7.12912C110.676 7.86421 110.861 8.77352 110.861 9.85616V18.2087H108.305V10.1647C108.305 9.21314 108.057 8.46902 107.562 7.93332C107.066 7.39195 106.385 7.12133 105.518 7.12128C104.926 7.12128 104.398 7.24881 103.936 7.50526C103.481 7.76165 103.119 8.13807 102.851 8.63369C102.589 9.12382 102.457 9.71725 102.457 10.4125V18.2087H99.9016V5.07795H102.355V7.21531H102.517C102.819 6.52004 103.292 5.96105 103.936 5.53932C104.586 5.11758 105.404 4.90653 106.39 4.90653ZM124.358 18.2087H121.801V5.07795H124.358V18.2087ZM20.3627 7.04389C19.5592 7.04393 18.8925 7.25809 18.3625 7.6855C17.8383 8.11286 17.4474 8.67947 17.191 9.38598C16.9402 10.087 16.8148 10.857 16.8148 11.6948C16.8149 12.5382 16.9402 13.3104 17.191 14.0114C17.4474 14.7123 17.8382 15.2735 18.3625 15.6952C18.8925 16.1169 19.5592 16.328 20.3627 16.328C21.1606 16.328 21.822 16.117 22.3463 15.6952C22.8706 15.2735 23.2583 14.7123 23.509 14.0114C23.7655 13.3104 23.894 12.5382 23.894 11.6948C23.894 10.857 23.7655 10.087 23.509 9.38598C23.2583 8.67953 22.8705 8.11285 22.3463 7.6855C21.822 7.25806 21.1606 7.04389 20.3627 7.04389ZM2.64085 15.943H6.45421C7.71918 15.943 8.62535 15.6984 9.17244 15.2084C9.71956 14.7183 9.9933 14.105 9.9933 13.3698C9.99324 12.8171 9.85325 12.3101 9.57405 11.8486C9.2948 11.3869 8.89567 11.0191 8.37705 10.7456C7.86426 10.4722 7.25468 10.3352 6.54825 10.3352H2.64085V15.943ZM77.8394 7.07818C77.07 7.07818 76.4285 7.27774 75.9156 7.67668C75.4027 8.06992 75.015 8.60592 74.7529 9.28411C74.4965 9.96219 74.3679 10.72 74.3679 11.5576C74.3679 12.4182 74.4995 13.1736 74.7617 13.8233C75.0238 14.4729 75.4115 14.9798 75.9244 15.3445C76.443 15.7093 77.0814 15.8921 77.8394 15.8921C78.5744 15.8921 79.1953 15.7207 79.7025 15.3788C80.2153 15.0312 80.603 14.5358 80.8652 13.8919C81.1331 13.2422 81.2668 12.4638 81.2668 11.5576C81.2668 10.6745 81.1361 9.89673 80.874 9.22436C80.6119 8.55198 80.2272 8.02734 79.7201 7.65121C79.213 7.26942 78.5859 7.07823 77.8394 7.07818ZM60.4936 11.3529H65.7979L63.2168 3.88095H63.0796L60.4936 11.3529ZM91.9918 7.01843C91.2738 7.01843 90.6468 7.19507 90.1111 7.54836C89.5812 7.89595 89.1705 8.35172 88.8798 8.9158C88.6299 9.40569 88.4903 9.93333 88.4596 10.4978H95.2831C95.2831 9.82527 95.1462 9.2297 94.8727 8.71108C94.5992 8.18688 94.2144 7.77399 93.7188 7.47196C93.2287 7.16992 92.6529 7.01845 91.9918 7.01843ZM2.64085 8.27518H6.17994C6.77247 8.27518 7.30563 8.16115 7.77855 7.93332C8.25728 7.70535 8.63654 7.38567 8.9158 6.97533C9.20069 6.55932 9.34386 6.06918 9.34386 5.50503C9.3438 4.78136 9.08992 4.17413 8.58276 3.68406C8.07553 3.19399 7.29709 2.9494 6.24851 2.9494H2.64085V8.27518ZM123.092 0C123.537 0 123.916 0.150614 124.23 0.452549C124.549 0.748885 124.709 1.10835 124.709 1.53005C124.709 1.94609 124.549 2.30549 124.23 2.60754C123.916 2.90384 123.537 3.05226 123.092 3.05226C122.648 3.05221 122.266 2.90369 121.947 2.60754C121.634 2.30549 121.477 1.94609 121.477 1.53005C121.477 1.10835 121.634 0.748885 121.947 0.452549C122.266 0.150761 122.648 4.50455e-05 123.092 0Z" fill="#040404"/>
</svg>
