<svg width="32" height="33" viewBox="0 0 32 33" fill="none" xmlns="http://www.w3.org/2000/svg">
<path d="M32 11.696C31.9991 11.5311 31.9584 11.3689 31.8813 11.2231C31.8042 11.0773 31.6931 10.9523 31.5573 10.8587C31.4102 10.7594 31.2416 10.6965 31.0655 10.6752C30.8893 10.6539 30.7105 10.6747 30.544 10.736L25.0667 12.8V9.73867L25.232 9.85067C25.4959 10.0359 25.8109 10.1347 26.1333 10.1333C26.4745 10.133 26.8066 10.0237 27.0812 9.82128C27.3558 9.61886 27.5586 9.33397 27.6598 9.00819C27.7611 8.68241 27.7555 8.33279 27.644 8.01037C27.5325 7.68796 27.3209 7.40962 27.04 7.216L16.9067 0.282667C16.64 0.0988541 16.3239 0.000288898 16 0C15.6761 0.000288898 15.36 0.0988541 15.0933 0.282667L4.96 7.216C4.78551 7.33434 4.63612 7.486 4.52043 7.66226C4.40474 7.83852 4.32503 8.03591 4.28587 8.24308C4.24672 8.45024 4.2489 8.66311 4.29228 8.86943C4.33566 9.07576 4.4194 9.27148 4.53867 9.44533C4.68724 9.65951 4.88588 9.83415 5.11733 9.95405C5.34878 10.074 5.60601 10.1355 5.86667 10.1333C6.18815 10.1335 6.50224 10.0369 6.768 9.856L6.93333 9.73867V12.9387L1.46667 10.7467C1.30492 10.6812 1.12959 10.6565 0.956044 10.6746C0.782502 10.6927 0.616048 10.7531 0.471276 10.8505C0.326504 10.9478 0.207833 11.0793 0.125669 11.2332C0.0435036 11.3871 0.00035315 11.5589 0 11.7333L0 26.1333C0 26.4162 0.112381 26.6875 0.312419 26.8876C0.512458 27.0876 0.783769 27.2 1.06667 27.2H1.46667C1.75921 27.1982 2.04565 27.1161 2.29483 26.9629C2.54402 26.8096 2.74641 26.5909 2.88 26.3307L3.328 25.44L4.26667 25.8773C4.16996 26.1334 4.13687 26.4091 4.17024 26.6808C4.20361 26.9525 4.30244 27.212 4.45824 27.437C4.61404 27.6621 4.82215 27.8459 5.0647 27.9728C5.30724 28.0996 5.57695 28.1657 5.85067 28.1653C6.05883 28.164 6.26495 28.1242 6.45867 28.048C6.59422 28.3958 6.83178 28.6945 7.14018 28.9049C7.44857 29.1152 7.81337 29.2274 8.18667 29.2267C8.40907 29.2267 8.62933 29.1872 8.83733 29.1093C8.96689 29.4711 9.20493 29.7841 9.51897 30.0055C9.83301 30.227 10.2077 30.3461 10.592 30.3467C10.784 30.3456 10.9747 30.315 11.1573 30.256V30.2827C11.2299 30.4802 11.3408 30.6616 11.4835 30.8162C11.6263 30.9709 11.7982 31.0959 11.9893 31.184C12.3288 31.3393 12.7119 31.3709 13.0723 31.2735C13.4326 31.1761 13.7476 30.9558 13.9627 30.6507L15.2267 31.6693C15.4577 31.8439 15.7288 31.958 16.0151 32.0013C16.3015 32.0446 16.5941 32.0156 16.8665 31.9171C17.1388 31.8185 17.3822 31.6535 17.5746 31.437C17.7669 31.2205 17.9022 30.9594 17.968 30.6773C18.2482 30.7589 18.5455 30.7623 18.8275 30.6871C19.1095 30.6119 19.3656 30.461 19.568 30.2507C19.8354 29.987 20.0015 29.6378 20.0373 29.264C20.1136 29.2693 20.1904 29.2693 20.2667 29.264C20.7376 29.2651 21.1931 29.0964 21.5497 28.7888C21.9063 28.4812 22.14 28.0553 22.208 27.5893C22.4195 27.6608 22.6408 27.6985 22.864 27.7013C23.1324 27.702 23.3984 27.6497 23.6465 27.5473C23.8947 27.4449 24.1201 27.2944 24.31 27.1046C24.4998 26.9148 24.6502 26.6893 24.7526 26.4412C24.855 26.193 24.9074 25.9271 24.9067 25.6587C24.9051 25.3911 24.8507 25.1265 24.7467 24.88L28.1387 23.4667L29.1307 25.3013C29.2684 25.553 29.4713 25.7631 29.718 25.9095C29.9648 26.0558 30.2464 26.1332 30.5333 26.1333H30.9333C31.2099 26.1335 31.4757 26.0263 31.6747 25.8342C31.8737 25.6422 31.9903 25.3804 32 25.104V11.696ZM6.16533 8.976C6.04864 9.05591 5.90497 9.08619 5.76595 9.06019C5.62693 9.03418 5.50393 8.95402 5.424 8.83733C5.38438 8.77849 5.35689 8.71233 5.34316 8.64273C5.32942 8.57313 5.32971 8.50149 5.344 8.432C5.37042 8.29583 5.44886 8.1753 5.56267 8.096L15.696 1.16267C15.7842 1.09844 15.8909 1.06474 16 1.06667C16.1088 1.06692 16.2148 1.10042 16.304 1.16267L26.4373 8.096C26.5525 8.17585 26.6316 8.29783 26.6576 8.43557C26.6835 8.5733 26.6542 8.71571 26.576 8.832C26.4961 8.94869 26.3731 9.02885 26.2341 9.05485C26.095 9.08086 25.9514 9.05058 25.8347 8.97067L16.304 2.45333C16.2147 2.3914 16.1087 2.35821 16 2.35821C15.8913 2.35821 15.7853 2.3914 15.696 2.45333L6.16533 8.976ZM16 3.536L24 9.01333V13.3333C23.7347 13.5511 23.5541 13.8551 23.4898 14.1922C23.4255 14.5294 23.4815 14.8785 23.648 15.1787L24.1813 16.1707L22.7413 16.704C22.4989 16.7982 22.2372 16.8319 21.9789 16.8021C21.7205 16.7724 21.4733 16.6801 21.2587 16.5333L18.6667 14.6187V11.7333C18.6667 11.4504 18.5543 11.1791 18.3542 10.9791C18.1542 10.779 17.8829 10.6667 17.6 10.6667H14.4C14.1171 10.6667 13.8458 10.779 13.6458 10.9791C13.4457 11.1791 13.3333 11.4504 13.3333 11.7333V15.216C13.1317 15.4961 12.9533 15.7922 12.8 16.1013C12.2236 16.154 11.6516 16.2467 11.088 16.3787C10.7746 16.4566 10.4553 16.5083 10.1333 16.5333C9.42637 16.449 8.73808 16.249 8.096 15.9413L8.352 15.408C8.51339 15.094 8.56638 14.7354 8.50271 14.3881C8.43904 14.0408 8.26229 13.7244 8 13.488V9.01333L16 3.536ZM17.6 13.8933C17.0962 13.6351 16.5308 13.5209 15.9662 13.5632C15.4017 13.6056 14.8597 13.8028 14.4 14.1333V11.7333H17.6V13.8933ZM1.46667 26.1333H1.06667V11.7333L7.136 14.1973C7.20588 14.2256 7.26896 14.2685 7.32109 14.3229C7.37321 14.3774 7.41319 14.4423 7.43839 14.5134C7.46359 14.5844 7.47343 14.66 7.46728 14.7352C7.46112 14.8103 7.4391 14.8833 7.40267 14.9493L1.93067 25.8507C1.88575 25.935 1.81899 26.0058 1.73736 26.0555C1.65573 26.1052 1.56224 26.1321 1.46667 26.1333ZM5.568 27.024C5.41696 26.9543 5.29963 26.8277 5.24167 26.6718C5.1837 26.5159 5.18982 26.3434 5.25867 26.192L5.86667 24.912C5.93632 24.761 6.06294 24.6436 6.21884 24.5857C6.37475 24.5277 6.54726 24.5338 6.69867 24.6027C6.8512 24.6699 6.96907 24.7973 7.024 24.9547C7.08772 25.1102 7.08772 25.2845 7.024 25.44L6.4 26.72C6.36558 26.7948 6.31669 26.8621 6.25616 26.9179C6.19562 26.9737 6.12464 27.017 6.0473 27.0452C5.96996 27.0735 5.88779 27.0862 5.80553 27.0825C5.72327 27.0789 5.64254 27.059 5.568 27.024ZM8.44267 28.0907C8.3465 28.1314 8.24312 28.1525 8.13867 28.1525C8.03421 28.1525 7.93083 28.1314 7.83467 28.0907C7.73869 28.0479 7.65235 27.9862 7.58086 27.9092C7.50937 27.8322 7.4542 27.7415 7.41867 27.6427C7.33891 27.446 7.33891 27.226 7.41867 27.0293L8.336 25.0667C8.42437 24.8742 8.58548 24.7246 8.784 24.6507C8.98386 24.5804 9.20284 24.588 9.39733 24.672C9.5904 24.7627 9.73973 24.9253 9.81333 25.1253C9.85426 25.2224 9.87534 25.3267 9.87534 25.432C9.87534 25.5373 9.85426 25.6416 9.81333 25.7387L8.896 27.68C8.80543 27.8729 8.64257 28.0223 8.44267 28.096V28.0907ZM10.256 29.1573C10.0634 29.0669 9.91406 28.9044 9.84022 28.7048C9.76639 28.5053 9.77397 28.2847 9.86133 28.0907L10.5333 26.6667C10.6231 26.4752 10.7837 26.326 10.9813 26.2507C11.0704 26.2192 11.1642 26.203 11.2587 26.2027C11.375 26.2007 11.4901 26.2262 11.5947 26.2773C11.7883 26.3643 11.9381 26.5259 12.0107 26.7253C12.0853 26.9248 12.0752 27.1467 11.984 27.3387L11.3653 28.6933L11.3227 28.784C11.279 28.8803 11.2166 28.967 11.1392 29.0391C11.0618 29.1112 10.9709 29.1672 10.8717 29.2039C10.7725 29.2406 10.667 29.2573 10.5613 29.2529C10.4556 29.2486 10.3519 29.2234 10.256 29.1787V29.1573ZM12.4373 30.16C12.309 30.1011 12.2093 29.9937 12.16 29.8613C12.1329 29.7963 12.1189 29.7265 12.1189 29.656C12.1189 29.5855 12.1329 29.5157 12.16 29.4507L12.3253 29.0933L12.8213 28.0267C12.8683 27.9328 12.942 27.8549 13.0331 27.8027C13.1241 27.7506 13.2286 27.7264 13.3333 27.7333C13.4106 27.7329 13.487 27.7493 13.5573 27.7813C13.6223 27.8101 13.6809 27.8516 13.7296 27.9033C13.7783 27.955 13.8162 28.016 13.8411 28.0825C13.8659 28.1491 13.8772 28.22 13.8743 28.291C13.8713 28.362 13.8542 28.4317 13.824 28.496L13.1573 29.9413C13.1271 30.0056 13.0844 30.0632 13.0316 30.1107C12.9788 30.1582 12.9171 30.1947 12.85 30.2181C12.783 30.2414 12.7119 30.2511 12.6411 30.2467C12.5702 30.2422 12.5009 30.2236 12.4373 30.192V30.16ZM23.552 26.3253C23.3783 26.5007 23.1442 26.6033 22.8975 26.6122C22.6508 26.6211 22.41 26.5357 22.224 26.3733L19.632 24.1013L19.0187 23.568C18.9649 23.5194 18.9012 23.483 18.832 23.4613C18.8054 23.4587 18.7786 23.4587 18.752 23.4613C18.644 23.4405 18.5323 23.4535 18.432 23.4987C18.3701 23.5318 18.3143 23.5751 18.2667 23.6267C18.2202 23.6766 18.1845 23.7354 18.1615 23.7996C18.1386 23.8638 18.129 23.932 18.1333 24C18.1311 24.0159 18.1311 24.0321 18.1333 24.048C18.1508 24.1687 18.2092 24.2798 18.2987 24.3627L20.8427 26.592C21.0132 26.7555 21.1124 26.9796 21.1188 27.2157C21.1253 27.4519 21.0384 27.6811 20.8771 27.8536C20.7157 28.0262 20.4929 28.1282 20.2569 28.1376C20.0208 28.1471 19.7906 28.0631 19.616 27.904L19.5573 27.8453L17.424 25.712C17.3236 25.6116 17.1874 25.5552 17.0453 25.5552C16.9033 25.5552 16.7671 25.6116 16.6667 25.712C16.5662 25.8124 16.5098 25.9486 16.5098 26.0907C16.5098 26.2327 16.5662 26.3689 16.6667 26.4693L18.8 28.6027C18.8558 28.6577 18.9001 28.7233 18.9303 28.7957C18.9606 28.868 18.9761 28.9456 18.9761 29.024C18.9761 29.1024 18.9606 29.18 18.9303 29.2523C18.9001 29.3247 18.8558 29.3903 18.8 29.4453C18.6852 29.5533 18.5336 29.6135 18.376 29.6135C18.2184 29.6135 18.0668 29.5533 17.952 29.4453L17.4933 28.9813L16.896 28.384C16.8464 28.334 16.7874 28.2943 16.7224 28.2673C16.6574 28.2402 16.5877 28.2262 16.5173 28.2262C16.4469 28.2262 16.3772 28.2402 16.3122 28.2673C16.2472 28.2943 16.1882 28.334 16.1387 28.384C16.0887 28.4336 16.049 28.4926 16.0219 28.5576C15.9948 28.6226 15.9809 28.6923 15.9809 28.7627C15.9809 28.8331 15.9948 28.9028 16.0219 28.9678C16.049 29.0328 16.0887 29.0918 16.1387 29.1413L16.736 29.7387C16.8667 29.864 16.9403 30.0373 16.9387 30.2187C16.9332 30.3401 16.8954 30.4579 16.8292 30.5599C16.763 30.6618 16.6707 30.7443 16.562 30.7986C16.4532 30.853 16.332 30.8774 16.2107 30.8692C16.0893 30.861 15.9724 30.8205 15.872 30.752L14.4533 29.6533L14.784 28.928C14.8736 28.7366 14.9243 28.5294 14.9334 28.3182C14.9424 28.1071 14.9095 27.8963 14.8366 27.6979C14.7637 27.4996 14.6523 27.3176 14.5087 27.1626C14.3651 27.0076 14.1922 26.8825 14 26.7947C13.7162 26.6664 13.4011 26.6238 13.0933 26.672C13.0749 26.5652 13.0481 26.46 13.0133 26.3573C12.8614 25.9409 12.5655 25.5927 12.1791 25.3755C11.7927 25.1583 11.3413 25.0866 10.9067 25.1733C10.8732 24.8943 10.777 24.6265 10.6253 24.39C10.4736 24.1535 10.2703 23.9543 10.0307 23.8076C9.79104 23.6608 9.52128 23.5702 9.24164 23.5426C8.962 23.515 8.67973 23.551 8.416 23.648C8.15609 23.7466 7.92116 23.9014 7.728 24.1013C7.56945 23.8992 7.36457 23.7382 7.13067 23.632C6.72257 23.4433 6.25625 23.4244 5.83421 23.5794C5.41217 23.7344 5.06895 24.0507 4.88 24.4587L4.68267 24.896L3.808 24.48L7.616 16.896C8.40808 17.2745 9.25982 17.5127 10.1333 17.6C10.524 17.5763 10.9115 17.5156 11.2907 17.4187C11.5893 17.3547 11.9093 17.2907 12.2453 17.2373L11.3707 19.2C11.1746 19.6471 11.1582 20.1526 11.3251 20.6115C11.4919 21.0703 11.8292 21.4473 12.2667 21.664H12.32C12.6915 21.8398 13.1101 21.8897 13.5125 21.8059C13.9148 21.7222 14.2789 21.5094 14.5493 21.2L16.656 18.8533L23.5093 24.9387C23.6093 25.0265 23.6902 25.134 23.7469 25.2544C23.8036 25.3749 23.8349 25.5057 23.8389 25.6387C23.8429 25.7718 23.8195 25.9042 23.7702 26.0279C23.7208 26.1515 23.6465 26.2636 23.552 26.3573V26.3253ZM24.0853 23.984L16.352 17.2C16.245 17.1138 16.1088 17.0722 15.9719 17.084C15.835 17.0957 15.7079 17.1599 15.6171 17.263C15.5263 17.3662 15.4788 17.5004 15.4846 17.6377C15.4904 17.775 15.5489 17.9048 15.648 18L15.84 18.1707L13.7387 20.512C13.6169 20.6511 13.4528 20.7463 13.2716 20.7829C13.0904 20.8195 12.9022 20.7955 12.736 20.7147H12.6987C12.5182 20.6121 12.3819 20.4465 12.316 20.2497C12.25 20.0528 12.259 19.8386 12.3413 19.648L13.5787 16.9067C13.8704 16.2592 14.2894 15.677 14.8107 15.1947C15.1538 14.8766 15.5968 14.6878 16.0639 14.6605C16.5309 14.6333 16.9929 14.7693 17.3707 15.0453L20.6187 17.4133C20.9747 17.6689 21.3882 17.8327 21.8226 17.8904C22.257 17.9481 22.699 17.8978 23.1093 17.744L24.7093 17.152L27.6267 22.544L24.0853 23.984ZM30.544 25.0507C30.4502 25.0531 30.3574 25.0307 30.2749 24.9857C30.1925 24.9408 30.1234 24.8749 30.0747 24.7947L24.5973 14.6613C24.5681 14.6089 24.5506 14.5508 24.546 14.4909C24.5414 14.4311 24.5498 14.371 24.5707 14.3147C24.5959 14.2505 24.6347 14.1924 24.6844 14.1446C24.7341 14.0967 24.7936 14.0601 24.8587 14.0373L30.9333 11.696V25.0667L30.544 25.0507Z" fill="#064EE3"/>
<path d="M16 9.60065C16.5658 9.60065 17.1084 9.37589 17.5085 8.97581C17.9086 8.57573 18.1334 8.03311 18.1334 7.46732C18.1334 6.90152 17.9086 6.3589 17.5085 5.95882C17.1084 5.55875 16.5658 5.33398 16 5.33398C15.4342 5.33398 14.8916 5.55875 14.4915 5.95882C14.0915 6.3589 13.8667 6.90152 13.8667 7.46732C13.8667 8.03311 14.0915 8.57573 14.4915 8.97581C14.8916 9.37589 15.4342 9.60065 16 9.60065ZM16 6.40065C16.2829 6.40065 16.5542 6.51303 16.7543 6.71307C16.9543 6.91311 17.0667 7.18442 17.0667 7.46732C17.0667 7.75022 16.9543 8.02153 16.7543 8.22156C16.5542 8.4216 16.2829 8.53398 16 8.53398C15.7171 8.53398 15.4458 8.4216 15.2458 8.22156C15.0457 8.02153 14.9334 7.75022 14.9334 7.46732C14.9334 7.18442 15.0457 6.91311 15.2458 6.71307C15.4458 6.51303 15.7171 6.40065 16 6.40065Z" fill="#064EE3"/>
</svg>
