<svg width="49" height="52" viewBox="0 0 49 52" fill="none" xmlns="http://www.w3.org/2000/svg">
<path fill-rule="evenodd" clip-rule="evenodd" d="M44.4069 44.0197H37.479V41.1196C37.479 39.5201 38.705 38.2195 40.2118 38.2195H41.674C43.1808 38.2195 44.4069 39.5201 44.4069 41.1196V44.0197ZM40.9427 32.9005C41.9519 32.9005 42.7733 33.7717 42.7733 34.8421C42.7733 35.913 41.9519 36.7843 40.9427 36.7843C39.934 36.7843 39.1131 35.913 39.1131 34.8421C39.1131 33.7716 39.934 32.9005 40.9427 32.9005ZM43.1599 37.1601C43.714 36.5635 44.0577 35.7448 44.0577 34.8421C44.0577 33.0199 42.6602 31.5375 40.9427 31.5375C39.2256 31.5375 37.8282 33.0199 37.8282 34.8421C37.8282 35.7447 38.1708 36.5634 38.726 37.1601C37.2445 37.7889 36.1947 39.326 36.1947 41.1196V44.2144C36.1947 44.8583 36.6889 45.3828 37.2962 45.3828H44.5903C45.197 45.3828 45.6913 44.8583 45.6913 44.2144V41.1196C45.6912 39.326 44.6414 37.7888 43.1599 37.1601ZM18.5039 7.98021H26.3005V17.1107H24.5022C24.2233 16.0868 23.3321 15.3363 22.2789 15.3363C21.2258 15.3363 20.3351 16.0868 20.0561 17.1107H18.5038V7.98021H18.5039ZM30.6339 11.5347C30.8073 11.8072 32.3198 13.7538 32.335 13.7997L32.3367 17.1107H32.2483C31.9694 16.0868 31.0788 15.3363 30.0261 15.3363C28.9725 15.3363 28.0812 16.0868 27.8023 17.1107H27.5849V11.5347H30.6339ZM30.0261 18.8851C30.5934 18.8851 31.0557 18.3951 31.0557 17.7925C31.0557 17.1894 30.5934 16.6994 30.0261 16.6994C29.4573 16.6994 28.9961 17.1894 28.9961 17.7925C28.996 18.395 29.4573 18.8851 30.0261 18.8851ZM22.279 18.8851C22.8473 18.8851 23.3085 18.3951 23.3085 17.7925C23.3085 17.1894 22.8474 16.6994 22.279 16.6994C21.7112 16.6994 21.2489 17.1894 21.2489 17.7925C21.2489 18.395 21.7111 18.8851 22.279 18.8851ZM18.3403 18.4737H20.0562C20.3351 19.4975 21.2257 20.248 22.279 20.248C23.3322 20.248 24.2233 19.4975 24.5023 18.4737H27.8023C28.0812 19.4975 28.9725 20.248 30.0261 20.248C31.0788 20.248 31.9694 19.4975 32.2483 18.4737H32.9797C33.15 18.4735 33.3133 18.4016 33.4337 18.2738C33.5542 18.146 33.6219 17.9727 33.6222 17.792L33.6194 13.5603C33.6185 13.406 33.5688 13.2564 33.4783 13.1355L31.6641 10.7131C31.5905 10.5791 31.3665 10.1712 30.8745 10.1712H27.585V7.80653C27.585 7.1504 27.0814 6.61719 26.4642 6.61719H18.3404C17.7232 6.61719 17.2197 7.1504 17.2197 7.80653V17.2844C17.2196 17.9399 17.7231 18.4737 18.3403 18.4737ZM11.8357 42.6906V39.678C11.8357 39.1769 11.4673 38.7695 11.0153 38.7695H8.72458C8.27211 38.7695 7.90363 39.1768 7.90363 39.678V42.6906H5.20157V36.7563H14.5378V42.6906H11.8357ZM10.5514 42.6906V40.1325H9.18802V42.6906H10.5514ZM4.59319 35.3717L9.91665 32.686L15.1467 35.3683V35.3934H4.59319V35.3717ZM15.7782 34.1783L10.1984 31.3167C10.112 31.2724 10.0173 31.2493 9.9213 31.2489C9.82532 31.2486 9.7305 31.2712 9.64382 31.3149L3.96785 34.1778C3.56154 34.3829 3.3089 34.8077 3.3089 35.2855V35.7843C3.3089 36.2056 3.56311 36.5645 3.91728 36.6992V43.3718C3.91731 43.5526 3.98499 43.726 4.10546 43.8539C4.22592 43.9817 4.3893 44.0536 4.55967 44.0536H15.1802C15.2646 44.0537 15.3481 44.036 15.426 44.0018C15.5039 43.9675 15.5747 43.9173 15.6344 43.8539C15.694 43.7906 15.7412 43.7154 15.7735 43.6327C15.8057 43.55 15.8222 43.4613 15.8221 43.3718V36.6992C16.1768 36.5645 16.4311 36.2062 16.4311 35.7843V35.2831C16.4311 34.8083 16.1807 34.3852 15.7782 34.1783ZM37.6975 30.312C37.6975 26.8857 36.4653 23.6382 34.2289 21.167C34.1111 21.0365 34.047 20.8617 34.0505 20.681C34.054 20.5003 34.1249 20.3285 34.2476 20.2032C34.3084 20.1413 34.3801 20.0926 34.4587 20.0601C34.5372 20.0276 34.621 20.0118 34.7053 20.0136C34.7896 20.0154 34.8727 20.0349 34.9499 20.0708C35.0271 20.1067 35.0969 20.1584 35.1553 20.223C37.6229 22.9489 38.9819 26.532 38.9819 30.312C38.9818 30.4015 38.9652 30.4901 38.9329 30.5728C38.9006 30.6555 38.8532 30.7306 38.7936 30.7938C38.7339 30.8571 38.6631 30.9073 38.5852 30.9415C38.5072 30.9757 38.4237 30.9933 38.3394 30.9932C38.1691 30.9932 38.0059 30.9215 37.8855 30.7937C37.7651 30.666 37.6975 30.4927 37.6975 30.312ZM16.2598 20.2031C16.3207 20.2651 16.3694 20.3392 16.4033 20.4212C16.4372 20.5031 16.4556 20.5914 16.4573 20.6809C16.459 20.7704 16.4441 20.8594 16.4134 20.9428C16.3827 21.0262 16.3369 21.1023 16.2784 21.1669C14.042 23.6381 12.8103 26.8856 12.8103 30.3119C12.8103 30.4014 12.7937 30.49 12.7614 30.5727C12.7291 30.6554 12.6818 30.7305 12.6221 30.7938C12.5625 30.857 12.4916 30.9072 12.4137 30.9414C12.3358 30.9756 12.2522 30.9932 12.1679 30.9931C12.0836 30.9932 12.0001 30.9756 11.9222 30.9414C11.8443 30.9071 11.7735 30.857 11.7139 30.7937C11.6543 30.7304 11.607 30.6553 11.5748 30.5727C11.5425 30.49 11.526 30.4014 11.526 30.3119C11.526 26.5318 12.8845 22.9488 15.3521 20.2229C15.47 20.0926 15.6319 20.0173 15.8021 20.0136C15.9723 20.0099 16.1369 20.078 16.2598 20.2031ZM32.0199 42.2203C32.1884 42.5513 32.0715 42.9645 31.7596 43.1433C27.722 45.4564 22.7856 45.4583 18.7477 43.1433C18.5981 43.0573 18.4868 42.9118 18.438 42.7389C18.3892 42.5659 18.407 42.3794 18.4874 42.2203C18.5274 42.1415 18.5816 42.0718 18.6469 42.0152C18.7122 41.9586 18.7874 41.9163 18.8682 41.8906C18.949 41.8648 19.0338 41.8563 19.1177 41.8654C19.2016 41.8744 19.283 41.901 19.3572 41.9435C23.0217 44.0407 27.4853 44.0409 31.1501 41.9435C31.2243 41.901 31.3057 41.8745 31.3896 41.8654C31.4735 41.8563 31.5583 41.8649 31.6391 41.8906C31.7198 41.9163 31.795 41.9587 31.8604 42.0152C31.9257 42.0718 31.9799 42.1415 32.0199 42.2203ZM32.5266 30.9478L31.3005 31.3709C31.1978 31.4063 31.1052 31.4688 31.0312 31.5524C30.9573 31.6361 30.9045 31.7382 30.8778 31.8493C30.7422 32.4095 30.5324 32.9464 30.2546 33.4441C30.1993 33.5428 30.1685 33.6547 30.165 33.7695C30.1616 33.8842 30.1856 33.998 30.2348 34.1002L30.8206 35.3192L29.9728 36.2189L28.8236 35.5977C28.7272 35.5455 28.6199 35.52 28.5117 35.5236C28.4035 35.5271 28.2979 35.5596 28.2047 35.6181C27.736 35.9133 27.2299 36.136 26.7019 36.2794C26.5972 36.3081 26.5011 36.3644 26.4223 36.443C26.3436 36.5217 26.2849 36.6202 26.2517 36.7293L25.8524 38.03H24.6549L24.2568 36.7293C24.2233 36.6202 24.1643 36.5218 24.0854 36.4432C24.0065 36.3647 23.9102 36.3086 23.8054 36.2801C23.2776 36.1357 22.7716 35.9128 22.3026 35.6181C22.2094 35.5596 22.1038 35.5271 21.9956 35.5236C21.8874 35.52 21.7801 35.5455 21.6837 35.5977L20.535 36.2189L19.6877 35.3192L20.2725 34.1002C20.3218 33.9981 20.3459 33.8843 20.3427 33.7696C20.3394 33.6549 20.3089 33.5429 20.2539 33.4441C19.9759 32.9465 19.7661 32.4095 19.6307 31.8493C19.6038 31.738 19.5508 31.6359 19.4767 31.5522C19.4026 31.4686 19.3097 31.4062 19.2068 31.3709L17.9818 30.9478V29.6763L19.2068 29.2532C19.3096 29.2178 19.4024 29.1553 19.4765 29.0717C19.5507 28.9881 19.6037 28.886 19.6307 28.7748C19.7661 28.2145 19.976 27.6775 20.2539 27.18C20.3089 27.0811 20.3395 26.9692 20.3427 26.8544C20.346 26.7397 20.3218 26.626 20.2725 26.5238L19.6877 25.3042L20.535 24.405L21.6837 25.0262C21.8797 25.1317 22.1126 25.1241 22.3026 25.0052C22.7715 24.7104 23.2775 24.4877 23.8054 24.3439C23.9102 24.3154 24.0065 24.2592 24.0854 24.1807C24.1643 24.1021 24.2233 24.0037 24.2568 23.8946L24.6549 22.594H25.8524L26.2517 23.8946C26.2849 24.0037 26.3436 24.1022 26.4223 24.1807C26.501 24.2593 26.5972 24.3154 26.7019 24.3439C27.2299 24.4875 27.7359 24.7102 28.2047 25.0052C28.2979 25.0638 28.4034 25.0964 28.5116 25.1C28.6198 25.1037 28.7271 25.0783 28.8236 25.0262L29.9728 24.405L30.8206 25.3042L30.2348 26.5238C30.1348 26.7318 30.142 26.9789 30.2546 27.18C30.5316 27.678 30.7414 28.2148 30.8778 28.7748C30.9045 28.8859 30.9572 28.9881 31.0311 29.0717C31.1051 29.1554 31.1977 29.2178 31.3005 29.2532L32.5266 29.6763V30.9478ZM33.3668 28.533L32.0237 28.0692C31.8957 27.6378 31.732 27.2194 31.5345 26.8187L32.1764 25.482C32.2378 25.3537 32.2595 25.2081 32.2383 25.066C32.2171 24.9238 32.1541 24.7925 32.0583 24.6906L30.551 23.0911C30.455 22.9894 30.3311 22.9225 30.1971 22.9C30.063 22.8775 29.9257 22.9005 29.8048 22.9658L28.5458 23.647C28.1687 23.4364 27.7742 23.2628 27.3674 23.1283L26.9308 21.7019C26.8886 21.565 26.8068 21.4457 26.6969 21.3612C26.5871 21.2766 26.4548 21.2311 26.3191 21.2311H24.1881C24.0524 21.231 23.9202 21.2765 23.8105 21.3611C23.7007 21.4457 23.6189 21.565 23.577 21.7019L23.141 23.1278C22.7339 23.2625 22.3393 23.4363 21.962 23.647L20.7024 22.9658C20.5816 22.9005 20.4444 22.8774 20.3104 22.8999C20.1765 22.9225 20.0527 22.9894 19.9567 23.0911L18.45 24.6906C18.354 24.7923 18.2907 24.9236 18.2694 25.0658C18.2481 25.208 18.2698 25.3537 18.3314 25.482L18.9727 26.8187C18.7748 27.2189 18.6116 27.6375 18.4852 28.0692L17.1404 28.533C17.0115 28.5775 16.8992 28.6642 16.8196 28.7806C16.74 28.897 16.6972 29.0372 16.6974 29.181V31.4431C16.6973 31.5869 16.7402 31.7271 16.8198 31.8435C16.8993 31.9599 17.0116 32.0466 17.1404 32.0912L18.4841 32.555C18.6117 32.9864 18.7752 33.4049 18.9728 33.8055L18.3315 35.1422C18.27 35.2705 18.2483 35.4162 18.2696 35.5583C18.2909 35.7005 18.3541 35.8319 18.4501 35.9335L19.9568 37.5331C20.0528 37.6348 20.1766 37.7017 20.3105 37.7242C20.4445 37.7467 20.5817 37.7237 20.7025 37.6584L21.9621 36.9772C22.3394 37.1877 22.7341 37.3613 23.1411 37.4958L23.5771 38.9223C23.6192 39.0591 23.7009 39.1783 23.8107 39.2629C23.9204 39.3474 24.0526 39.393 24.1882 39.3931H26.3192C26.4549 39.393 26.5871 39.3474 26.6969 39.2628C26.8067 39.1783 26.8886 39.0591 26.9309 38.9223L27.3675 37.4958C27.7742 37.3609 28.1686 37.1873 28.5459 36.9772L29.8049 37.6584C29.9258 37.7237 30.0631 37.7467 30.1972 37.7242C30.3312 37.7017 30.4551 37.6348 30.5511 37.5331L32.0584 35.9335C32.1541 35.8316 32.217 35.7003 32.2382 35.5582C32.2594 35.4161 32.2378 35.2705 32.1765 35.1422L31.5346 33.8055C31.7331 33.4051 31.8969 32.9863 32.0238 32.5544L33.3669 32.0912C33.4959 32.0468 33.6084 31.9602 33.6882 31.8437C33.768 31.7273 33.811 31.5871 33.8111 31.4431V29.181C33.8111 29.037 33.768 28.8968 33.6882 28.7804C33.6084 28.6639 33.4958 28.5773 33.3668 28.533ZM25.2539 33.8853C27.1105 33.8853 28.621 32.2822 28.621 30.312C28.621 28.3413 27.1105 26.7388 25.2539 26.7388C23.3969 26.7388 21.8869 28.3412 21.8869 30.312C21.8869 32.2822 23.3969 33.8853 25.2539 33.8853ZM25.2539 25.3759C22.6891 25.3759 20.6026 27.5901 20.6026 30.312C20.6026 33.0339 22.6891 35.2482 25.2539 35.2482C27.8182 35.2482 29.9053 33.0339 29.9053 30.312C29.9053 27.5902 27.8182 25.3759 25.2539 25.3759Z" fill="#064EE3"/>
</svg>
