<svg width="34" height="37" viewBox="0 0 34 37" fill="none" xmlns="http://www.w3.org/2000/svg">
<g clip-path="url(#clip0_6_124)">
<path d="M34.0266 32.2941V35.2801C34.0266 36.2376 33.3127 37.0145 32.4328 37.0145H1.59375C0.713867 37.0145 0 36.2376 0 35.2801V32.2941C0.00398437 28.1952 2.42449 24.5624 6.00313 23.284C1.5725 20.5235 3.31766 13.0628 8.5 13.0281C13.6717 13.0599 15.4275 20.5003 11.0155 23.2725C12.0859 23.6338 13.0787 24.2235 13.9373 25.0068C14.7502 21.5728 19.2498 21.5785 20.0627 25.0068C20.9204 24.2222 21.9139 23.6324 22.9845 23.2725C18.5725 20.5032 20.3283 13.0599 25.5 13.0281C30.6823 13.0628 32.4275 20.5235 27.9995 23.284C31.5868 24.5537 34.0186 28.1887 34.0266 32.2941ZM32.9375 35.2801C32.9906 31.8952 33.1155 29.0624 30.7461 26.4608C27.9305 23.1713 22.8464 23.2522 20.0972 26.5533C19.9573 27.3443 19.5568 28.0525 18.9709 28.545C20.9963 29.4309 22.3211 31.5714 22.3125 33.9475V35.8582H32.4062C32.6998 35.8582 32.9375 35.5995 32.9375 35.2801ZM21.5156 18.5174C21.683 24.2408 29.3144 24.2437 29.4844 18.5174C29.3117 12.791 21.683 12.791 21.5156 18.5174ZM21.2686 35.8438V33.936C21.2454 31.3583 19.3076 29.2886 16.9389 29.311C14.6572 29.3428 12.7341 31.5165 12.7341 34.066V35.8611L21.2686 35.8438ZM17 28.1345C19.7572 28.0709 19.7758 23.6338 17 23.5702C14.2322 23.6511 14.2348 28.0796 17 28.1345ZM15.0344 28.5565C14.4514 28.0539 14.0483 27.3453 13.8948 26.5533C13.2036 25.7505 12.3679 25.1111 11.4398 24.675C10.5117 24.2388 9.51096 24.0153 8.5 24.0182C4.49438 23.9257 0.972188 27.9582 1.0625 32.2941V35.2801C1.0698 35.5937 1.30555 35.8438 1.59375 35.8438H11.6636V34.0487C11.6676 31.6459 12.9964 29.4808 15.0344 28.5565ZM4.51562 18.5174C4.68563 24.2408 12.3144 24.2437 12.4844 18.5174C12.3144 12.791 4.68297 12.791 4.51562 18.5174Z" fill="#064EE3"/>
<path d="M23.7602 1.96265C23.9501 2.0821 24.1057 2.25683 24.2094 2.46722C24.3131 2.67761 24.3608 2.9153 24.3472 3.15358C24.1114 8.31624 21.6079 13.0395 17.6189 15.8463C17.243 16.1065 16.7623 16.1065 16.3864 15.8463C12.3961 13.0424 9.88988 8.31913 9.65281 3.15647C9.63894 2.91742 9.68682 2.67892 9.79103 2.46794C9.89525 2.25697 10.0516 2.08193 10.2425 1.96265C14.1977 -0.638916 19.8023 -0.638916 23.7602 1.96265ZM17.0478 14.8722C20.663 12.3487 23.2183 7.8046 23.2316 2.96569C19.3727 0.552744 14.6273 0.552744 10.7684 2.96569C10.795 7.75257 13.3556 12.5423 17.0478 14.8722Z" fill="#064EE3"/>
<path d="M21.6976 4.51656C21.8022 4.61931 21.865 4.76305 21.8722 4.91619C21.8794 5.06932 21.8305 5.21931 21.7361 5.33317L16.5059 11.0248L16.5053 11.0255C16.4559 11.0792 16.3974 11.1217 16.3329 11.1507C16.2684 11.1797 16.1994 11.1946 16.1296 11.1945C16.0599 11.1945 15.9908 11.1795 15.9264 11.1503C15.862 11.1212 15.8035 11.0785 15.7542 11.0248L13.4831 8.55332C13.2753 8.32713 13.2753 7.96147 13.4831 7.73528C13.691 7.50908 14.027 7.50908 14.2348 7.73528L16.1314 9.79918L20.9844 4.51801C21.0818 4.42138 21.2089 4.3677 21.3407 4.36743C21.4726 4.36717 21.5998 4.42033 21.6976 4.51656Z" fill="#064EE3"/>
</g>
<defs>
<clipPath id="clip0_6_124">
<rect width="34" height="37" fill="white"/>
</clipPath>
</defs>
</svg>
