<svg width="37" height="42" viewBox="0 0 37 42" fill="none" xmlns="http://www.w3.org/2000/svg">
<path d="M21.9687 8.53125H20.2344V6.5625C20.2344 6.38845 20.1735 6.22153 20.065 6.09846C19.9566 5.97539 19.8096 5.90625 19.6562 5.90625H17.3437C17.1904 5.90625 17.0434 5.97539 16.9349 6.09846C16.8265 6.22153 16.7656 6.38845 16.7656 6.5625V8.53125H15.0312C14.8779 8.53125 14.7309 8.60039 14.6224 8.72346C14.514 8.84653 14.4531 9.01345 14.4531 9.1875V11.8125C14.4531 11.9865 14.514 12.1535 14.6224 12.2765C14.7309 12.3996 14.8779 12.4688 15.0312 12.4688H16.7656V14.4375C16.7656 14.6115 16.8265 14.7785 16.9349 14.9015C17.0434 15.0246 17.1904 15.0938 17.3437 15.0938H19.6562C19.8096 15.0938 19.9566 15.0246 20.065 14.9015C20.1735 14.7785 20.2344 14.6115 20.2344 14.4375V12.4688H21.9687C22.1221 12.4688 22.2691 12.3996 22.3775 12.2765C22.486 12.1535 22.5469 11.9865 22.5469 11.8125V9.1875C22.5469 9.01345 22.486 8.84653 22.3775 8.72346C22.2691 8.60039 22.1221 8.53125 21.9687 8.53125ZM21.3906 11.1562H19.6562C19.5029 11.1562 19.3559 11.2254 19.2474 11.3485C19.139 11.4715 19.0781 11.6385 19.0781 11.8125V13.7812H17.9219V11.8125C17.9219 11.6385 17.861 11.4715 17.7525 11.3485C17.6441 11.2254 17.4971 11.1562 17.3437 11.1562H15.6094V9.84375H17.3437C17.4971 9.84375 17.6441 9.77461 17.7525 9.65154C17.861 9.52847 17.9219 9.36155 17.9219 9.1875V7.21875H19.0781V9.1875C19.0781 9.36155 19.139 9.52847 19.2474 9.65154C19.3559 9.77461 19.5029 9.84375 19.6562 9.84375H21.3906V11.1562ZM34.5314 12.0488C34.5431 11.9333 34.5489 11.8172 34.5487 11.7009C34.5459 11.0994 34.3621 10.517 34.0277 10.0503C33.6934 9.58364 33.2285 9.26069 32.7103 9.135C32.1241 9.00834 31.5174 9.13917 31.0129 9.50101C30.5085 9.86286 30.144 10.4287 29.9931 11.0841L27.4494 19.3922C27.4117 19.4092 27.375 19.4289 27.3395 19.4513L22.2289 22.8506C21.4469 23.3721 20.7982 24.1161 20.347 25.0092C19.8958 25.9023 19.6577 26.9136 19.6562 27.9431V34.125C19.5029 34.125 19.3559 34.1941 19.2474 34.3172C19.139 34.4403 19.0781 34.6072 19.0781 34.7812V40.0312C19.0781 40.2053 19.139 40.3722 19.2474 40.4953C19.3559 40.6184 19.5029 40.6875 19.6562 40.6875H27.75C27.9033 40.6875 28.0504 40.6184 28.1588 40.4953C28.2672 40.3722 28.3281 40.2053 28.3281 40.0312V34.7812C28.3281 34.6072 28.2672 34.4403 28.1588 34.3172C28.0504 34.1941 27.9033 34.125 27.75 34.125V32.6812C27.7511 32.4041 27.803 32.1302 27.9026 31.8771C28.0021 31.624 28.147 31.3972 28.3281 31.2113L32.2362 27.2672C32.6637 26.8426 32.9697 26.2827 33.115 25.6594L35.624 15.0084C35.6776 14.786 35.7048 14.5565 35.705 14.3259C35.7027 13.8628 35.5931 13.4085 35.387 13.0088C35.181 12.6091 34.8859 12.2779 34.5314 12.0488ZM31.0973 11.4712C31.1683 11.1319 31.3493 10.8353 31.6043 10.6407C31.8594 10.4461 32.1696 10.3677 32.4733 10.4212C32.7324 10.4829 32.9651 10.6435 33.1324 10.8765C33.2997 11.1094 33.3915 11.4004 33.3925 11.7009V11.7141C32.8761 11.7249 32.3769 11.927 31.971 12.2895C31.565 12.652 31.2745 13.155 31.1436 13.7222L29.5306 19.3725C29.2864 19.241 29.0246 19.1567 28.7559 19.1231L31.0973 11.4712ZM27.1719 39.375H20.2344V35.4375H27.1719V39.375ZM34.5083 14.6672L31.9934 25.3247C31.9064 25.695 31.7255 26.0282 31.4731 26.2828L27.5592 30.2269C27.2563 30.5369 27.014 30.9154 26.8477 31.3381C26.6814 31.7608 26.5949 32.2183 26.5937 32.6812V34.125H20.8125V27.9431C20.8154 27.1425 21.0012 26.3563 21.3518 25.6616C21.7024 24.9668 22.2058 24.3872 22.8128 23.9794L27.9176 20.5866C28.0493 20.4995 28.1947 20.4428 28.3457 20.4198C28.4967 20.3968 28.6502 20.4078 28.7974 20.4524C28.9446 20.4969 29.0826 20.574 29.2035 20.6792C29.3243 20.7845 29.4257 20.9158 29.5017 21.0656C29.6519 21.3689 29.6933 21.7261 29.6173 22.0631C29.5772 22.2295 29.5085 22.3853 29.4153 22.5216C29.322 22.6578 29.206 22.7719 29.0739 22.8572L25.7612 25.0294C25.6354 25.1202 25.5453 25.2627 25.5099 25.4271C25.4744 25.5915 25.4962 25.7651 25.5709 25.9116C25.6455 26.0582 25.7671 26.1663 25.9103 26.2135C26.0535 26.2606 26.2072 26.2431 26.3394 26.1647L29.652 23.9925C29.9168 23.822 30.1489 23.593 30.3345 23.3192C30.5202 23.0453 30.6557 22.732 30.7331 22.3978C30.8905 21.7264 30.8073 21.0115 30.5019 20.4094L30.4672 20.3503L32.2536 14.0962C32.3245 13.7569 32.5056 13.4603 32.7606 13.2657C33.0156 13.0711 33.3259 12.9927 33.6295 13.0462C33.8886 13.1079 34.1213 13.2685 34.2886 13.5015C34.4559 13.7344 34.5477 14.0254 34.5487 14.3259C34.5507 14.4414 34.537 14.5565 34.5083 14.6672ZM17.3437 34.125V27.9431C17.3422 26.9136 17.1041 25.9023 16.6529 25.0092C16.2018 24.1161 15.5531 23.3721 14.7711 22.8506L9.66045 19.4447C9.62576 19.425 9.5853 19.4119 9.55061 19.3922L7.0242 11.13C6.87737 10.4651 6.51285 9.88866 6.00484 9.51804C5.49683 9.14741 4.8835 9.01044 4.28967 9.135C3.77143 9.26069 3.3066 9.58364 2.97223 10.0503C2.63786 10.517 2.45404 11.0994 2.45123 11.7009C2.45108 11.8172 2.45687 11.9333 2.46858 12.0488C2.11405 12.2779 1.81894 12.6091 1.61292 13.0088C1.40691 13.4085 1.29725 13.8628 1.29498 14.3259C1.29611 14.556 1.32134 14.7851 1.37014 15.0084L3.88498 25.6528C4.02869 26.2788 4.33486 26.8412 4.76373 27.2672L8.66608 31.2113C8.84896 31.3959 8.99548 31.6223 9.09609 31.8756C9.1967 32.1289 9.24914 32.4034 9.24998 32.6812V34.125C9.09666 34.125 8.94961 34.1941 8.84119 34.3172C8.73277 34.4403 8.67186 34.6072 8.67186 34.7812V40.0312C8.67186 40.2053 8.73277 40.3722 8.84119 40.4953C8.94961 40.6184 9.09666 40.6875 9.24998 40.6875H17.3437C17.4971 40.6875 17.6441 40.6184 17.7525 40.4953C17.861 40.3722 17.9219 40.2053 17.9219 40.0312V34.7812C17.9219 34.6072 17.861 34.4403 17.7525 34.3172C17.6441 34.1941 17.4971 34.125 17.3437 34.125ZM3.60748 11.7009C3.6082 11.4013 3.6992 11.111 3.86536 10.8782C4.03153 10.6454 4.26286 10.4842 4.52092 10.4212C4.83291 10.3698 5.15049 10.4542 5.40996 10.6575C5.66944 10.8607 5.85162 11.1678 5.91998 11.5172L8.24405 19.1231C7.97539 19.1567 7.71356 19.241 7.46936 19.3725L5.86795 13.755C5.73762 13.1822 5.44652 12.6733 5.03868 12.305C4.63083 11.9368 4.12843 11.7293 3.60748 11.7141V11.7009ZM9.43498 30.2269L5.52686 26.2828C5.27309 26.0268 5.092 25.6911 5.00655 25.3181L2.48592 14.6672C2.46199 14.5555 2.45034 14.4409 2.45123 14.3259C2.45195 14.0263 2.54295 13.736 2.70911 13.5032C2.87528 13.2704 3.10661 13.1092 3.36467 13.0462C3.67447 12.9935 3.99038 13.0758 4.24886 13.2767C4.50735 13.4776 4.68924 13.7821 4.75795 14.1291L6.5328 20.3503L6.49811 20.4094C6.19262 21.0115 6.10949 21.7264 6.26686 22.3978C6.34426 22.732 6.47979 23.0453 6.66545 23.3192C6.85111 23.593 7.08317 23.822 7.34795 23.9925L10.6606 26.1647C10.7927 26.2431 10.9465 26.2606 11.0897 26.2135C11.2329 26.1663 11.3545 26.0582 11.4291 25.9116C11.5037 25.7651 11.5256 25.5915 11.4901 25.4271C11.4546 25.2627 11.3646 25.1202 11.2387 25.0294L7.92608 22.8572C7.79396 22.7719 7.67796 22.6578 7.58471 22.5216C7.49146 22.3853 7.4228 22.2295 7.38264 22.0631C7.30669 21.7261 7.3481 21.3689 7.49827 21.0656C7.5738 20.9161 7.67455 20.7849 7.79474 20.6796C7.91494 20.5743 8.05224 20.4968 8.1988 20.4518C8.34536 20.4067 8.49831 20.3948 8.64891 20.4168C8.79951 20.4388 8.94483 20.4942 9.07655 20.58L14.1872 23.9794C14.7942 24.3872 15.2976 24.9668 15.6482 25.6616C15.9988 26.3563 16.1846 27.1425 16.1875 27.9431V34.125H10.4062V32.6812C10.4052 32.2177 10.3183 31.7595 10.1509 31.3366C9.98356 30.9138 9.73963 30.5356 9.43498 30.2269ZM16.7656 39.375H9.82811V35.4375H16.7656V39.375Z" fill="#064EE3"/>
<path d="M26.6787 3.36789C26.142 2.7576 25.5046 2.27344 24.8028 1.94312C24.1011 1.6128 23.3489 1.44281 22.5892 1.44287C21.8296 1.44293 21.0774 1.61305 20.3757 1.94348C19.674 2.27391 19.0366 2.75817 18.5 3.36854C17.9634 2.75815 17.3261 2.27389 16.6244 1.94347C15.9227 1.61306 15.1705 1.44298 14.4109 1.44298C13.6513 1.44298 12.8991 1.61306 12.1974 1.94347C11.4958 2.27389 10.8584 2.75815 10.3218 3.36854C9.23977 4.59946 8.63208 6.26735 8.63208 8.00626C8.63208 9.74517 9.23977 11.4131 10.3218 12.644L18.0918 21.464C18.2002 21.587 18.3473 21.6561 18.5006 21.6561C18.6539 21.6561 18.8009 21.587 18.9093 21.464L26.6793 12.644C27.7613 11.4129 28.3689 9.74481 28.3688 8.0058C28.3687 6.26678 27.7609 4.59883 26.6787 3.36789ZM18.5 20.0721L11.1387 11.716C10.4924 10.9814 10.0526 10.0458 9.87465 9.02749C9.69675 8.00914 9.78882 6.95378 10.1392 5.99483C10.4896 5.03587 11.0826 4.21637 11.8433 3.63992C12.6039 3.06347 13.4981 2.75596 14.4126 2.75626C15.0202 2.75389 15.6221 2.88886 16.1832 3.1533C16.7443 3.41774 17.2534 3.80636 17.6808 4.29648L18.0912 4.76242C18.1997 4.88545 18.3467 4.95456 18.5 4.95456C18.6533 4.95456 18.8003 4.88545 18.9087 4.76242L19.3203 4.29517C19.7495 3.80708 20.2593 3.41986 20.8205 3.15567C21.3817 2.89147 21.9833 2.75548 22.5908 2.75548C23.1983 2.75548 23.7999 2.89147 24.3611 3.15567C24.9223 3.41986 25.432 3.80708 25.8612 4.29517C26.7272 5.27953 27.2136 6.6138 27.2136 8.00495C27.2136 9.3961 26.7272 10.7304 25.8612 11.7147L18.5 20.0721Z" fill="#064EE3"/>
</svg>
