<svg width="37" height="37" viewBox="0 0 37 37" fill="none" xmlns="http://www.w3.org/2000/svg">
<g clip-path="url(#clip0_6_134)">
<path d="M12.4644 16.6978C11.5886 17.2112 11.2603 17.8104 11.1633 19.0725C11.163 19.0761 11.1628 19.0798 11.1626 19.0835C11.0432 21.2512 11.099 23.2456 11.1694 24.9108C11.1929 25.4982 11.4431 26.0537 11.8675 26.4606C12.2919 26.8675 12.8575 27.0941 13.4454 27.0928H23.5545C24.1425 27.0941 24.708 26.8675 25.1324 26.4606C25.5568 26.0537 25.8071 25.4982 25.8306 24.9108C25.901 23.2456 25.9568 21.2511 25.8374 19.0835C25.8372 19.0798 25.837 19.0761 25.8367 19.0725C25.7396 17.8104 25.4113 17.2112 24.5356 16.6978C23.9508 16.3549 23.019 16.1006 22.0302 15.8476L20.4159 15.4505C20.6977 15.2233 20.9559 14.946 21.18 14.6214C22.0745 13.3254 22.2363 11.5384 21.5736 10.2757C21.003 9.18872 19.9115 8.59007 18.5 8.59007C17.0885 8.59007 15.9968 9.18872 15.4263 10.2758C14.7636 11.5385 14.9254 13.3255 15.8199 14.6214C16.044 14.946 16.3022 15.2235 16.584 15.4506L14.9652 15.8488C13.9809 16.1005 13.0491 16.3549 12.4644 16.6978V16.6978ZM19.5412 22.6369L18.5 24.0955L17.4588 22.6369L18.3605 16.1573C18.3972 16.1562 18.4339 16.1556 18.4706 16.1555C18.4792 16.1556 18.4878 16.1564 18.4964 16.1564H18.5027C18.5115 16.1564 18.5201 16.1556 18.5287 16.1555C18.5657 16.1556 18.6026 16.1562 18.6395 16.1573L19.5413 22.6369H19.5412ZM16.3222 10.746C16.7151 9.99744 17.4681 9.60179 18.5001 9.60179C19.532 9.60179 20.285 9.99744 20.6779 10.746C21.1654 11.6749 21.0264 13.063 20.3475 14.0467C19.8658 14.7444 19.2227 15.1323 18.5324 15.1435C18.5106 15.1434 18.4888 15.1434 18.467 15.1435C17.7776 15.1324 17.1342 14.7445 16.6527 14.0467C15.9736 13.063 15.8348 11.6749 16.3223 10.746H16.3222ZM17.3176 16.3121L16.429 22.6971C16.4112 22.8253 16.4431 22.9554 16.5182 23.0608L18.0883 25.2602C18.1351 25.3257 18.1969 25.3791 18.2685 25.416C18.3401 25.4529 18.4194 25.4721 18.5 25.4721C18.5805 25.4721 18.6599 25.4529 18.7315 25.416C18.8031 25.3791 18.8649 25.3257 18.9117 25.2602L20.4817 23.0608C20.5569 22.9554 20.5888 22.8253 20.571 22.6971L19.6824 16.3121L21.7841 16.829C22.4728 17.0052 23.5137 17.2714 24.0239 17.5706C24.531 17.8679 24.746 18.0939 24.8275 19.1447C24.9441 21.267 24.8891 23.2287 24.8199 24.8681C24.8068 25.1947 24.6677 25.5035 24.4317 25.7297C24.1958 25.9559 23.8814 26.0819 23.5545 26.0812H23.1642V21.9553C23.1642 21.8889 23.1511 21.8231 23.1256 21.7617C23.1002 21.7004 23.063 21.6446 23.016 21.5976C22.969 21.5506 22.9132 21.5134 22.8519 21.488C22.7905 21.4625 22.7247 21.4494 22.6583 21.4494C22.5919 21.4494 22.5261 21.4625 22.4647 21.488C22.4033 21.5134 22.3476 21.5506 22.3006 21.5976C22.2536 21.6446 22.2164 21.7004 22.1909 21.7617C22.1655 21.8231 22.1524 21.8889 22.1524 21.9553V26.0812H14.8475V21.9553C14.8475 21.8211 14.7942 21.6925 14.6994 21.5976C14.6045 21.5027 14.4758 21.4494 14.3417 21.4494C14.2075 21.4494 14.0788 21.5027 13.984 21.5976C13.8891 21.6925 13.8358 21.8211 13.8358 21.9553V26.0812H13.4455C13.1187 26.0819 12.8043 25.9559 12.5683 25.7297C12.3324 25.5035 12.1932 25.1947 12.1801 24.8681C12.1109 23.2287 12.0559 21.267 12.1726 19.1447C12.254 18.0939 12.4691 17.8679 12.9761 17.5706C13.4864 17.2714 14.5273 17.0051 15.2115 16.8301L17.3176 16.312L17.3176 16.3121ZM5.70087 16.8552C5.63157 17.3989 5.59645 17.9522 5.59645 18.4999C5.59645 19.0475 5.63157 19.6009 5.70087 20.1446C5.70928 20.2105 5.70462 20.2774 5.68716 20.3415C5.66971 20.4056 5.6398 20.4657 5.59915 20.5182C5.55849 20.5707 5.50788 20.6148 5.45022 20.6477C5.39255 20.6807 5.32895 20.702 5.26305 20.7104C5.19715 20.7188 5.13025 20.7142 5.06615 20.6967C5.00205 20.6793 4.94202 20.6494 4.88948 20.6087C4.83694 20.568 4.79292 20.5174 4.75994 20.4598C4.72695 20.4021 4.70565 20.3385 4.69725 20.2726C4.62253 19.6866 4.58459 19.0902 4.58459 18.4999C4.58459 17.9097 4.62245 17.3133 4.69725 16.7273C4.70506 16.6609 4.72595 16.5967 4.75871 16.5384C4.79147 16.4802 4.83545 16.429 4.88811 16.3878C4.94077 16.3466 5.00107 16.3163 5.06552 16.2986C5.12997 16.2809 5.1973 16.2761 5.2636 16.2846C5.32991 16.293 5.39388 16.3145 5.45183 16.3478C5.50977 16.3812 5.56053 16.4256 5.60119 16.4787C5.64184 16.5317 5.67158 16.5923 5.68867 16.657C5.70577 16.7216 5.70997 16.7889 5.70087 16.8552ZM31.2997 20.1448C31.4383 19.0526 31.4381 17.9473 31.2992 16.8552C31.2838 16.7228 31.3212 16.5897 31.4033 16.4848C31.4854 16.3799 31.6056 16.3116 31.7378 16.2947C31.8699 16.2779 32.0034 16.3139 32.1092 16.3949C32.215 16.4759 32.2846 16.5953 32.3028 16.7273C32.3774 17.3135 32.4154 17.9099 32.4154 18.4999C32.4154 19.09 32.3777 19.6884 32.3034 20.2725C32.2864 20.4056 32.2173 20.5265 32.1112 20.6086C32.0051 20.6908 31.8707 20.7274 31.7376 20.7105C31.6717 20.7021 31.6081 20.6808 31.5504 20.6478C31.4928 20.6148 31.4421 20.5708 31.4015 20.5183C31.3608 20.4658 31.3309 20.4058 31.3134 20.3417C31.296 20.2776 31.2913 20.2107 31.2997 20.1448ZM12.6077 6.44132C12.5534 6.31868 12.5499 6.17946 12.5982 6.05429C12.6465 5.92912 12.7425 5.82826 12.8651 5.77388C14.6448 4.98481 16.5406 4.58468 18.5001 4.58468C20.4595 4.58468 22.3554 4.98481 24.135 5.77395C24.1965 5.80032 24.2522 5.83866 24.2989 5.88673C24.3455 5.9348 24.3821 5.99165 24.4066 6.05398C24.4311 6.11631 24.4429 6.18288 24.4415 6.24983C24.44 6.31678 24.4253 6.38278 24.3982 6.444C24.371 6.50522 24.332 6.56043 24.2833 6.60645C24.2347 6.65247 24.1774 6.68836 24.1147 6.71206C24.0521 6.73576 23.9854 6.74678 23.9185 6.74449C23.8515 6.74221 23.7857 6.72665 23.7249 6.69873C22.0753 5.96726 20.3174 5.59639 18.5001 5.59639C16.6827 5.59639 14.9249 5.96726 13.2753 6.69873C13.1526 6.7531 13.0134 6.75653 12.8882 6.70825C12.7631 6.65998 12.6621 6.56396 12.6077 6.44132ZM23.7957 30.8335C23.8196 30.8955 23.831 30.9616 23.8294 31.028C23.8278 31.0944 23.8131 31.1598 23.7861 31.2206C23.7592 31.2813 23.7206 31.3361 23.6725 31.3819C23.6243 31.4277 23.5677 31.4636 23.5057 31.4875C21.9096 32.1031 20.2254 32.4153 18.4999 32.4153C16.7744 32.4153 15.0917 32.1028 13.4941 31.4866C13.4316 31.4631 13.3744 31.4275 13.3258 31.3817C13.2771 31.336 13.238 31.281 13.2107 31.2201C13.1834 31.1592 13.1684 31.0934 13.1667 31.0267C13.1649 30.9599 13.1763 30.8935 13.2004 30.8312C13.2244 30.7689 13.2605 30.712 13.3066 30.6637C13.3528 30.6154 13.408 30.5768 13.4692 30.5499C13.5303 30.5231 13.5962 30.5087 13.6629 30.5074C13.7297 30.5062 13.796 30.5182 13.8581 30.5427C15.3391 31.1139 16.9008 31.4035 18.4998 31.4035C20.0989 31.4035 21.6621 31.1143 23.1415 30.5436C23.2667 30.4954 23.4059 30.4988 23.5286 30.5532C23.6512 30.6075 23.7473 30.7084 23.7955 30.8336L23.7957 30.8335ZM12.7187 29.9502C12.6354 28.8677 12.3518 28.3525 11.595 27.9087C11.099 27.6179 10.318 27.4046 9.48904 27.1926L8.30815 26.9022C8.50542 26.724 8.68116 26.5233 8.83178 26.3042C9.59274 25.2017 9.72961 23.6796 9.16449 22.6028C8.67468 21.6695 7.74021 21.1555 6.5333 21.1555C5.32639 21.1555 4.39193 21.6696 3.90211 22.6028C3.33699 23.6796 3.47379 25.2016 4.23482 26.3042C4.38546 26.5232 4.5612 26.7239 4.75846 26.9022L3.57309 27.1938C2.74882 27.4046 1.96778 27.6179 1.47175 27.9088C0.714763 28.3526 0.431337 28.8677 0.348015 29.9503L0.347292 29.9612C0.247855 31.7665 0.294249 33.4278 0.352784 34.8149C0.373251 35.3254 0.590706 35.808 0.959488 36.1616C1.32827 36.5151 1.81969 36.712 2.33055 36.7109H10.7361C11.2469 36.712 11.7384 36.5151 12.1072 36.1615C12.476 35.808 12.6934 35.3253 12.7139 34.8148C12.7724 33.4279 12.8187 31.7667 12.7194 29.9613L12.7187 29.9503L12.7187 29.9502ZM4.79799 23.073C5.10895 22.4805 5.70904 22.1673 6.53337 22.1673C7.35771 22.1673 7.9578 22.4805 8.26876 23.073C8.66022 23.8189 8.54698 24.9361 7.99928 25.7295C7.61541 26.2856 7.10586 26.595 6.56062 26.6047C6.54224 26.6046 6.52386 26.6046 6.50548 26.6047C5.96118 26.5951 5.45141 26.2857 5.06747 25.7295C4.51984 24.9361 4.40652 23.8189 4.79799 23.073ZM11.7032 34.7721C11.6931 35.0217 11.5868 35.2577 11.4065 35.4305C11.2262 35.6034 10.9859 35.6997 10.7361 35.6991H10.4968V32.3538C10.4968 32.2197 10.4435 32.091 10.3486 31.9961C10.2538 31.9013 10.1251 31.848 9.99092 31.848C9.85676 31.848 9.72809 31.9013 9.63323 31.9961C9.53836 32.091 9.48506 32.2197 9.48506 32.3538V35.6991H3.58154V32.3538C3.58154 32.2197 3.52824 32.091 3.43338 31.9961C3.33851 31.9013 3.20984 31.848 3.07568 31.848C2.94152 31.848 2.81285 31.9013 2.71798 31.9961C2.62312 32.091 2.56982 32.2197 2.56982 32.3538V35.6991H2.33048C2.08071 35.6997 1.84045 35.6034 1.66013 35.4306C1.47982 35.2577 1.37347 35.0218 1.36342 34.7722C1.30604 33.4109 1.26037 31.7823 1.35706 30.0224C1.42195 29.186 1.58072 29.0175 1.98324 28.7814C2.3974 28.5386 3.25569 28.3192 3.81908 28.175L5.60563 27.7355C5.92287 27.6575 6.21916 27.6183 6.51495 27.6167C6.52001 27.6167 6.52499 27.6172 6.53005 27.6172H6.53533C6.54053 27.6172 6.54573 27.6167 6.55094 27.6167C6.84694 27.6182 7.14337 27.6575 7.46083 27.7355L9.24283 28.1738C9.81077 28.3191 10.6691 28.5386 11.0831 28.7814C11.4857 29.0174 11.6445 29.1858 11.7095 30.0223C11.8061 31.7824 11.7604 33.4109 11.703 34.772L11.7032 34.7721ZM36.6521 29.9503C36.5688 28.8677 36.2853 28.3526 35.5284 27.9088C35.0324 27.618 34.2513 27.4046 33.4224 27.1927L32.2415 26.9023C32.4388 26.724 32.6145 26.5233 32.7651 26.3043C33.5261 25.2018 33.663 23.6797 33.0979 22.6029C32.608 21.6696 31.6736 21.1556 30.4667 21.1556C29.2598 21.1556 28.3254 21.6696 27.8355 22.6029C27.2704 23.6796 27.4072 25.2017 28.1682 26.3043C28.3188 26.5234 28.4945 26.7241 28.6918 26.9023L27.5065 27.1938C26.6822 27.4046 25.9011 27.618 25.4051 27.9088C24.6481 28.3526 24.3647 28.8678 24.2814 29.9503L24.2807 29.9613C24.1811 31.767 24.2277 33.4281 24.2862 34.8149C24.3066 35.3254 24.5241 35.8081 24.8928 36.1616C25.2616 36.5152 25.753 36.7121 26.2639 36.7109H34.6695C35.1804 36.7121 35.6718 36.5152 36.0406 36.1616C36.4094 35.8081 36.6268 35.3254 36.6472 34.8149C36.7058 33.4281 36.7522 31.767 36.6527 29.9613L36.652 29.9503L36.6521 29.9503ZM28.7314 23.073C29.0425 22.4805 29.6424 22.1673 30.4667 22.1673C31.2911 22.1673 31.8912 22.4805 32.2021 23.073C32.5936 23.8189 32.4803 24.9361 31.9326 25.7295C31.5486 26.2858 31.0389 26.5952 30.4935 26.6047C30.4754 26.6045 30.4573 26.6046 30.4393 26.6047C29.8949 26.5953 29.3848 26.2858 29.0008 25.7295C28.4533 24.9361 28.34 23.8188 28.7314 23.073ZM35.6365 34.7722C35.6265 35.0218 35.5202 35.2578 35.3399 35.4306C35.1596 35.6035 34.9193 35.6998 34.6696 35.6992H34.4302V32.3539C34.4302 32.2197 34.3769 32.0911 34.2821 31.9962C34.1872 31.9013 34.0585 31.848 33.9244 31.848C33.7902 31.848 33.6615 31.9013 33.5667 31.9962C33.4718 32.0911 33.4185 32.2197 33.4185 32.3539V35.6992H27.515V32.3539C27.515 32.2197 27.4618 32.0911 27.3669 31.9962C27.272 31.9013 27.1434 31.848 27.0092 31.848C26.875 31.848 26.7464 31.9013 26.6515 31.9962C26.5566 32.0911 26.5033 32.2197 26.5033 32.3539V35.6992H26.264C26.0142 35.6998 25.7739 35.6035 25.5936 35.4306C25.4133 35.2578 25.307 35.0218 25.297 34.7722C25.2395 33.4112 25.1939 31.7828 25.2906 30.0225C25.3555 29.1861 25.5142 29.0175 25.9167 28.7815C26.3309 28.5387 27.1892 28.3192 27.7527 28.1751L29.5392 27.7356C29.8566 27.6576 30.1529 27.6183 30.4487 27.6167C30.4537 27.6167 30.4586 27.6172 30.4636 27.6172H30.4688C30.474 27.6172 30.4792 27.6167 30.4843 27.6167C30.7804 27.6183 31.0768 27.6575 31.3943 27.7356L33.1763 28.1739C33.7443 28.3192 34.6026 28.5386 35.0167 28.7814C35.4193 29.0175 35.5781 29.1861 35.643 30.0224C35.7397 31.7827 35.694 33.4111 35.6365 34.7721V34.7722ZM24.2806 9.0947C24.1811 10.9005 24.2276 12.5616 24.2861 13.9483C24.3066 14.4588 24.524 14.9415 24.8928 15.2951C25.2615 15.6486 25.753 15.8455 26.2638 15.8444H34.6694C35.1803 15.8455 35.6717 15.6486 36.0405 15.2951C36.4093 14.9415 36.6267 14.4588 36.6471 13.9483C36.7057 12.5616 36.7521 10.9005 36.6527 9.0947L36.652 9.08372C36.5687 8.00118 36.2852 7.486 35.5282 7.04221C35.0325 6.75156 34.2513 6.53809 33.4223 6.32606L32.2414 6.03563C32.4387 5.85745 32.6144 5.65677 32.765 5.4377C33.526 4.33514 33.6628 2.81308 33.0977 1.73633C32.6079 0.803016 31.6734 0.289062 30.4665 0.289062C29.2596 0.289062 28.3252 0.803016 27.8354 1.73625C27.2703 2.81301 27.407 4.33507 28.168 5.43763C28.3186 5.65674 28.4944 5.85744 28.6917 6.03563L27.5064 6.32714C26.6819 6.53802 25.9007 6.75149 25.405 7.04214C24.6481 7.48592 24.3646 8.00103 24.2812 9.08364L24.2805 9.09463L24.2806 9.0947ZM28.7313 2.20641C29.0424 1.61391 29.6423 1.30071 30.4667 1.30071C31.291 1.30071 31.891 1.61391 32.2021 2.20641C32.5935 2.95234 32.4803 4.06949 31.9326 4.8629C31.5488 5.41884 31.0394 5.72821 30.4945 5.73804C30.4757 5.73789 30.4569 5.73796 30.4382 5.73804C29.8942 5.72835 29.3846 5.41891 29.0008 4.8629C28.4532 4.06949 28.3398 2.95227 28.7313 2.20634V2.20641ZM25.2905 9.15591C25.3554 8.31951 25.5142 8.15098 25.9167 7.91496C26.3307 7.6723 27.1891 7.45268 27.7526 7.30851L29.5391 6.86906C29.8566 6.79102 30.1529 6.75178 30.4488 6.75019C30.4537 6.75019 30.4585 6.75069 30.4633 6.75069H30.4688C30.474 6.75069 30.479 6.75019 30.4841 6.75019C30.7802 6.7517 31.0767 6.79095 31.3943 6.86906L33.1763 7.30728C33.7443 7.45261 34.6027 7.67222 35.0167 7.91489C35.4192 8.15091 35.578 8.31944 35.6429 9.15584C35.7396 10.9162 35.6939 12.5446 35.6365 13.9056C35.6265 14.1551 35.5202 14.3911 35.3399 14.564C35.1595 14.7369 34.9193 14.8331 34.6695 14.8326H34.4301V11.4873C34.4301 11.3531 34.3769 11.2244 34.282 11.1296C34.1871 11.0347 34.0584 10.9814 33.9243 10.9814C33.7901 10.9814 33.6615 11.0347 33.5666 11.1296C33.4717 11.2244 33.4184 11.3531 33.4184 11.4873V14.8326H27.515V11.4873C27.515 11.3531 27.4617 11.2244 27.3668 11.1296C27.2719 11.0347 27.1433 10.9814 27.0091 10.9814C26.875 10.9814 26.7463 11.0347 26.6514 11.1296C26.5566 11.2244 26.5033 11.3531 26.5033 11.4873V14.8326H26.2639C26.0141 14.8331 25.7739 14.7369 25.5936 14.564C25.4132 14.3911 25.3069 14.1551 25.2969 13.9056C25.2395 12.5446 25.1938 10.9162 25.2905 9.15591ZM2.33055 15.8443H10.7361C11.2469 15.8454 11.7384 15.6485 12.1072 15.295C12.476 14.9414 12.6934 14.4587 12.7139 13.9483C12.7724 12.5614 12.8187 10.9001 12.7194 9.0947L12.7187 9.08372C12.6353 8.00111 12.3518 7.48592 11.5949 7.04221C11.0992 6.75149 10.3181 6.53809 9.48897 6.32606L8.30807 6.03563C8.50537 5.85745 8.68111 5.65677 8.83171 5.4377C9.59267 4.33514 9.72954 2.81308 9.16442 1.73633C8.67461 0.803016 7.74014 0.289062 6.53323 0.289062C5.32632 0.289062 4.39185 0.803016 3.90204 1.73633C3.33692 2.81308 3.47372 4.33514 4.23475 5.4377C4.38536 5.65676 4.56108 5.85745 4.75831 6.0357L3.57294 6.32729C2.74853 6.53816 1.96742 6.75156 1.4716 7.04228C0.714691 7.48607 0.431193 8.00118 0.34787 9.08379L0.347148 9.09477C0.24771 10.9 0.294105 12.5614 0.35264 13.9484C0.373106 14.4589 0.590562 14.9415 0.959343 15.2951C1.32812 15.6486 1.81954 15.8455 2.33041 15.8444L2.33055 15.8443ZM4.79791 2.20641C5.10895 1.61391 5.70897 1.30071 6.5333 1.30071C7.35764 1.30071 7.95766 1.61391 8.26869 2.20641C8.66015 2.95234 8.54691 4.06949 7.99921 4.8629C7.61526 5.4192 7.10369 5.72857 6.5599 5.73804C6.54169 5.73789 6.52347 5.73796 6.50526 5.73804C5.96103 5.7285 5.45127 5.41905 5.06739 4.86283C4.51977 4.06942 4.40645 2.95227 4.79791 2.20634V2.20641ZM1.35713 9.15584C1.42203 8.31944 1.58079 8.15091 1.98331 7.91489C2.39732 7.67215 3.25569 7.45261 3.81915 7.30844L5.6057 6.86899C5.92302 6.79095 6.21916 6.7517 6.51495 6.75011C6.51993 6.75011 6.52492 6.75062 6.52998 6.75062H6.53547C6.54067 6.75062 6.5458 6.75011 6.55101 6.75011C6.84701 6.75163 7.14337 6.79087 7.46083 6.86899L9.24283 7.30721C9.81084 7.45254 10.6693 7.67215 11.0832 7.91482C11.4857 8.15084 11.6445 8.31929 11.7095 9.15577C11.8061 10.9158 11.7604 12.5443 11.703 13.9055C11.693 14.1551 11.5867 14.3911 11.4064 14.5639C11.226 14.7368 10.9858 14.833 10.736 14.8325H10.4966V11.4872C10.4966 11.353 10.4433 11.2244 10.3485 11.1295C10.2536 11.0346 10.1249 10.9813 9.99078 10.9813C9.85662 10.9813 9.72795 11.0346 9.63308 11.1295C9.53822 11.2244 9.48492 11.353 9.48492 11.4872V14.8325H3.58154V11.4872C3.58154 11.353 3.52824 11.2244 3.43338 11.1295C3.33851 11.0346 3.20984 10.9813 3.07568 10.9813C2.94152 10.9813 2.81285 11.0346 2.71798 11.1295C2.62312 11.2244 2.56982 11.353 2.56982 11.4872V14.8325H2.33048C2.08071 14.833 1.84045 14.7368 1.66013 14.5639C1.47982 14.3911 1.37347 14.1551 1.36342 13.9056C1.30604 12.5443 1.26037 10.9157 1.35706 9.15577L1.35713 9.15584Z" fill="#064EE3"/>
</g>
<defs>
<clipPath id="clip0_6_134">
<rect width="37" height="37" fill="white"/>
</clipPath>
</defs>
</svg>
