<svg width="34" height="34" viewBox="0 0 34 34" fill="none" xmlns="http://www.w3.org/2000/svg">
<path d="M28.3333 29.8215V18.4159H29.1025C30.2415 18.4159 31.1666 17.4908 31.1666 16.3518C31.1666 15.5968 30.7544 14.9026 30.09 14.5399L18.5101 8.22442C18.2537 8.08417 17.9831 7.98925 17.7083 7.9255V6.5995L21.9286 4.48725C22.3904 4.1685 22.6666 3.63159 22.6666 3.0465C22.6666 2.46142 22.3904 1.92309 21.9286 1.60434C21.8931 1.58025 18.6291 0.131003 18.4237 0.0700863C17.9265 -0.0800804 17.3981 0.0134196 16.9759 0.32792C16.548 0.64667 16.2916 1.15384 16.2916 1.68509V7.9255C16.0154 7.98925 15.7448 8.08417 15.4898 8.22442L3.90997 14.5399C3.24697 14.9026 2.83472 15.5968 2.83472 16.3518C2.83472 17.4908 3.76122 18.4159 4.8988 18.4159H5.66805V29.8215C4.05305 30.1502 2.83472 31.581 2.83472 33.2909C2.83472 33.6819 3.15205 33.9993 3.54305 33.9993C3.93405 33.9993 4.25138 33.6819 4.25138 33.2909C4.25138 32.1193 5.2048 31.1659 6.37638 31.1659C6.04063 31.1659 27.9111 31.1659 27.6264 31.1659C28.798 31.1659 29.7514 32.1193 29.7514 33.2909C29.7514 33.6819 30.0687 33.9993 30.4597 33.9993C30.8507 33.9993 31.168 33.6819 31.168 33.2909C31.168 31.5796 29.9483 30.1502 28.3333 29.8215ZM17.7083 1.68367C17.7083 1.56042 17.7862 1.48817 17.8202 1.46409C17.8514 1.44 17.9945 1.42017 18.0157 1.42725C18.1616 1.46975 18.3047 1.52217 18.4464 1.58592L21.1579 2.79859C21.2429 2.88217 21.2485 3.00542 21.2485 3.04509C21.2485 3.08759 21.24 3.23917 21.2089 3.2675L17.7069 5.01425V1.68367H17.7083ZM9.91663 29.7493H7.0833V18.4159H9.91663V29.7493ZM14.1666 29.7493H11.3333V18.4159H14.1666V29.7493ZM18.4166 29.7493H15.5833V18.4159H18.4166V29.7493ZM22.6666 29.7493H19.8333V18.4159H22.6666V29.7493ZM24.0833 29.7493V18.4159H26.9166V29.7493H24.0833ZM4.89738 16.9993C4.54038 16.9993 4.24997 16.7088 4.24997 16.3518C4.24997 16.1138 4.37888 15.8971 4.58713 15.7823L16.167 9.46684C16.6883 9.18492 17.3116 9.18492 17.833 9.46684L29.4128 15.7823C29.6196 15.8971 29.75 16.1138 29.75 16.3518C29.75 16.7088 29.4595 16.9993 29.1025 16.9993H4.89738Z" fill="#064EE3"/>
</svg>
