<svg width="113" height="47" viewBox="0 0 113 47" fill="none" xmlns="http://www.w3.org/2000/svg">
<path d="M37.2774 33.4615C38.6934 33.4615 39.808 33.7691 40.6213 34.3833C41.4345 34.9918 41.9724 35.8081 42.234 36.8317L39.9224 37.2413C39.8257 36.9456 39.6714 36.664 39.461 36.3968C39.2563 36.1295 38.9779 35.9105 38.6253 35.7399C38.2727 35.5693 37.8317 35.4839 37.3029 35.4839C36.5808 35.4839 35.9779 35.6455 35.4946 35.9696C35.0112 36.2881 34.7693 36.7009 34.7693 37.2071C34.7694 37.6448 34.932 37.9974 35.2561 38.2647C35.5803 38.5319 36.1038 38.7509 36.8259 38.9215L38.9068 39.3995C40.1124 39.6781 41.0112 40.1067 41.6026 40.6867C42.194 41.2668 42.4901 42.0206 42.4901 42.9476C42.4901 43.7323 42.2618 44.4319 41.8069 45.0461C41.3577 45.6544 40.7297 46.1322 39.9224 46.479C39.1206 46.8259 38.1905 47 37.1328 47C35.6658 47 34.4686 46.687 33.5417 46.0617C32.6147 45.4304 32.0455 44.5338 31.8351 43.3737L34.3002 42.9984C34.4537 43.641 34.7696 44.1279 35.2473 44.4577C35.7249 44.7818 36.3476 44.9434 37.1152 44.9435C37.951 44.9435 38.6195 44.7703 39.1199 44.4235C39.6204 44.0709 39.8706 43.6414 39.8706 43.1352C39.8706 42.7258 39.7173 42.3817 39.4102 42.103C39.1088 41.8244 38.6449 41.6138 38.0193 41.4716L35.8015 40.9858C34.579 40.7072 33.6748 40.263 33.0891 39.6546C32.5092 39.0461 32.2192 38.2755 32.2192 37.3429C32.2193 36.5696 32.4351 35.8928 32.8673 35.3128C33.2994 34.7328 33.8969 34.2812 34.6589 33.9571C35.4209 33.6273 36.2937 33.4616 37.2774 33.4615ZM50.0418 33.4615C50.7809 33.4616 51.4975 33.5846 52.1912 33.8291C52.8848 34.0736 53.5075 34.4573 54.059 34.9805C54.6106 35.5037 55.0455 36.1835 55.3639 37.0194C55.6823 37.8497 55.8419 38.859 55.8419 40.0475V40.9516H46.5308C46.5505 41.7501 46.7014 42.4354 46.9873 43.0072C47.3 43.6212 47.735 44.0905 48.2922 44.4147C48.8495 44.7331 49.5011 44.8926 50.2461 44.8926C50.7294 44.8926 51.1705 44.8239 51.5685 44.6874C51.9664 44.5452 52.3108 44.3355 52.6007 44.0569C52.8906 43.7784 53.1118 43.434 53.2654 43.0248L55.6796 43.4597C55.4863 44.1704 55.1399 44.7932 54.6396 45.3276C54.1449 45.8565 53.5215 46.2683 52.7708 46.5641C52.0259 46.8541 51.1759 47 50.2207 47C48.9297 47 47.8173 46.7237 46.8847 46.1721C45.9578 45.6148 45.2414 44.8327 44.7353 43.8263C44.2349 42.8141 43.9846 41.6284 43.9846 40.2694C43.9846 38.9273 44.2348 37.744 44.7353 36.7203C45.2414 35.6967 45.9472 34.898 46.8514 34.3236C47.7613 33.7494 48.8249 33.4615 50.0418 33.4615ZM62.8139 33.4615C64.2298 33.4616 65.3446 33.7691 66.1577 34.3833C66.9708 34.9917 67.508 35.8082 67.7695 36.8317L65.4579 37.2413C65.3613 36.9457 65.2078 36.6639 64.9975 36.3968C64.7929 36.1296 64.5141 35.9105 64.1618 35.7399C63.8093 35.5694 63.3681 35.4839 62.8393 35.4839C62.1173 35.4839 61.5144 35.6456 61.0311 35.9696C60.5477 36.2881 60.3058 36.7009 60.3058 37.2071C60.3059 37.6448 60.4676 37.9974 60.7916 38.2647C61.1158 38.5319 61.6392 38.7509 62.3614 38.9215L64.4433 39.3995C65.6484 39.6781 66.5468 40.1069 67.1381 40.6867C67.7295 41.2668 68.0256 42.0206 68.0256 42.9476C68.0256 43.7323 67.7983 44.4319 67.3434 45.0461C66.8941 45.6546 66.2654 46.1321 65.4579 46.479C64.656 46.8259 63.7261 47 62.6683 47C61.2013 47 60.0041 46.6871 59.0772 46.0617C58.1502 45.4304 57.582 44.5338 57.3716 43.3737L59.8367 42.9984C59.9902 43.641 60.3061 44.1279 60.7838 44.4577C61.2614 44.7817 61.8842 44.9435 62.6517 44.9435C63.4876 44.9434 64.156 44.7704 64.6564 44.4235C65.1567 44.0709 65.4071 43.6413 65.4071 43.1352C65.407 42.7258 65.2528 42.3817 64.9457 42.103C64.6443 41.8245 64.1812 41.6138 63.5558 41.4716L61.338 40.9858C60.1154 40.7072 59.2114 40.263 58.6256 39.6546C58.0456 39.0461 57.7547 38.2756 57.7547 37.3429C57.7548 36.5696 57.9716 35.8928 58.4037 35.3128C58.8358 34.733 59.4327 34.2812 60.1944 33.9571C60.9565 33.6273 61.8301 33.4615 62.8139 33.4615ZM74.9713 33.4615C76.3872 33.4615 77.5019 33.7692 78.3151 34.3833C79.1283 34.9918 79.6663 35.8081 79.9279 36.8317L77.6162 37.2413C77.5196 36.9457 77.3661 36.6639 77.1558 36.3968C76.9511 36.1295 76.6718 35.9105 76.3192 35.7399C75.9667 35.5694 75.5263 35.4839 74.9977 35.4839C74.2754 35.4839 73.6718 35.6455 73.1884 35.9696C72.7051 36.2881 72.4642 36.701 72.4642 37.2071C72.4642 37.6448 72.6259 37.9974 72.9499 38.2647C73.2741 38.5319 73.7975 38.7509 74.5197 38.9215L76.6007 39.3995C77.8061 39.6781 78.705 40.1068 79.2964 40.6867C79.8879 41.2668 80.1839 42.0206 80.1839 42.9476C80.1839 43.7322 79.9565 44.432 79.5017 45.0461C79.0525 45.6545 78.4236 46.1321 77.6162 46.479C76.8144 46.8259 75.8844 47 74.8266 47C73.3596 47 72.1624 46.6871 71.2355 46.0617C70.3086 45.4304 69.7393 44.5338 69.5289 43.3737L71.995 42.9984C72.1485 43.641 72.4635 44.1279 72.9411 44.4577C73.4188 44.7818 74.0423 44.9435 74.81 44.9435C75.6456 44.9434 76.3134 44.7702 76.8137 44.4235C77.3142 44.0709 77.5644 43.6414 77.5644 43.1352C77.5644 42.7258 77.4111 42.3817 77.104 42.103C76.8027 41.8245 76.3394 41.6138 75.7141 41.4716L73.4963 40.9858C72.2736 40.7072 71.3687 40.2631 70.783 39.6546C70.2031 39.0461 69.913 38.2754 69.913 37.3429C69.9131 36.5696 70.129 35.8928 70.5611 35.3128C70.9933 34.7328 71.5908 34.2812 72.3527 33.9571C73.1147 33.6273 73.9876 33.4616 74.9713 33.4615ZM93.048 33.4615C94.2762 33.4616 95.3482 33.7431 96.2637 34.306C97.1793 34.869 97.8904 35.6603 98.3965 36.6783C98.9025 37.6961 99.155 38.885 99.155 40.244C99.1549 41.5972 98.9025 42.7799 98.3965 43.7921C97.8904 44.8043 97.1793 45.5925 96.2637 46.1555C95.3482 46.7184 94.2762 47 93.048 47C91.8198 47 90.7477 46.7183 89.8322 46.1555C88.9166 45.5925 88.2056 44.8043 87.6994 43.7921C87.1934 42.7799 86.94 41.5973 86.94 40.244C86.94 38.8849 87.1934 37.6962 87.6994 36.6783C88.2056 35.6603 88.9166 34.869 89.8322 34.306C90.7477 33.7432 91.8198 33.4615 93.048 33.4615ZM20.8546 35.7566H21.008C21.1559 35.4836 21.3686 35.1677 21.6473 34.8094C21.9259 34.4512 22.3128 34.1383 22.8075 33.8711C23.3022 33.5981 23.957 33.4615 24.7702 33.4615C25.8278 33.4616 26.7716 33.7295 27.6018 34.264C28.4321 34.7986 29.0837 35.5691 29.5557 36.5756C30.0333 37.5822 30.2722 38.7939 30.2722 40.2098C30.2721 41.6256 30.0355 42.8395 29.5635 43.8517C29.0915 44.8582 28.4439 45.635 27.6194 46.1809C26.7949 46.7211 25.8533 46.9912 24.7956 46.9912C23.9994 46.9912 23.3478 46.8577 22.8417 46.5905C22.3414 46.3232 21.9492 46.0103 21.6649 45.6521C21.3805 45.2938 21.1616 44.9748 21.008 44.6962H20.7949V46.7351H18.3035V29.2654H20.8546V35.7566ZM7.87325 29.0259C9.38024 29.0259 10.7252 29.3877 11.9081 30.1099C13.0965 30.8265 14.0319 31.8556 14.7143 33.1976C15.3967 34.534 15.7377 36.1346 15.7377 37.9998C15.7377 39.8649 15.3967 41.4687 14.7143 42.8107C14.0319 44.1471 13.0967 45.1772 11.9081 45.8994C10.7253 46.6159 9.38021 46.9736 7.87325 46.9736C6.36053 46.9736 5.00936 46.616 3.8208 45.8994C2.63809 45.1772 1.70575 44.1448 1.02338 42.8029C0.340947 41.4608 0 39.8594 0 37.9998C3.24758e-05 36.1346 0.341016 34.534 1.02338 33.1976C1.7057 31.8557 2.63817 30.8264 3.8208 30.1099C5.00936 29.3877 6.36053 29.0259 7.87325 29.0259ZM84.818 46.7351H82.2678V33.6326H84.818V46.7351ZM107.756 33.4615C108.649 33.4615 109.431 33.6493 110.102 34.0245C110.773 34.3941 111.294 34.9459 111.663 35.6793C112.033 36.4128 112.217 37.3202 112.217 38.4005V46.7351H109.667V38.7084C109.667 37.7589 109.42 37.0164 108.925 36.4818C108.431 35.9416 107.751 35.6716 106.887 35.6715C106.295 35.6715 105.769 35.7988 105.308 36.0547C104.853 36.3105 104.492 36.6861 104.225 37.1807C103.963 37.6698 103.832 38.2619 103.832 38.9557V46.7351H101.282V33.6326H103.73V35.7654H103.892C104.193 35.0716 104.665 34.5138 105.308 34.093C105.956 33.6721 106.773 33.4615 107.756 33.4615ZM93.0558 35.5943C92.2542 35.5944 91.5887 35.8081 91.0599 36.2345C90.537 36.6609 90.1477 37.2265 89.8918 37.9314C89.6416 38.6308 89.5165 39.3992 89.5165 40.2352C89.5165 41.0768 89.6416 41.8474 89.8918 42.5468C90.1477 43.2461 90.5369 43.8062 91.0599 44.227C91.5887 44.6478 92.2542 44.8584 93.0558 44.8584C93.8519 44.8584 94.5119 44.6478 95.0351 44.227C95.5583 43.8062 95.9451 43.2462 96.1953 42.5468C96.4512 41.8474 96.5794 41.0768 96.5795 40.2352C96.5795 39.3992 96.4512 38.6308 96.1953 37.9314C95.9451 37.2264 95.5582 36.661 95.0351 36.2345C94.5119 35.808 93.852 35.5943 93.0558 35.5943ZM24.2238 35.6285C23.4845 35.6285 22.8589 35.8193 22.3471 36.2003C21.841 36.5813 21.4573 37.1131 21.1957 37.7955C20.9342 38.4778 20.8028 39.2737 20.8028 40.1834C20.8028 41.1046 20.9372 41.9126 21.2045 42.6064C21.4718 43.3002 21.8586 43.8434 22.3647 44.2358C22.8708 44.6223 23.4904 44.8154 24.2238 44.8154C24.9858 44.8154 25.6229 44.6141 26.1347 44.2104C26.6465 43.801 27.0333 43.2463 27.2949 42.5468C27.5622 41.8473 27.6956 41.0591 27.6956 40.1834C27.6956 39.3192 27.5652 38.5431 27.3037 37.8551C27.0478 37.1671 26.6609 36.6238 26.1435 36.2257C25.6317 35.8276 24.9915 35.6285 24.2238 35.6285ZM7.87325 31.4314C6.86666 31.4314 5.96796 31.6847 5.17748 32.1909C4.38704 32.6913 3.76143 33.4306 3.3008 34.4087C2.84588 35.3811 2.61858 36.5782 2.61855 37.9998C2.61855 39.4214 2.8459 40.6216 3.3008 41.5997C3.7614 42.5721 4.38709 43.3113 5.17748 43.8175C5.96796 44.3179 6.86666 44.5681 7.87325 44.5681C8.8741 44.5681 9.76976 44.3179 10.5602 43.8175C11.3563 43.3113 11.982 42.5721 12.4369 41.5997C12.8975 40.6215 13.1279 39.4214 13.1279 37.9998C13.1279 36.5782 12.8975 35.3811 12.4369 34.4087C11.9819 33.4306 11.3564 32.6913 10.5602 32.1909C9.76976 31.6848 8.8741 31.4314 7.87325 31.4314ZM50.0584 35.5689C49.3419 35.5689 48.7163 35.7451 48.1817 36.0977C47.6529 36.4445 47.2431 36.8993 46.9531 37.4622C46.7037 37.951 46.5644 38.4775 46.5338 39.0407H53.3426C53.3426 38.3697 53.206 37.7754 52.933 37.2579C52.6601 36.7348 52.2762 36.3228 51.7816 36.0214C51.2925 35.72 50.7181 35.5689 50.0584 35.5689ZM83.5551 28.5656C83.9986 28.5656 84.3772 28.7159 84.6899 29.0171C85.0084 29.3128 85.1679 29.6715 85.1679 30.0923C85.1679 30.5075 85.0084 30.8661 84.6899 31.1675C84.3772 31.4631 83.9986 31.6113 83.5551 31.6113C83.1118 31.6112 82.7309 31.463 82.4125 31.1675C82.0997 30.8661 81.9433 30.5075 81.9433 30.0923C81.9434 29.6715 82.0997 29.3128 82.4125 29.0171C82.7308 28.716 83.1118 28.5656 83.5551 28.5656ZM45.2348 4.4356C46.2298 4.43564 47.1173 4.62117 47.8963 4.99079C48.6752 5.35474 49.3032 5.86678 49.7808 6.52634C50.2641 7.18599 50.5519 7.95656 50.6429 8.83797H48.1602C48.0237 8.22379 47.711 7.6942 47.2219 7.25062C46.7385 6.8072 46.0899 6.58596 45.2768 6.58596C44.5661 6.58602 43.9434 6.77369 43.4089 7.14897C42.8801 7.5186 42.4681 8.04735 42.1724 8.73534C41.8768 9.41766 41.7287 10.225 41.7287 11.1574C41.7287 12.1127 41.8737 12.9376 42.1636 13.6313C42.4537 14.3251 42.8634 14.8631 43.3923 15.2441C43.9267 15.6249 44.5548 15.8158 45.2768 15.8159C45.7601 15.8159 46.1981 15.7272 46.5905 15.551C46.9884 15.3691 47.3212 15.1103 47.5884 14.7749C47.8613 14.4395 48.0521 14.0357 48.1602 13.5639H50.6429C50.5519 14.4111 50.2756 15.1672 49.815 15.8325C49.3544 16.4978 48.7371 17.0213 47.9638 17.4023C47.1961 17.7831 46.2949 17.9741 45.2602 17.9741C43.9921 17.9741 42.9003 17.6862 41.9848 17.112C41.075 16.532 40.3753 15.7331 39.8862 14.7153C39.3972 13.6975 39.1522 12.5315 39.1522 11.218C39.1522 9.8873 39.4024 8.71233 39.9028 7.69437C40.4033 6.67077 41.1091 5.87206 42.019 5.2977C42.9288 4.72343 44.0008 4.4356 45.2348 4.4356ZM58.1692 4.4356C59.3974 4.43566 60.4694 4.71717 61.3849 5.28011C62.3005 5.84311 63.0116 6.63439 63.5177 7.65234C64.0237 8.67019 64.2762 9.85909 64.2762 11.218C64.2761 12.5712 64.0237 13.754 63.5177 14.7661C63.0116 15.7784 62.3005 16.5666 61.3849 17.1296C60.4694 17.6925 59.3973 17.974 58.1692 17.9741C56.9408 17.9741 55.868 17.6926 54.9524 17.1296C54.0369 16.5666 53.3267 15.7783 52.8206 14.7661C52.3146 13.754 52.0612 12.5713 52.0612 11.218C52.0612 9.85895 52.3146 8.67025 52.8206 7.65234C53.3267 6.63444 54.0369 5.8431 54.9524 5.28011C55.868 4.71711 56.9408 4.4356 58.1692 4.4356ZM92.3804 4.4356C93.1196 4.43564 93.8361 4.55862 94.5298 4.80312C95.2235 5.04765 95.8461 5.4314 96.3976 5.95454C96.9493 6.47773 97.385 7.1575 97.7035 7.99347C98.0219 8.82367 98.1805 9.83323 98.1805 11.0216V11.9257H88.8694C88.8891 12.7242 89.0401 13.4095 89.3259 13.9812C89.6387 14.5954 90.0744 15.0646 90.6318 15.3887C91.189 15.7071 91.8398 15.8667 92.5847 15.8667C93.0681 15.8667 93.5091 15.7979 93.9071 15.6615C94.3051 15.5193 94.6494 15.3096 94.9393 15.031C95.2293 14.7524 95.4514 14.4082 95.6049 13.9988L98.0182 14.4338C97.8249 15.1444 97.4785 15.7672 96.9782 16.3017C96.4835 16.8306 95.8601 17.2424 95.1094 17.5381C94.3645 17.8281 93.5146 17.9741 92.5593 17.9741C91.2685 17.9741 90.1568 17.6977 89.2242 17.1462C88.2973 16.5889 87.58 15.8069 87.0739 14.8003C86.5735 13.7882 86.3232 12.6024 86.3232 11.2434C86.3232 9.90134 86.5734 8.71802 87.0739 7.69437C87.58 6.67074 88.2858 5.87208 89.19 5.2977C90.0999 4.72338 91.1635 4.4356 92.3804 4.4356ZM7.87325 0C9.38024 1.41424e-05 10.7252 0.361754 11.9081 1.08398C13.0965 1.80052 14.0319 2.82969 14.7143 4.1717C15.3967 5.50804 15.7377 7.10868 15.7377 8.97384C15.7377 10.839 15.3967 12.4427 14.7143 13.7848C14.0319 15.1212 13.0967 16.1512 11.9081 16.8735C10.7253 17.59 9.38021 17.9477 7.87325 17.9477C6.36053 17.9477 5.00936 17.59 3.8208 16.8735C2.63809 16.1513 1.70575 15.1189 1.02338 13.777C0.340947 12.4348 0 10.8335 0 8.97384C3.24758e-05 7.1087 0.341016 5.50803 1.02338 4.1717C1.7057 2.82979 2.63817 1.80051 3.8208 1.08398C5.00936 0.36174 6.36053 0 7.87325 0ZM20.6493 12.6334C20.6493 13.5262 20.8974 14.2372 21.3922 14.7661C21.8869 15.2949 22.5292 15.5598 23.3197 15.5598C23.7973 15.5598 24.2719 15.4398 24.7438 15.2011C25.2215 14.9622 25.6176 14.6015 25.9304 14.1181C26.2488 13.6348 26.4052 13.0204 26.3996 12.2756V4.60665H28.9585V17.7092H26.4504V15.4406H26.3135C26.0121 16.1398 25.5292 16.723 24.864 17.1892C24.2043 17.6498 23.3818 17.8802 22.3979 17.8802C21.5565 17.8802 20.8117 17.6946 20.1635 17.325C19.5209 16.9497 19.0142 16.395 18.6446 15.6615C18.2808 14.9279 18.0992 14.0205 18.0992 12.9403V4.60665H20.6493V12.6334ZM35.0939 4.60665H37.7808V6.65341H35.0939V13.862C35.0939 14.3567 35.1679 14.729 35.3157 14.9792C35.4636 15.2237 35.6544 15.3916 35.8875 15.4826C36.1263 15.5678 36.3851 15.6106 36.6636 15.6106C36.8683 15.6106 37.0477 15.596 37.2012 15.5676C37.3544 15.5392 37.4737 15.5172 37.5589 15.5002L38.0193 17.6066C37.8715 17.6634 37.6615 17.7208 37.3889 17.7776C37.1159 17.8402 36.774 17.8745 36.3645 17.8802C35.6936 17.8916 35.0678 17.7717 34.4878 17.5215C33.9079 17.2713 33.4386 16.8844 33.0803 16.3613C32.7222 15.8381 32.5437 15.1812 32.5437 14.3908V6.65341H30.624V4.60665H32.5437V1.46713H35.0939V4.60665ZM80.1712 4.4356C81.3596 4.43568 82.3295 4.80889 83.0801 5.55379C83.8362 6.29878 84.2139 7.42192 84.2139 8.92301V17.7092H81.6638V9.16151C81.6637 8.27449 81.4219 7.63205 80.9385 7.234C80.4551 6.83592 79.8776 6.63679 79.2065 6.63679C78.3765 6.63687 77.7308 6.8924 77.2702 7.40408C76.8096 7.91021 76.5792 8.5618 76.5792 9.35797V17.7092H74.0378V8.99925C74.0377 8.28859 73.8157 7.71694 73.3722 7.28483C72.9286 6.8527 72.351 6.63679 71.6402 6.63679C71.1569 6.63685 70.7105 6.76507 70.3011 7.02092C69.8975 7.27107 69.5709 7.62069 69.3207 8.06971C69.0762 8.51891 68.9532 9.03935 68.9532 9.63067V17.7092H66.4031V4.60665H68.8516V6.73942H69.0128C69.2858 6.01718 69.733 5.45418 70.3529 5.05041C70.9727 4.6411 71.7143 4.43565 72.5785 4.4356C73.4543 4.4356 74.1883 4.64095 74.7797 5.05041C75.3768 5.45986 75.8179 6.02293 76.1022 6.73942H76.238C76.5508 6.03993 77.0491 5.48217 77.7316 5.06703C78.4139 4.64635 79.2274 4.4356 80.1712 4.4356ZM58.177 6.56837C57.3753 6.56843 56.7099 6.78213 56.1811 7.20859C55.6581 7.63498 55.2689 8.20059 55.013 8.90542C54.7628 9.60491 54.6377 10.3733 54.6377 11.2092C54.6377 12.0508 54.7628 12.8214 55.013 13.5209C55.2689 14.2202 55.658 14.7803 56.1811 15.2011C56.7099 15.6219 57.3753 15.8324 58.177 15.8325C58.9731 15.8325 59.6331 15.6219 60.1563 15.2011C60.6794 14.7803 61.0663 14.2203 61.3165 13.5209C61.5724 12.8214 61.7006 12.0508 61.7006 11.2092C61.7006 10.3733 61.5724 9.60491 61.3165 8.90542C61.0663 8.20046 60.6793 7.63502 60.1563 7.20859C59.6331 6.78207 58.9731 6.56837 58.177 6.56837ZM7.87325 2.40547C6.86666 2.40547 5.96796 2.6588 5.17748 3.16494C4.38704 3.66538 3.76143 4.40464 3.3008 5.38274C2.84588 6.35514 2.61858 7.55223 2.61855 8.97384C2.61855 10.3955 2.8459 11.5956 3.3008 12.5737C3.7614 13.5461 4.38709 14.2854 5.17748 14.7915C5.96796 15.292 6.86666 15.5422 7.87325 15.5422C8.8741 15.5422 9.76976 15.292 10.5602 14.7915C11.3563 14.2854 11.982 13.5461 12.4369 12.5737C12.8975 11.5956 13.1279 10.3955 13.1279 8.97384C13.1279 7.55223 12.8975 6.35514 12.4369 5.38274C11.9819 4.40463 11.3564 3.66537 10.5602 3.16494C9.76976 2.65882 8.8741 2.40548 7.87325 2.40547ZM92.397 6.54296C91.6805 6.54298 91.0549 6.71918 90.5203 7.07175C89.9915 7.41861 89.5817 7.87335 89.2917 8.43625C89.0423 8.92509 88.903 9.45158 88.8724 10.0148H95.6812C95.6812 9.34375 95.5446 8.74947 95.2716 8.23196C94.9987 7.70887 94.6149 7.29689 94.1202 6.99551C93.6311 6.6941 93.0567 6.54296 92.397 6.54296Z" fill="#040404"/>
</svg>
