<svg width="32" height="32" viewBox="0 0 32 32" fill="none" xmlns="http://www.w3.org/2000/svg">
<g clip-path="url(#clip0_194_182)">
<path d="M15.6094 20.5859H14.8797V21.2852H14.3872V20.5859H13.6575V21.2852H13.0068V20.5859H12.2772V21.2852H11.6266V20.5859H10.8969V21.2852H10.3496V22.0149H10.8969V22.6777H11.6266V22.0149H12.2772V22.6777H13.0068V22.0149H13.6575V22.6777H14.3872V22.0149H14.8797V22.6777H15.6094V22.0149H16.2174V21.2852H15.6094V20.5859Z" fill="#064EE3"/>
<path d="M28.5004 20.8404C28.1842 20.6702 27.8437 20.5364 27.4971 20.4391C28.397 19.8675 29.1875 19.15 29.8624 18.2987C31.6501 16.055 32.3677 13.1545 31.8204 10.3392C31.3826 8.05285 30.1361 5.9976 28.318 4.54433L28.3119 4.53824C28.3119 4.53824 28.3058 4.53824 28.3058 4.53215C26.4451 3.04848 24.1101 2.29446 21.7387 2.40999H21.7326C18.9233 2.54984 16.3087 3.88757 14.5574 6.08268C14.5209 6.1313 14.4845 6.17999 14.448 6.22252C13.8703 5.79079 13.2501 5.43206 12.5934 5.15231C11.3469 4.62332 9.97266 4.37397 8.61665 4.44088C7.63766 4.48951 6.68303 4.69017 5.77094 5.04286C5.76484 5.04286 5.76484 5.04287 5.75875 5.04896C4.27149 5.62805 2.96434 6.5911 1.97054 7.83995C1.45368 8.49666 1.02804 9.20809 0.71184 9.96211C0.71184 9.9682 0.705748 9.9682 0.705748 9.9743C0.693564 9.99861 0.687525 10.0229 0.681433 10.0472C0.0308168 11.6221 -0.163754 13.3673 0.140259 15.082C0.213204 15.5016 0.316607 15.909 0.444273 16.3042C0.444273 16.3103 0.444273 16.3103 0.450364 16.3164C0.450364 16.3225 0.450364 16.3225 0.456456 16.3286C0.936178 17.7934 1.78417 19.1104 2.91913 20.1533C2.5543 20.3236 2.21379 20.5364 1.90368 20.7978L1.89759 20.8039C1.89759 20.8039 1.8915 20.8039 1.8915 20.81C0.827374 21.6978 0.219348 22.999 0.219348 24.3854C0.219348 25.7718 0.827427 27.0731 1.8915 27.9548L1.90368 27.9669C2.73674 28.6602 3.78868 29.0371 4.87103 29.0371C5.96556 29.0371 7.00532 28.6601 7.83837 27.9669L7.8566 27.9487C7.94172 27.8758 8.02076 27.8089 8.0998 27.7298C8.22751 27.6021 8.34909 27.4745 8.46462 27.3346C8.57407 27.3832 8.67747 27.4319 8.81122 27.4866C10.4104 28.1677 12.0705 28.5143 13.7487 28.5143C15.1229 28.5143 16.4972 28.2893 17.8227 27.8454C17.8288 27.8454 17.8349 27.8454 17.8349 27.8393C18.8564 27.4988 19.8232 27.0366 20.711 26.4711H20.7232C21.0698 26.2462 21.3981 26.0151 21.7083 25.7658C21.8968 26.836 22.4562 27.8089 23.3075 28.5204C24.1405 29.2197 25.1986 29.6027 26.2931 29.6027C27.5031 29.6027 28.6523 29.1406 29.528 28.2954C30.4462 27.4076 30.9508 26.2219 30.9508 24.9449C30.9508 23.668 30.4462 22.4823 29.528 21.5945C29.2179 21.2904 28.8713 21.041 28.5004 20.8404ZM21.6353 24.8597C21.3982 25.0725 21.1489 25.2732 20.8813 25.4678V17.8487C22.286 18.8824 23.2832 20.1411 23.5203 21.1931C23.4474 21.2478 23.3744 21.3025 23.3075 21.3572C22.2616 22.2329 21.6597 23.5037 21.6353 24.8597ZM7.61949 27.1703C7.44923 27.0062 7.2972 26.8237 7.16344 26.6353L7.61949 26.3252L7.20598 25.7232L6.79247 26.0029C6.68303 25.7597 6.59181 25.4982 6.531 25.2367L7.06608 25.109L6.89582 24.3976L6.43368 24.507C6.43368 24.4644 6.42759 24.4158 6.42759 24.3733C6.42759 24.2212 6.43978 24.0692 6.45191 23.9172L6.88973 24.0206L7.05999 23.3091L6.62216 23.1997C6.68327 22.9983 6.76266 22.8029 6.85932 22.6159L7.21202 22.8531L7.62553 22.2511L7.24852 21.9957C7.36405 21.8437 7.48568 21.7038 7.62553 21.5701C8.07548 22.0139 8.40995 22.5491 8.59843 23.1267C8.60452 23.1571 8.61666 23.1875 8.62884 23.2118C8.73828 23.5827 8.79909 23.9658 8.79909 24.3672C8.79305 25.4313 8.37955 26.4224 7.61949 27.1703ZM8.09985 21.0167C8.02081 20.9438 7.94178 20.8708 7.85665 20.7978C7.85056 20.7917 7.84446 20.7856 7.83843 20.7856C7.44319 20.4573 6.99324 20.1958 6.51892 20.0134V17.8791C7.14522 17.4109 7.83843 16.9974 8.58635 16.6508V21.5579C8.44036 21.3755 8.28229 21.1931 8.09985 21.0167ZM1.09499 15.9333C0.997374 15.6097 0.918194 15.2808 0.857833 14.9483C0.596358 13.4889 0.736207 12.0113 1.22875 10.6493L3.2171 11.6708L3.61233 15.0395C3.56702 15.072 3.53131 15.1161 3.50898 15.1672L2.75496 16.7056L1.09499 15.9333ZM8.59848 7.01304L11.6327 6.82456L13.9556 9.26896L13.0252 11.762L9.96058 12.133L7.61345 9.62775L8.59848 7.01304ZM14.2352 6.98264C15.1534 7.71838 15.9074 8.63656 16.4425 9.67028L14.5879 8.87982L12.2469 6.41715L12.5752 5.94892C13.165 6.22862 13.7183 6.57522 14.2352 6.98264ZM21.7022 12.2545L18.8322 15.8482C18.5221 15.7144 18.1998 15.5867 17.8775 15.4773C17.9748 15.0455 18.0416 14.6138 18.072 14.176C18.0781 14.1091 18.0842 14.0483 18.0842 13.9815C18.1085 13.4889 18.0964 12.9903 18.0416 12.4978C18.7288 12.0235 19.3551 11.4641 19.9084 10.8195L21.7022 12.2545ZM22.1704 17.9642C21.7387 17.569 21.2461 17.1981 20.7111 16.8515C20.328 16.6022 19.9206 16.3772 19.5132 16.1644L22.2738 12.7045L23.9095 14.0118C23.04 15.1915 22.4502 16.5353 22.1704 17.9642ZM14.5818 9.67637L16.8681 10.6493C17.0141 11.0567 17.1357 11.4823 17.2147 11.9141C17.3424 12.5647 17.385 13.2336 17.3546 13.8903L15.3905 14.6868L13.694 12.0539L14.5818 9.67637ZM17.914 11.689C17.8169 11.1972 17.6765 10.715 17.4944 10.2479C17.4822 10.2114 17.464 10.1689 17.4518 10.1324C17.1052 9.25677 16.6127 8.43585 16.0107 7.71229L19.3368 10.3634C18.9112 10.856 18.4308 11.2999 17.914 11.689ZM7.10263 10.1628L9.36464 12.5768L7.76543 15.4043L4.32381 14.8266L3.9529 11.6525L7.10263 10.1628ZM4.14138 15.5381L7.72289 16.1401L7.7837 16.2434C7.1209 16.5839 6.50069 16.9792 5.9352 17.417C5.15687 18.019 4.51235 18.6757 4.04412 19.3506L3.3205 17.2163L4.14138 15.5381ZM5.78921 18.4811V19.8067C5.49124 19.7459 5.18113 19.7155 4.86494 19.7155C4.79803 19.7155 4.73118 19.7155 4.66427 19.7216C4.96834 19.2959 5.34535 18.8824 5.78921 18.4811ZM8.81737 15.763C8.68965 15.8117 8.56808 15.8664 8.44645 15.9211L8.37955 15.8056L10.0457 12.8626L13.1042 12.4916L14.594 14.8084C14.3143 14.7901 14.0285 14.778 13.7488 14.778C12.0644 14.778 10.4044 15.1063 8.81737 15.763ZM17.2755 14.7111C17.2512 14.8935 17.2147 15.0759 17.1782 15.2584C16.9228 15.1854 16.6614 15.1246 16.406 15.0638L17.2755 14.7111ZM18.0843 16.3286C18.8034 16.6071 19.4955 16.9511 20.1517 17.3562V25.9542C19.4965 26.3578 18.8042 26.6979 18.0843 26.9697V16.3286ZM24.3838 24.6894C24.402 24.501 24.4446 24.2577 24.4932 23.978C24.6331 23.1328 24.8094 22.1173 24.6513 21.3694C25.1621 21.1383 25.7215 21.0107 26.287 21.0107C26.8343 21.0107 27.3816 21.1262 27.874 21.3451C27.6856 22.1052 27.8862 23.1328 28.0565 23.9841C28.1112 24.2638 28.1598 24.5071 28.1842 24.6955C28.2328 25.0908 28.0504 25.3887 27.8862 25.5772C27.5578 25.9542 27.0106 26.1853 26.4695 26.1853H26.0985C25.5635 26.1853 25.0283 25.9542 24.7 25.5894C24.5358 25.4009 24.3412 25.0908 24.3838 24.6894ZM26.3113 20.281H26.2931C25.5574 20.281 24.8216 20.4573 24.171 20.7917C23.9521 20.0803 23.4777 19.3202 22.815 18.5966C23.0218 17.1069 23.5933 15.6901 24.4872 14.4739L29.0719 18.1284C28.2876 19.0223 27.3633 19.7459 26.3113 20.281ZM29.5158 17.5568L24.9371 13.8963C26.5181 12.0721 28.7557 10.9532 31.1698 10.7891C31.3535 11.9705 31.3019 13.1766 31.0181 14.338C30.7343 15.4994 30.2237 16.5933 29.5158 17.5568ZM31.0238 10.0716C28.4456 10.2723 26.056 11.4823 24.3655 13.4464L22.7299 12.139L28.1477 5.34693C29.5767 6.58131 30.58 8.23524 31.0238 10.0716ZM27.5761 4.89088L22.1583 11.6829L20.3584 10.2479C21.8664 8.20483 22.5231 5.65094 22.1887 3.13355C24.1223 3.12751 26.0134 3.74163 27.5761 4.89088ZM21.459 3.16401C21.7874 5.50505 21.1914 7.88869 19.7929 9.79191L15.3662 6.25908C16.9107 4.47743 19.0997 3.36467 21.459 3.16401ZM8.64711 5.17667C9.74164 5.12195 10.8544 5.29221 11.882 5.66313L11.578 6.10095L8.4161 6.29552L6.82907 5.46856C7.42256 5.30493 8.03224 5.20705 8.64711 5.17667ZM2.54217 8.30214C3.42385 7.19548 4.5792 6.33202 5.88043 5.79694L7.88705 6.84279L6.89593 9.4514L3.56376 11.0324L1.50236 9.9743C1.78178 9.37784 2.13081 8.81655 2.54217 8.30214ZM1.45982 16.9062L2.63339 17.4474L3.33873 19.5452C2.54217 18.7973 1.90368 17.9034 1.45982 16.9062ZM0.942961 24.3672C0.942961 23.3091 1.3686 22.3058 2.11653 21.5701C2.2746 21.7281 2.42054 21.8924 2.54826 22.0747L2.29288 22.2511L2.70638 22.8531L2.92527 22.701C3.00431 22.8713 3.07121 23.0537 3.12593 23.2361L2.83405 23.303L3.00431 24.0145L3.27187 23.9537C3.28406 24.0935 3.29619 24.2334 3.29619 24.3732V24.4644L3.0104 24.3975L2.84014 25.1089L3.21106 25.1941C3.15634 25.4373 3.08334 25.6805 2.98608 25.9116L2.71248 25.7231L2.29897 26.3251L2.63339 26.5562C2.48745 26.7751 2.3111 26.9818 2.12262 27.1703C1.3686 26.4346 0.942961 25.4313 0.942961 24.3672ZM2.68811 27.6325C2.8921 27.4281 3.07541 27.204 3.23538 26.9636L3.63061 27.2312L4.04412 26.6292L3.60025 26.3252C3.7401 26.015 3.84955 25.6928 3.92254 25.3583L4.41509 25.4739L4.58534 24.7624L4.02595 24.6287C4.03204 24.5436 4.03204 24.4523 4.03204 24.3672C4.03204 24.1726 4.01985 23.972 3.99554 23.7834L4.58534 23.6436L4.41509 22.9322L3.84351 23.0659C3.76447 22.7984 3.66107 22.5369 3.53949 22.2876L4.04417 21.941L3.63066 21.339L3.15639 21.6613C3.01396 21.4638 2.85747 21.2769 2.68816 21.1019C3.33269 20.6702 4.08671 20.4391 4.86504 20.4391C5.64947 20.4391 6.40343 20.6702 7.04801 21.1019C6.90207 21.2539 6.76222 21.412 6.6345 21.5823L6.27577 21.3391L5.86226 21.941L6.23927 22.1964C6.09942 22.464 5.98389 22.7376 5.89876 23.0295L5.49134 22.9322L5.32109 23.6436L5.74063 23.7409C5.71023 23.9477 5.69804 24.1544 5.69804 24.3672C5.69804 24.4706 5.70414 24.5679 5.71023 24.6712L5.32109 24.7624L5.49134 25.4739L5.81363 25.3948C5.89267 25.7475 6.01429 26.088 6.17237 26.4103L5.85617 26.6231L6.26968 27.2251L6.54328 27.0366C6.68923 27.2434 6.85339 27.4441 7.03583 27.6264C6.39734 28.0582 5.64338 28.2892 4.85286 28.2892C4.09275 28.2952 3.33263 28.0581 2.68811 27.6325ZM9.09707 26.8055C9.01803 26.769 8.95113 26.7447 8.89031 26.7143C9.30382 26.009 9.52271 25.2063 9.52271 24.3672C9.52271 23.8929 9.44976 23.4308 9.31595 22.9868V16.3468C10.7449 15.7874 12.2347 15.5077 13.7487 15.5077C14.9405 15.5077 16.1445 15.6961 17.3181 16.061C17.3242 16.061 17.3303 16.0671 17.3363 16.0671C17.3423 16.0671 17.3485 16.0732 17.3545 16.0732V27.2251C16.1749 27.5899 14.9649 27.7784 13.7487 27.7784C12.1678 27.7784 10.6051 27.45 9.09707 26.8055ZM29.0173 27.7601C28.2815 28.4716 27.3147 28.8607 26.2931 28.8607C25.3749 28.8607 24.4811 28.5384 23.7757 27.9486C22.8819 27.2007 22.365 26.1001 22.365 24.9387C22.365 23.7712 22.8819 22.6767 23.7757 21.9288C23.8426 21.874 23.9095 21.8193 23.9764 21.7707C24.025 22.3849 23.8791 23.2483 23.7757 23.8624C23.7271 24.1543 23.6845 24.4097 23.6602 24.6165C23.6055 25.1394 23.7818 25.6623 24.1588 26.0819C24.6271 26.6049 25.3567 26.9211 26.1046 26.9211H26.4756C27.2356 26.9211 27.9653 26.5988 28.4396 26.0698C28.8105 25.6502 28.9808 25.1334 28.9139 24.6165C28.8895 24.4037 28.8348 24.1483 28.7801 23.8564C28.6585 23.2301 28.4821 22.3424 28.5551 21.7404C28.7193 21.8559 28.8774 21.9836 29.0233 22.1235C29.7956 22.8714 30.2212 23.8747 30.2212 24.951C30.2151 26.0089 29.7895 27.0122 29.0173 27.7601Z" fill="#064EE3"/>
</g>
<defs>
<clipPath id="clip0_194_182">
<rect width="32" height="32" fill="white"/>
</clipPath>
</defs>
</svg>
