<svg width="32" height="32" viewBox="0 0 32 32" fill="none" xmlns="http://www.w3.org/2000/svg">
<g clip-path="url(#clip0_194_162)">
<path d="M29.4099 8.23946C29.3935 7.37551 29.3778 6.55934 29.3778 5.76976C29.3778 5.47269 29.2598 5.1878 29.0497 4.97774C28.8397 4.76768 28.5548 4.64967 28.2577 4.64967C23.4675 4.64967 19.8203 3.27302 16.7803 0.317197C16.5712 0.113821 16.2911 3.05176e-05 15.9994 3.05176e-05C15.7078 3.05176e-05 15.4276 0.113821 15.2186 0.317197C12.1788 3.27302 8.5323 4.64967 3.74238 4.64967C3.44532 4.64967 3.16042 4.76768 2.95036 4.97774C2.74031 5.1878 2.6223 5.47269 2.6223 5.76976C2.6223 6.55949 2.60677 7.37595 2.59019 8.24006C2.43666 16.2802 2.22639 27.2915 15.6326 31.9383C15.8702 32.0207 16.1286 32.0207 16.3662 31.9383C29.7734 27.2913 29.5634 16.2797 29.4099 8.23946ZM15.9995 29.6914C4.50194 25.5147 4.67578 16.3651 4.83005 8.28277C4.83931 7.7977 4.84827 7.32757 4.85455 6.86669C9.34085 6.67732 12.9284 5.31784 15.9995 2.64249C19.0709 5.31784 22.6591 6.67747 27.1457 6.86669C27.1519 7.32742 27.1609 7.79726 27.1702 8.28203C27.3243 16.3647 27.498 25.5146 15.9995 29.6914Z" fill="#064EE3"/>
<path d="M19.8567 12.1091L14.4506 17.5149L12.1437 15.208C11.9324 15.0038 11.6494 14.8908 11.3556 14.8933C11.0618 14.8958 10.7807 15.0136 10.5729 15.2214C10.3652 15.4292 10.2474 15.7102 10.2449 16.004C10.2424 16.2979 10.3555 16.5809 10.5597 16.7921L13.6586 19.891C13.7625 19.9952 13.886 20.0777 14.0219 20.134C14.1578 20.1903 14.3035 20.2192 14.4506 20.219C14.5977 20.2192 14.7434 20.1903 14.8793 20.134C15.0152 20.0777 15.1387 19.9952 15.2426 19.891L21.4405 13.6932C21.5446 13.5893 21.6271 13.4658 21.6834 13.3299C21.7397 13.194 21.7687 13.0484 21.7687 12.9013C21.7687 12.7542 21.7398 12.6085 21.6835 12.4726C21.6272 12.3368 21.5447 12.2133 21.4407 12.1093C21.2306 11.8992 20.9458 11.7812 20.6487 11.7812C20.3517 11.7812 20.0668 11.8991 19.8567 12.1091Z" fill="#064EE3"/>
</g>
<defs>
<clipPath id="clip0_194_162">
<rect width="32" height="32" fill="white"/>
</clipPath>
</defs>
</svg>
