<svg width="155" height="48" viewBox="0 0 155 48" fill="none" xmlns="http://www.w3.org/2000/svg">
<path d="M33.1893 34.0196C34.6093 34.0196 35.7272 34.328 36.5427 34.9439C37.3583 35.5542 37.8968 36.3729 38.1592 37.3995L35.8409 37.8102C35.7439 37.5137 35.5901 37.2312 35.3792 36.9633C35.1739 36.6953 34.8945 36.4756 34.5411 36.3045C34.1875 36.1334 33.7452 36.0477 33.2148 36.0477C32.4906 36.0477 31.886 36.2099 31.4013 36.5349C30.9165 36.8543 30.674 37.2683 30.674 37.7759C30.6741 38.2149 30.8371 38.5685 31.1621 38.8365C31.4872 39.1044 32.0115 39.3242 32.7354 39.4952L34.8234 39.9746C36.0323 40.254 36.9338 40.6839 37.5269 41.2656C38.12 41.8473 38.416 42.6033 38.416 43.5329C38.416 44.3199 38.188 45.0215 37.7318 45.6375C37.2812 46.2477 36.6507 46.7266 35.8409 47.0745C35.0369 47.4223 34.1047 47.5969 33.0442 47.597C31.5728 47.597 30.3714 47.2833 29.4418 46.656C28.5122 46.0229 27.9423 45.1237 27.7313 43.9603L30.2034 43.5839C30.3574 44.2283 30.6742 44.7166 31.1533 45.0474C31.6323 45.3723 32.2568 45.5345 33.0266 45.5346C33.8649 45.5346 34.5352 45.3609 35.0371 45.0131C35.5389 44.6595 35.7899 44.2287 35.7899 43.7211C35.7899 43.3105 35.6361 42.9654 35.3282 42.6859C35.0259 42.4065 34.5607 42.1953 33.9333 42.0527L31.7091 41.5655C30.4829 41.2861 29.5764 40.8407 28.9889 40.2304C28.4072 39.6202 28.1165 38.8474 28.1165 37.9121C28.1165 37.1366 28.333 36.4578 28.7664 35.8762C29.1998 35.2945 29.799 34.8416 30.5632 34.5165C31.3274 34.1858 32.2027 34.0196 33.1893 34.0196ZM43.9446 34.1911H46.6403V36.2437H43.9446V43.4731C43.9446 43.969 44.019 44.3426 44.1671 44.5935C44.3154 44.8387 44.5068 45.0071 44.7406 45.0983C44.98 45.1839 45.2395 45.2267 45.5189 45.2268C45.7242 45.2268 45.904 45.2121 46.058 45.1836C46.212 45.1551 46.3322 45.1331 46.4178 45.116L46.8795 47.2284C46.7312 47.2855 46.52 47.3429 46.2462 47.4C45.9725 47.4627 45.6304 47.4972 45.2199 47.5029C44.547 47.5143 43.9195 47.394 43.3378 47.1431C42.7561 46.8922 42.2856 46.5043 41.9263 45.9796C41.5669 45.4549 41.3871 44.7962 41.3871 44.0034V36.2437H39.4619V34.1911H41.3871V31.0425H43.9446V34.1911ZM12.1904 32.0865H3.96903V37.4249H11.4121V39.6923H3.96903V47.3313H1.32628V29.8113H12.1904V32.0865ZM17.071 47.3313H14.5136V34.1911H17.071V47.3313ZM26.3001 34.0117C26.5223 34.0231 26.6962 34.0368 26.8216 34.0539V36.5006C26.7189 36.4721 26.5365 36.4406 26.2746 36.4065C26.0123 36.3665 25.7498 36.3467 25.4875 36.3467C24.8831 36.3467 24.3443 36.4754 23.871 36.7319C23.4035 36.9828 23.0322 37.3333 22.7585 37.7837C22.4847 38.2286 22.3477 38.7367 22.3477 39.307V47.3313H19.7903V34.1911H22.2624V36.2781H22.3987C22.6382 35.571 23.0608 35.0155 23.6652 34.6107C24.2754 34.2 24.9656 33.9941 25.7355 33.9941C25.8951 33.9941 26.0834 34.0003 26.3001 34.0117ZM15.8055 29.1095C16.2501 29.1096 16.6291 29.2604 16.9426 29.5624C17.262 29.8589 17.422 30.2186 17.422 30.6406C17.422 31.057 17.262 31.4166 16.9426 31.7189C16.6291 32.0152 16.2501 32.1639 15.8055 32.1639C15.3607 32.1639 14.978 32.0155 14.6587 31.7189C14.345 31.4166 14.1881 31.057 14.1881 30.6406C14.1882 30.2186 14.345 29.8589 14.6587 29.5624C14.978 29.2601 15.3607 29.1095 15.8055 29.1095ZM61.0931 4.91007C61.9084 4.91007 62.5674 5.04719 63.0693 5.32079C63.5711 5.5888 63.9622 5.90261 64.2416 6.26183C64.5268 6.62113 64.7464 6.93794 64.9004 7.2117H65.0886V5.08161H67.5951V18.513C67.595 19.6421 67.3326 20.5687 66.8079 21.293C66.2832 22.0173 65.5732 22.5537 64.6778 22.9016C63.7882 23.2494 62.7843 23.4231 61.6665 23.4231C60.6229 23.423 59.7246 23.2861 58.9718 23.0123C58.2247 22.7386 57.614 22.3768 57.1407 21.9262C56.6674 21.4757 56.3139 20.9821 56.0801 20.446L58.2788 19.5393C58.4328 19.7903 58.6387 20.0558 58.8954 20.3353C59.1577 20.6203 59.5114 20.8621 59.956 21.0616C60.4065 21.2612 60.985 21.3616 61.692 21.3616C62.6616 21.3616 63.4635 21.1253 64.0966 20.6519C64.7296 20.1842 65.0454 19.4367 65.0454 18.4101V15.8261H64.8837C64.7297 16.1056 64.507 16.4171 64.2161 16.7593C63.9311 17.1013 63.5375 17.3976 63.0359 17.6484C62.534 17.8994 61.8806 18.0248 61.0764 18.0248C60.0384 18.0248 59.1026 17.7823 58.27 17.2975C57.4432 16.807 56.7873 16.0853 56.3026 15.1331C55.8237 14.175 55.5841 12.9974 55.5841 11.6003C55.5841 10.2032 55.8206 9.00562 56.2938 8.00766C56.7728 7.00959 57.4294 6.24526 58.2621 5.71485C59.0947 5.17886 60.0382 4.91014 61.0931 4.91007ZM148.498 4.91007C149.313 4.91007 149.972 5.04713 150.474 5.32079C150.976 5.58883 151.367 5.90256 151.647 6.26183C151.932 6.62114 152.151 6.93794 152.305 7.2117H152.494V5.08161H155V18.513C155 19.6421 154.737 20.5687 154.213 21.293C153.688 22.0173 152.978 22.5537 152.083 22.9016C151.193 23.2495 150.189 23.4231 149.071 23.4231C148.028 23.4231 147.13 23.2861 146.377 23.0123C145.63 22.7386 145.019 22.3768 144.546 21.9262C144.072 21.4757 143.719 20.9821 143.485 20.446L145.684 19.5393C145.838 19.7902 146.043 20.0558 146.299 20.3353C146.562 20.6203 146.915 20.8621 147.36 21.0616C147.81 21.2612 148.39 21.3616 149.097 21.3616C150.066 21.3616 150.868 21.125 151.501 20.6519C152.134 20.1842 152.45 19.4367 152.45 18.4101V15.8261H152.288C152.134 16.1056 151.912 16.4171 151.621 16.7593C151.336 17.1015 150.942 17.3975 150.44 17.6484C149.938 17.8993 149.285 18.0248 148.481 18.0248C147.443 18.0248 146.508 17.7823 145.675 17.2975C144.848 16.807 144.192 16.0854 143.708 15.1331C143.229 14.175 142.989 12.9974 142.989 11.6003C142.989 10.2032 143.225 9.00564 143.699 8.00766C144.178 7.00976 144.834 6.24525 145.666 5.71485C146.499 5.17878 147.443 4.9101 148.498 4.91007ZM94.7382 4.91007C95.4795 4.91007 96.198 5.03346 96.8937 5.27864C97.5895 5.52388 98.2148 5.90868 98.768 6.43338C99.3211 6.95805 99.7573 7.63993 100.077 8.47818C100.396 9.31079 100.556 10.3232 100.556 11.515V12.4217H91.2171C91.2369 13.2226 91.3891 13.9097 91.6759 14.4832C91.9895 15.0991 92.4256 15.5697 92.9845 15.8947C93.5434 16.2141 94.1969 16.3741 94.944 16.3741C95.4286 16.3741 95.8702 16.305 96.2693 16.1682C96.6684 16.0257 97.0137 15.8153 97.3045 15.536C97.5953 15.2566 97.818 14.9113 97.972 14.5008L100.393 14.937C100.199 15.6499 99.8511 16.2742 99.3493 16.8103C98.8532 17.3406 98.2287 17.7538 97.476 18.0503C96.7289 18.3412 95.8757 18.4875 94.9176 18.4875C93.6231 18.4875 92.5082 18.2104 91.573 17.6572C90.6434 17.0983 89.925 16.3141 89.4174 15.3046C88.9155 14.2895 88.6646 13.1005 88.6646 11.7375C88.6646 10.3915 88.9155 9.20481 89.4174 8.17822C89.9249 7.15181 90.632 6.35063 91.5386 5.77465C92.4511 5.19864 93.5177 4.91009 94.7382 4.91007ZM108.155 4.91007C108.896 4.91009 109.615 5.03342 110.31 5.27864C111.006 5.52387 111.63 5.90873 112.184 6.43338C112.737 6.95808 113.174 7.6398 113.493 8.47818C113.813 9.31078 113.972 10.3232 113.972 11.515V12.4217H104.634C104.654 13.2225 104.805 13.9098 105.092 14.4832C105.405 15.0991 105.842 15.5697 106.401 15.8947C106.96 16.214 107.613 16.374 108.36 16.3741C108.845 16.3741 109.287 16.3051 109.686 16.1682C110.085 16.0257 110.43 15.8153 110.721 15.536C111.012 15.2566 111.235 14.9114 111.389 14.5008L113.81 14.937C113.616 15.6499 113.268 16.2742 112.766 16.8103C112.27 17.3406 111.645 17.7538 110.893 18.0503C110.146 18.3412 109.292 18.4875 108.334 18.4875C107.04 18.4875 105.925 18.2104 104.99 17.6572C104.06 17.0983 103.341 16.3141 102.833 15.3046C102.331 14.2896 102.08 13.1004 102.08 11.7375C102.08 10.3916 102.331 9.2048 102.833 8.17822C103.341 7.15163 104.048 6.35068 104.955 5.77465C105.868 5.19863 106.934 4.91007 108.155 4.91007ZM15.6644 18.2219H12.8579L11.2562 13.5853H4.41014L2.80547 18.2219H0L6.30497 0.701859H9.35942L15.6644 18.2219ZM20.1147 18.2219H17.471V0.701859H20.1147V18.2219ZM39.8795 2.97702H31.5385V8.31546H39.306V10.5828H31.5385V15.9467H39.9814V18.2219H28.8948V0.701859H39.8795V2.97702ZM48.9752 4.91007C49.8706 4.91007 50.6549 5.09835 51.3278 5.47469C52.0007 5.84534 52.5226 6.39874 52.8933 7.13426C53.2639 7.86988 53.449 8.77985 53.4491 9.86327V18.2219H50.8916V10.172C50.8916 9.21975 50.6436 8.47513 50.1476 7.93904C49.6514 7.39726 48.9696 7.12644 48.1028 7.12641C47.5097 7.12641 46.9817 7.25402 46.5197 7.51067C46.0636 7.76726 45.7016 8.14393 45.4336 8.63992C45.1712 9.1304 45.0405 9.72425 45.0405 10.4201V18.2219H42.4821V5.08161H44.9376V7.22052H45.1003C45.4026 6.52477 45.8753 5.96534 46.5197 5.54331C47.1699 5.12128 47.9886 4.91008 48.9752 4.91007ZM72.861 18.2219H70.3035V5.08161H72.861V18.2219ZM82.0724 4.91007C82.9676 4.91007 83.7521 5.0984 84.425 5.47469C85.0978 5.84533 85.6197 6.39877 85.9904 7.13426C86.3611 7.86988 86.5472 8.77985 86.5472 9.86327V18.2219H83.9888V10.172C83.9888 9.2197 83.7408 8.47514 83.2448 7.93904C82.7486 7.39723 82.0669 7.12641 81.2 7.12641C80.6068 7.12642 80.0788 7.25403 79.6168 7.51067C79.1608 7.76727 78.7987 8.14394 78.5307 8.63992C78.2684 9.1304 78.1377 9.72425 78.1377 10.4201V18.2219H75.5792V5.08161H78.0347V7.22052H78.1974C78.4997 6.52481 78.9725 5.96533 79.6168 5.54331C80.267 5.1213 81.0858 4.9101 82.0724 4.91007ZM122.598 4.90223C122.82 4.91363 122.994 4.92729 123.119 4.94438V7.39108C123.017 7.3626 122.834 7.33115 122.572 7.29698C122.31 7.25707 122.047 7.23719 121.785 7.23718C121.181 7.23718 120.641 7.36577 120.168 7.62242C119.7 7.87329 119.33 8.22393 119.056 8.67423C118.782 9.11908 118.645 9.62721 118.645 10.1975V18.2219H116.087V5.08161H118.56V7.16856H118.696C118.936 6.46152 119.359 5.90604 119.963 5.50116C120.573 5.09052 121.263 4.88458 122.033 4.88458C122.193 4.88459 122.381 4.89082 122.598 4.90223ZM127.169 18.2219H124.61V5.08161H127.169V18.2219ZM136.38 4.91007C137.275 4.91009 138.06 5.09831 138.733 5.47469C139.406 5.84535 139.928 6.39869 140.298 7.13426C140.669 7.86988 140.854 8.77985 140.854 9.86327V18.2219H138.297V10.172C138.297 9.2196 138.048 8.47515 137.552 7.93904C137.055 7.39739 136.374 7.12649 135.508 7.12641C134.915 7.12641 134.387 7.25407 133.925 7.51067C133.469 7.76724 133.107 8.14396 132.839 8.63992C132.576 9.1304 132.444 9.72425 132.444 10.4201V18.2219H129.887V5.08161H132.343V7.22052H132.504C132.807 6.52472 133.28 5.96535 133.925 5.54331C134.575 5.12128 135.394 4.91007 136.38 4.91007ZM61.641 7.08328C60.8711 7.08328 60.2291 7.28299 59.7158 7.68222C59.2026 8.07573 58.8146 8.61221 58.5523 9.29081C58.2957 9.96935 58.168 10.7278 58.168 11.566C58.168 12.4272 58.2987 13.1831 58.5611 13.8333C58.8234 14.4834 59.2115 14.9906 59.7246 15.3556C60.2436 15.7206 60.8825 15.9036 61.641 15.9036C62.3767 15.9036 62.9989 15.7321 63.5064 15.3899C64.0194 15.0421 64.4068 14.546 64.669 13.9019C64.9371 13.2517 65.0719 12.4728 65.0719 11.566C65.0719 10.6821 64.9401 9.90389 64.6778 9.23101C64.4155 8.55807 64.0307 8.03314 63.5231 7.65673C63.0155 7.27462 62.3881 7.08329 61.641 7.08328ZM149.046 7.08328C148.276 7.08328 147.634 7.28299 147.121 7.68222C146.607 8.07574 146.22 8.61214 145.957 9.29081C145.701 9.96937 145.572 10.7278 145.572 11.566C145.572 12.4272 145.704 13.1831 145.966 13.8333C146.228 14.4834 146.616 14.9906 147.13 15.3556C147.649 15.7206 148.287 15.9036 149.046 15.9036C149.782 15.9035 150.403 15.732 150.91 15.3899C151.424 15.0421 151.812 14.5462 152.074 13.9019C152.342 13.2517 152.476 12.4728 152.476 11.566C152.476 10.6822 152.345 9.90387 152.083 9.23101C151.82 8.55814 151.436 8.03313 150.928 7.65673C150.421 7.27466 149.793 7.08333 149.046 7.08328ZM5.17964 11.3611H10.4877L7.90473 3.88375H7.7675L5.17964 11.3611ZM94.7558 7.02349C94.0374 7.02349 93.4098 7.20035 92.8737 7.5538C92.3435 7.90162 91.9324 8.3578 91.6416 8.92223C91.3914 9.41249 91.2508 9.94048 91.2201 10.5053H98.0495C98.0495 9.83241 97.9124 9.23633 97.6387 8.71736C97.365 8.19266 96.9792 7.77962 96.483 7.47734C95.9927 7.17519 95.4172 7.02355 94.7558 7.02349ZM108.172 7.02349C107.453 7.02354 106.825 7.20025 106.289 7.5538C105.759 7.90158 105.349 8.35791 105.058 8.92223C104.808 9.41248 104.667 9.94049 104.637 10.5053H111.465C111.465 9.83235 111.328 9.23636 111.054 8.71736C110.781 8.19275 110.396 7.77958 109.9 7.47734C109.409 7.17507 108.833 7.02349 108.172 7.02349ZM71.5945 0C72.0392 0 72.4189 0.150761 72.7326 0.452875C73.0519 0.749425 73.2119 1.10915 73.2119 1.53115C73.2119 1.94749 73.0519 2.30715 72.7326 2.60942C72.4189 2.90589 72.0393 3.05446 71.5945 3.05446C71.1499 3.05439 70.7678 2.9058 70.4486 2.60942C70.1349 2.30715 69.9781 1.94749 69.9781 1.53115C69.9781 1.10915 70.1349 0.749425 70.4486 0.452875C70.7678 0.150857 71.1499 7.10837e-05 71.5945 0ZM125.902 0C126.347 1.73446e-05 126.727 0.150648 127.04 0.452875C127.36 0.749425 127.519 1.10915 127.519 1.53115C127.519 1.94747 127.36 2.30716 127.04 2.60942C126.727 2.90598 126.347 3.05444 125.902 3.05446C125.457 3.05446 125.075 2.90599 124.755 2.60942C124.442 2.30717 124.285 1.94744 124.285 1.53115C124.285 1.10916 124.442 0.749422 124.755 0.452875C125.075 0.150602 125.457 0 125.902 0Z" fill="#040404"/>
</svg>
