<svg width="34" height="34" viewBox="0 0 34 34" fill="none" xmlns="http://www.w3.org/2000/svg">
<path d="M6.03928 17.0876C5.89838 17.0876 5.76326 17.1436 5.66363 17.2432C5.56401 17.3428 5.50804 17.4779 5.50804 17.6188V25.222C5.50804 25.3629 5.56401 25.498 5.66363 25.5976C5.76326 25.6972 5.89838 25.7532 6.03928 25.7532H18.4286C18.5695 25.7532 18.7046 25.6972 18.8042 25.5976C18.9038 25.498 18.9598 25.3629 18.9598 25.222V17.6188C18.9598 17.4779 18.9038 17.3428 18.8042 17.2432C18.7046 17.1436 18.5695 17.0876 18.4286 17.0876H6.03928ZM17.8973 24.6907H6.57052V18.1501H17.8973V24.6907ZM3.39511 14.1261C4.09473 14.1971 4.80019 14.0695 5.43061 13.7579C6.06103 13.4463 6.59088 12.9634 6.95939 12.3645C7.27453 12.9747 7.74837 13.4886 8.33102 13.8521C8.91366 14.2157 9.58355 14.4154 10.2702 14.4303C10.9568 14.4451 11.6347 14.2746 12.2325 13.9366C12.8303 13.5986 13.326 13.1057 13.6672 12.5097C13.8176 12.7686 13.997 13.0096 14.202 13.2279C14.5621 13.6081 14.996 13.9109 15.477 14.1178C15.958 14.3247 16.4762 14.4314 16.9999 14.4314C17.5235 14.4314 18.0417 14.3247 18.5227 14.1178C19.0038 13.9109 19.4376 13.6081 19.7977 13.2279C20.0027 13.0096 20.1821 12.7686 20.3325 12.5097C20.6751 13.1041 21.1712 13.5954 21.7689 13.9321C22.3666 14.2689 23.0438 14.4387 23.7297 14.4238C24.4155 14.4089 25.0847 14.2098 25.6672 13.8473C26.2497 13.4849 26.724 12.9725 27.0404 12.3638C27.5171 13.132 28.2544 13.7028 29.1175 13.9719C29.9806 14.241 30.9117 14.1903 31.7405 13.8292C32.5693 13.468 33.2404 12.8205 33.6309 12.0051C34.0214 11.1897 34.1053 10.261 33.8672 9.38882L32.0872 2.82267V0.531242C32.0872 0.390348 32.0312 0.255225 31.9316 0.155597C31.8319 0.05597 31.6968 0 31.5559 0L2.4417 0C2.30118 0.000562107 2.1666 0.0567802 2.06743 0.156347C1.96826 0.255913 1.91259 0.390716 1.91259 0.531242V2.82763L0.132571 9.39095C-0.0106778 9.91915 -0.0371323 10.4722 0.0550472 11.0117C0.147227 11.5511 0.355827 12.064 0.666337 12.5147C0.976847 12.9654 1.38181 13.343 1.85306 13.6213C2.32431 13.8995 2.85053 14.0718 3.39511 14.1261ZM10.3615 13.3689C9.95965 13.369 9.56262 13.2817 9.19786 13.1132C8.83311 12.9446 8.50936 12.6988 8.24903 12.3927C7.9887 12.0866 7.79801 11.7276 7.69017 11.3405C7.58234 10.9535 7.55993 10.5476 7.62451 10.151L8.71745 3.42545H13.5291L13.153 10.367L13.1324 10.7431C13.0944 11.4523 12.7858 12.1198 12.2703 12.6083C11.7548 13.0968 11.0716 13.369 10.3615 13.3689ZM19.0264 12.4977C18.6336 12.9135 18.1225 13.1987 17.5623 13.3145C17.0021 13.4304 16.4198 13.3713 15.8943 13.1453C15.3688 12.9193 14.9254 12.5374 14.6241 12.0511C14.3228 11.5648 14.1782 10.9977 14.2098 10.4265L14.2317 10.0178L14.5859 3.42545H19.4025L19.7567 10.0178L19.7786 10.4265C19.8018 10.8049 19.7471 11.1839 19.6176 11.5402C19.4882 11.8965 19.287 12.2224 19.0264 12.4977ZM25.7505 12.3928C25.3909 12.8152 24.9129 13.1201 24.3783 13.268C23.8437 13.416 23.277 13.4003 22.7515 13.2229C22.2259 13.0455 21.7655 12.7146 21.4299 12.273C21.0943 11.8313 20.8988 11.2992 20.8687 10.7453L20.8482 10.3691L20.4721 3.42758H25.2823L26.3752 10.1531C26.4402 10.5498 26.418 10.956 26.3101 11.3432C26.2022 11.7305 26.0112 12.0896 25.7505 12.3957V12.3928ZM32.4576 11.9119C32.1512 12.3565 31.7188 12.6993 31.2159 12.8961C30.7131 13.093 30.1629 13.1348 29.6361 13.0164C29.1092 12.8979 28.6299 12.6246 28.2597 12.2314C27.8895 11.8383 27.6454 11.3434 27.5588 10.8104L26.3582 3.42545H31.1508L32.8415 9.66861C32.9446 10.0479 32.9637 10.4452 32.8974 10.8327C32.8311 11.2201 32.681 11.5884 32.4576 11.9119ZM2.97507 1.06248H31.0247V2.36297H2.97507V1.06248ZM1.15822 9.66861L2.84899 3.42545H7.64151L6.90131 7.97855L6.57548 9.98027L6.4409 10.8097C6.38185 11.1719 6.24974 11.5183 6.05261 11.8278C5.85548 12.1374 5.59745 12.4036 5.2942 12.6103C4.99096 12.8169 4.64884 12.9598 4.28866 13.0301C3.92847 13.1003 3.55776 13.0966 3.19906 13.0192C2.84035 12.9417 2.50116 12.792 2.20211 12.5793C1.90305 12.3666 1.65039 12.0953 1.45949 11.7819C1.26859 11.4685 1.14344 11.1195 1.09164 10.7562C1.03985 10.3929 1.0625 10.0229 1.15822 9.66861Z" fill="#064EE3"/>
<path d="M33.4683 30.5502H32.087V15.3064C32.087 15.1655 32.0311 15.0304 31.9314 14.9308C31.8318 14.8311 31.6967 14.7752 31.5558 14.7752C31.4149 14.7752 31.2798 14.8311 31.1801 14.9308C31.0805 15.0304 31.0246 15.1655 31.0246 15.3064V30.5502H29.2431V17.6191C29.2431 17.4782 29.1872 17.3431 29.0875 17.2435C28.9879 17.1438 28.8528 17.0879 28.7119 17.0879H21.8263C21.6854 17.0879 21.5503 17.1438 21.4506 17.2435C21.351 17.3431 21.295 17.4782 21.295 17.6191V30.5502H2.97496V15.3121C2.97496 15.1712 2.91899 15.0361 2.81936 14.9364C2.71973 14.8368 2.58461 14.7808 2.44371 14.7808C2.30282 14.7808 2.1677 14.8368 2.06807 14.9364C1.96844 15.0361 1.91247 15.1712 1.91247 15.3121V30.5502H0.531242C0.390348 30.5502 0.255225 30.6062 0.155597 30.7058C0.05597 30.8055 0 30.9406 0 31.0815L0 33.4685C0 33.6094 0.05597 33.7446 0.155597 33.8442C0.255225 33.9438 0.390348 33.9998 0.531242 33.9998H33.4683C33.6092 33.9998 33.7443 33.9438 33.8439 33.8442C33.9435 33.7446 33.9995 33.6094 33.9995 33.4685V31.0815C33.9995 30.9406 33.9435 30.8055 33.8439 30.7058C33.7443 30.6062 33.6092 30.5502 33.4683 30.5502ZM22.3575 18.1503H28.1806V30.5502H22.3575V18.1503ZM32.937 32.9373H1.06248V31.6127H32.937V32.9373Z" fill="#064EE3"/>
</svg>
