<svg width="24" height="24" viewBox="0 0 24 24" fill="none" xmlns="http://www.w3.org/2000/svg">
<path d="M15.5003 7.5L19.0003 4M15.5003 7.5L11.3903 11.61M15.5003 7.5L18.5003 10.5L22.0003 7L19.0003 4M19.0003 4L21.0003 2M11.3903 11.61C11.9066 12.1195 12.3171 12.726 12.5981 13.3948C12.879 14.0635 13.0249 14.7813 13.0273 15.5066C13.0298 16.232 12.8887 16.9507 12.6122 17.6213C12.3357 18.2919 11.9294 18.9012 11.4164 19.4141C10.9035 19.9271 10.2942 20.3334 9.62358 20.6099C8.95296 20.8864 8.23428 21.0275 7.50891 21.025C6.78355 21.0226 6.06582 20.8767 5.39707 20.5958C4.72832 20.3148 4.12175 19.9043 3.61228 19.388C2.61041 18.3507 2.05604 16.9614 2.06857 15.5193C2.0811 14.0772 2.65953 12.6977 3.67928 11.678C4.69902 10.6583 6.07849 10.0798 7.52057 10.0673C8.96266 10.0548 10.352 10.6091 11.3893 11.611L11.3903 11.61Z" stroke="#064EE3" stroke-width="1.5" stroke-linecap="round" stroke-linejoin="round"/>
</svg>
