<svg width="24" height="24" viewBox="0 0 24 24" fill="none" xmlns="http://www.w3.org/2000/svg">
<g clip-path="url(#clip0_6_73)">
<path d="M12.0961 21.6005C17.398 21.6005 21.6961 17.3023 21.6961 12.0005C21.6961 6.69852 17.398 2.40045 12.0961 2.40045C6.79416 2.40045 2.49609 6.69852 2.49609 12.0005C2.49609 17.3023 6.79416 21.6005 12.0961 21.6005Z" stroke="#064EE3" stroke-width="1.44" stroke-linecap="round" stroke-linejoin="round"/>
<path d="M9.30273 9.11961C9.52844 8.47801 9.97391 7.93699 10.5603 7.59237C11.1466 7.24776 11.8361 7.12179 12.5064 7.23677C13.1768 7.35176 13.7848 7.70028 14.2228 8.2206C14.6608 8.74092 14.9005 9.39947 14.8996 10.0796C14.8996 11.9996 12.0196 12.9596 12.0196 12.9596" stroke="#064EE3" stroke-width="1.44" stroke-linecap="round" stroke-linejoin="round"/>
<path d="M12.0957 16.8008H12.1057" stroke="#064EE3" stroke-width="1.44" stroke-linecap="round" stroke-linejoin="round"/>
</g>
<defs>
<clipPath id="clip0_6_73">
<rect width="24" height="24" fill="white"/>
</clipPath>
</defs>
</svg>
