<svg width="29" height="29" viewBox="0 0 29 29" fill="none" xmlns="http://www.w3.org/2000/svg">
<rect width="29" height="29" rx="2" fill="#DBEAFE"/>
<path d="M17.9565 23.5284H10.2805V24.1308H17.9565V23.5284Z" fill="#235AF4"/>
<path d="M19.8782 25.8487C19.1517 26.2682 18.2228 26.0193 17.8033 25.2928L14.8781 20.2261C14.4586 19.4996 14.7075 18.5706 15.434 18.1512C16.1605 17.7318 17.0894 17.9807 17.5089 18.7072L20.4341 23.7739C20.8536 24.5004 20.6047 25.4293 19.8782 25.8487Z" fill="#235AF4"/>
<path d="M8.35906 25.8487C9.08554 26.2682 10.0145 26.0193 10.4339 25.2928L13.3592 20.2261C13.7786 19.4996 13.5297 18.5706 12.8032 18.1512C12.0768 17.7318 11.1478 17.9807 10.7284 18.7072L7.80311 23.7739C7.38368 24.5004 7.63259 25.4293 8.35906 25.8487Z" fill="#235AF4"/>
<path d="M14.1186 22C18.6023 22 22.2372 18.3652 22.2372 13.8814C22.2372 9.39764 18.6023 5.76283 14.1186 5.76283C9.63481 5.76283 6 9.39764 6 13.8814C6 18.3652 9.63481 22 14.1186 22Z" fill="#235AF4"/>
<path d="M14.1187 20.2543C17.6383 20.2543 20.4916 17.401 20.4916 13.8814C20.4916 10.3618 17.6383 7.50854 14.1187 7.50854C10.5991 7.50854 7.74585 10.3618 7.74585 13.8814C7.74585 17.401 10.5991 20.2543 14.1187 20.2543Z" fill="#D7DDF5"/>
<path d="M14.1186 18.1728C16.4887 18.1728 18.41 16.2515 18.41 13.8814C18.41 11.5113 16.4887 9.58998 14.1186 9.58998C11.7485 9.58998 9.82715 11.5113 9.82715 13.8814C9.82715 16.2515 11.7485 18.1728 14.1186 18.1728Z" fill="#235AF4"/>
<path d="M14.1187 15.6976C15.1217 15.6976 15.9349 14.8845 15.9349 13.8814C15.9349 12.8784 15.1217 12.0652 14.1187 12.0652C13.1156 12.0652 12.3025 12.8784 12.3025 13.8814C12.3025 14.8845 13.1156 15.6976 14.1187 15.6976Z" fill="#D7DDF5"/>
<path d="M13.9887 14.0114C13.8807 13.9034 13.8807 13.7282 13.9887 13.6202L23.407 4.20195C23.515 4.09394 23.6901 4.09394 23.7981 4.20195C23.9062 4.30997 23.9062 4.48509 23.7981 4.5931L14.3799 14.0114C14.2719 14.1194 14.0967 14.1194 13.9887 14.0114Z" fill="#77899B"/>
<path d="M23.2993 6.18922C23.4701 6.00757 23.3325 5.90672 23.1036 5.82491C22.8746 5.74308 22.4324 5.56744 22.4324 5.56744C22.4324 5.56744 22.2567 5.12518 22.1749 4.89625C22.0931 4.66731 21.9922 4.52967 21.8106 4.70048C21.6289 4.87128 21.1606 5.30708 20.9767 5.53076C20.7928 5.75443 20.7534 5.84075 20.8561 6.12115C20.9587 6.40154 21.1452 6.85465 21.1452 6.85465C21.1452 6.85465 21.5983 7.04112 21.8787 7.14376C22.1591 7.2464 22.2454 7.20705 22.4691 7.02312C22.6927 6.83918 23.1285 6.37087 23.2993 6.18922Z" fill="#87A6FF"/>
<path d="M23.9234 5.56514C24.0942 5.38349 23.9565 5.28263 23.7276 5.20082C23.4987 5.119 23.0564 4.94336 23.0564 4.94336C23.0564 4.94336 22.8808 4.50109 22.7989 4.27217C22.7171 4.04323 22.6163 3.90559 22.4346 4.0764C22.253 4.24719 21.7846 4.683 21.6007 4.90667C21.4168 5.13035 21.3774 5.21666 21.4801 5.49706C21.5827 5.77746 21.7692 6.23056 21.7692 6.23056C21.7692 6.23056 22.2223 6.41703 22.5027 6.51967C22.7831 6.62231 22.8694 6.58297 23.0931 6.39904C23.3168 6.21509 23.7526 5.7468 23.9234 5.56514Z" fill="#235AF4"/>
</svg>
