<svg width="29" height="29" viewBox="0 0 29 29" fill="none" xmlns="http://www.w3.org/2000/svg">
<rect width="29" height="29" rx="2" fill="#DBEAFE"/>
<path d="M15 5L15.117 5.007C15.3402 5.03332 15.5481 5.13408 15.707 5.29301C15.8659 5.45194 15.9667 5.65978 15.993 5.883L16 6V10L16.005 10.15C16.0408 10.6262 16.2458 11.0738 16.5829 11.412C16.92 11.7502 17.3669 11.9567 17.843 11.994L18 12H22L22.117 12.007C22.3402 12.0333 22.5481 12.1341 22.707 12.293C22.8659 12.4519 22.9667 12.6598 22.993 12.883L23 13V22C23 22.7652 22.7077 23.5015 22.1827 24.0583C21.6578 24.615 20.9399 24.9501 20.176 24.995L20 25H10C9.23479 25 8.49849 24.7077 7.94174 24.1827C7.38499 23.6578 7.04989 22.9399 7.005 22.176L7 22V8C6.99996 7.23479 7.29233 6.49849 7.81728 5.94174C8.34224 5.38499 9.06011 5.04989 9.824 5.005L10 5H15ZM15 14L14.91 14.004L14.852 14.011L14.734 14.036L14.629 14.071L14.516 14.125L14.405 14.196C14.3653 14.2255 14.3279 14.2579 14.293 14.293L11.793 16.793C11.6055 16.9805 11.5002 17.2348 11.5002 17.5C11.5002 17.7652 11.6055 18.0195 11.793 18.207L11.887 18.29C12.0794 18.4393 12.3197 18.5132 12.5627 18.4979C12.8057 18.4826 13.0348 18.3792 13.207 18.207L14 17.414V21C14 21.2652 14.1054 21.5196 14.2929 21.7071C14.4804 21.8946 14.7348 22 15 22C15.2652 22 15.5196 21.8946 15.7071 21.7071C15.8946 21.5196 16 21.2652 16 21V17.415L16.793 18.207C16.9816 18.3892 17.2342 18.49 17.4964 18.4877C17.7586 18.4854 18.0094 18.3802 18.1948 18.1948C18.3802 18.0094 18.4854 17.7586 18.4877 17.4964C18.49 17.2342 18.3892 16.9816 18.207 16.793L15.707 14.293L15.625 14.22L15.521 14.146L15.423 14.094L15.313 14.05L15.201 14.02L15.075 14.003L15 14Z" fill="#235AF4"/>
<path d="M22 10H18L17.999 5.99902L22 10Z" fill="#235AF4"/>
</svg>
