<svg width="29" height="29" viewBox="0 0 29 29" fill="none" xmlns="http://www.w3.org/2000/svg">
<rect width="29" height="29" rx="2" fill="#DBEAFE"/>
<path fill-rule="evenodd" clip-rule="evenodd" d="M12.0865 4.527C12.859 4.257 13.7615 4 14.5 4C15.2385 4 16.141 4.257 16.9135 4.527C17.7185 4.809 18.5135 5.154 19.0825 5.4155C19.911 5.796 20.5275 6.5725 20.6275 7.5365C20.6915 8.1465 20.75 9.0385 20.75 10.25C20.75 11.4615 20.6915 12.353 20.628 12.9635C20.6147 13.0898 20.593 13.2127 20.563 13.332C21.097 13.429 21.658 13.6 22.163 13.777C22.9685 14.059 23.764 14.404 24.3325 14.6655C25.161 15.046 25.7775 15.8225 25.8775 16.7865C25.9415 17.3965 26 18.2885 26 19.5C26 20.7115 25.9415 21.603 25.878 22.2135C25.778 23.1775 25.161 23.9535 24.3325 24.3345C23.764 24.596 22.9685 24.941 22.1635 25.223C21.391 25.493 20.4885 25.75 19.75 25.75C19.0115 25.75 18.109 25.4935 17.3365 25.223C16.5315 24.941 15.7365 24.596 15.1675 24.3345C14.9252 24.2234 14.7004 24.0778 14.5 23.902C14.301 24.077 14.076 24.223 13.8325 24.3345C13.264 24.596 12.4685 24.941 11.6635 25.223C10.891 25.493 9.9885 25.75 9.25 25.75C8.5115 25.75 7.609 25.4935 6.8365 25.223C6.0315 24.941 5.2365 24.596 4.6675 24.3345C3.839 23.954 3.2225 23.1775 3.1225 22.2135C3.058 21.6035 3 20.7115 3 19.5C3 18.2885 3.0585 17.397 3.122 16.7865C3.222 15.8225 3.839 15.0465 4.6675 14.6655C5.236 14.404 6.0315 14.059 6.8365 13.777C7.3415 13.6005 7.903 13.4295 8.4375 13.332C8.40666 13.211 8.38493 13.0878 8.3725 12.9635C8.3085 12.3535 8.25 11.4615 8.25 10.25C8.25 9.0385 8.3085 8.147 8.372 7.5365C8.472 6.5725 9.089 5.7965 9.9175 5.4155C10.486 5.154 11.2815 4.809 12.0865 4.527ZM15.5 19.5C15.5 20.647 15.5555 21.47 15.6115 22.007C15.6325 22.212 15.764 22.4075 16.003 22.517C16.543 22.7655 17.275 23.082 17.9975 23.335C18.2665 23.4295 18.5195 23.509 18.75 23.573V19.265C18.555 19.2065 18.35 19.137 18.141 19.061C17.5262 18.832 16.9192 18.5825 16.321 18.313C16.049 18.192 15.7845 18.0715 15.538 17.957C15.5119 18.4709 15.4992 18.9854 15.5 19.5ZM20.75 19.2655V23.573C20.9805 23.509 21.2335 23.4295 21.503 23.335C22.225 23.0825 22.957 22.7655 23.497 22.5175C23.736 22.4075 23.867 22.212 23.8885 22.007C23.9445 21.4695 24 20.647 24 19.5C24 18.8985 23.985 18.386 23.962 17.9575C23.7155 18.072 23.451 18.1925 23.179 18.3135C22.5808 18.583 21.9738 18.8325 21.359 19.0615C21.1505 19.1375 20.945 19.207 20.75 19.2655ZM13.5 19.5C13.5 18.8985 13.485 18.386 13.462 17.9575C13.2155 18.072 12.951 18.1925 12.679 18.3135C12.0808 18.583 11.4738 18.8325 10.859 19.0615C10.6505 19.1375 10.445 19.207 10.25 19.2655V23.573C10.4805 23.509 10.7335 23.4295 11.0025 23.335C11.725 23.0825 12.4575 22.7655 12.9975 22.5175C13.236 22.4075 13.3675 22.212 13.3885 22.007C13.4445 21.4695 13.5 20.647 13.5 19.5ZM7.641 19.0615C7.8495 19.1375 8.055 19.207 8.25 19.2655V23.573C7.99662 23.5019 7.74566 23.4226 7.4975 23.335C6.775 23.0825 6.0425 22.7655 5.5025 22.5175C5.264 22.4075 5.1325 22.212 5.1115 22.007C5.055 21.4695 5 20.647 5 19.5C5 18.8985 5.015 18.386 5.038 17.9575C5.2845 18.072 5.549 18.1925 5.821 18.3135C6.41918 18.583 7.02618 18.8325 7.641 19.0615ZM10.288 8.7075C10.2619 9.22125 10.2492 9.73559 10.25 10.25C10.25 11.397 10.3055 12.22 10.3615 12.757C10.3825 12.962 10.514 13.1575 10.753 13.267C11.293 13.5155 12.025 13.832 12.7475 14.085C13.0165 14.1795 13.2695 14.259 13.5 14.323V10.015C13.305 9.9565 13.1 9.887 12.891 9.811C12.2762 9.58197 11.6692 9.3325 11.071 9.063C10.799 8.942 10.5345 8.8215 10.288 8.707M16.253 14.0845C15.983 14.179 15.7305 14.2585 15.5 14.3225V10.015C15.695 9.9565 15.9 9.887 16.109 9.811C16.7238 9.58197 17.3308 9.3325 17.929 9.063C18.201 8.942 18.4655 8.8215 18.712 8.707C18.735 9.1355 18.75 9.648 18.75 10.2495C18.75 11.3965 18.6945 12.2195 18.6385 12.7565C18.6175 12.9615 18.486 13.157 18.247 13.2665C17.5948 13.5689 16.9292 13.8418 16.2525 14.0845" fill="#235AF4"/>
</svg>
