<svg width="29" height="29" viewBox="0 0 29 29" fill="none" xmlns="http://www.w3.org/2000/svg">
<rect width="29" height="29" rx="2" fill="#DBEAFE"/>
<path fill-rule="evenodd" clip-rule="evenodd" d="M22 7C22.7956 7 23.5587 7.31607 24.1213 7.87868C24.6839 8.44129 25 9.20435 25 10V20C25 20.7956 24.6839 21.5587 24.1213 22.1213C23.5587 22.6839 22.7956 23 22 23H8C7.20435 23 6.44129 22.6839 5.87868 22.1213C5.31607 21.5587 5 20.7956 5 20V10C5 9.20435 5.31607 8.44129 5.87868 7.87868C6.44129 7.31607 7.20435 7 8 7H22ZM13.707 11.293C13.5348 11.1208 13.3057 11.0174 13.0627 11.0021C12.8197 10.9868 12.5794 11.0607 12.387 11.21L12.293 11.293L9.293 14.293C9.11365 14.473 9.00953 14.7144 9.00177 14.9684C8.99402 15.2223 9.08322 15.4697 9.25125 15.6603C9.41928 15.8508 9.65355 15.9703 9.90647 15.9944C10.1594 16.0185 10.412 15.9454 10.613 15.79L10.707 15.707L13.707 12.707C13.8945 12.5195 13.9998 12.2652 13.9998 12C13.9998 11.7348 13.8945 11.4805 13.707 11.293ZM9.293 10.293L8.293 11.293C8.11084 11.4816 8.01005 11.7342 8.01233 11.9964C8.0146 12.2586 8.11977 12.5094 8.30518 12.6948C8.49059 12.8802 8.7414 12.9854 9.0036 12.9877C9.2658 12.99 9.5184 12.8892 9.707 12.707L10.707 11.707C10.8892 11.5184 10.99 11.2658 10.9877 11.0036C10.9854 10.7414 10.8802 10.4906 10.6948 10.3052C10.5094 10.1198 10.2586 10.0146 9.9964 10.0123C9.7342 10.01 9.4816 10.1108 9.293 10.293Z" fill="#235AF4"/>
</svg>
