<svg width="70" height="70" viewBox="0 0 70 70" fill="none" xmlns="http://www.w3.org/2000/svg">
<rect width="70" height="70" rx="10" fill="#DBEAFE"/>
<rect x="13.0958" y="13.0958" width="43.9644" height="43.9644" rx="7.48331" fill="#155DFC"/>
<path d="M28.2501 46.0001C27.6314 46.0001 27.1019 45.7751 26.6616 45.3251C26.2214 44.875 26.0009 44.3334 26.0001 43.7001V25.3001C26.0001 24.6676 26.2206 24.1263 26.6616 23.6763C27.1026 23.2263 27.6321 23.0009 28.2501 23.0001H41.7501C42.3689 23.0001 42.8987 23.2255 43.3397 23.6763C43.7807 24.1271 44.0009 24.6684 44.0001 25.3001V43.7001C44.0001 44.3326 43.78 44.8743 43.3397 45.3251C42.8995 45.7759 42.3696 46.0009 41.7501 46.0001H28.2501ZM33.8751 25.3001V32.3439C33.8751 32.5739 33.9644 32.7418 34.1429 32.8476C34.3214 32.9534 34.5134 32.9484 34.7189 32.8326L36.097 31.9989C36.2845 31.8839 36.4769 31.8264 36.6741 31.8264C36.8714 31.8264 37.0634 31.8839 37.2501 31.9989L38.6282 32.8326C38.8345 32.9476 39.0314 32.9526 39.2189 32.8476C39.4064 32.7425 39.5001 32.5746 39.5001 32.3439V25.3001H33.8751Z" fill="#DBEAFE"/>
</svg>
