<svg width="70" height="70" viewBox="0 0 70 70" fill="none" xmlns="http://www.w3.org/2000/svg">
<rect width="70" height="70" rx="10" fill="#DBEAFE"/>
<rect x="13.0958" y="13.0958" width="43.9644" height="43.9644" rx="7.48331" fill="#155DFC"/>
<path d="M35.0001 41.0001C35.3401 41.0001 35.6253 40.8849 35.8557 40.6545C36.0861 40.4241 36.2009 40.1393 36.2001 39.8001C36.1993 39.4609 36.0841 39.1761 35.8545 38.9457C35.6249 38.7153 35.3401 38.6001 35.0001 38.6001C34.6601 38.6001 34.3753 38.7153 34.1457 38.9457C33.9161 39.1761 33.8009 39.4609 33.8001 39.8001C33.7993 40.1393 33.9145 40.4245 34.1457 40.6557C34.3769 40.8869 34.6617 41.0017 35.0001 41.0001ZM33.8001 36.2001H36.2001V29.0001H33.8001V36.2001ZM35.0001 47.0001C33.3401 47.0001 31.7801 46.6849 30.3201 46.0545C28.8601 45.4241 27.5901 44.5693 26.5101 43.4901C25.4301 42.4109 24.5753 41.1409 23.9457 39.6801C23.3161 38.2193 23.0009 36.6593 23.0001 35.0001C22.9993 33.3409 23.3145 31.7809 23.9457 30.3201C24.5769 28.8593 25.4317 27.5893 26.5101 26.5101C27.5885 25.4309 28.8585 24.5761 30.3201 23.9457C31.7817 23.3153 33.3417 23.0001 35.0001 23.0001C36.6585 23.0001 38.2185 23.3153 39.6801 23.9457C41.1417 24.5761 42.4117 25.4309 43.4901 26.5101C44.5685 27.5893 45.4237 28.8593 46.0557 30.3201C46.6877 31.7809 47.0025 33.3409 47.0001 35.0001C46.9977 36.6593 46.6825 38.2193 46.0545 39.6801C45.4265 41.1409 44.5717 42.4109 43.4901 43.4901C42.4085 44.5693 41.1385 45.4245 39.6801 46.0557C38.2217 46.6869 36.6617 47.0017 35.0001 47.0001Z" fill="#DBEAFE"/>
</svg>
