<svg width="70" height="70" viewBox="0 0 70 70" fill="none" xmlns="http://www.w3.org/2000/svg">
<rect width="70" height="70" rx="10" fill="#DBEAFE"/>
<rect x="13.0958" y="13.0958" width="43.9644" height="43.9644" rx="7.48331" fill="#155DFC"/>
<path d="M33.1519 39.3751C33.6525 39.8959 34.2833 40.1409 35.0441 40.1101C35.805 40.0793 36.3557 39.7926 36.6961 39.2501L43.4239 28.7501L33.3321 35.7501C32.8115 36.1251 32.5264 36.6926 32.4767 37.4526C32.4271 38.2126 32.6522 38.8534 33.1519 39.3751ZM26.7245 45.0001C26.2839 45.0001 25.8787 44.9009 25.5086 44.7026C25.1386 44.5043 24.8431 44.2076 24.622 43.8126C24.1014 42.8334 23.7009 41.818 23.4206 40.7664C23.1403 39.7147 23.0001 38.6259 23.0001 37.5001C23.0001 35.7709 23.3157 34.1459 23.9468 32.6251C24.578 31.1043 25.4338 29.7814 26.5142 28.6564C27.5947 27.5314 28.8661 26.6409 30.3287 25.9851C31.7912 25.3293 33.353 25.0009 35.0141 25.0001C36.656 25.0001 38.1978 25.323 39.6395 25.9689C41.0812 26.6147 42.3426 27.4951 43.4239 28.6101C44.5051 29.7251 45.3661 31.0272 46.0069 32.5164C46.6476 34.0055 46.978 35.6043 46.998 37.3126C47.0181 38.4584 46.8931 39.5784 46.6232 40.6726C46.3533 41.7668 45.9376 42.8134 45.3762 43.8126C45.1559 44.2084 44.8608 44.5055 44.4907 44.7039C44.1207 44.9022 43.7146 45.0009 43.2725 45.0001H26.7245Z" fill="#DBEAFE"/>
</svg>
