<svg width="70" height="70" viewBox="0 0 70 70" fill="none" xmlns="http://www.w3.org/2000/svg">
<rect width="70" height="70" rx="10" fill="#DBEAFE"/>
<rect x="13.0958" y="13.0958" width="43.9644" height="43.9644" rx="7.48331" fill="#155DFC"/>
<path d="M39.4381 37.4655H38.3992L38.031 37.1105C39.3644 35.5641 40.0972 33.5897 40.0956 31.5479C40.0956 29.8573 39.5943 28.2046 38.6551 26.799C37.7158 25.3933 36.3808 24.2977 34.8189 23.6508C33.257 23.0038 31.5384 22.8345 29.8803 23.1644C28.2222 23.4942 26.6991 24.3083 25.5037 25.5037C24.3083 26.6991 23.4942 28.2222 23.1644 29.8803C22.8346 31.5384 23.0038 33.257 23.6508 34.8189C24.2977 36.3808 25.3933 37.7158 26.799 38.655C28.2047 39.5943 29.8573 40.0956 31.5479 40.0956C33.6651 40.0956 35.6113 39.3197 37.1105 38.031L37.4655 38.3992V39.4381L44.0407 46.0001L46.0001 44.0407L39.4381 37.4655ZM31.5479 37.4655C28.2734 37.4655 25.6302 34.8223 25.6302 31.5479C25.6302 28.2734 28.2734 25.6302 31.5479 25.6302C34.8223 25.6302 37.4655 28.2734 37.4655 31.5479C37.4655 34.8223 34.8223 37.4655 31.5479 37.4655Z" fill="#DBEAFE"/>
</svg>
