<svg width="29" height="29" viewBox="0 0 29 29" fill="none" xmlns="http://www.w3.org/2000/svg">
<rect width="29" height="29" rx="2" fill="#DBEAFE"/>
<path d="M9 19H16V16H9V19ZM18 19H21V11H18V19ZM9 14H16V11H9V14ZM7 23C6.45 23 5.97933 22.8043 5.588 22.413C5.19667 22.0217 5.00067 21.5507 5 21V9C5 8.45 5.196 7.97933 5.588 7.588C5.98 7.19667 6.45067 7.00067 7 7H23C23.55 7 24.021 7.196 24.413 7.588C24.805 7.98 25.0007 8.45067 25 9V21C25 21.55 24.8043 22.021 24.413 22.413C24.0217 22.805 23.5507 23.0007 23 23H7Z" fill="#235AF4"/>
</svg>
