<svg width="29" height="29" viewBox="0 0 29 29" fill="none" xmlns="http://www.w3.org/2000/svg">
<rect width="29" height="29" rx="2" fill="#DBEAFE"/>
<path fill-rule="evenodd" clip-rule="evenodd" d="M18.9868 7.67497C18.9868 9.70461 17.4212 11.35 15.4901 11.35C13.5589 11.35 11.9934 9.70461 11.9934 7.67497C11.9934 5.64534 13.5589 4 15.4901 4C17.4212 4 18.9868 5.64534 18.9868 7.67497ZM10.9943 10.825C10.9943 12.2747 9.87611 13.45 8.49671 13.45C7.11731 13.45 5.99909 12.2747 5.99909 10.825C5.99909 9.37524 7.11726 8.19999 8.49671 8.19999C9.87616 8.19999 10.9943 9.37524 10.9943 10.825ZM5 17.65C5 15.9103 6.34189 14.5 7.99717 14.5H8.99625C9.11698 14.5 9.23612 14.5075 9.35315 14.5221C9.12307 15.1264 8.99611 15.7889 8.99611 16.4836V21.85H5.00005L5 17.65ZM18.5926 14.5H21.3678V15.624C21.8499 15.8035 22.2965 16.0749 22.685 16.4247L23.6124 15.8619L25 18.3878L24.073 18.9503C24.1193 19.214 24.1425 19.4817 24.1424 19.7499C24.1425 20.0181 24.1193 20.2858 24.073 20.5496L25 21.1121L23.6124 23.638L22.685 23.0752C22.2965 23.4249 21.8499 23.6963 21.3678 23.8758V25H18.5926V23.8761C18.1102 23.6967 17.6634 23.4253 17.2747 23.0754L16.3479 23.6378L14.9603 21.1119L15.8864 20.55C15.8401 20.2861 15.8168 20.0183 15.817 19.7499C15.817 19.4767 15.8408 19.2093 15.8864 18.9499L14.9603 18.3879L16.3479 15.862L17.2747 16.4244C17.6633 16.0745 18.1101 15.8031 18.5926 15.6237V14.5ZM21.6448 19.75C21.6448 20.7165 20.8993 21.5 19.9797 21.5C19.0601 21.5 18.3146 20.7165 18.3146 19.75C18.3146 18.7835 19.0601 18 19.9797 18C20.8993 18 21.6448 18.7835 21.6448 19.75ZM9.99515 16.6C9.99515 14.2804 11.7843 12.4 13.9914 12.4H16.9886C18.0073 12.4 18.937 12.8006 19.6428 13.4602C16.4918 13.647 13.9915 16.3916 13.9915 19.75C13.9915 20.4863 14.1117 21.1932 14.3326 21.85H9.99515V16.6Z" fill="#235AF4"/>
</svg>
