<svg width="29" height="29" viewBox="0 0 29 29" fill="none" xmlns="http://www.w3.org/2000/svg">
<rect width="29" height="29" rx="2" fill="#DBEAFE"/>
<path d="M11 15C10.7167 15 10.4793 15.096 10.288 15.288C10.0967 15.48 10.0007 15.7173 10 16V19C10 19.2833 10.096 19.521 10.288 19.713C10.48 19.905 10.7173 20.0007 11 20C11.2827 19.9993 11.5203 19.9033 11.713 19.712C11.9057 19.5207 12.0013 19.2833 12 19V16C12 15.7167 11.904 15.4793 11.712 15.288C11.52 15.0967 11.2827 15.0007 11 15ZM19 10C18.7167 10 18.4793 10.096 18.288 10.288C18.0967 10.48 18.0007 10.7173 18 11V19C18 19.2833 18.096 19.521 18.288 19.713C18.48 19.905 18.7173 20.0007 19 20C19.2827 19.9993 19.5203 19.9033 19.713 19.712C19.9057 19.5207 20.0013 19.2833 20 19V11C20 10.7167 19.904 10.4793 19.712 10.288C19.52 10.0967 19.2827 10.0007 19 10ZM15 17C14.7167 17 14.4793 17.096 14.288 17.288C14.0967 17.48 14.0007 17.7173 14 18V19C14 19.2833 14.096 19.521 14.288 19.713C14.48 19.905 14.7173 20.0007 15 20C15.2827 19.9993 15.5203 19.9033 15.713 19.712C15.9057 19.5207 16.0013 19.2833 16 19V18C16 17.7167 15.904 17.4793 15.712 17.288C15.52 17.0967 15.2827 17.0007 15 17ZM8 24C7.45 24 6.97933 23.8043 6.588 23.413C6.19667 23.0217 6.00067 22.5507 6 22V8C6 7.45 6.196 6.97933 6.588 6.588C6.98 6.19667 7.45067 6.00067 8 6H22C22.55 6 23.021 6.196 23.413 6.588C23.805 6.98 24.0007 7.45067 24 8V22C24 22.55 23.8043 23.021 23.413 23.413C23.0217 23.805 22.5507 24.0007 22 24H8ZM15 15C15.2833 15 15.521 14.904 15.713 14.712C15.905 14.52 16.0007 14.2827 16 14C15.9993 13.7173 15.9033 13.48 15.712 13.288C15.5207 13.096 15.2833 13 15 13C14.7167 13 14.4793 13.096 14.288 13.288C14.0967 13.48 14.0007 13.7173 14 14C13.9993 14.2827 14.0953 14.5203 14.288 14.713C14.4807 14.9057 14.718 15.0013 15 15Z" fill="#235AF4"/>
</svg>
