<svg width="29" height="29" viewBox="0 0 29 29" fill="none" xmlns="http://www.w3.org/2000/svg">
<rect width="29" height="29" rx="2" fill="#DBEAFE"/>
<path d="M4 23V20.2C4 19.65 4.14167 19.1333 4.425 18.65C4.70833 18.1667 5.1 17.8 5.6 17.55C6.45 17.1167 7.40833 16.75 8.475 16.45C9.54167 16.15 10.7167 16 12 16C13.2833 16 14.4583 16.15 15.525 16.45C16.5917 16.75 17.55 17.1167 18.4 17.55C18.9 17.8 19.2917 18.1667 19.575 18.65C19.8583 19.1333 20 19.65 20 20.2V23H4ZM12 15C10.9 15 9.95833 14.6083 9.175 13.825C8.39167 13.0417 8 12.1 8 11H7.75C7.6 11 7.47933 10.9543 7.388 10.863C7.29667 10.7717 7.25067 10.6507 7.25 10.5C7.24933 10.3493 7.29533 10.2283 7.388 10.137C7.48067 10.0457 7.60133 10 7.75 10H8C8 9.25 8.18333 8.575 8.55 7.975C8.91667 7.375 9.4 6.9 10 6.55V7.5C10 7.65 10.046 7.771 10.138 7.863C10.23 7.955 10.3507 8.00067 10.5 8C10.6493 7.99933 10.7703 7.95367 10.863 7.863C10.9557 7.77233 11.0013 7.65133 11 7.5V6.15C11.15 6.1 11.3083 6.06267 11.475 6.038C11.6417 6.01333 11.8167 6.00067 12 6C12.1833 5.99933 12.3583 6.012 12.525 6.038C12.6917 6.064 12.85 6.10133 13 6.15V7.5C13 7.65 13.046 7.771 13.138 7.863C13.23 7.955 13.3507 8.00067 13.5 8C13.6493 7.99933 13.7703 7.95367 13.863 7.863C13.9557 7.77233 14.0013 7.65133 14 7.5V6.55C14.6 6.9 15.0833 7.375 15.45 7.975C15.8167 8.575 16 9.25 16 10H16.25C16.4 10 16.521 10.046 16.613 10.138C16.705 10.23 16.7507 10.3507 16.75 10.5C16.7493 10.6493 16.7037 10.7703 16.613 10.863C16.5223 10.9557 16.4013 11.0013 16.25 11H16C16 12.1 15.6083 13.0417 14.825 13.825C14.0417 14.6083 13.1 15 12 15ZM12 13C12.55 13 13.021 12.8043 13.413 12.413C13.805 12.0217 14.0007 11.5507 14 11H10C10 11.55 10.196 12.021 10.588 12.413C10.98 12.805 11.4507 13.0007 12 13ZM19.5 17L19.35 16.25C19.25 16.2167 19.1543 16.1793 19.063 16.138C18.9717 16.0967 18.884 16.034 18.8 15.95L18.1 16.2L17.6 15.3L18.15 14.8V14.2L17.6 13.7L18.1 12.8L18.8 13.05C18.8667 12.9833 18.95 12.925 19.05 12.875C19.15 12.825 19.25 12.7833 19.35 12.75L19.5 12H20.5L20.65 12.75C20.75 12.7833 20.85 12.825 20.95 12.875C21.05 12.925 21.1333 12.9833 21.2 13.05L21.9 12.8L22.4 13.7L21.85 14.2V14.8L22.4 15.3L21.9 16.2L21.2 15.95C21.1167 16.0333 21.0293 16.096 20.938 16.138C20.8467 16.18 20.7507 16.2173 20.65 16.25L20.5 17H19.5ZM20 15.25C20.2 15.25 20.375 15.175 20.525 15.025C20.675 14.875 20.75 14.7 20.75 14.5C20.75 14.3 20.675 14.125 20.525 13.975C20.375 13.825 20.2 13.75 20 13.75C19.8 13.75 19.625 13.825 19.475 13.975C19.325 14.125 19.25 14.3 19.25 14.5C19.25 14.7 19.325 14.875 19.475 15.025C19.625 15.175 19.8 15.25 20 15.25ZM21.8 12L21.6 10.95C21.45 10.9 21.3127 10.8377 21.188 10.763C21.0633 10.6883 20.9507 10.6007 20.85 10.5L19.8 10.85L19.1 9.65L19.95 8.9C19.9167 8.81667 19.9 8.75 19.9 8.7V8.3C19.9 8.25 19.9167 8.18333 19.95 8.1L19.1 7.35L19.8 6.15L20.85 6.5C20.95 6.4 21.0627 6.31233 21.188 6.237C21.3133 6.16167 21.4507 6.09933 21.6 6.05L21.8 5H23.2L23.4 6.05C23.55 6.1 23.6877 6.16267 23.813 6.238C23.9383 6.31333 24.0507 6.40067 24.15 6.5L25.2 6.15L25.9 7.35L25.05 8.1C25.0833 8.18333 25.1 8.25 25.1 8.3V8.7C25.1 8.75 25.0833 8.81667 25.05 8.9L25.9 9.65L25.2 10.85L24.15 10.5C24.05 10.6 23.9377 10.6877 23.813 10.763C23.6883 10.8383 23.5507 10.9007 23.4 10.95L23.2 12H21.8ZM22.5 9.75C22.85 9.75 23.146 9.629 23.388 9.387C23.63 9.145 23.7507 8.84933 23.75 8.5C23.7493 8.15067 23.6283 7.85467 23.387 7.612C23.1457 7.36933 22.85 7.24867 22.5 7.25C22.15 7.25133 21.854 7.37233 21.612 7.613C21.37 7.85367 21.2493 8.14933 21.25 8.5C21.2507 8.85067 21.3717 9.14667 21.613 9.388C21.8543 9.62933 22.15 9.75 22.5 9.75Z" fill="#235AF4"/>
</svg>
