<svg width="30" height="27" viewBox="0 0 30 27" fill="none" xmlns="http://www.w3.org/2000/svg">
<path d="M18.0242 4.87678H16.5121V3.5223C16.5121 3.40255 16.459 3.28771 16.3645 3.20304C16.2699 3.11837 16.1417 3.0708 16.0081 3.0708H13.9919C13.8583 3.0708 13.7301 3.11837 13.6355 3.20304C13.541 3.28771 13.4879 3.40255 13.4879 3.5223V4.87678H11.9758C11.8421 4.87678 11.7139 4.92435 11.6194 5.00902C11.5249 5.09369 11.4718 5.20853 11.4718 5.32827V7.13425C11.4718 7.254 11.5249 7.36883 11.6194 7.45351C11.7139 7.53818 11.8421 7.58575 11.9758 7.58575H13.4879V8.94023C13.4879 9.05997 13.541 9.17481 13.6355 9.25948C13.7301 9.34416 13.8583 9.39172 13.9919 9.39172H16.0081C16.1417 9.39172 16.2699 9.34416 16.3645 9.25948C16.459 9.17481 16.5121 9.05997 16.5121 8.94023V7.58575H18.0242C18.1579 7.58575 18.2861 7.53818 18.3806 7.45351C18.4751 7.36883 18.5282 7.254 18.5282 7.13425V5.32827C18.5282 5.20853 18.4751 5.09369 18.3806 5.00902C18.2861 4.92435 18.1579 4.87678 18.0242 4.87678ZM17.5202 6.68276H16.0081C15.8744 6.68276 15.7462 6.73032 15.6517 6.815C15.5571 6.89967 15.504 7.01451 15.504 7.13425V8.48873H14.496V7.13425C14.496 7.01451 14.4429 6.89967 14.3483 6.815C14.2538 6.73032 14.1256 6.68276 13.9919 6.68276H12.4798V5.77977H13.9919C14.1256 5.77977 14.2538 5.7322 14.3483 5.64753C14.4429 5.56286 14.496 5.44802 14.496 5.32827V3.97379H15.504V5.32827C15.504 5.44802 15.5571 5.56286 15.6517 5.64753C15.7462 5.7322 15.8744 5.77977 16.0081 5.77977H17.5202V6.68276ZM28.9768 7.29679C28.987 7.21735 28.9921 7.13746 28.9919 7.0575C28.9895 6.64364 28.8292 6.24297 28.5377 5.92189C28.2462 5.60082 27.8409 5.37863 27.3891 5.29215C26.878 5.20501 26.3491 5.29502 25.9093 5.54397C25.4695 5.79291 25.1517 6.18221 25.0202 6.63309L22.8024 12.349C22.7696 12.3607 22.7376 12.3743 22.7067 12.3896L18.251 14.7284C17.5692 15.0871 17.0037 15.599 16.6103 16.2135C16.217 16.8279 16.0094 17.5237 16.0081 18.232V22.4851C15.8744 22.4851 15.7462 22.5326 15.6517 22.6173C15.5571 22.702 15.504 22.8168 15.504 22.9366V26.5485C15.504 26.6683 15.5571 26.7831 15.6517 26.8678C15.7462 26.9524 15.8744 27 16.0081 27H23.0645C23.1982 27 23.3264 26.9524 23.4209 26.8678C23.5154 26.7831 23.5686 26.6683 23.5686 26.5485V22.9366C23.5686 22.8168 23.5154 22.702 23.4209 22.6173C23.3264 22.5326 23.1982 22.4851 23.0645 22.4851V21.4918C23.0655 21.3011 23.1108 21.1127 23.1976 20.9385C23.2843 20.7644 23.4107 20.6084 23.5686 20.4804L26.9758 17.7669C27.3485 17.4748 27.6153 17.0896 27.7419 16.6608L29.9294 9.33303C29.9761 9.18001 29.9999 9.02211 30 8.86348C29.998 8.54486 29.9024 8.23232 29.7228 7.9573C29.5432 7.68228 29.2859 7.45447 28.9768 7.29679ZM25.9829 6.89947C26.0447 6.66598 26.2026 6.46196 26.4249 6.32807C26.6472 6.19418 26.9177 6.14027 27.1825 6.17708C27.4084 6.21947 27.6112 6.33002 27.7571 6.49026C27.9029 6.65051 27.983 6.85074 27.9839 7.0575V7.06653C27.5336 7.07401 27.0985 7.21302 26.7446 7.46241C26.3906 7.7118 26.1373 8.05791 26.0232 8.4481L24.6169 12.3355C24.404 12.245 24.1758 12.187 23.9415 12.1639L25.9829 6.89947ZM22.5605 26.097H16.5121V23.3881H22.5605V26.097ZM28.9567 9.09825L26.7641 16.4305C26.6883 16.6853 26.5305 16.9145 26.3105 17.0897L22.8982 19.8032C22.6341 20.0165 22.4228 20.2769 22.2779 20.5677C22.1329 20.8585 22.0575 21.1733 22.0565 21.4918V22.4851H17.0161V18.232C17.0186 17.6811 17.1806 17.1403 17.4863 16.6623C17.792 16.1843 18.2309 15.7855 18.7601 15.505L23.2107 13.1707C23.3254 13.1108 23.4523 13.0719 23.5839 13.056C23.7155 13.0402 23.8494 13.0478 23.9777 13.0784C24.106 13.109 24.2263 13.1621 24.3317 13.2345C24.4371 13.3069 24.5255 13.3972 24.5917 13.5003C24.7227 13.7089 24.7588 13.9547 24.6925 14.1866C24.6575 14.3011 24.5977 14.4083 24.5164 14.502C24.4351 14.5957 24.3339 14.6742 24.2188 14.7329L21.3306 16.2274C21.2209 16.2898 21.1424 16.3879 21.1115 16.501C21.0806 16.6141 21.0996 16.7335 21.1647 16.8343C21.2297 16.9351 21.3358 17.0095 21.4606 17.042C21.5855 17.0744 21.7195 17.0624 21.8347 17.0084L24.7228 15.514C24.9536 15.3967 25.1559 15.2392 25.3178 15.0507C25.4797 14.8623 25.5978 14.6468 25.6653 14.4169C25.8025 13.9549 25.73 13.4631 25.4637 13.0488L25.4335 13.0082L26.9909 8.70545C27.0528 8.47196 27.2106 8.26794 27.433 8.13405C27.6553 8.00016 27.9258 7.94625 28.1905 7.98306C28.4164 8.02545 28.6193 8.136 28.7651 8.29624C28.911 8.45648 28.9911 8.65672 28.9919 8.86348C28.9936 8.94289 28.9817 9.02207 28.9567 9.09825ZM13.9919 22.4851V18.232C13.9906 17.5237 13.783 16.8279 13.3897 16.2135C12.9963 15.599 12.4308 15.0871 11.749 14.7284L7.29335 12.3851C7.26311 12.3716 7.22782 12.3626 7.19758 12.349L4.99496 6.6647C4.86694 6.20724 4.54914 5.81066 4.10624 5.55568C3.66334 5.30069 3.12861 5.20646 2.61089 5.29215C2.15907 5.37863 1.75381 5.60082 1.46229 5.92189C1.17077 6.24297 1.01051 6.64364 1.00806 7.0575C1.00793 7.13746 1.01298 7.21735 1.02319 7.29679C0.714095 7.45447 0.456806 7.68228 0.277193 7.9573C0.0975806 8.23232 0.00197782 8.54486 0 8.86348C0.000978962 9.02177 0.0229748 9.17939 0.0655241 9.33303L2.25806 16.6563C2.38336 17.0869 2.65029 17.4739 3.02419 17.7669L6.42641 20.4804C6.58585 20.6075 6.7136 20.7632 6.80132 20.9375C6.88903 21.1117 6.93475 21.3006 6.93548 21.4918V22.4851C6.80181 22.4851 6.6736 22.5326 6.57908 22.6173C6.48456 22.702 6.43145 22.8168 6.43145 22.9366V26.5485C6.43145 26.6683 6.48456 26.7831 6.57908 26.8678C6.6736 26.9524 6.80181 27 6.93548 27H13.9919C14.1256 27 14.2538 26.9524 14.3483 26.8678C14.4429 26.7831 14.496 26.6683 14.496 26.5485V22.9366C14.496 22.8168 14.4429 22.702 14.3483 22.6173C14.2538 22.5326 14.1256 22.4851 13.9919 22.4851ZM2.01613 7.0575C2.01675 6.85136 2.09609 6.65163 2.24096 6.49147C2.38583 6.33131 2.58751 6.22037 2.8125 6.17708C3.08451 6.14172 3.36138 6.19977 3.5876 6.33961C3.81382 6.47945 3.97266 6.69073 4.03226 6.93108L6.05847 12.1639C5.82424 12.187 5.59597 12.245 5.38307 12.3355L3.9869 8.47067C3.87327 8.07663 3.61948 7.72645 3.2639 7.4731C2.90833 7.21976 2.47032 7.07704 2.01613 7.06653V7.0575ZM7.09677 19.8032L3.68952 17.0897C3.46827 16.9136 3.31039 16.6826 3.23589 16.426L1.03831 9.09825C1.01744 9.02141 1.00728 8.94255 1.00806 8.86348C1.00869 8.65734 1.08802 8.4576 1.23289 8.29745C1.37776 8.13729 1.57945 8.02635 1.80444 7.98306C2.07453 7.94675 2.34995 8.0034 2.57531 8.14161C2.80067 8.27982 2.95925 8.48934 3.01915 8.72803L4.56653 13.0082L4.53629 13.0488C4.26996 13.4631 4.19747 13.9549 4.33468 14.4169C4.40216 14.6468 4.52032 14.8623 4.68219 15.0507C4.84406 15.2392 5.04637 15.3967 5.27722 15.514L8.16532 17.0084C8.28052 17.0624 8.41454 17.0744 8.53939 17.042C8.66424 17.0095 8.77027 16.9351 8.83533 16.8343C8.90039 16.7335 8.91944 16.6141 8.88851 16.501C8.85759 16.3879 8.77907 16.2898 8.66936 16.2274L5.78125 14.7329C5.66607 14.6742 5.56493 14.5957 5.48364 14.502C5.40234 14.4083 5.34247 14.3011 5.30746 14.1866C5.24124 13.9547 5.27735 13.7089 5.40827 13.5003C5.47412 13.3975 5.56196 13.3072 5.66675 13.2347C5.77154 13.1623 5.89124 13.109 6.01902 13.078C6.1468 13.047 6.28014 13.0388 6.41144 13.0539C6.54275 13.0691 6.66944 13.1072 6.78427 13.1662L11.2399 15.505C11.7691 15.7855 12.208 16.1843 12.5137 16.6623C12.8194 17.1403 12.9814 17.6811 12.9839 18.232V22.4851H7.94355V21.4918C7.94269 21.1728 7.86684 20.8576 7.72095 20.5667C7.57505 20.2758 7.36238 20.0156 7.09677 19.8032ZM13.4879 26.097H7.43952V23.3881H13.4879V26.097Z" fill="#A3A4A5"/>
<path d="M22.1306 1.32439C21.6626 0.90452 21.1069 0.571424 20.4951 0.344168C19.8833 0.116912 19.2275 -4.1925e-05 18.5652 1.12739e-08C17.9029 4.19476e-05 17.2471 0.117079 16.6353 0.344412C16.0236 0.571745 15.4679 0.904913 15 1.32485C14.5322 0.904902 13.9765 0.571732 13.3648 0.34441C12.7531 0.117087 12.0973 7.66543e-05 11.435 7.66543e-05C10.7727 7.66543e-05 10.1169 0.117087 9.50519 0.34441C8.89345 0.571732 8.33778 0.904902 7.86998 1.32485C6.9266 2.1717 6.39679 3.3192 6.39679 4.51556C6.39679 5.71191 6.9266 6.85941 7.86998 7.70627L14.6442 13.7744C14.7387 13.859 14.8669 13.9065 15.0005 13.9065C15.1342 13.9065 15.2624 13.859 15.3569 13.7744L22.1311 7.70627C23.0744 6.85927 23.6041 5.71167 23.604 4.51524C23.6039 3.31881 23.074 2.17127 22.1306 1.32439ZM15 12.8167L8.58217 7.06786C8.01873 6.56246 7.63522 5.91876 7.48011 5.21815C7.32501 4.51754 7.40528 3.79146 7.71078 3.13171C8.01627 2.47195 8.53328 1.90814 9.19644 1.51155C9.8596 1.11496 10.6391 0.903396 11.4365 0.903601C11.9662 0.901972 12.4909 0.994831 12.9801 1.17676C13.4693 1.3587 13.9132 1.62606 14.2858 1.96326L14.6437 2.28382C14.7382 2.36846 14.8664 2.41601 15 2.41601C15.1337 2.41601 15.2618 2.36846 15.3564 2.28382L15.7152 1.96236C16.0894 1.62656 16.5339 1.36015 17.0231 1.17839C17.5124 0.996622 18.0369 0.903061 18.5665 0.903061C19.0962 0.903061 19.6207 0.996622 20.11 1.17839C20.5992 1.36015 21.0437 1.62656 21.4179 1.96236C22.1729 2.63959 22.5969 3.55756 22.5969 4.51465C22.5969 5.47175 22.1729 6.38972 21.4179 7.06695L15 12.8167Z" fill="#A3A4A5"/>
</svg>
