<svg width="29" height="29" viewBox="0 0 29 29" fill="none" xmlns="http://www.w3.org/2000/svg">
<rect width="29" height="29" rx="2" fill="#DBEAFE"/>
<path fill-rule="evenodd" clip-rule="evenodd" d="M13 8C12.8674 8 12.7402 8.05268 12.6464 8.14645C12.5527 8.24021 12.5 8.36739 12.5 8.5V12.5H8.5C8.36739 12.5 8.24021 12.5527 8.14645 12.6464C8.05268 12.7402 8 12.8674 8 13V17C8 17.1326 8.05268 17.2598 8.14645 17.3536C8.24021 17.4473 8.36739 17.5 8.5 17.5H12.5V21.5C12.5 21.6326 12.5527 21.7598 12.6464 21.8536C12.7402 21.9473 12.8674 22 13 22H17C17.1326 22 17.2598 21.9473 17.3536 21.8536C17.4473 21.7598 17.5 21.6326 17.5 21.5V17.5H21.5C21.6326 17.5 21.7598 17.4473 21.8536 17.3536C21.9473 17.2598 22 17.1326 22 17V13C22 12.8674 21.9473 12.7402 21.8536 12.6464C21.7598 12.5527 21.6326 12.5 21.5 12.5H17.5V8.5C17.5 8.36739 17.4473 8.24021 17.3536 8.14645C17.2598 8.05268 17.1326 8 17 8H13Z" fill="#235AF4"/>
</svg>
