<svg width="30" height="27" viewBox="0 0 30 27" fill="none" xmlns="http://www.w3.org/2000/svg">
<path d="M10.0286 12.164C9.30726 12.5446 9.03684 12.9888 8.9569 13.9244C8.95667 13.9271 8.95647 13.9298 8.9563 13.9325C8.85797 15.5395 8.90392 17.018 8.9619 18.2524C8.98127 18.6879 9.18739 19.0997 9.53697 19.4013C9.88655 19.7029 10.3524 19.8709 10.8367 19.87H19.1634C19.6477 19.8709 20.1135 19.7029 20.4631 19.4013C20.8127 19.0997 21.0188 18.6879 21.0382 18.2524C21.0961 17.018 21.1421 15.5394 21.0438 13.9325C21.0436 13.9298 21.0434 13.9271 21.0432 13.9244C20.9632 12.9888 20.6928 12.5446 19.9715 12.164C19.4898 11.9098 18.7223 11.7213 17.9078 11.5338L16.5781 11.2394C16.8103 11.071 17.0229 10.8654 17.2075 10.6247C17.9443 9.66402 18.0776 8.3393 17.5317 7.40325C17.0618 6.59743 16.1627 6.15364 15 6.15364C13.8374 6.15364 12.9382 6.59743 12.4683 7.4033C11.9224 8.33936 12.0557 9.66407 12.7925 10.6248C12.9771 10.8654 13.1897 11.0711 13.4219 11.2394L12.0885 11.5346C11.2777 11.7212 10.5102 11.9098 10.0286 12.164V12.164ZM15.8577 16.5667L15 17.648L14.1424 16.5667L14.8852 11.7633C14.9154 11.7625 14.9456 11.7621 14.9758 11.762C14.9829 11.762 14.99 11.7626 14.9971 11.7626H15.0023C15.0095 11.7626 15.0166 11.762 15.0237 11.762C15.0541 11.7621 15.0846 11.7625 15.115 11.7633L15.8577 16.5667H15.8577ZM13.2062 7.75184C13.5298 7.19694 14.1501 6.90364 15.0001 6.90364C15.8501 6.90364 16.4703 7.19694 16.7939 7.75184C17.1955 8.44044 17.081 9.4695 16.5218 10.1987C16.125 10.7159 15.5953 11.0035 15.0267 11.0118C15.0088 11.0117 14.9908 11.0117 14.9729 11.0118C14.405 11.0036 13.8751 10.716 13.4784 10.1987C12.9191 9.4695 12.8047 8.44044 13.2063 7.75184H13.2062ZM14.0261 11.8781L13.2942 16.6114C13.2795 16.7064 13.3058 16.8029 13.3677 16.8809L14.6609 18.5114C14.6995 18.56 14.7504 18.5996 14.8093 18.6269C14.8683 18.6542 14.9337 18.6685 15 18.6685C15.0664 18.6685 15.1317 18.6542 15.1907 18.6269C15.2497 18.5996 15.3006 18.56 15.3391 18.5114L16.6324 16.8809C16.6943 16.8029 16.7206 16.7064 16.7059 16.6114L15.974 11.8781L17.7051 12.2613C18.2724 12.3919 19.1298 12.5892 19.55 12.811C19.9677 13.0314 20.1448 13.1989 20.2119 13.9779C20.3079 15.5512 20.2627 17.0054 20.2057 18.2208C20.1949 18.4629 20.0803 18.6918 19.8859 18.8595C19.6916 19.0272 19.4326 19.1205 19.1634 19.12H18.8418V16.0615C18.8418 16.0122 18.8311 15.9635 18.8101 15.918C18.7892 15.8725 18.7585 15.8311 18.7198 15.7963C18.6811 15.7615 18.6352 15.7339 18.5846 15.715C18.5341 15.6962 18.4799 15.6865 18.4252 15.6865C18.3705 15.6865 18.3163 15.6962 18.2657 15.715C18.2152 15.7339 18.1692 15.7615 18.1305 15.7963C18.0919 15.8311 18.0612 15.8725 18.0402 15.918C18.0193 15.9635 18.0085 16.0122 18.0085 16.0615V19.12H11.9916V16.0615C11.9916 15.962 11.9477 15.8666 11.8695 15.7963C11.7914 15.726 11.6854 15.6865 11.5749 15.6865C11.4644 15.6865 11.3584 15.726 11.2803 15.7963C11.2021 15.8666 11.1582 15.962 11.1582 16.0615V19.12H10.8367C10.5675 19.1205 10.3085 19.0271 10.1142 18.8595C9.91985 18.6918 9.80525 18.4629 9.79446 18.2208C9.73744 17.0054 9.69214 15.5512 9.78821 13.9779C9.8553 13.1989 10.0324 13.0314 10.4501 12.811C10.8704 12.5892 11.7277 12.3918 12.2913 12.2621L14.0262 11.878L14.0261 11.8781ZM4.45758 12.2807C4.4005 12.6837 4.37157 13.0939 4.37157 13.4999C4.37157 13.9059 4.4005 14.3161 4.45758 14.7192C4.46451 14.768 4.46067 14.8176 4.44629 14.8651C4.43191 14.9127 4.40728 14.9572 4.37379 14.9961C4.3403 15.0351 4.29862 15.0677 4.25112 15.0921C4.20362 15.1166 4.15124 15.1324 4.09696 15.1386C4.04268 15.1448 3.98756 15.1414 3.93477 15.1284C3.88197 15.1155 3.83252 15.0933 3.78925 15.0632C3.74597 15.0331 3.70971 14.9955 3.68255 14.9528C3.65538 14.91 3.63783 14.8629 3.63091 14.8141C3.56936 14.3796 3.53811 13.9375 3.53811 13.4999C3.53811 13.0624 3.5693 12.6202 3.63091 12.1858C3.63734 12.1366 3.65455 12.089 3.68153 12.0459C3.70852 12.0027 3.74475 11.9647 3.78812 11.9342C3.8315 11.9037 3.88117 11.8812 3.93425 11.8681C3.98734 11.8549 4.04279 11.8514 4.09741 11.8577C4.15202 11.8639 4.20472 11.8799 4.25245 11.9046C4.30017 11.9293 4.34199 11.9622 4.37547 12.0016C4.40896 12.0409 4.43345 12.0858 4.44753 12.1337C4.46162 12.1816 4.46507 12.2316 4.45758 12.2807ZM25.543 14.7193C25.6571 13.9096 25.657 13.0903 25.5426 12.2807C25.5299 12.1826 25.5607 12.0839 25.6283 12.0061C25.6959 11.9283 25.7949 11.8777 25.9038 11.8652C26.0127 11.8527 26.1226 11.8794 26.2098 11.9394C26.2969 11.9995 26.3542 12.088 26.3692 12.1859C26.4307 12.6204 26.462 13.0625 26.462 13.4999C26.462 13.9374 26.4309 14.381 26.3697 14.814C26.3557 14.9127 26.2988 15.0023 26.2114 15.0632C26.124 15.124 26.0133 15.1512 25.9037 15.1386C25.8494 15.1324 25.797 15.1166 25.7495 15.0922C25.702 15.0678 25.6603 15.0351 25.6268 14.9962C25.5933 14.9573 25.5687 14.9128 25.5543 14.8652C25.5399 14.8177 25.536 14.7681 25.543 14.7193ZM10.1467 4.56075C10.1019 4.46983 10.0991 4.36663 10.1388 4.27384C10.1786 4.18105 10.2577 4.10628 10.3587 4.06596C11.8245 3.48102 13.3861 3.18439 15.0001 3.18439C16.6141 3.18439 18.1756 3.48102 19.6415 4.06602C19.6922 4.08557 19.7381 4.11399 19.7765 4.14962C19.8149 4.18525 19.845 4.2274 19.8652 4.2736C19.8854 4.31981 19.8952 4.36916 19.894 4.41879C19.8928 4.46843 19.8807 4.51735 19.8583 4.56273C19.8359 4.60811 19.8038 4.64905 19.7637 4.68316C19.7236 4.71727 19.6764 4.74388 19.6248 4.76145C19.5732 4.77902 19.5183 4.78719 19.4632 4.78549C19.408 4.7838 19.3538 4.77227 19.3037 4.75157C17.9449 4.20932 16.497 3.93439 15.0001 3.93439C13.5032 3.93439 12.0553 4.20932 10.6965 4.75157C10.5955 4.79187 10.4808 4.79441 10.3777 4.75863C10.2746 4.72284 10.1915 4.65166 10.1467 4.56075ZM19.362 22.643C19.3817 22.6889 19.3912 22.7379 19.3898 22.7872C19.3885 22.8364 19.3763 22.8849 19.3542 22.9299C19.332 22.9749 19.3002 23.0156 19.2605 23.0495C19.2209 23.0835 19.1742 23.1101 19.1232 23.1278C17.8085 23.5842 16.4212 23.8156 15 23.8156C13.5787 23.8156 12.1927 23.584 10.8768 23.1272C10.8253 23.1097 10.7782 23.0833 10.7381 23.0494C10.6981 23.0155 10.6658 22.9747 10.6433 22.9296C10.6208 22.8844 10.6085 22.8357 10.607 22.7862C10.6056 22.7367 10.615 22.6875 10.6348 22.6413C10.6546 22.5951 10.6843 22.5529 10.7223 22.5171C10.7603 22.4813 10.8058 22.4527 10.8562 22.4328C10.9066 22.4129 10.9608 22.4022 11.0158 22.4013C11.0708 22.4003 11.1255 22.4092 11.1766 22.4274C12.3964 22.8508 13.6828 23.0656 14.9999 23.0656C16.317 23.0656 17.6046 22.8511 18.8232 22.4281C18.9263 22.3923 19.041 22.3949 19.142 22.4352C19.243 22.4755 19.3221 22.5502 19.3619 22.643L19.362 22.643ZM10.2381 21.9882C10.1695 21.1857 9.93589 20.8038 9.3125 20.4748C8.90398 20.2592 8.26064 20.1011 7.57784 19.9439L6.60516 19.7286C6.76765 19.5965 6.91241 19.4477 7.03647 19.2853C7.66326 18.4681 7.776 17.3397 7.31052 16.5415C6.90706 15.8496 6.13736 15.4686 5.14324 15.4686C4.14913 15.4686 3.37942 15.8496 2.97597 16.5415C2.51049 17.3397 2.62317 18.468 3.25002 19.2853C3.3741 19.4477 3.51885 19.5965 3.68133 19.7286L2.70495 19.9448C2.02602 20.1011 1.38268 20.2592 0.974109 20.4748C0.350593 20.8038 0.117139 21.1857 0.048508 21.9882L0.0479127 21.9963C-0.0339925 23.3346 0.00422198 24.5661 0.0524366 25.5944C0.0692943 25.9728 0.248409 26.3307 0.55217 26.5927C0.85593 26.8548 1.2607 27.0008 1.68149 26.9999H8.60499C9.0258 27.0008 9.43059 26.8548 9.73436 26.5927C10.0381 26.3306 10.2173 25.9728 10.2341 25.5944C10.2823 24.5662 10.3205 23.3347 10.2386 21.9964L10.238 21.9882L10.2381 21.9882ZM3.71389 16.89C3.97002 16.4508 4.46431 16.2186 5.1433 16.2186C5.82229 16.2186 6.31658 16.4508 6.57272 16.89C6.89516 17.443 6.80188 18.2712 6.35075 18.8593C6.03456 19.2716 5.61485 19.5009 5.16574 19.5081C5.1506 19.508 5.13547 19.508 5.12033 19.5081C4.67199 19.501 4.25211 19.2716 3.93585 18.8593C3.48478 18.2712 3.39145 17.443 3.71389 16.89ZM9.4016 25.5627C9.39334 25.7477 9.30575 25.9227 9.15722 26.0508C9.0087 26.179 8.81079 26.2503 8.60505 26.2499H8.40791V23.77C8.40791 23.6706 8.36401 23.5752 8.28587 23.5048C8.20773 23.4345 8.10175 23.395 7.99124 23.395C7.88073 23.395 7.77475 23.4345 7.69661 23.5048C7.61847 23.5752 7.57457 23.6706 7.57457 23.77V26.2499H2.71192V23.77C2.71192 23.6706 2.66802 23.5752 2.58988 23.5048C2.51174 23.4345 2.40576 23.395 2.29525 23.395C2.18474 23.395 2.07876 23.4345 2.00062 23.5048C1.92248 23.5752 1.87858 23.6706 1.87858 23.77V26.2499H1.68144C1.4757 26.2503 1.2778 26.179 1.12928 26.0508C0.980759 25.9227 0.893164 25.7478 0.884882 25.5628C0.83762 24.5537 0.800001 23.3463 0.879644 22.0417C0.933097 21.4217 1.06387 21.2967 1.39542 21.1218C1.73655 20.9418 2.44352 20.7791 2.90757 20.6722L4.37913 20.3464C4.64044 20.2886 4.88449 20.2595 5.12812 20.2583C5.13229 20.2583 5.1364 20.2587 5.14056 20.2587H5.14491C5.1492 20.2587 5.15348 20.2583 5.15777 20.2583C5.40158 20.2594 5.64575 20.2886 5.90724 20.3464L7.37504 20.6713C7.84284 20.779 8.54981 20.9417 8.89089 21.1217C9.2225 21.2967 9.35327 21.4216 9.40678 22.0416C9.48637 23.3464 9.44875 24.5536 9.40148 25.5627L9.4016 25.5627ZM29.9517 21.9882C29.8831 21.1857 29.6496 20.8039 29.0261 20.4748C28.6176 20.2593 27.9742 20.1011 27.2914 19.944L26.3187 19.7287C26.4812 19.5966 26.626 19.4478 26.75 19.2854C27.3768 18.4681 27.4896 17.3398 27.0241 16.5415C26.6206 15.8496 25.8509 15.4686 24.8568 15.4686C23.8627 15.4686 23.0931 15.8496 22.6896 16.5415C22.2241 17.3397 22.3367 18.4681 22.9636 19.2854C23.0876 19.4478 23.2324 19.5966 23.3949 19.7287L22.4186 19.9449C21.7396 20.1011 21.0962 20.2593 20.6877 20.4749C20.0642 20.8039 19.8307 21.1858 19.7621 21.9883L19.7615 21.9964C19.6795 23.335 19.7179 24.5664 19.7661 25.5944C19.7829 25.9729 19.962 26.3307 20.2657 26.5928C20.5695 26.8549 20.9743 27.0008 21.3951 27H28.3186C28.7394 27.0008 29.1442 26.8549 29.448 26.5928C29.7517 26.3307 29.9308 25.9729 29.9476 25.5944C29.9959 24.5664 30.0341 23.335 29.9522 21.9964L29.9516 21.9883L29.9517 21.9882ZM23.4275 16.89C23.6837 16.4508 24.1779 16.2186 24.8569 16.2186C25.5359 16.2186 26.0302 16.4508 26.2863 16.89C26.6087 17.443 26.5155 18.2712 26.0643 18.8593C25.748 19.2717 25.3281 19.5011 24.8789 19.5081C24.864 19.508 24.8491 19.508 24.8343 19.5081C24.3859 19.5012 23.9657 19.2717 23.6494 18.8593C23.1985 18.2712 23.1051 17.4429 23.4275 16.89ZM29.1152 25.5628C29.1069 25.7478 29.0194 25.9227 28.8709 26.0509C28.7223 26.179 28.5244 26.2504 28.3187 26.25H28.1215V23.7701C28.1215 23.6706 28.0776 23.5752 27.9995 23.5049C27.9214 23.4346 27.8154 23.3951 27.7049 23.3951C27.5944 23.3951 27.4884 23.4346 27.4102 23.5049C27.3321 23.5752 27.2882 23.6706 27.2882 23.7701V26.25H22.4256V23.7701C22.4256 23.6706 22.3817 23.5752 22.3036 23.5049C22.2254 23.4346 22.1195 23.3951 22.0089 23.3951C21.8984 23.3951 21.7925 23.4346 21.7143 23.5049C21.6362 23.5752 21.5923 23.6706 21.5923 23.7701V26.25H21.3951C21.1894 26.2504 20.9915 26.179 20.843 26.0509C20.6944 25.9227 20.6069 25.7478 20.5986 25.5628C20.5513 24.5539 20.5137 23.3467 20.5933 22.0417C20.6468 21.4217 20.7776 21.2968 21.1091 21.1218C21.4503 20.9418 22.1572 20.7791 22.6213 20.6722L24.0929 20.3465C24.3543 20.2886 24.5984 20.2595 24.8421 20.2584C24.8462 20.2584 24.8502 20.2587 24.8543 20.2587H24.8586C24.8629 20.2587 24.8671 20.2584 24.8713 20.2584C25.1152 20.2595 25.3594 20.2886 25.6209 20.3465L27.0887 20.6714C27.5565 20.7791 28.2635 20.9418 28.6046 21.1218C28.9363 21.2968 29.067 21.4217 29.1205 22.0417C29.2001 23.3466 29.1625 24.5538 29.1152 25.5627V25.5628ZM19.7614 6.52773C19.6795 7.86637 19.7178 9.09777 19.766 10.1258C19.7828 10.5042 19.9619 10.862 20.2657 11.1241C20.5694 11.3862 20.9742 11.5322 21.395 11.5314H28.3186C28.7394 11.5322 29.1442 11.3862 29.4479 11.1242C29.7517 10.8621 29.9308 10.5042 29.9476 10.1258C29.9958 9.09777 30.0341 7.86637 29.9522 6.52773L29.9516 6.51959C29.883 5.71709 29.6495 5.33518 29.026 5.0062C28.6176 4.79073 27.9742 4.63248 27.2913 4.4753L26.3186 4.26C26.4811 4.12791 26.6259 3.97915 26.7499 3.81675C27.3767 2.99941 27.4895 1.87109 27.024 1.07287C26.6205 0.381 25.8508 0 24.8567 0C23.8626 0 23.0929 0.381 22.6895 1.07282C22.224 1.87104 22.3366 2.99936 22.9635 3.8167C23.0875 3.97912 23.2323 4.12791 23.3948 4.26L22.4185 4.47611C21.7394 4.63243 21.0959 4.79068 20.6876 5.00614C20.0641 5.33512 19.8306 5.71698 19.762 6.51953L19.7614 6.52768L19.7614 6.52773ZM23.4275 1.42136C23.6837 0.982125 24.1778 0.749946 24.8568 0.749946C25.5358 0.749946 26.03 0.982125 26.2862 1.42136C26.6087 1.97432 26.5154 2.80248 26.0643 3.39064C25.7482 3.80277 25.3286 4.03211 24.8797 4.03939C24.8643 4.03929 24.8488 4.03934 24.8334 4.03939C24.3853 4.03221 23.9655 3.80282 23.6494 3.39064C23.1984 2.80248 23.105 1.97427 23.4275 1.4213V1.42136ZM20.5933 6.57311C20.6467 5.95307 20.7775 5.82814 21.1091 5.65318C21.4501 5.47329 22.1571 5.31048 22.6213 5.20361L24.0928 4.87784C24.3543 4.81998 24.5984 4.79089 24.8421 4.78971C24.8461 4.78971 24.8501 4.79009 24.8541 4.79009H24.8586C24.8628 4.79009 24.8669 4.78971 24.8712 4.78971C25.1151 4.79084 25.3593 4.81993 25.6209 4.87784L27.0887 5.2027C27.5565 5.31043 28.2636 5.47323 28.6046 5.65312C28.9362 5.82809 29.067 5.95302 29.1204 6.57305C29.2001 7.878 29.1624 9.08518 29.1151 10.0941C29.1069 10.2791 29.0193 10.4541 28.8708 10.5822C28.7223 10.7103 28.5244 10.7817 28.3186 10.7813H28.1215V8.30137C28.1215 8.20192 28.0776 8.10653 27.9994 8.03621C27.9213 7.96588 27.8153 7.92637 27.7048 7.92637C27.5943 7.92637 27.4883 7.96588 27.4102 8.03621C27.332 8.10653 27.2881 8.20192 27.2881 8.30137V10.7813H22.4256V8.30137C22.4256 8.20192 22.3817 8.10653 22.3035 8.03621C22.2254 7.96588 22.1194 7.92637 22.0089 7.92637C21.8984 7.92637 21.7924 7.96588 21.7143 8.03621C21.6361 8.10653 21.5922 8.20192 21.5922 8.30137V10.7813H21.3951C21.1893 10.7817 20.9914 10.7103 20.8429 10.5822C20.6944 10.4541 20.6068 10.2791 20.5986 10.0941C20.5513 9.08518 20.5136 7.87805 20.5933 6.57311ZM1.68149 11.5313H8.60499C9.0258 11.5321 9.43059 11.3862 9.73436 11.1241C10.0381 10.862 10.2173 10.5042 10.2341 10.1257C10.2823 9.09761 10.3205 7.86611 10.2386 6.52773L10.238 6.51959C10.1694 5.71703 9.93583 5.33512 9.31244 5.0062C8.9041 4.79068 8.2607 4.63248 7.57778 4.4753L6.6051 4.26C6.76761 4.12791 6.91236 3.97915 7.03641 3.81675C7.6632 2.99941 7.77594 1.87109 7.31046 1.07287C6.907 0.381 6.1373 0 5.14318 0C4.14907 0 3.37936 0.381 2.97591 1.07287C2.51043 1.87109 2.62311 2.99941 3.24996 3.81675C3.37402 3.97914 3.51875 4.12792 3.68121 4.26005L2.70483 4.47621C2.02578 4.63254 1.38239 4.79073 0.97399 5.00625C0.350534 5.33523 0.11702 5.71709 0.0483889 6.51964L0.0477937 6.52778C-0.0341116 7.86605 0.00410294 9.09761 0.0523175 10.1259C0.0691753 10.5043 0.24829 10.8621 0.552051 11.1241C0.855811 11.3862 1.26059 11.5322 1.68138 11.5314L1.68149 11.5313ZM3.71383 1.42136C3.97002 0.982125 4.46425 0.749946 5.14324 0.749946C5.82224 0.749946 6.31646 0.982125 6.57266 1.42136C6.8951 1.97432 6.80183 2.80248 6.35069 3.39064C6.03444 3.80304 5.61307 4.03237 5.16515 4.03939C5.15015 4.03929 5.13515 4.03934 5.12015 4.03939C4.67187 4.03232 4.25199 3.80293 3.93579 3.39059C3.48472 2.80243 3.39139 1.97427 3.71383 1.4213V1.42136ZM0.879704 6.57305C0.933157 5.95302 1.06393 5.82809 1.39548 5.65312C1.73649 5.47318 2.44352 5.31043 2.90763 5.20355L4.37919 4.87779C4.64056 4.81993 4.88449 4.79084 5.12812 4.78966C5.13223 4.78966 5.13634 4.79004 5.1405 4.79004H5.14503C5.14931 4.79004 5.15354 4.78966 5.15783 4.78966C5.40164 4.79078 5.64575 4.81987 5.90724 4.87779L7.37504 5.20264C7.8429 5.31037 8.54999 5.47318 8.89095 5.65307C9.2225 5.82804 9.35327 5.95291 9.40678 6.573C9.48637 7.87773 9.44875 9.08496 9.40148 10.094C9.39322 10.2791 9.30563 10.454 9.1571 10.5821C9.00858 10.7103 8.81067 10.7816 8.60493 10.7812H8.40779V8.30132C8.40779 8.20186 8.36389 8.10648 8.28575 8.03615C8.20761 7.96583 8.10163 7.92632 7.99112 7.92632C7.88061 7.92632 7.77463 7.96583 7.69649 8.03615C7.61835 8.10648 7.57445 8.20186 7.57445 8.30132V10.7812H2.71192V8.30132C2.71192 8.20186 2.66802 8.10648 2.58988 8.03615C2.51174 7.96583 2.40576 7.92632 2.29525 7.92632C2.18474 7.92632 2.07876 7.96583 2.00062 8.03615C1.92248 8.10648 1.87858 8.20186 1.87858 8.30132V10.7812H1.68144C1.4757 10.7816 1.2778 10.7103 1.12928 10.5821C0.980759 10.454 0.893164 10.2791 0.884882 10.0941C0.83762 9.08496 0.800001 7.87762 0.879644 6.573L0.879704 6.57305Z" fill="#A3A4A5"/>
</svg>
