<svg width="29" height="29" viewBox="0 0 29 29" fill="none" xmlns="http://www.w3.org/2000/svg">
<rect width="29" height="29" rx="2" fill="#DBEAFE"/>
<path d="M17.9811 10.7229C18.2106 10.779 18.442 10.6385 18.4979 10.4089L19.002 8.34839C19.0579 8.11903 18.9175 7.88758 18.688 7.83145L16.7776 7.36422C16.5482 7.30817 16.3166 7.44866 16.2605 7.67794C16.2046 7.90738 16.345 8.13898 16.5742 8.19495L17.4168 8.40108L11.607 12.6217C11.4158 12.7606 11.3739 13.0279 11.5124 13.2191C11.6516 13.41 11.9189 13.4524 12.1095 13.3136L17.9437 9.07555L17.6672 10.2058C17.6111 10.4354 17.7517 10.6668 17.9811 10.7229Z" fill="#235AF4"/>
<path d="M11.8293 17.8324H8.19299V21.2537H11.8293V17.8324Z" fill="#235AF4"/>
<path d="M17.0407 14.701H13.4039V21.2537H17.0407V14.701Z" fill="#235AF4"/>
<path d="M22.2521 18.6182V17.9279L19.6222 21.2537H20.1682L22.2521 18.6182Z" fill="#235AF4"/>
<path d="M22.2521 17.7496V17.0591L18.9353 21.2537H19.4813L22.2521 17.7496Z" fill="#235AF4"/>
<path d="M19.155 11.241H18.6154V11.9233L19.155 11.241Z" fill="#235AF4"/>
<path d="M22.2522 13.4058V12.7151L18.6154 17.3145V18.0048L22.2522 13.4058Z" fill="#235AF4"/>
<path d="M22.2522 14.2742V13.5842L18.6154 18.1832V18.8733L22.2522 14.2742Z" fill="#235AF4"/>
<path d="M18.7942 21.2536L22.2522 16.8807V16.1903L18.6154 20.7895V21.2536H18.7942Z" fill="#235AF4"/>
<path d="M22.2522 12.5367V11.8465L18.6154 16.4453V17.136L22.2522 12.5367Z" fill="#235AF4"/>
<path d="M22.2522 16.0119V15.3216L18.6154 19.9211V20.6112L22.2522 16.0119Z" fill="#235AF4"/>
<path d="M18.6154 12.7921L19.8421 11.241H19.2962L18.6154 12.1018V12.7921Z" fill="#235AF4"/>
<path d="M22.2522 15.1434V14.4527L18.6154 19.0517V19.7425L22.2522 15.1434Z" fill="#235AF4"/>
<path d="M18.6154 14.5297L21.2156 11.241H20.6701L18.6154 13.8393V14.5297Z" fill="#235AF4"/>
<path d="M22.252 20.3559V19.6655L20.9965 21.2537H21.5422L22.252 20.3559Z" fill="#235AF4"/>
<path d="M22.2521 21.2246V20.5344L21.6835 21.2536H22.2291L22.2521 21.2246Z" fill="#235AF4"/>
<path d="M18.6154 15.3985L21.9027 11.241H21.3569L18.6154 14.7081V15.3985Z" fill="#235AF4"/>
<path d="M22.2521 19.487V18.7967L20.3093 21.2537H20.8555L22.2521 19.487Z" fill="#235AF4"/>
<path d="M18.6154 13.6609L20.5293 11.241H19.9833L18.6154 12.9705V13.6609Z" fill="#235AF4"/>
<path d="M18.6154 16.267L22.2522 11.6682V11.241H22.0441L18.6154 15.5768V16.267Z" fill="#235AF4"/>
<path d="M18.6154 12.1018L19.2962 11.241H19.155L18.6154 11.9233V12.1018Z" fill="white"/>
<path d="M18.6154 12.9705L19.9833 11.241H19.8421L18.6154 12.7921V12.9705Z" fill="white"/>
<path d="M18.6154 13.8393L20.6701 11.241H20.5293L18.6154 13.6609V13.8393Z" fill="white"/>
<path d="M18.6154 14.7081L21.3569 11.241H21.2156L18.6154 14.5297V14.7081Z" fill="white"/>
<path d="M18.6154 15.5768L22.0441 11.241H21.9027L18.6154 15.3985V15.5768Z" fill="white"/>
<path d="M22.2522 11.8465V11.6682L18.6154 16.267V16.4454L22.2522 11.8465Z" fill="white"/>
<path d="M22.2522 12.7151V12.5367L18.6154 17.136V17.3145L22.2522 12.7151Z" fill="white"/>
<path d="M22.2522 13.5842V13.4059L18.6154 18.0048V18.1832L22.2522 13.5842Z" fill="white"/>
<path d="M22.2522 14.4527V14.2742L18.6154 18.8732V19.0517L22.2522 14.4527Z" fill="white"/>
<path d="M22.2522 15.3216V15.1433L18.6154 19.7425V19.9211L22.2522 15.3216Z" fill="white"/>
<path d="M22.2522 16.1903V16.0119L18.6154 20.6112V20.7895L22.2522 16.1903Z" fill="white"/>
<path d="M22.2521 17.0591V16.8807L18.7941 21.2536H18.9353L22.2521 17.0591Z" fill="white"/>
<path d="M22.2521 17.928V17.7496L19.4813 21.2537H19.6222L22.2521 17.928Z" fill="white"/>
<path d="M22.2521 18.7967V18.6182L20.1682 21.2536H20.3093L22.2521 18.7967Z" fill="white"/>
<path d="M22.2521 19.6655V19.487L20.8555 21.2537H20.9965L22.2521 19.6655Z" fill="white"/>
<path d="M22.2521 20.5344V20.3559L21.5422 21.2536H21.6834L22.2521 20.5344Z" fill="white"/>
<path d="M22.252 21.2246L22.2289 21.2536H22.252V21.2246Z" fill="white"/>
<path d="M7 7V22.8996C7 23.0167 7.04738 23.1313 7.13005 23.2138C7.21304 23.2967 7.32731 23.3443 7.44465 23.3443H23V22.4546H7.88927V7H7Z" fill="#235AF4"/>
</svg>
