<svg width="29" height="29" viewBox="0 0 29 29" fill="none" xmlns="http://www.w3.org/2000/svg">
<rect width="29" height="29" rx="2" fill="#DBEAFE"/>
<path d="M7 24C6.45 24 5.97933 23.8043 5.588 23.413C5.19667 23.0217 5.00067 22.5507 5 22V11C5 10.45 5.196 9.97933 5.588 9.588C5.98 9.19667 6.45067 9.00067 7 9H11V7C11 6.45 11.196 5.97933 11.588 5.588C11.98 5.19667 12.4507 5.00067 13 5H17C17.55 5 18.021 5.196 18.413 5.588C18.805 5.98 19.0007 6.45067 19 7V9H23C23.55 9 24.021 9.196 24.413 9.588C24.805 9.98 25.0007 10.4507 25 11V22C25 22.55 24.8043 23.021 24.413 23.413C24.0217 23.805 23.5507 24.0007 23 24H7ZM13 9H17V7H13V9ZM15 18.5C15.55 18.5 16.021 18.3043 16.413 17.913C16.805 17.5217 17.0007 17.0507 17 16.5C16.9993 15.9493 16.8037 15.4787 16.413 15.088C16.0223 14.6973 15.5513 14.5013 15 14.5C14.4487 14.4987 13.978 14.6947 13.588 15.088C13.198 15.4813 13.002 15.952 13 16.5C12.998 17.048 13.194 17.519 13.588 17.913C13.982 18.307 14.4527 18.5027 15 18.5Z" fill="#235AF4"/>
</svg>
