<svg width="29" height="29" viewBox="0 0 29 29" fill="none" xmlns="http://www.w3.org/2000/svg">
<rect width="29" height="29" rx="2" fill="#DBEAFE"/>
<path d="M21.7354 6.67055C21.6534 6.61364 21.5592 6.57761 21.4607 6.56546C21.3623 6.55331 21.2624 6.5654 21.1694 6.60071L12.1428 10.1148C11.7497 10.2675 11.2586 10.3416 10.7541 10.3416C10.0506 10.3431 9.32162 10.1962 8.81567 9.99605C8.66201 9.93907 8.51447 9.86621 8.37534 9.77862C8.41486 9.76086 8.46049 9.74286 8.51224 9.72462L16.721 6.52944L17.9439 7.00029V5.62373C17.9439 5.52274 17.92 5.42325 17.8742 5.33375C17.8283 5.24424 17.762 5.16736 17.6807 5.10967C17.5987 5.05277 17.5045 5.01673 17.4061 5.00458C17.3076 4.99243 17.2077 5.00452 17.1148 5.03984L8.08885 8.55253C7.80941 8.65548 7.57161 8.77787 7.36909 8.9593C7.16868 9.13497 6.99721 9.42368 7.00003 9.74406C7.00003 9.75342 7.00286 9.7671 7.00286 9.7671V22.1403L7.00074 22.1547C7.00074 22.1598 7.00286 22.1619 7.00286 22.167V22.1792H7.00427C7.02403 22.6112 7.26536 22.8869 7.49822 23.0828C8.22716 23.6609 9.45145 23.9842 10.7534 24C11.3708 24 11.9967 23.9165 12.5768 23.6926L21.6062 20.1777C21.7224 20.1333 21.8225 20.0535 21.8929 19.9492C21.9633 19.845 22.0007 19.7212 22 19.5946V7.18604C21.9999 7.08499 21.9759 6.98546 21.9299 6.89595C21.8839 6.80644 21.8174 6.7296 21.7361 6.67199L21.7354 6.67055ZM7.56455 11.7895C7.59103 11.8519 7.6077 11.9183 7.61395 11.986L7.61606 12.0242C7.62736 12.2142 7.7078 12.3165 7.87221 12.4634C8.42474 12.9148 9.55307 13.2409 10.7534 13.251C11.2144 13.2548 11.6736 13.1908 12.1167 13.0609V14.3496C11.6601 14.4533 11.1993 14.4987 10.7463 14.4987C9.56506 14.48 8.44167 14.2445 7.56385 13.7406L7.56455 11.7895ZM10.747 21.0424C9.56506 21.0222 8.44167 20.7875 7.56455 20.2828V18.3296C7.59253 18.3923 7.60926 18.4596 7.61395 18.5283L7.61606 18.5665C7.62877 18.758 7.7078 18.8595 7.87292 19.0071C8.42474 19.457 9.55236 19.7846 10.7534 19.7918C11.2262 19.7918 11.6898 19.7342 12.1167 19.6046V20.8919C11.6663 20.9925 11.2066 21.0427 10.7456 21.0417L10.747 21.0424Z" fill="#235AF4"/>
</svg>
