<svg width="29" height="29" viewBox="0 0 29 29" fill="none" xmlns="http://www.w3.org/2000/svg">
<rect width="29" height="29" rx="2" fill="#DBEAFE"/>
<path d="M10.2918 11.8805L9.70742 11.2961C9.3168 10.9055 9.3168 10.2711 9.70742 9.88047L13.2918 6.29297C13.6824 5.90234 14.3168 5.90234 14.7074 6.29297L15.2918 6.88047C15.6824 7.27109 15.6824 7.90547 15.2918 8.29609L11.7074 11.8805C11.3168 12.2711 10.6824 12.2711 10.2918 11.8805ZM13.6168 13.7023L12.6355 12.7211L16.1355 9.22109L19.8668 12.9523L16.3668 16.4523L15.3855 15.4711L8.13555 22.7211C7.64805 23.2086 6.85742 23.2086 6.3668 22.7211C5.87617 22.2336 5.8793 21.443 6.3668 20.9523L13.6168 13.7023ZM17.2074 18.793C16.8168 18.4023 16.8168 17.768 17.2074 17.3773L20.7918 13.793C21.1824 13.4023 21.8168 13.4023 22.2074 13.793L22.7918 14.3773C23.1824 14.768 23.1824 15.4023 22.7918 15.793L19.2074 19.3805C18.8168 19.7711 18.1824 19.7711 17.7918 19.3805L17.2074 18.7961V18.793Z" fill="#235AF4"/>
</svg>
