<svg width="29" height="29" viewBox="0 0 29 29" fill="none" xmlns="http://www.w3.org/2000/svg">
<rect width="29" height="29" rx="2" fill="#DBEAFE"/>
<path d="M11.3465 20.381C12.3267 20.381 13.1287 21.1952 13.1287 22.1905C13.1287 23.1857 12.3267 24 11.3465 24C10.3663 24 9.56436 23.1857 9.56436 22.1905C9.56436 21.1952 10.3663 20.381 11.3465 20.381ZM20.2574 20.381C21.2376 20.381 22.0396 21.1952 22.0396 22.1905C22.0396 23.1857 21.2376 24 20.2574 24C19.2772 24 18.4752 23.1857 18.4752 22.1905C18.4752 21.1952 19.2772 20.381 20.2574 20.381ZM11.5248 17.4857C11.5248 17.5762 11.6139 17.6667 11.703 17.6667H22.0396V19.4762H11.3465C10.3663 19.4762 9.56436 18.6619 9.56436 17.6667C9.56436 17.3048 9.65347 17.0333 9.74257 16.7619L10.901 14.5905L7.78218 7.71429H6V5.90476H8.94059L12.7723 14.0476H19.0099L22.4851 7.71429L24 8.61905L20.5248 14.9524C20.2574 15.4952 19.6337 15.8571 19.0099 15.8571H12.3267L11.5248 17.3048V17.4857ZM13.4851 5C14.198 5 14.7327 5.54286 14.7327 6.26667C14.7327 6.99048 14.198 7.53333 13.4851 7.53333C12.7723 7.53333 12.2376 6.99048 12.2376 6.26667C12.2376 5.54286 12.8614 5 13.4851 5ZM18.1188 12.2381C17.4059 12.2381 16.8713 11.6952 16.8713 10.9714C16.8713 10.2476 17.4059 9.70476 18.1188 9.70476C18.8317 9.70476 19.3663 10.2476 19.3663 10.9714C19.3663 11.6952 18.7426 12.2381 18.1188 12.2381ZM13.3069 12.2381L12.2376 11.1524L18.297 5L19.3663 6.08571L13.3069 12.2381Z" fill="#235AF4"/>
</svg>
