<svg width="29" height="29" viewBox="0 0 29 29" fill="none" xmlns="http://www.w3.org/2000/svg">
<rect width="29" height="29" rx="2" fill="#DBEAFE"/>
<path d="M22.8109 11.0009V12.8558C22.8109 15.1679 22.399 17.1732 21.5866 18.8155C20.9455 20.1115 20.0521 21.19 18.9311 22.0208C17.9256 22.7661 16.9158 23.1737 16.2458 23.3843C15.6645 23.567 15.2299 23.6378 15.0716 23.6597C14.9133 23.6378 14.4787 23.567 13.8974 23.3843C13.2274 23.1737 12.2177 22.7661 11.2122 22.0208C10.0912 21.19 9.19769 20.1115 8.55659 18.8155C7.74428 17.1732 7.33232 15.1679 7.33232 12.8558V9.62359C8.43494 9.38496 9.51172 9.04922 10.5408 8.62275C11.4999 8.22519 12.4202 7.74822 13.2758 7.20516C14.0902 6.68822 14.6916 6.20939 15.0716 5.87924C15.4516 6.20939 16.053 6.68822 16.8675 7.20516C17.5761 7.65496 18.3291 8.05944 19.1117 8.4109L19.8954 7.30016C19.1007 6.95774 18.3373 6.55686 17.6227 6.10653C16.276 5.25757 15.5606 4.51733 15.5544 4.51081L15.0744 4L14.5897 4.50987C14.5827 4.51733 13.8672 5.25757 12.5205 6.10653C11.732 6.60347 10.884 7.04022 10.0002 7.40448C8.8974 7.85919 7.73468 8.20187 6.54438 8.42317L6 8.52443V12.8558C6 15.3944 6.46552 17.6127 7.38361 19.449C8.12891 20.9394 9.16932 22.179 10.4761 23.1333C12.6994 24.7571 14.9151 24.9851 15.0083 24.9939L15.0716 25L15.1349 24.9939C15.2282 24.9851 17.4438 24.7571 19.6672 23.1333C20.9739 22.1789 22.0143 20.9394 22.7595 19.449C23.6777 17.6127 24.1432 15.3944 24.1432 12.8558V9.1125L22.8109 11.0009Z" fill="#283A54"/>
<path d="M16.8675 7.20516C16.055 6.68942 15.4546 6.21165 15.0745 5.88164V4L15.5545 4.51081C15.5606 4.51735 16.2761 5.25758 17.6228 6.10653C18.3373 6.55686 19.1007 6.95774 19.8955 7.30016L19.1118 8.4109C18.3292 8.05944 17.5761 7.65496 16.8675 7.20516Z" fill="#152435"/>
<path d="M24.1433 9.1125V12.8558C24.1433 15.3944 23.6778 17.6127 22.7595 19.449C22.0144 20.9394 20.974 22.179 19.6672 23.1333C17.4439 24.7571 15.2282 24.9851 15.1349 24.9939L15.0745 24.9997V23.6593C15.235 23.637 15.6679 23.5659 16.2458 23.3843C16.9159 23.1737 17.9256 22.7661 18.9311 22.0208C20.0521 21.19 20.9456 20.1115 21.5867 18.8155C22.399 17.1732 22.811 15.1679 22.811 12.8558V11.0009L24.1433 9.1125Z" fill="#152435"/>
<path d="M14.5217 19.9231L10.6193 16.6947C10.2996 16.4302 10.2549 15.9567 10.5194 15.637L11.3934 14.5805C11.6578 14.2608 12.1314 14.2161 12.4511 14.4805L14.5876 16.2481L21.3822 6.6168C21.6214 6.27777 22.0902 6.19682 22.4292 6.43601L23.5496 7.22642C23.8886 7.4656 23.9696 7.93434 23.7304 8.27337L15.6145 19.7774C15.3622 20.135 14.8589 20.2021 14.5217 19.9231Z" fill="#235AF4"/>
</svg>
