<svg width="29" height="29" viewBox="0 0 29 29" fill="none" xmlns="http://www.w3.org/2000/svg">
<rect width="29" height="29" rx="2" fill="#DBEAFE"/>
<g clip-path="url(#clip0_243_213)">
<path d="M23.536 24H5.46401C5.20763 24 5 23.7921 5 23.536V5.46401C5 5.20786 5.20786 5 5.46401 5C5.72017 5 5.92803 5.20786 5.92803 5.46401V23.072H23.5358C23.7921 23.072 23.9998 23.2798 23.9998 23.536C23.9998 23.7921 23.7919 24 23.5358 24H23.536Z" fill="#5A7CA1"/>
<path d="M9.66429 12.1708H6.69763V22.4258H9.66429V12.1708Z" fill="#235AF4"/>
<path d="M13.9377 14.7257H10.9711V22.4256H13.9377V14.7257Z" fill="#235AF4"/>
<path d="M18.211 12.4399H15.2444V22.4256H18.211V12.4399Z" fill="#235AF4"/>
<path d="M22.4842 15.4346H19.5176V22.4256H22.4842V15.4346Z" fill="#235AF4"/>
<path d="M22.4371 14.4477L19.2152 13.9851L20.1846 13.0156L16.7277 9.55852L12.4544 13.8319L7.02759 8.40515L7.84801 7.58473L12.4544 12.1913L16.7277 7.91791L21.0051 12.1952L21.9745 11.2258L22.4371 14.4477Z" fill="#235AF4"/>
</g>
<defs>
<clipPath id="clip0_243_213">
<rect width="19" height="19" fill="white" transform="translate(5 5)"/>
</clipPath>
</defs>
</svg>
