<svg width="29" height="29" viewBox="0 0 29 29" fill="none" xmlns="http://www.w3.org/2000/svg">
<rect width="29" height="29" rx="2" fill="#DBEAFE"/>
<path d="M12 13.296V22C12 22.552 12 23 13 23H15C16 23 16 22.552 16 22V15.238C14.4633 15.1413 13.0264 14.4437 12 13.296Z" fill="#235AF4"/>
<path fill-rule="evenodd" clip-rule="evenodd" d="M12.3981 11.201C12.6573 11.7646 13.0333 12.2667 13.5013 12.674C13.9692 13.0813 14.5184 13.3845 15.1124 13.5634C15.7064 13.7424 16.3316 13.7931 16.9467 13.7122C17.5617 13.6313 18.1526 13.4206 18.6801 13.094L21.2931 15.707L22.7071 14.293L20.0941 11.68C20.4923 11.0369 20.717 10.3016 20.7462 9.54583C20.7755 8.79003 20.6083 8.03955 20.261 7.36764C19.9137 6.69573 19.3981 6.12534 18.7646 5.71214C18.131 5.29894 17.4012 5.05704 16.6463 5.01005C15.8914 4.96307 15.1372 5.1126 14.4573 5.44405C13.7774 5.77551 13.1951 6.27756 12.7671 6.90122C12.3392 7.52488 12.0802 8.24884 12.0155 9.00243C11.9509 9.75603 12.0826 10.5135 12.3981 11.201ZM16.3751 11.75C16.2331 11.75 16.0941 11.738 15.9581 11.714C15.4541 11.6242 14.9928 11.3738 14.6431 11C14.2693 10.6016 14.0443 10.0866 14.006 9.54177C13.9676 8.9969 14.1182 8.45546 14.4325 8.00868C14.7467 7.5619 15.2054 7.23709 15.7311 7.08898C16.2569 6.94086 16.8176 6.97851 17.3189 7.19556C17.8201 7.41261 18.2312 7.7958 18.4829 8.28058C18.7346 8.76535 18.8115 9.32206 18.7007 9.85692C18.5899 10.3918 18.298 10.8721 17.8744 11.2169C17.4508 11.5617 16.9213 11.75 16.3751 11.75Z" fill="#235AF4"/>
<path d="M6 6C6 5.448 6 5 7 5H9C10 5 10 5.448 10 6V22C10 22.552 10 23 9 23H7C6 23 6 22.552 6 22V6ZM19 17C18 17 18 17.448 18 18V22C18 22.552 18 23 19 23H21C21.552 23 22 23 22 22V18C22 17.448 22 17 21 17H19Z" fill="#235AF4"/>
</svg>
