<svg width="29" height="29" viewBox="0 0 29 29" fill="none" xmlns="http://www.w3.org/2000/svg">
<rect width="29" height="29" rx="2" fill="#DBEAFE"/>
<path d="M12.3 25L11.9 21.8C11.6833 21.7167 11.4793 21.6167 11.288 21.5C11.0967 21.3833 10.909 21.2583 10.725 21.125L7.75 22.375L5 17.625L7.575 15.675C7.55833 15.5583 7.55 15.446 7.55 15.338V14.663C7.55 14.5543 7.55833 14.4417 7.575 14.325L5 12.375L7.75 7.625L10.725 8.875C10.9083 8.74167 11.1 8.61667 11.3 8.5C11.5 8.38333 11.7 8.28333 11.9 8.2L12.3 5H17.8L18.2 8.2C18.4167 8.28333 18.621 8.38333 18.813 8.5C19.005 8.61667 19.1923 8.74167 19.375 8.875L22.35 7.625L25.1 12.375L22.525 14.325C22.5417 14.4417 22.55 14.5543 22.55 14.663V15.337C22.55 15.4457 22.5333 15.5583 22.5 15.675L25.075 17.625L22.325 22.375L19.375 21.125C19.1917 21.2583 19 21.3833 18.8 21.5C18.6 21.6167 18.4 21.7167 18.2 21.8L17.8 25H12.3ZM15.1 18.5C16.0667 18.5 16.8917 18.1583 17.575 17.475C18.2583 16.7917 18.6 15.9667 18.6 15C18.6 14.0333 18.2583 13.2083 17.575 12.525C16.8917 11.8417 16.0667 11.5 15.1 11.5C14.1167 11.5 13.2873 11.8417 12.612 12.525C11.9367 13.2083 11.5993 14.0333 11.6 15C11.6007 15.9667 11.9383 16.7917 12.613 17.475C13.2877 18.1583 14.1167 18.5 15.1 18.5Z" fill="#235AF4"/>
</svg>
