<svg width="30" height="27" viewBox="0 0 30 27" fill="none" xmlns="http://www.w3.org/2000/svg">
<path fill-rule="evenodd" clip-rule="evenodd" d="M29.0909 26.0507H24.187V24.0307C24.187 22.9167 25.0549 22.0108 26.1214 22.0108H27.1564C28.223 22.0108 29.0909 22.9167 29.0909 24.0307V26.0507ZM26.6388 18.3062C27.3531 18.3062 27.9346 18.913 27.9346 19.6585C27.9346 20.4044 27.3531 21.0112 26.6388 21.0112C25.9247 21.0112 25.3437 20.4044 25.3437 19.6585C25.3437 18.9129 25.9247 18.3062 26.6388 18.3062ZM28.2082 21.273C28.6004 20.8574 28.8437 20.2872 28.8437 19.6585C28.8437 18.3893 27.8545 17.3568 26.6388 17.3568C25.4233 17.3568 24.4342 18.3893 24.4342 19.6585C24.4342 20.2871 24.6767 20.8573 25.0697 21.273C24.0211 21.7109 23.2779 22.7815 23.2779 24.0307V26.1863C23.2779 26.6347 23.6277 27 24.0576 27H29.2207C29.6502 27 30 26.6347 30 26.1863V24.0307C29.9999 22.7815 29.2569 21.7108 28.2082 21.273ZM10.7557 0.949338H16.2744V7.30866H15.0015C14.8041 6.59553 14.1732 6.07284 13.4277 6.07284C12.6823 6.07284 12.0519 6.59553 11.8544 7.30866H10.7556V0.949338H10.7557ZM19.3418 3.42504C19.4645 3.61482 20.5352 4.97059 20.5459 5.00261L20.5471 7.30866H20.4845C20.2871 6.59553 19.6567 6.07284 18.9116 6.07284C18.1657 6.07284 17.5349 6.59553 17.3375 7.30866H17.1835V3.42504H19.3418ZM18.9116 8.54455C19.3131 8.54455 19.6404 8.20324 19.6404 7.78355C19.6404 7.36349 19.3131 7.02218 18.9116 7.02218C18.5089 7.02218 18.1825 7.36349 18.1825 7.78355C18.1824 8.20316 18.5089 8.54455 18.9116 8.54455ZM13.4278 8.54455C13.8301 8.54455 14.1566 8.20324 14.1566 7.78355C14.1566 7.36349 13.8301 7.02218 13.4278 7.02218C13.0259 7.02218 12.6987 7.36349 12.6987 7.78355C12.6987 8.20316 13.0259 8.54455 13.4278 8.54455ZM10.6399 8.258H11.8545C12.0519 8.97105 12.6823 9.49382 13.4278 9.49382C14.1733 9.49382 14.8041 8.97105 15.0016 8.258H17.3375C17.5349 8.97105 18.1657 9.49382 18.9116 9.49382C19.6567 9.49382 20.2871 8.97105 20.4845 8.258H21.0022C21.1228 8.25784 21.2384 8.20777 21.3236 8.11876C21.4089 8.02975 21.4568 7.90907 21.457 7.78318L21.4551 4.83586C21.4544 4.72834 21.4192 4.62415 21.3552 4.53996L20.071 2.8528C20.0189 2.75943 19.8603 2.47534 19.5121 2.47534H17.1836V0.828372C17.1836 0.371377 16.8272 0 16.3903 0H10.6399C10.2031 0 9.84665 0.371377 9.84665 0.828372V7.42963C9.84658 7.88619 10.203 8.258 10.6399 8.258ZM6.03561 25.1249V23.0266C6.03561 22.6776 5.77486 22.3939 5.45493 22.3939H3.83344C3.51317 22.3939 3.25234 22.6776 3.25234 23.0266V25.1249H1.33971V20.9917H7.94831V25.1249H6.03561ZM5.12654 25.1249V23.3432H4.16149V25.1249H5.12654ZM0.909074 20.0274L4.67724 18.1568L8.3793 20.025V20.0424H0.909074V20.0274ZM8.82631 19.1962L4.87667 17.203C4.81549 17.1722 4.74847 17.1561 4.68053 17.1559C4.61259 17.1557 4.54548 17.1714 4.48412 17.2018L0.466434 19.1958C0.178832 19.3387 0 19.6346 0 19.9673V20.3147C0 20.6082 0.179942 20.8581 0.43064 20.9519V25.5994C0.430658 25.7253 0.478569 25.8461 0.563837 25.9351C0.649106 26.0242 0.764753 26.0742 0.88535 26.0743H8.40302C8.46273 26.0743 8.52185 26.062 8.57701 26.0381C8.63216 26.0143 8.68227 25.9793 8.72447 25.9352C8.76667 25.8911 8.80013 25.8387 8.82294 25.7811C8.84574 25.7235 8.85745 25.6617 8.85739 25.5994V20.9519C9.10843 20.8581 9.28844 20.6086 9.28844 20.3147V19.9657C9.28844 19.6349 9.11121 19.3402 8.82631 19.1962ZM24.3417 16.5033C24.3417 14.1169 23.4695 11.8551 21.8865 10.1339C21.8031 10.0429 21.7577 9.92121 21.7602 9.79537C21.7627 9.66953 21.8128 9.54985 21.8997 9.4626C21.9428 9.41944 21.9935 9.38557 22.0491 9.36291C22.1047 9.34024 22.164 9.32924 22.2237 9.33051C22.2833 9.33179 22.3422 9.34533 22.3968 9.37035C22.4515 9.39538 22.5009 9.4314 22.5422 9.47636C24.2889 11.375 25.2508 13.8706 25.2508 16.5033C25.2508 16.5657 25.239 16.6274 25.2161 16.6849C25.1933 16.7425 25.1598 16.7948 25.1175 16.8389C25.0753 16.883 25.0252 16.9179 24.97 16.9417C24.9149 16.9655 24.8557 16.9778 24.796 16.9778C24.6755 16.9778 24.56 16.9278 24.4748 16.8388C24.3896 16.7498 24.3417 16.6292 24.3417 16.5033ZM9.16719 9.46253C9.21028 9.50569 9.2448 9.55729 9.26879 9.61439C9.29277 9.67149 9.30575 9.73297 9.30697 9.7953C9.3082 9.85764 9.29765 9.91962 9.27592 9.9777C9.2542 10.0358 9.22173 10.0888 9.18037 10.1338C7.59731 11.855 6.72548 14.1169 6.72548 16.5032C6.72548 16.5656 6.71372 16.6273 6.69086 16.6849C6.66801 16.7425 6.63451 16.7948 6.59228 16.8389C6.55005 16.8829 6.49992 16.9179 6.44476 16.9417C6.38959 16.9655 6.33047 16.9777 6.27077 16.9777C6.2111 16.9777 6.152 16.9655 6.09686 16.9416C6.04173 16.9178 5.99163 16.8829 5.94943 16.8388C5.90723 16.7947 5.87376 16.7424 5.85094 16.6848C5.82812 16.6273 5.81638 16.5656 5.81641 16.5032C5.81641 13.8704 6.778 11.3749 8.5247 9.47629C8.60816 9.38552 8.72273 9.33308 8.84321 9.3305C8.96369 9.32792 9.08023 9.37541 9.16719 9.46253ZM20.3228 24.7974C20.4421 25.0279 20.3594 25.3157 20.1386 25.4403C17.2806 27.0513 13.7864 27.0526 10.9282 25.4403C10.8224 25.3803 10.7435 25.279 10.709 25.1585C10.6745 25.0381 10.6871 24.9082 10.744 24.7974C10.7723 24.7425 10.8106 24.6939 10.8569 24.6545C10.9031 24.6151 10.9564 24.5856 11.0135 24.5677C11.0707 24.5498 11.1307 24.5438 11.1901 24.5502C11.2495 24.5565 11.3071 24.575 11.3596 24.6046C13.9535 26.0652 17.1131 26.0654 19.7072 24.6046C19.7597 24.575 19.8173 24.5565 19.8767 24.5502C19.9361 24.5439 19.9961 24.5498 20.0533 24.5677C20.1104 24.5856 20.1637 24.6151 20.2099 24.6545C20.2562 24.694 20.2945 24.7425 20.3228 24.7974ZM20.6815 16.9461L19.8137 17.2408C19.7409 17.2655 19.6754 17.309 19.623 17.3672C19.5707 17.4255 19.5333 17.4966 19.5144 17.574C19.4184 17.9642 19.2699 18.3382 19.0733 18.6848C19.0341 18.7535 19.0123 18.8315 19.0099 18.9114C19.0074 18.9913 19.0244 19.0706 19.0593 19.1418L19.474 19.9908L18.8738 20.6174L18.0604 20.1848C17.9921 20.1484 17.9162 20.1306 17.8396 20.1331C17.763 20.1356 17.6883 20.1583 17.6223 20.199C17.2905 20.4046 16.9323 20.5597 16.5585 20.6596C16.4844 20.6796 16.4164 20.7188 16.3607 20.7735C16.305 20.8283 16.2634 20.8969 16.2399 20.9729L15.9573 21.8788H15.1096L14.8278 20.9729C14.8041 20.8969 14.7623 20.8284 14.7065 20.7737C14.6506 20.719 14.5825 20.6799 14.5083 20.66C14.1347 20.5595 13.7765 20.4042 13.4445 20.199C13.3786 20.1582 13.3038 20.1356 13.2272 20.1331C13.1506 20.1306 13.0747 20.1484 13.0065 20.1848L12.1934 20.6174L11.5936 19.9908L12.0075 19.1418C12.0424 19.0706 12.0595 18.9914 12.0572 18.9115C12.0549 18.8316 12.0333 18.7536 11.9944 18.6848C11.7976 18.3382 11.6491 17.9642 11.5533 17.574C11.5342 17.4965 11.4967 17.4254 11.4442 17.3671C11.3918 17.3088 11.326 17.2654 11.2532 17.2408L10.3861 16.9461V16.0605L11.2532 15.7659C11.326 15.7412 11.3917 15.6977 11.4441 15.6394C11.4966 15.5812 11.5341 15.5101 11.5533 15.4327C11.6491 15.0424 11.7976 14.6684 11.9944 14.3219C12.0333 14.253 12.0549 14.175 12.0572 14.0951C12.0596 14.0152 12.0425 13.936 12.0075 13.8649L11.5936 13.0154L12.1934 12.3891L13.0065 12.8218C13.1452 12.8952 13.31 12.89 13.4445 12.8072C13.7764 12.6018 14.1346 12.4467 14.5083 12.3465C14.5825 12.3267 14.6506 12.2876 14.7065 12.2329C14.7623 12.1782 14.8041 12.1096 14.8278 12.0336L15.1096 11.1277H15.9573L16.2399 12.0336C16.2634 12.1096 16.3049 12.1782 16.3606 12.2329C16.4164 12.2876 16.4844 12.3267 16.5585 12.3465C16.9323 12.4466 17.2905 12.6017 17.6223 12.8072C17.6882 12.8479 17.763 12.8706 17.8395 12.8732C17.9161 12.8758 17.9921 12.8581 18.0604 12.8218L18.8738 12.3891L19.474 13.0154L19.0593 13.8649C18.9885 14.0097 18.9936 14.1818 19.0733 14.3219C19.2694 14.6687 19.4179 15.0426 19.5144 15.4327C19.5333 15.5101 19.5706 15.5812 19.623 15.6395C19.6753 15.6977 19.7409 15.7412 19.8137 15.7659L20.6815 16.0605V16.9461ZM21.2762 15.2642L20.3255 14.9412C20.2349 14.6408 20.119 14.3493 19.9792 14.0702L20.4336 13.1392C20.4771 13.0499 20.4924 12.9485 20.4774 12.8495C20.4624 12.7505 20.4178 12.659 20.35 12.588L19.2831 11.474C19.2151 11.4031 19.1274 11.3565 19.0326 11.3409C18.9377 11.3252 18.8405 11.3412 18.7549 11.3867L17.8637 11.8612C17.5968 11.7145 17.3176 11.5936 17.0296 11.4999L16.7206 10.5064C16.6907 10.411 16.6328 10.328 16.555 10.2691C16.4773 10.2102 16.3836 10.1785 16.2876 10.1785H14.7792C14.6831 10.1784 14.5896 10.2101 14.5119 10.269C14.4341 10.328 14.3763 10.411 14.3466 10.5064L14.038 11.4996C13.7498 11.5933 13.4705 11.7144 13.2035 11.8612L12.3119 11.3867C12.2263 11.3412 12.1292 11.3252 12.0344 11.3408C11.9396 11.3565 11.8519 11.4031 11.784 11.474L10.7175 12.588C10.6495 12.6589 10.6048 12.7503 10.5897 12.8494C10.5746 12.9484 10.59 13.0499 10.6336 13.1392L11.0875 14.0702C10.9474 14.349 10.8319 14.6405 10.7424 14.9412L9.79053 15.2642C9.6993 15.2952 9.61981 15.3556 9.56347 15.4367C9.50713 15.5178 9.47683 15.6154 9.47692 15.7156V17.2911C9.47689 17.3913 9.50721 17.4889 9.56355 17.57C9.61988 17.651 9.69933 17.7114 9.79053 17.7425L10.7416 18.0655C10.8319 18.366 10.9477 18.6575 11.0876 18.9365L10.6336 19.8675C10.5901 19.9569 10.5747 20.0583 10.5898 20.1573C10.6049 20.2564 10.6496 20.3478 10.7176 20.4187L11.7841 21.5327C11.852 21.6036 11.9396 21.6502 12.0345 21.6658C12.1293 21.6815 12.2264 21.6655 12.3119 21.62L13.2035 21.1456C13.4706 21.2922 13.7499 21.4131 14.038 21.5068L14.3467 22.5003C14.3764 22.5956 14.4343 22.6786 14.512 22.7375C14.5897 22.7964 14.6832 22.8282 14.7792 22.8282H16.2877C16.3837 22.8281 16.4773 22.7964 16.555 22.7375C16.6328 22.6786 16.6907 22.5956 16.7207 22.5003L17.0297 21.5068C17.3175 21.4128 17.5967 21.2919 17.8638 21.1456L18.755 21.62C18.8406 21.6655 18.9378 21.6815 19.0326 21.6659C19.1275 21.6502 19.2152 21.6036 19.2832 21.5327L20.3501 20.4187C20.4178 20.3477 20.4624 20.2562 20.4774 20.1572C20.4924 20.0583 20.4771 19.9569 20.4337 19.8675L19.9793 18.9365C20.1199 18.6576 20.2358 18.366 20.3256 18.0651L21.2763 17.7425C21.3676 17.7116 21.4473 17.6512 21.5037 17.5701C21.5602 17.4891 21.5907 17.3914 21.5907 17.2911V15.7156C21.5907 15.6153 21.5602 15.5176 21.5037 15.4365C21.4472 15.3554 21.3676 15.2951 21.2762 15.2642ZM15.5336 18.9921C16.8477 18.9921 17.917 17.8755 17.917 16.5033C17.917 15.1307 16.8477 14.0146 15.5336 14.0146C14.2192 14.0146 13.1503 15.1307 13.1503 16.5033C13.1503 17.8755 14.2192 18.9921 15.5336 18.9921ZM15.5336 13.0653C13.7181 13.0653 12.2412 14.6075 12.2412 16.5033C12.2412 18.3991 13.7181 19.9413 15.5336 19.9413C17.3487 19.9413 18.8261 18.3991 18.8261 16.5033C18.8261 14.6076 17.3487 13.0653 15.5336 13.0653Z" fill="#A3A4A5"/>
</svg>
