<svg width="1440" height="714" viewBox="0 0 1440 714" fill="none" xmlns="http://www.w3.org/2000/svg">
<g clip-path="url(#clip0_1_157)">
<rect x="-3" width="1445" height="714" rx="32" fill="white"/>
<g filter="url(#filter0_f_1_157)">
<ellipse cx="720" cy="168" rx="289" ry="641" transform="rotate(90 720 168)" fill="#1357E5"/>
</g>
<ellipse opacity="0.6" cx="720.757" cy="59.3451" rx="516.927" ry="822.37" transform="rotate(87.8016 720.757 59.3451)" fill="url(#paint0_linear_1_157)"/>
<line x1="761.436" y1="-863" x2="761.436" y2="1258" stroke="#1357E5" stroke-opacity="0.24"/>
<line x1="847.582" y1="28.7164" x2="-424.411" y2="28.7164" stroke="#1357E5" stroke-opacity="0.24"/>
<line x1="847.582" y1="113.268" x2="-424.411" y2="113.268" stroke="#1357E5" stroke-opacity="0.24"/>
<line x1="847.582" y1="200.607" x2="-424.411" y2="200.607" stroke="#1357E5" stroke-opacity="0.24"/>
<line x1="847.582" y1="286.089" x2="-424.411" y2="286.089" stroke="#1357E5" stroke-opacity="0.24"/>
<line x1="847.582" y1="372.498" x2="-424.411" y2="372.498" stroke="#1357E5" stroke-opacity="0.24"/>
<line x1="907.979" y1="458.449" x2="-424.409" y2="458.449" stroke="#1357E5" stroke-opacity="0.24"/>
<line x1="907.979" y1="545.147" x2="-424.409" y2="545.147" stroke="#1357E5" stroke-opacity="0.24"/>
<line x1="677.516" y1="-863" x2="677.516" y2="1258" stroke="#1357E5" stroke-opacity="0.24"/>
<line x1="593.59" y1="-863" x2="593.59" y2="1258" stroke="#1357E5" stroke-opacity="0.24"/>
<line x1="509.66" y1="-863" x2="509.66" y2="1258" stroke="#1357E5" stroke-opacity="0.24"/>
<line x1="425.742" y1="-863" x2="425.742" y2="1258" stroke="#1357E5" stroke-opacity="0.24"/>
<line x1="341.816" y1="-863" x2="341.816" y2="1258" stroke="#1357E5" stroke-opacity="0.24"/>
<line x1="257.891" y1="-863" x2="257.891" y2="1258" stroke="#1357E5" stroke-opacity="0.24"/>
<line x1="173.965" y1="-863" x2="173.965" y2="1258" stroke="#1357E5" stroke-opacity="0.24"/>
<line x1="89.3477" y1="-863" x2="89.3477" y2="1258" stroke="#1357E5" stroke-opacity="0.24"/>
<line x1="5.42383" y1="-863" x2="5.42383" y2="1258" stroke="#1357E5" stroke-opacity="0.24"/>
<path d="M257.391 604.638V689.949H174.16V604.638H257.391Z" fill="url(#paint1_radial_1_157)" fill-opacity="0.1"/>
<path d="M509.164 604.638V689.949H425.933V604.638H509.164Z" fill="url(#paint2_radial_1_157)" fill-opacity="0.1"/>
<path d="M1098.99 518.632V603.944H1015.76V518.632H1098.99Z" fill="url(#paint3_radial_1_157)" fill-opacity="0.1"/>
<path d="M1015.37 605.042V690.354H932.134V605.042H1015.37Z" fill="url(#paint4_radial_1_157)" fill-opacity="0.1"/>
<path d="M4.92383 518.633V603.944H-78.307V518.633H4.92383Z" fill="url(#paint5_radial_1_157)" fill-opacity="0.1"/>
<path d="M4.92383 604.638V689.949H-78.307V604.638H4.92383Z" fill="url(#paint6_radial_1_157)" fill-opacity="0.1"/>
<rect x="173.465" y="689.949" width="86.6988" height="84.618" transform="rotate(90 173.465 689.949)" fill="url(#paint7_radial_1_157)" fill-opacity="0.1"/>
<line x1="-184" y1="713.5" x2="1505" y2="713.5" stroke="#1357E5" stroke-opacity="0.24"/>
<line y1="-0.5" x2="2121" y2="-0.5" transform="matrix(0 1 1 0 847.851 -863)" stroke="#1357E5" stroke-opacity="0.24"/>
<line y1="-0.5" x2="1185.58" y2="-0.5" transform="matrix(1 -4.91239e-08 -3.88952e-08 -1 847.604 28.243)" stroke="#1357E5" stroke-opacity="0.24"/>
<line y1="-0.5" x2="1185.58" y2="-0.5" transform="matrix(1 -4.91239e-08 -3.88952e-08 -1 847.604 112.795)" stroke="#1357E5" stroke-opacity="0.24"/>
<line y1="-0.5" x2="1185.58" y2="-0.5" transform="matrix(1 -4.91239e-08 -3.88952e-08 -1 847.604 200.134)" stroke="#1357E5" stroke-opacity="0.24"/>
<line y1="-0.5" x2="1185.58" y2="-0.5" transform="matrix(1 -4.91239e-08 -3.88952e-08 -1 847.604 285.615)" stroke="#1357E5" stroke-opacity="0.24"/>
<line y1="-0.5" x2="1185.58" y2="-0.5" transform="matrix(1 -4.91239e-08 -3.88952e-08 -1 847.604 372.025)" stroke="#1357E5" stroke-opacity="0.24"/>
<line y1="-0.5" x2="1185.58" y2="-0.5" transform="matrix(1 -4.91239e-08 -3.88952e-08 -1 847.604 457.506)" stroke="#1357E5" stroke-opacity="0.24"/>
<line y1="-0.5" x2="1185.58" y2="-0.5" transform="matrix(1 -4.91239e-08 -3.88952e-08 -1 847.604 544.845)" stroke="#1357E5" stroke-opacity="0.24"/>
<line x1="-16.001" y1="631.5" x2="1505" y2="631.5" stroke="#1357E5" stroke-opacity="0.24"/>
<line y1="-0.5" x2="2121" y2="-0.5" transform="matrix(0 1 1 0 931.772 -863)" stroke="#1357E5" stroke-opacity="0.24"/>
<line y1="-0.5" x2="2121" y2="-0.5" transform="matrix(0 1 1 0 1015.69 -863)" stroke="#1357E5" stroke-opacity="0.24"/>
<line y1="-0.5" x2="2121" y2="-0.5" transform="matrix(0 1 1 0 1099.62 -863)" stroke="#1357E5" stroke-opacity="0.24"/>
<line y1="-0.5" x2="2121" y2="-0.5" transform="matrix(0 1 1 0 1183.54 -863)" stroke="#1357E5" stroke-opacity="0.24"/>
<line y1="-0.5" x2="2121" y2="-0.5" transform="matrix(0 1 1 0 1267.47 -863)" stroke="#1357E5" stroke-opacity="0.24"/>
<line y1="-0.5" x2="2121" y2="-0.5" transform="matrix(0 1 1 0 1351.4 -863)" stroke="#1357E5" stroke-opacity="0.24"/>
<line y1="-0.5" x2="2121" y2="-0.5" transform="matrix(0 1 1 0 1435.32 -863)" stroke="#1357E5" stroke-opacity="0.24"/>
<path d="M1351.4 604.638V689.949H1434.63V604.638H1351.4Z" fill="url(#paint8_radial_1_157)" fill-opacity="0.1"/>
<path d="M1268.16 432.627V517.939H1351.39V432.627H1268.16Z" fill="url(#paint9_radial_1_157)" fill-opacity="0.1"/>
<path d="M1099.62 604.638V689.949H1182.85V604.638H1099.62Z" fill="url(#paint10_radial_1_157)" fill-opacity="0.1"/>
<rect width="86.6988" height="84.618" transform="matrix(0 1 1 0 1435.32 689.949)" fill="url(#paint11_radial_1_157)" fill-opacity="0.1"/>
<rect x="1435" y="-11" width="626" height="1445" transform="rotate(90 1435 -11)" fill="url(#paint12_linear_1_157)"/>
</g>
<defs>
<filter id="filter0_f_1_157" x="-371" y="-571" width="2182" height="1478" filterUnits="userSpaceOnUse" color-interpolation-filters="sRGB">
<feFlood flood-opacity="0" result="BackgroundImageFix"/>
<feBlend mode="normal" in="SourceGraphic" in2="BackgroundImageFix" result="shape"/>
<feGaussianBlur stdDeviation="225" result="effect1_foregroundBlur_1_157"/>
</filter>
<linearGradient id="paint0_linear_1_157" x1="1085.76" y1="-763.025" x2="304.749" y2="-552.868" gradientUnits="userSpaceOnUse">
<stop offset="0.0240385" stop-color="white"/>
<stop offset="1" stop-color="#E3EBFF"/>
</linearGradient>
<radialGradient id="paint1_radial_1_157" cx="0" cy="0" r="1" gradientUnits="userSpaceOnUse" gradientTransform="translate(215.775 647.294) rotate(180) scale(41.6154 42.6558)">
<stop stop-color="#1357E5"/>
<stop offset="1" stop-color="#1357E5" stop-opacity="0.8"/>
</radialGradient>
<radialGradient id="paint2_radial_1_157" cx="0" cy="0" r="1" gradientUnits="userSpaceOnUse" gradientTransform="translate(467.549 647.294) rotate(180) scale(41.6154 42.6558)">
<stop stop-color="#1357E5"/>
<stop offset="1" stop-color="#1357E5" stop-opacity="0.8"/>
</radialGradient>
<radialGradient id="paint3_radial_1_157" cx="0" cy="0" r="1" gradientUnits="userSpaceOnUse" gradientTransform="translate(1057.37 561.288) rotate(180) scale(41.6154 42.6558)">
<stop stop-color="#1357E5"/>
<stop offset="1" stop-color="#1357E5" stop-opacity="0.8"/>
</radialGradient>
<radialGradient id="paint4_radial_1_157" cx="0" cy="0" r="1" gradientUnits="userSpaceOnUse" gradientTransform="translate(973.75 647.698) rotate(180) scale(41.6154 42.6558)">
<stop stop-color="#1357E5"/>
<stop offset="1" stop-color="#1357E5" stop-opacity="0.8"/>
</radialGradient>
<radialGradient id="paint5_radial_1_157" cx="0" cy="0" r="1" gradientUnits="userSpaceOnUse" gradientTransform="translate(-36.6916 561.288) rotate(180) scale(41.6154 42.6558)">
<stop stop-color="#1357E5"/>
<stop offset="1" stop-color="#1357E5" stop-opacity="0.8"/>
</radialGradient>
<radialGradient id="paint6_radial_1_157" cx="0" cy="0" r="1" gradientUnits="userSpaceOnUse" gradientTransform="translate(-36.6916 647.294) rotate(180) scale(41.6154 42.6558)">
<stop stop-color="#1357E5"/>
<stop offset="1" stop-color="#1357E5" stop-opacity="0.8"/>
</radialGradient>
<radialGradient id="paint7_radial_1_157" cx="0" cy="0" r="1" gradientUnits="userSpaceOnUse" gradientTransform="translate(216.814 732.258) rotate(90) scale(42.309 43.3494)">
<stop stop-color="#1357E5"/>
<stop offset="1" stop-color="#1357E5" stop-opacity="0.8"/>
</radialGradient>
<radialGradient id="paint8_radial_1_157" cx="0" cy="0" r="1" gradientUnits="userSpaceOnUse" gradientTransform="translate(1393.01 647.294) scale(41.6154 42.6558)">
<stop stop-color="#1357E5"/>
<stop offset="1" stop-color="#1357E5" stop-opacity="0.8"/>
</radialGradient>
<radialGradient id="paint9_radial_1_157" cx="0" cy="0" r="1" gradientUnits="userSpaceOnUse" gradientTransform="translate(1309.78 475.283) scale(41.6154 42.6558)">
<stop stop-color="#1357E5"/>
<stop offset="1" stop-color="#1357E5" stop-opacity="0.8"/>
</radialGradient>
<radialGradient id="paint10_radial_1_157" cx="0" cy="0" r="1" gradientUnits="userSpaceOnUse" gradientTransform="translate(1141.24 647.294) scale(41.6154 42.6558)">
<stop stop-color="#1357E5"/>
<stop offset="1" stop-color="#1357E5" stop-opacity="0.8"/>
</radialGradient>
<radialGradient id="paint11_radial_1_157" cx="0" cy="0" r="1" gradientUnits="userSpaceOnUse" gradientTransform="translate(43.3494 42.309) rotate(90) scale(42.309 43.3494)">
<stop stop-color="#1357E5"/>
<stop offset="1" stop-color="#1357E5" stop-opacity="0.8"/>
</radialGradient>
<linearGradient id="paint12_linear_1_157" x1="2061" y1="770.37" x2="1434.94" y2="768.404" gradientUnits="userSpaceOnUse">
<stop stop-color="white" stop-opacity="0"/>
<stop offset="1" stop-color="white"/>
</linearGradient>
<clipPath id="clip0_1_157">
<rect x="-3" width="1445" height="714" rx="32" fill="white"/>
</clipPath>
</defs>
</svg>
