<svg width="116" height="128" viewBox="0 0 116 128" fill="none" xmlns="http://www.w3.org/2000/svg">
<path d="M12.0226 4.59285C15.0605 7.63078 16.5928 11.6068 16.6141 15.5907C12.6302 15.5681 8.65422 14.0371 5.61629 10.9992C2.57703 7.95991 1.04476 3.98395 1.02344 0C5.00605 0.0213188 8.98202 1.55359 12.0226 4.59285Z" fill="url(#paint0_linear_2665_1981)"/>
<path d="M12.0226 4.59285C15.0605 7.63078 16.5928 11.6068 16.6141 15.5907C12.6302 15.5681 8.65422 14.0371 5.61629 10.9992C2.57703 7.95991 1.04476 3.98395 1.02344 0C5.00605 0.0213188 8.98202 1.55359 12.0226 4.59285Z" fill="url(#paint1_linear_2665_1981)"/>
<path d="M21.2087 4.59285C18.1708 7.63078 16.6385 11.6068 16.6172 15.5907C20.6011 15.5681 24.5771 14.0371 27.615 10.9992C30.6543 7.95991 32.1866 3.98395 32.2079 0C28.2253 0.0213188 24.2493 1.55359 21.2087 4.59285Z" fill="url(#paint2_linear_2665_1981)"/>
<path d="M11.5841 21.0767C15.0617 23.6003 17.1976 27.2871 17.8438 31.2178C13.9065 31.8214 9.74 30.9326 6.26237 28.4077C2.78341 25.8827 0.647558 22.1959 0 18.2653C3.93865 17.663 8.10514 18.5517 11.5841 21.0767Z" fill="url(#paint3_linear_2665_1981)"/>
<path d="M11.5841 21.0767C15.0617 23.6003 17.1976 27.2871 17.8438 31.2178C13.9065 31.8214 9.74 30.9326 6.26237 28.4077C2.78341 25.8827 0.647558 22.1959 0 18.2653C3.93865 17.663 8.10514 18.5517 11.5841 21.0767Z" fill="url(#paint4_linear_2665_1981)"/>
<path d="M20.6633 19.6354C18.1396 23.113 17.2509 27.2796 17.8532 31.2169C21.7838 30.5706 25.4706 28.4334 27.9942 24.9558C30.5192 21.4768 31.4079 17.3104 30.8043 13.373C26.875 14.0193 23.1882 16.1565 20.6633 19.6354Z" fill="url(#paint5_linear_2665_1981)"/>
<path d="M13.7341 37.4237C17.5648 39.3704 20.2524 42.6762 21.5075 46.4576C17.7128 47.6714 13.4583 47.4462 9.62759 45.4995C5.79554 43.5515 3.10804 40.2458 1.85156 36.4657C5.64764 35.2505 9.90207 35.4757 13.7341 37.4237Z" fill="url(#paint6_linear_2665_1981)"/>
<path d="M13.7341 37.4237C17.5648 39.3704 20.2524 42.6762 21.5075 46.4576C17.7128 47.6714 13.4583 47.4462 9.62759 45.4995C5.79554 43.5515 3.10804 40.2458 1.85156 36.4657C5.64764 35.2505 9.90207 35.4757 13.7341 37.4237Z" fill="url(#paint7_linear_2665_1981)"/>
<path d="M22.4794 34.5755C20.5327 38.4062 20.3075 42.6606 21.5214 46.4554C25.3015 45.2002 28.6072 42.5114 30.5552 38.682C32.5032 34.8499 32.7271 30.5955 31.5146 26.8008C27.7331 28.0546 24.4274 30.7434 22.4794 34.5755Z" fill="url(#paint8_linear_2665_1981)"/>
<path d="M18.4386 53.2266C22.5278 54.5484 25.7003 57.3918 27.5337 60.9281C23.9775 62.7215 19.7404 63.1679 15.6511 61.8461C11.5606 60.523 8.38677 57.6809 6.55469 54.1434C10.1109 52.3499 14.348 51.9035 18.4386 53.2266Z" fill="url(#paint9_linear_2665_1981)"/>
<path d="M18.4386 53.2266C22.5278 54.5484 25.7003 57.3918 27.5337 60.9281C23.9775 62.7215 19.7404 63.1679 15.6511 61.8461C11.5606 60.523 8.38677 57.6809 6.55469 54.1434C10.1109 52.3499 14.348 51.9035 18.4386 53.2266Z" fill="url(#paint10_linear_2665_1981)"/>
<path d="M26.6088 49.0457C25.287 53.1349 25.732 57.372 27.5268 60.9283C31.0644 59.0949 33.9065 55.9223 35.2296 51.8331C36.5527 47.7426 36.1063 43.5055 34.3129 39.9492C30.774 41.7826 27.9319 44.9552 26.6088 49.0457Z" fill="url(#paint11_linear_2665_1981)"/>
<path d="M25.5465 68.0973C29.7916 68.7622 33.3719 71.0712 35.7369 74.2771C32.5058 76.6061 28.3913 77.7121 24.1448 77.0472C19.8971 76.3823 16.3182 74.0719 13.9531 70.8674C17.1843 68.5383 21.2988 67.4324 25.5465 68.0973Z" fill="url(#paint12_linear_2665_1981)"/>
<path d="M25.5465 68.0973C29.7916 68.7622 33.3719 71.0712 35.7369 74.2771C32.5058 76.6061 28.3913 77.7121 24.1448 77.0472C19.8971 76.3823 16.3182 74.0719 13.9531 70.8674C17.1843 68.5383 21.2988 67.4324 25.5465 68.0973Z" fill="url(#paint13_linear_2665_1981)"/>
<path d="M32.9645 62.6891C32.2996 66.9342 33.4055 71.0488 35.7346 74.2799C38.9404 71.9148 41.2495 68.3346 41.9144 64.0895C42.5792 59.8417 41.4733 55.7272 39.1442 52.4961C35.9398 54.8611 33.6293 58.4414 32.9645 62.6891Z" fill="url(#paint14_linear_2665_1981)"/>
<path d="M34.9058 81.6719C39.2028 81.6626 43.1015 83.3814 45.9396 86.1768C43.1135 88.9842 39.2228 90.7217 34.9257 90.731C30.6273 90.7404 26.7287 89.0216 23.8906 86.2261C26.7167 83.4187 30.6074 81.6812 34.9058 81.6719Z" fill="url(#paint15_linear_2665_1981)"/>
<path d="M34.9058 81.6719C39.2028 81.6626 43.1015 83.3814 45.9396 86.1768C43.1135 88.9842 39.2228 90.7217 34.9257 90.731C30.6273 90.7404 26.7287 89.0216 23.8906 86.2261C26.7167 83.4187 30.6074 81.6812 34.9058 81.6719Z" fill="url(#paint16_linear_2665_1981)"/>
<path d="M41.3907 75.1641C41.4 79.4611 43.1375 83.3518 45.9449 86.1779C48.7403 83.3398 50.4592 79.4411 50.4498 75.1441C50.4405 70.8457 48.703 66.955 45.8956 64.1289C43.1002 66.967 41.3813 70.8657 41.3907 75.1641Z" fill="url(#paint17_linear_2665_1981)"/>
<path d="M46.2809 93.6064C50.5233 92.9229 54.6432 94.0088 57.885 96.3246C55.5346 99.541 51.965 101.866 47.7226 102.551C43.4788 103.235 39.359 102.149 36.1172 99.8328C38.4663 96.6164 42.0358 94.2913 46.2809 93.6064Z" fill="url(#paint18_linear_2665_1981)"/>
<path d="M46.2809 93.6064C50.5233 92.9229 54.6432 94.0088 57.885 96.3246C55.5346 99.541 51.965 101.866 47.7226 102.551C43.4788 103.235 39.359 102.149 36.1172 99.8328C38.4663 96.6164 42.0358 94.2913 46.2809 93.6064Z" fill="url(#paint19_linear_2665_1981)"/>
<path d="M51.6636 86.166C52.3471 90.4084 54.6735 93.978 57.8899 96.3284C60.2044 93.0866 61.2916 88.9667 60.6081 84.7243C59.9246 80.4805 57.5981 76.9109 54.3817 74.5605C52.0659 77.8023 50.9787 81.9222 51.6636 86.166Z" fill="url(#paint20_linear_2665_1981)"/>
<path d="M59.3886 103.613C63.4711 102.273 67.7096 102.699 71.2752 104.477C69.4578 108.022 66.2972 110.879 62.216 112.219C58.1321 113.561 53.8924 113.133 50.3281 111.356C52.1442 107.812 55.3047 104.954 59.3886 103.613Z" fill="url(#paint21_linear_2665_1981)"/>
<path d="M59.3886 103.613C63.4711 102.273 67.7096 102.699 71.2752 104.477C69.4578 108.022 66.2972 110.879 62.216 112.219C58.1321 113.561 53.8924 113.133 50.3281 111.356C52.1442 107.812 55.3047 104.954 59.3886 103.613Z" fill="url(#paint22_linear_2665_1981)"/>
<path d="M63.5221 95.4165C64.8625 99.4991 67.7206 102.66 71.2648 104.476C73.0423 100.91 73.47 96.6717 72.1282 92.5892C70.7865 88.5053 67.9298 85.3448 64.3842 83.5273C62.6081 87.0942 62.1803 91.3327 63.5221 95.4165Z" fill="url(#paint23_linear_2665_1981)"/>
<path d="M73.891 111.437C77.7124 109.472 81.9655 109.23 85.7656 110.426C84.5277 114.213 81.8535 117.529 78.0321 119.495C74.2094 121.46 69.955 121.704 66.1562 120.507C67.3954 116.721 70.0682 113.403 73.891 111.437Z" fill="url(#paint24_linear_2665_1981)"/>
<path d="M73.891 111.437C77.7124 109.472 81.9655 109.23 85.7656 110.426C84.5277 114.213 81.8535 117.529 78.0321 119.495C74.2094 121.46 69.955 121.704 66.1562 120.507C67.3954 116.721 70.0682 113.403 73.891 111.437Z" fill="url(#paint25_linear_2665_1981)"/>
<path d="M76.6995 102.692C78.6635 106.514 81.9812 109.187 85.768 110.426C86.9645 106.626 86.7206 102.373 84.7566 98.5512C82.7913 94.7284 79.4736 92.0542 75.6868 90.8164C74.4916 94.6151 74.7341 98.8696 76.6995 102.692Z" fill="url(#paint26_linear_2665_1981)"/>
<path d="M89.458 116.888C92.9236 114.349 97.0874 113.441 101.027 114.026C100.399 117.96 98.2786 121.656 94.813 124.195C91.346 126.736 87.1822 127.644 83.2422 127.059C83.8711 123.124 85.991 119.429 89.458 116.888Z" fill="url(#paint27_linear_2665_1981)"/>
<path d="M89.458 116.888C92.9236 114.349 97.0874 113.441 101.027 114.026C100.399 117.96 98.2786 121.656 94.813 124.195C91.346 126.736 87.1822 127.644 83.2422 127.059C83.8711 123.124 85.991 119.429 89.458 116.888Z" fill="url(#paint28_linear_2665_1981)"/>
<path d="M90.8624 107.813C93.402 111.279 97.0982 113.398 101.031 114.027C101.616 110.087 100.709 105.924 98.1694 102.458C95.6285 98.991 91.9323 96.8711 87.999 96.2422C87.4141 100.182 88.3215 104.345 90.8624 107.813Z" fill="url(#paint29_linear_2665_1981)"/>
<path d="M115.805 116.245C88.9182 116.128 63.6874 105.547 44.759 86.4538C25.8306 67.3601 15.471 42.0361 15.5869 15.1504L17.7055 15.1584C17.5909 41.4791 27.7333 66.2688 46.2633 84.9614C64.7934 103.654 89.4939 114.012 115.815 114.127L115.805 116.245Z" fill="url(#paint30_linear_2665_1981)"/>
<defs>
<linearGradient id="paint0_linear_2665_1981" x1="1.02304" y1="7.79536" x2="16.614" y2="7.79536" gradientUnits="userSpaceOnUse">
<stop stop-color="#CD7E39"/>
<stop offset="0.5363" stop-color="#F9EC95"/>
<stop offset="1" stop-color="#CD7E39"/>
</linearGradient>
<linearGradient id="paint1_linear_2665_1981" x1="1.02304" y1="7.79536" x2="16.614" y2="7.79536" gradientUnits="userSpaceOnUse">
<stop stop-color="#CD7E39"/>
<stop offset="0.5363" stop-color="#F9EC95"/>
<stop offset="1" stop-color="#CD7E39"/>
</linearGradient>
<linearGradient id="paint2_linear_2665_1981" x1="16.6171" y1="7.79536" x2="32.208" y2="7.79536" gradientUnits="userSpaceOnUse">
<stop stop-color="#CD7E39"/>
<stop offset="0.5363" stop-color="#F9EC95"/>
<stop offset="1" stop-color="#CD7E39"/>
</linearGradient>
<linearGradient id="paint3_linear_2665_1981" x1="0.000666212" y1="24.7416" x2="17.8445" y2="24.7416" gradientUnits="userSpaceOnUse">
<stop stop-color="#CD7E39"/>
<stop offset="0.5363" stop-color="#F9EC95"/>
<stop offset="1" stop-color="#CD7E39"/>
</linearGradient>
<linearGradient id="paint4_linear_2665_1981" x1="0.000666212" y1="24.7416" x2="17.8445" y2="24.7416" gradientUnits="userSpaceOnUse">
<stop stop-color="#CD7E39"/>
<stop offset="0.5363" stop-color="#F9EC95"/>
<stop offset="1" stop-color="#CD7E39"/>
</linearGradient>
<linearGradient id="paint5_linear_2665_1981" x1="17.6721" y1="22.2948" x2="30.9875" y2="22.2948" gradientUnits="userSpaceOnUse">
<stop stop-color="#CD7E39"/>
<stop offset="0.5363" stop-color="#F9EC95"/>
<stop offset="1" stop-color="#CD7E39"/>
</linearGradient>
<linearGradient id="paint6_linear_2665_1981" x1="1.85316" y1="41.4607" x2="21.508" y2="41.4607" gradientUnits="userSpaceOnUse">
<stop stop-color="#CD7E39"/>
<stop offset="0.5363" stop-color="#F9EC95"/>
<stop offset="1" stop-color="#CD7E39"/>
</linearGradient>
<linearGradient id="paint7_linear_2665_1981" x1="1.85316" y1="41.4607" x2="21.508" y2="41.4607" gradientUnits="userSpaceOnUse">
<stop stop-color="#CD7E39"/>
<stop offset="0.5363" stop-color="#F9EC95"/>
<stop offset="1" stop-color="#CD7E39"/>
</linearGradient>
<linearGradient id="paint8_linear_2665_1981" x1="20.7739" y1="36.6272" x2="32.2621" y2="36.6272" gradientUnits="userSpaceOnUse">
<stop stop-color="#CD7E39"/>
<stop offset="0.5363" stop-color="#F9EC95"/>
<stop offset="1" stop-color="#CD7E39"/>
</linearGradient>
<linearGradient id="paint9_linear_2665_1981" x1="6.55375" y1="57.5358" x2="27.5328" y2="57.5358" gradientUnits="userSpaceOnUse">
<stop stop-color="#CD7E39"/>
<stop offset="0.5363" stop-color="#F9EC95"/>
<stop offset="1" stop-color="#CD7E39"/>
</linearGradient>
<linearGradient id="paint10_linear_2665_1981" x1="6.55375" y1="57.5358" x2="27.5328" y2="57.5358" gradientUnits="userSpaceOnUse">
<stop stop-color="#CD7E39"/>
<stop offset="0.5363" stop-color="#F9EC95"/>
<stop offset="1" stop-color="#CD7E39"/>
</linearGradient>
<linearGradient id="paint11_linear_2665_1981" x1="25.8433" y1="50.439" x2="35.9936" y2="50.439" gradientUnits="userSpaceOnUse">
<stop stop-color="#CD7E39"/>
<stop offset="0.5363" stop-color="#F9EC95"/>
<stop offset="1" stop-color="#CD7E39"/>
</linearGradient>
<linearGradient id="paint12_linear_2665_1981" x1="13.9526" y1="72.5728" x2="35.7364" y2="72.5728" gradientUnits="userSpaceOnUse">
<stop stop-color="#CD7E39"/>
<stop offset="0.5363" stop-color="#F9EC95"/>
<stop offset="1" stop-color="#CD7E39"/>
</linearGradient>
<linearGradient id="paint13_linear_2665_1981" x1="13.9526" y1="72.5728" x2="35.7364" y2="72.5728" gradientUnits="userSpaceOnUse">
<stop stop-color="#CD7E39"/>
<stop offset="0.5363" stop-color="#F9EC95"/>
<stop offset="1" stop-color="#CD7E39"/>
</linearGradient>
<linearGradient id="paint14_linear_2665_1981" x1="32.7741" y1="63.3884" x2="42.1062" y2="63.3884" gradientUnits="userSpaceOnUse">
<stop stop-color="#CD7E39"/>
<stop offset="0.5363" stop-color="#F9EC95"/>
<stop offset="1" stop-color="#CD7E39"/>
</linearGradient>
<linearGradient id="paint15_linear_2665_1981" x1="23.8913" y1="86.2013" x2="45.9401" y2="86.2013" gradientUnits="userSpaceOnUse">
<stop stop-color="#CD7E39"/>
<stop offset="0.5363" stop-color="#F9EC95"/>
<stop offset="1" stop-color="#CD7E39"/>
</linearGradient>
<linearGradient id="paint16_linear_2665_1981" x1="23.8913" y1="86.2013" x2="45.9401" y2="86.2013" gradientUnits="userSpaceOnUse">
<stop stop-color="#CD7E39"/>
<stop offset="0.5363" stop-color="#F9EC95"/>
<stop offset="1" stop-color="#CD7E39"/>
</linearGradient>
<linearGradient id="paint17_linear_2665_1981" x1="41.3911" y1="75.153" x2="50.4501" y2="75.153" gradientUnits="userSpaceOnUse">
<stop stop-color="#CD7E39"/>
<stop offset="0.5363" stop-color="#F9EC95"/>
<stop offset="1" stop-color="#CD7E39"/>
</linearGradient>
<linearGradient id="paint18_linear_2665_1981" x1="36.1161" y1="98.0787" x2="57.8842" y2="98.0787" gradientUnits="userSpaceOnUse">
<stop stop-color="#CD7E39"/>
<stop offset="0.5363" stop-color="#F9EC95"/>
<stop offset="1" stop-color="#CD7E39"/>
</linearGradient>
<linearGradient id="paint19_linear_2665_1981" x1="36.1161" y1="98.0787" x2="57.8842" y2="98.0787" gradientUnits="userSpaceOnUse">
<stop stop-color="#CD7E39"/>
<stop offset="0.5363" stop-color="#F9EC95"/>
<stop offset="1" stop-color="#CD7E39"/>
</linearGradient>
<linearGradient id="paint20_linear_2665_1981" x1="51.461" y1="85.4445" x2="60.809" y2="85.4445" gradientUnits="userSpaceOnUse">
<stop stop-color="#CD7E39"/>
<stop offset="0.5363" stop-color="#F9EC95"/>
<stop offset="1" stop-color="#CD7E39"/>
</linearGradient>
<linearGradient id="paint21_linear_2665_1981" x1="50.3275" y1="107.916" x2="71.2756" y2="107.916" gradientUnits="userSpaceOnUse">
<stop stop-color="#CD7E39"/>
<stop offset="0.5363" stop-color="#F9EC95"/>
<stop offset="1" stop-color="#CD7E39"/>
</linearGradient>
<linearGradient id="paint22_linear_2665_1981" x1="50.3275" y1="107.916" x2="71.2756" y2="107.916" gradientUnits="userSpaceOnUse">
<stop stop-color="#CD7E39"/>
<stop offset="0.5363" stop-color="#F9EC95"/>
<stop offset="1" stop-color="#CD7E39"/>
</linearGradient>
<linearGradient id="paint23_linear_2665_1981" x1="62.7345" y1="94.0027" x2="72.9161" y2="94.0027" gradientUnits="userSpaceOnUse">
<stop stop-color="#CD7E39"/>
<stop offset="0.5363" stop-color="#F9EC95"/>
<stop offset="1" stop-color="#CD7E39"/>
</linearGradient>
<linearGradient id="paint24_linear_2665_1981" x1="66.1568" y1="115.466" x2="85.7661" y2="115.466" gradientUnits="userSpaceOnUse">
<stop stop-color="#CD7E39"/>
<stop offset="0.5363" stop-color="#F9EC95"/>
<stop offset="1" stop-color="#CD7E39"/>
</linearGradient>
<linearGradient id="paint25_linear_2665_1981" x1="66.1568" y1="115.466" x2="85.7661" y2="115.466" gradientUnits="userSpaceOnUse">
<stop stop-color="#CD7E39"/>
<stop offset="0.5363" stop-color="#F9EC95"/>
<stop offset="1" stop-color="#CD7E39"/>
</linearGradient>
<linearGradient id="paint26_linear_2665_1981" x1="74.9609" y1="100.62" x2="86.4951" y2="100.62" gradientUnits="userSpaceOnUse">
<stop stop-color="#CD7E39"/>
<stop offset="0.5363" stop-color="#F9EC95"/>
<stop offset="1" stop-color="#CD7E39"/>
</linearGradient>
<linearGradient id="paint27_linear_2665_1981" x1="83.2427" y1="120.542" x2="101.028" y2="120.542" gradientUnits="userSpaceOnUse">
<stop stop-color="#CD7E39"/>
<stop offset="0.5363" stop-color="#F9EC95"/>
<stop offset="1" stop-color="#CD7E39"/>
</linearGradient>
<linearGradient id="paint28_linear_2665_1981" x1="83.2427" y1="120.542" x2="101.028" y2="120.542" gradientUnits="userSpaceOnUse">
<stop stop-color="#CD7E39"/>
<stop offset="0.5363" stop-color="#F9EC95"/>
<stop offset="1" stop-color="#CD7E39"/>
</linearGradient>
<linearGradient id="paint29_linear_2665_1981" x1="87.8281" y1="105.134" x2="101.203" y2="105.134" gradientUnits="userSpaceOnUse">
<stop stop-color="#CD7E39"/>
<stop offset="0.5363" stop-color="#F9EC95"/>
<stop offset="1" stop-color="#CD7E39"/>
</linearGradient>
<linearGradient id="paint30_linear_2665_1981" x1="15.586" y1="65.6976" x2="115.813" y2="65.6976" gradientUnits="userSpaceOnUse">
<stop stop-color="#CD7E39"/>
<stop offset="0.5363" stop-color="#F9EC95"/>
<stop offset="1" stop-color="#CD7E39"/>
</linearGradient>
</defs>
</svg>
