<svg width="119" height="131" viewBox="0 0 119 131" fill="none" xmlns="http://www.w3.org/2000/svg">
<path d="M106.116 4.69576C103.01 7.80175 101.444 11.8668 101.422 15.94C105.495 15.9169 109.559 14.3516 112.666 11.2456C115.773 8.13825 117.34 4.07321 117.362 0C113.29 0.0217964 109.225 1.5884 106.116 4.69576Z" fill="url(#paint0_linear_2665_2013)"/>
<path d="M106.116 4.69576C103.01 7.80175 101.444 11.8668 101.422 15.94C105.495 15.9169 109.559 14.3516 112.666 11.2456C115.773 8.13825 117.34 4.07321 117.362 0C113.29 0.0217964 109.225 1.5884 106.116 4.69576Z" fill="url(#paint1_linear_2665_2013)"/>
<path d="M96.7378 4.69576C99.8438 7.80175 101.41 11.8668 101.432 15.94C97.359 15.9169 93.2939 14.3516 90.1879 11.2456C87.0806 8.13825 85.514 4.07321 85.4922 0C89.5654 0.0217964 93.6291 1.5884 96.7378 4.69576Z" fill="url(#paint2_linear_2665_2013)"/>
<path d="M106.572 21.5461C103.016 24.1262 100.833 27.8957 100.172 31.9144C104.197 32.5315 108.457 31.6228 112.013 29.0413C115.57 26.4598 117.753 22.6904 118.415 18.6717C114.389 18.0559 110.129 18.9646 106.572 21.5461Z" fill="url(#paint3_linear_2665_2013)"/>
<path d="M106.572 21.5461C103.016 24.1262 100.833 27.8957 100.172 31.9144C104.197 32.5315 108.457 31.6228 112.013 29.0413C115.57 26.4598 117.753 22.6904 118.415 18.6717C114.389 18.0559 110.129 18.9646 106.572 21.5461Z" fill="url(#paint4_linear_2665_2013)"/>
<path d="M97.2887 20.0706C99.8688 23.6262 100.779 27.8861 100.162 31.9116C96.143 31.2509 92.3735 29.0658 89.7934 25.5102C87.2119 21.9533 86.3033 17.6935 86.9204 13.668C90.9377 14.3287 94.7071 16.5137 97.2887 20.0706Z" fill="url(#paint5_linear_2665_2013)"/>
<path d="M104.362 38.2608C100.445 40.2511 97.6973 43.6309 96.4141 47.4971C100.294 48.7381 104.644 48.5078 108.56 46.5176C112.478 44.5259 115.226 41.1461 116.51 37.2813C112.629 36.0389 108.279 36.2691 104.362 38.2608Z" fill="url(#paint6_linear_2665_2013)"/>
<path d="M104.362 38.2608C100.445 40.2511 97.6973 43.6309 96.4141 47.4971C100.294 48.7381 104.644 48.5078 108.56 46.5176C112.478 44.5259 115.226 41.1461 116.51 37.2813C112.629 36.0389 108.279 36.2691 104.362 38.2608Z" fill="url(#paint7_linear_2665_2013)"/>
<path d="M95.4391 35.3493C97.4294 39.2658 97.6596 43.6156 96.4186 47.4954C92.5538 46.2121 89.174 43.463 87.1824 39.5478C85.1907 35.6299 84.9619 31.2802 86.2015 27.4004C90.0677 28.6823 93.4474 31.4314 95.4391 35.3493Z" fill="url(#paint8_linear_2665_2013)"/>
<path d="M99.5645 54.4196C95.385 55.7709 92.1401 58.6781 90.2656 62.2936C93.9029 64.1272 98.2349 64.5835 102.414 63.2322C106.597 61.8794 109.84 58.9737 111.715 55.3568C108.077 53.5232 103.745 53.0668 99.5645 54.4196Z" fill="url(#paint9_linear_2665_2013)"/>
<path d="M99.5645 54.4196C95.385 55.7709 92.1401 58.6781 90.2656 62.2936C93.9029 64.1272 98.2349 64.5835 102.414 63.2322C106.597 61.8794 109.84 58.9737 111.715 55.3568C108.077 53.5232 103.745 53.0668 99.5645 54.4196Z" fill="url(#paint10_linear_2665_2013)"/>
<path d="M91.2048 50.1441C92.5562 54.3249 92.1012 58.6569 90.2662 62.2928C86.6507 60.4183 83.7436 57.1747 82.3922 52.9939C81.0395 48.8117 81.4958 44.4797 83.3295 40.8438C86.9463 42.7182 89.8534 45.9619 91.2048 50.1441Z" fill="url(#paint11_linear_2665_2013)"/>
<path d="M92.2859 69.623C87.9457 70.3028 84.2852 72.6636 81.8672 75.9413C85.1707 78.3225 89.3774 79.4532 93.719 78.7735C98.062 78.0937 101.721 75.7315 104.139 72.4552C100.834 70.074 96.6275 68.9433 92.2859 69.623Z" fill="url(#paint12_linear_2665_2013)"/>
<path d="M92.2859 69.623C87.9457 70.3028 84.2852 72.6636 81.8672 75.9413C85.1707 78.3225 89.3774 79.4532 93.719 78.7735C98.062 78.0937 101.721 75.7315 104.139 72.4552C100.834 70.074 96.6275 68.9433 92.2859 69.623Z" fill="url(#paint13_linear_2665_2013)"/>
<path d="M84.7051 64.0952C85.3848 68.4355 84.2541 72.6422 81.8729 75.9457C78.5952 73.5277 76.2345 69.8672 75.5547 65.527C74.8749 61.184 76.0056 56.9774 78.3868 53.6738C81.6631 56.0919 84.0253 59.7523 84.7051 64.0952Z" fill="url(#paint14_linear_2665_2013)"/>
<path d="M82.7263 83.502C78.333 83.4925 74.347 85.2498 71.4453 88.1078C74.3347 90.9781 78.3125 92.7546 82.7059 92.7641C87.1006 92.7736 91.0866 91.0163 93.9883 88.1583C91.0989 85.2879 87.121 83.5115 82.7263 83.502Z" fill="url(#paint15_linear_2665_2013)"/>
<path d="M82.7263 83.502C78.333 83.4925 74.347 85.2498 71.4453 88.1078C74.3347 90.9781 78.3125 92.7546 82.7059 92.7641C87.1006 92.7736 91.0866 91.0163 93.9883 88.1583C91.0989 85.2879 87.121 83.5115 82.7263 83.502Z" fill="url(#paint16_linear_2665_2013)"/>
<path d="M76.0981 76.8469C76.0885 81.2402 74.3121 85.218 71.4418 88.1074C68.5838 85.2058 66.8264 81.2197 66.836 76.8264C66.8455 72.4317 68.6219 68.4538 71.4922 65.5645C74.3503 68.4661 76.1076 72.4521 76.0981 76.8469Z" fill="url(#paint17_linear_2665_2013)"/>
<path d="M71.0906 95.7027C66.7531 95.0039 62.541 96.1141 59.2266 98.4818C61.6296 101.77 65.2791 104.148 69.6166 104.848C73.9555 105.547 78.1677 104.436 81.4821 102.069C79.079 98.7801 75.4295 96.4029 71.0906 95.7027Z" fill="url(#paint18_linear_2665_2013)"/>
<path d="M71.0906 95.7027C66.7531 95.0039 62.541 96.1141 59.2266 98.4818C61.6296 101.77 65.2791 104.148 69.6166 104.848C73.9555 105.547 78.1677 104.436 81.4821 102.069C79.079 98.7801 75.4295 96.4029 71.0906 95.7027Z" fill="url(#paint19_linear_2665_2013)"/>
<path d="M65.5937 88.0939C64.8948 92.4314 62.5163 96.081 59.2277 98.484C56.8615 95.1696 55.7498 90.9574 56.4487 86.62C57.1475 82.2811 59.5261 78.6316 62.8146 76.2285C65.1823 79.5429 66.2939 83.7551 65.5937 88.0939Z" fill="url(#paint20_linear_2665_2013)"/>
<path d="M57.6997 105.934C53.5257 104.563 49.1923 104.999 45.5469 106.816C47.405 110.441 50.6364 113.362 54.809 114.733C58.9844 116.104 63.3192 115.667 66.9632 113.85C65.1065 110.226 61.8751 107.304 57.6997 105.934Z" fill="url(#paint21_linear_2665_2013)"/>
<path d="M57.6997 105.934C53.5257 104.563 49.1923 104.999 45.5469 106.816C47.405 110.441 50.6364 113.362 54.809 114.733C58.9844 116.104 63.3192 115.667 66.9632 113.85C65.1065 110.226 61.8751 107.304 57.6997 105.934Z" fill="url(#paint22_linear_2665_2013)"/>
<path d="M53.4552 97.552C52.0848 101.726 49.1627 104.957 45.539 106.814C43.7218 103.169 43.2858 98.8353 44.6563 94.6613C46.0281 90.4859 48.9488 87.2546 52.5738 85.3965C54.3897 89.0433 54.827 93.3767 53.4552 97.552Z" fill="url(#paint23_linear_2665_2013)"/>
<path d="M42.8515 113.933C38.9445 111.924 34.5948 111.676 30.7109 112.899C31.9765 116.771 34.7092 120.162 38.6176 122.171C42.5259 124.18 46.8757 124.43 50.7609 123.206C49.494 119.335 46.7599 115.943 42.8515 113.933Z" fill="url(#paint24_linear_2665_2013)"/>
<path d="M42.8515 113.933C38.9445 111.924 34.5948 111.676 30.7109 112.899C31.9765 116.771 34.7092 120.162 38.6176 122.171C42.5259 124.18 46.8757 124.43 50.7609 123.206C49.494 119.335 46.7599 115.943 42.8515 113.933Z" fill="url(#paint25_linear_2665_2013)"/>
<path d="M39.9832 104.992C37.9752 108.899 34.5832 111.631 30.7116 112.898C29.4882 109.013 29.7375 104.665 31.7455 100.758C33.7549 96.8493 37.1469 94.1152 41.0185 92.8496C42.2419 96.7335 41.9926 101.083 39.9832 104.992Z" fill="url(#paint26_linear_2665_2013)"/>
<path d="M26.9537 119.507C23.4104 116.91 19.1546 115.983 15.125 116.581C15.768 120.602 17.9354 124.381 21.4787 126.978C25.0233 129.575 29.2804 130.503 33.3087 129.905C32.6657 125.882 30.4983 122.105 26.9537 119.507Z" fill="url(#paint27_linear_2665_2013)"/>
<path d="M26.9537 119.507C23.4104 116.91 19.1546 115.983 15.125 116.581C15.768 120.602 17.9354 124.381 21.4787 126.978C25.0233 129.575 29.2804 130.503 33.3087 129.905C32.6657 125.882 30.4983 122.105 26.9537 119.507Z" fill="url(#paint28_linear_2665_2013)"/>
<path d="M25.5091 110.228C22.9126 113.772 19.1337 115.939 15.1122 116.582C14.5142 112.554 15.4419 108.297 18.0384 104.753C20.6363 101.209 24.4152 99.0414 28.4367 98.3984C29.0347 102.427 28.107 106.682 25.5091 110.228Z" fill="url(#paint29_linear_2665_2013)"/>
<path d="M0.00952031 118.85C27.4989 118.73 53.295 107.913 72.6475 88.3912C92 68.8697 102.592 42.9783 102.472 15.4902L100.306 15.4984C100.423 42.4088 90.0533 67.754 71.1095 86.8654C52.163 105.977 26.9091 116.567 0 116.684L0.00952031 118.85Z" fill="url(#paint30_linear_2665_2013)"/>
<defs>
<linearGradient id="paint0_linear_2665_2013" x1="117.362" y1="7.97002" x2="101.422" y2="7.97002" gradientUnits="userSpaceOnUse">
<stop stop-color="#CD7E39"/>
<stop offset="0.5363" stop-color="#F9EC95"/>
<stop offset="1" stop-color="#CD7E39"/>
</linearGradient>
<linearGradient id="paint1_linear_2665_2013" x1="117.362" y1="7.97002" x2="101.422" y2="7.97002" gradientUnits="userSpaceOnUse">
<stop stop-color="#CD7E39"/>
<stop offset="0.5363" stop-color="#F9EC95"/>
<stop offset="1" stop-color="#CD7E39"/>
</linearGradient>
<linearGradient id="paint2_linear_2665_2013" x1="101.432" y1="7.97002" x2="85.4922" y2="7.97002" gradientUnits="userSpaceOnUse">
<stop stop-color="#CD7E39"/>
<stop offset="0.5363" stop-color="#F9EC95"/>
<stop offset="1" stop-color="#CD7E39"/>
</linearGradient>
<linearGradient id="paint3_linear_2665_2013" x1="118.415" y1="25.2932" x2="100.171" y2="25.2932" gradientUnits="userSpaceOnUse">
<stop stop-color="#CD7E39"/>
<stop offset="0.5363" stop-color="#F9EC95"/>
<stop offset="1" stop-color="#CD7E39"/>
</linearGradient>
<linearGradient id="paint4_linear_2665_2013" x1="118.415" y1="25.2932" x2="100.171" y2="25.2932" gradientUnits="userSpaceOnUse">
<stop stop-color="#CD7E39"/>
<stop offset="0.5363" stop-color="#F9EC95"/>
<stop offset="1" stop-color="#CD7E39"/>
</linearGradient>
<linearGradient id="paint5_linear_2665_2013" x1="100.347" y1="22.7896" x2="86.7332" y2="22.7896" gradientUnits="userSpaceOnUse">
<stop stop-color="#CD7E39"/>
<stop offset="0.5363" stop-color="#F9EC95"/>
<stop offset="1" stop-color="#CD7E39"/>
</linearGradient>
<linearGradient id="paint6_linear_2665_2013" x1="116.509" y1="42.3882" x2="96.4137" y2="42.3882" gradientUnits="userSpaceOnUse">
<stop stop-color="#CD7E39"/>
<stop offset="0.5363" stop-color="#F9EC95"/>
<stop offset="1" stop-color="#CD7E39"/>
</linearGradient>
<linearGradient id="paint7_linear_2665_2013" x1="116.509" y1="42.3882" x2="96.4137" y2="42.3882" gradientUnits="userSpaceOnUse">
<stop stop-color="#CD7E39"/>
<stop offset="0.5363" stop-color="#F9EC95"/>
<stop offset="1" stop-color="#CD7E39"/>
</linearGradient>
<linearGradient id="paint8_linear_2665_2013" x1="97.183" y1="37.4469" x2="85.4374" y2="37.4469" gradientUnits="userSpaceOnUse">
<stop stop-color="#CD7E39"/>
<stop offset="0.5363" stop-color="#F9EC95"/>
<stop offset="1" stop-color="#CD7E39"/>
</linearGradient>
<linearGradient id="paint9_linear_2665_2013" x1="111.715" y1="58.8253" x2="90.2655" y2="58.8253" gradientUnits="userSpaceOnUse">
<stop stop-color="#CD7E39"/>
<stop offset="0.5363" stop-color="#F9EC95"/>
<stop offset="1" stop-color="#CD7E39"/>
</linearGradient>
<linearGradient id="paint10_linear_2665_2013" x1="111.715" y1="58.8253" x2="90.2655" y2="58.8253" gradientUnits="userSpaceOnUse">
<stop stop-color="#CD7E39"/>
<stop offset="0.5363" stop-color="#F9EC95"/>
<stop offset="1" stop-color="#CD7E39"/>
</linearGradient>
<linearGradient id="paint11_linear_2665_2013" x1="91.9877" y1="51.5686" x2="81.61" y2="51.5686" gradientUnits="userSpaceOnUse">
<stop stop-color="#CD7E39"/>
<stop offset="0.5363" stop-color="#F9EC95"/>
<stop offset="1" stop-color="#CD7E39"/>
</linearGradient>
<linearGradient id="paint12_linear_2665_2013" x1="104.138" y1="74.1988" x2="81.8666" y2="74.1988" gradientUnits="userSpaceOnUse">
<stop stop-color="#CD7E39"/>
<stop offset="0.5363" stop-color="#F9EC95"/>
<stop offset="1" stop-color="#CD7E39"/>
</linearGradient>
<linearGradient id="paint13_linear_2665_2013" x1="104.138" y1="74.1988" x2="81.8666" y2="74.1988" gradientUnits="userSpaceOnUse">
<stop stop-color="#CD7E39"/>
<stop offset="0.5363" stop-color="#F9EC95"/>
<stop offset="1" stop-color="#CD7E39"/>
</linearGradient>
<linearGradient id="paint14_linear_2665_2013" x1="84.8997" y1="64.8102" x2="75.3589" y2="64.8102" gradientUnits="userSpaceOnUse">
<stop stop-color="#CD7E39"/>
<stop offset="0.5363" stop-color="#F9EC95"/>
<stop offset="1" stop-color="#CD7E39"/>
</linearGradient>
<linearGradient id="paint15_linear_2665_2013" x1="93.9877" y1="88.1329" x2="71.4449" y2="88.1329" gradientUnits="userSpaceOnUse">
<stop stop-color="#CD7E39"/>
<stop offset="0.5363" stop-color="#F9EC95"/>
<stop offset="1" stop-color="#CD7E39"/>
</linearGradient>
<linearGradient id="paint16_linear_2665_2013" x1="93.9877" y1="88.1329" x2="71.4449" y2="88.1329" gradientUnits="userSpaceOnUse">
<stop stop-color="#CD7E39"/>
<stop offset="0.5363" stop-color="#F9EC95"/>
<stop offset="1" stop-color="#CD7E39"/>
</linearGradient>
<linearGradient id="paint17_linear_2665_2013" x1="76.0979" y1="76.8355" x2="66.8358" y2="76.8355" gradientUnits="userSpaceOnUse">
<stop stop-color="#CD7E39"/>
<stop offset="0.5363" stop-color="#F9EC95"/>
<stop offset="1" stop-color="#CD7E39"/>
</linearGradient>
<linearGradient id="paint18_linear_2665_2013" x1="81.4821" y1="100.275" x2="59.2263" y2="100.275" gradientUnits="userSpaceOnUse">
<stop stop-color="#CD7E39"/>
<stop offset="0.5363" stop-color="#F9EC95"/>
<stop offset="1" stop-color="#CD7E39"/>
</linearGradient>
<linearGradient id="paint19_linear_2665_2013" x1="81.4821" y1="100.275" x2="59.2263" y2="100.275" gradientUnits="userSpaceOnUse">
<stop stop-color="#CD7E39"/>
<stop offset="0.5363" stop-color="#F9EC95"/>
<stop offset="1" stop-color="#CD7E39"/>
</linearGradient>
<linearGradient id="paint20_linear_2665_2013" x1="65.8009" y1="87.3563" x2="56.2434" y2="87.3563" gradientUnits="userSpaceOnUse">
<stop stop-color="#CD7E39"/>
<stop offset="0.5363" stop-color="#F9EC95"/>
<stop offset="1" stop-color="#CD7E39"/>
</linearGradient>
<linearGradient id="paint21_linear_2665_2013" x1="66.9641" y1="110.333" x2="45.5466" y2="110.333" gradientUnits="userSpaceOnUse">
<stop stop-color="#CD7E39"/>
<stop offset="0.5363" stop-color="#F9EC95"/>
<stop offset="1" stop-color="#CD7E39"/>
</linearGradient>
<linearGradient id="paint22_linear_2665_2013" x1="66.9641" y1="110.333" x2="45.5466" y2="110.333" gradientUnits="userSpaceOnUse">
<stop stop-color="#CD7E39"/>
<stop offset="0.5363" stop-color="#F9EC95"/>
<stop offset="1" stop-color="#CD7E39"/>
</linearGradient>
<linearGradient id="paint23_linear_2665_2013" x1="54.2606" y1="96.1066" x2="43.8509" y2="96.1066" gradientUnits="userSpaceOnUse">
<stop stop-color="#CD7E39"/>
<stop offset="0.5363" stop-color="#F9EC95"/>
<stop offset="1" stop-color="#CD7E39"/>
</linearGradient>
<linearGradient id="paint24_linear_2665_2013" x1="50.7593" y1="118.052" x2="30.7104" y2="118.052" gradientUnits="userSpaceOnUse">
<stop stop-color="#CD7E39"/>
<stop offset="0.5363" stop-color="#F9EC95"/>
<stop offset="1" stop-color="#CD7E39"/>
</linearGradient>
<linearGradient id="paint25_linear_2665_2013" x1="50.7593" y1="118.052" x2="30.7104" y2="118.052" gradientUnits="userSpaceOnUse">
<stop stop-color="#CD7E39"/>
<stop offset="0.5363" stop-color="#F9EC95"/>
<stop offset="1" stop-color="#CD7E39"/>
</linearGradient>
<linearGradient id="paint26_linear_2665_2013" x1="41.7608" y1="102.873" x2="29.9685" y2="102.873" gradientUnits="userSpaceOnUse">
<stop stop-color="#CD7E39"/>
<stop offset="0.5363" stop-color="#F9EC95"/>
<stop offset="1" stop-color="#CD7E39"/>
</linearGradient>
<linearGradient id="paint27_linear_2665_2013" x1="33.3084" y1="123.242" x2="15.1249" y2="123.242" gradientUnits="userSpaceOnUse">
<stop stop-color="#CD7E39"/>
<stop offset="0.5363" stop-color="#F9EC95"/>
<stop offset="1" stop-color="#CD7E39"/>
</linearGradient>
<linearGradient id="paint28_linear_2665_2013" x1="33.3084" y1="123.242" x2="15.1249" y2="123.242" gradientUnits="userSpaceOnUse">
<stop stop-color="#CD7E39"/>
<stop offset="0.5363" stop-color="#F9EC95"/>
<stop offset="1" stop-color="#CD7E39"/>
</linearGradient>
<linearGradient id="paint29_linear_2665_2013" x1="28.6117" y1="107.49" x2="14.9372" y2="107.49" gradientUnits="userSpaceOnUse">
<stop stop-color="#CD7E39"/>
<stop offset="0.5363" stop-color="#F9EC95"/>
<stop offset="1" stop-color="#CD7E39"/>
</linearGradient>
<linearGradient id="paint30_linear_2665_2013" x1="102.474" y1="67.17" x2="0.00136816" y2="67.17" gradientUnits="userSpaceOnUse">
<stop stop-color="#CD7E39"/>
<stop offset="0.5363" stop-color="#F9EC95"/>
<stop offset="1" stop-color="#CD7E39"/>
</linearGradient>
</defs>
</svg>
