<svg width="80" height="80" viewBox="0 0 80 80" fill="none" xmlns="http://www.w3.org/2000/svg">
<path fill-rule="evenodd" clip-rule="evenodd" d="M2.5 26.25V13.9287C2.5 11.5725 3.97 9.75 5.63875 8.47C7.34375 7.16125 9.6525 6.09125 12.2825 5.2375C17.57 3.52 24.7175 2.5 32.5 2.5C40.2825 2.5 47.43 3.52 52.7175 5.2375C55.3475 6.09125 57.6562 7.1625 59.3612 8.47C61.03 9.75125 62.5 11.5725 62.5 13.9287V26.25C62.5 26.4475 62.3625 27.1112 60.975 28.1213C59.6425 29.09 57.5525 30.0675 54.7463 30.9313C49.1625 32.65 41.2962 33.75 32.5 33.75C23.7038 33.75 15.8375 32.65 10.2537 30.9313C7.4475 30.0688 5.3575 29.09 4.025 28.1213C2.6375 27.1112 2.5 26.4475 2.5 26.25ZM7.5 13.9287C7.5 13.8187 7.56875 13.2913 8.68375 12.4363C9.7625 11.6088 11.48 10.755 13.8263 9.9925C18.4925 8.4775 25.095 7.5 32.5 7.5C39.905 7.5 46.5075 8.4775 51.1737 9.9925C53.52 10.755 55.2375 11.6088 56.3163 12.4363C57.4313 13.2913 57.5 13.8187 57.5 13.9287C57.5 14.0387 57.4313 14.5662 56.3163 15.4212C55.2375 16.2487 53.52 17.1025 51.1737 17.8638C46.5075 19.3787 39.905 20.3575 32.5 20.3575C25.095 20.3575 18.4925 19.3787 13.8263 17.8638C11.48 17.1013 9.7625 16.25 8.68375 15.4212C7.56875 14.565 7.5 14.0375 7.5 13.9287Z" fill="#B8E0BD"/>
<path d="M2.5 33.082V43.7495C2.5 43.947 2.6375 44.6108 4.025 45.6208C5.3575 46.5895 7.4475 47.567 10.2537 48.4308C15.8375 50.1495 23.7038 51.2495 32.5 51.2495C40.26 51.2495 47.295 50.3933 52.6775 49.012L53.905 43.6133C54.1089 42.7164 54.5082 41.8755 55.0745 41.1508C55.6408 40.426 56.3601 39.8351 57.1811 39.4203C58.002 39.0056 58.9044 38.7771 59.8238 38.7513C60.7432 38.7254 61.657 38.9028 62.5 39.2708V33.082C60.745 34.102 58.6025 34.9758 56.2162 35.7095C50.0375 37.612 41.6538 38.7495 32.5 38.7495C23.3463 38.7495 14.9625 37.612 8.78375 35.7095C6.39625 34.9758 4.255 34.102 2.5 33.082ZM38.75 59.9995C38.75 58.482 39.2962 57.0695 40.22 55.972C37.6509 56.1581 35.0758 56.2507 32.5 56.2495C23.3475 56.2495 14.9625 55.112 8.78375 53.2095C6.39625 52.4758 4.255 51.602 2.5 50.582V58.5708C2.5 60.927 3.97 62.7483 5.63875 64.0295C7.34375 65.3383 9.6525 66.4083 12.2825 67.262C17.57 68.9783 24.7175 69.9995 32.5 69.9995C39.33 69.9995 45.6712 69.2133 50.695 67.8608C50.3825 67.6859 50.0466 67.5567 49.6975 67.477L43.6137 66.0933C42.2324 65.7791 40.9989 65.005 40.1152 63.8978C39.2315 62.7906 38.7501 61.4161 38.75 59.9995Z" fill="#B8E0BD"/>
<path d="M59.9995 42.5C60.5661 42.5 61.1158 42.6925 61.5587 43.0459C62.0015 43.3992 62.3112 43.8926 62.437 44.445L63.8207 50.5288C64.1343 51.9073 64.831 53.1691 65.8307 54.1688C66.8304 55.1685 68.0922 55.8652 69.4707 56.1788L75.5545 57.5625C76.1068 57.6884 76.6 57.9981 76.9533 58.441C77.3066 58.8838 77.499 59.4335 77.499 60C77.499 60.5665 77.3066 61.1162 76.9533 61.559C76.6 62.0019 76.1068 62.3116 75.5545 62.4375L69.4707 63.8212C68.0922 64.1348 66.8304 64.8315 65.8307 65.8312C64.831 66.8309 64.1343 68.0927 63.8207 69.4712L62.437 75.555C62.3111 76.1073 62.0014 76.6005 61.5585 76.9538C61.1157 77.3071 60.566 77.4995 59.9995 77.4995C59.433 77.4995 58.8833 77.3071 58.4404 76.9538C57.9976 76.6005 57.6879 76.1073 57.562 75.555L56.1782 69.4712C55.8647 68.0927 55.168 66.8309 54.1683 65.8312C53.1686 64.8315 51.9068 64.1348 50.5282 63.8212L44.4445 62.4375C43.8922 62.3116 43.399 62.0019 43.0457 61.559C42.6924 61.1162 42.5 60.5665 42.5 60C42.5 59.4335 42.6924 58.8838 43.0457 58.441C43.399 57.9981 43.8922 57.6884 44.4445 57.5625L50.5282 56.1788C51.9068 55.8652 53.1686 55.1685 54.1683 54.1688C55.168 53.1691 55.8647 51.9073 56.1782 50.5288L57.562 44.445C57.6878 43.8926 57.9975 43.3992 58.4403 43.0459C58.8832 42.6925 59.4329 42.5 59.9995 42.5Z" fill="#4CAF50"/>
</svg>
