<svg width="80" height="80" viewBox="0 0 80 80" fill="none" xmlns="http://www.w3.org/2000/svg">
<path d="M53 21C53 23.9667 52.1203 26.8668 50.472 29.3336C48.8238 31.8003 46.4811 33.7229 43.7402 34.8582C40.9994 35.9935 37.9834 36.2906 35.0736 35.7118C32.1639 35.133 29.4912 33.7044 27.3934 31.6066C25.2956 29.5088 23.867 26.8361 23.2882 23.9264C22.7094 21.0166 23.0065 18.0006 24.1418 15.2597C25.2771 12.5189 27.1997 10.1762 29.6664 8.52796C32.1332 6.87973 35.0333 6 38 6C41.9782 6 45.7936 7.58035 48.6066 10.3934C51.4196 13.2064 53 17.0218 53 21ZM44.0125 61C44.0202 57.0748 45.5522 53.3061 48.2855 50.4889C51.0187 47.6717 54.7394 46.0264 58.6625 45.9C56.9186 44.7224 55.0106 43.8083 53 43.1875C52.4125 43 51.825 42.8625 51.225 42.725L50.7 42.625C50.225 42.5375 49.75 42.475 49.2625 42.4125L48.7 42.35C48.0625 42.35 47.45 42.25 46.75 42.25H29.25C28.5875 42.25 27.9375 42.25 27.3 42.35L26.7375 42.4125C26.25 42.4125 25.775 42.5375 25.3 42.625L24.7875 42.725C24.175 42.8625 23.5375 43 23 43.1875C18.6563 44.5242 14.8556 47.2183 12.1558 50.8742C9.45603 54.5301 7.99949 58.9553 8 63.5C8 66.1522 9.05357 68.6957 10.9289 70.5711C12.8043 72.4464 15.3478 73.5 18 73.5H50.6375C48.5987 72.1135 46.9295 70.25 45.7749 68.0716C44.6203 65.8931 44.0153 63.4655 44.0125 61Z" fill="#D4D3FD"/>
<path d="M71.25 60.3625C71.2525 62.8606 70.5138 65.3032 69.1275 67.3813C67.7412 69.4594 65.7696 71.0795 63.4622 72.0366C61.1547 72.9937 58.6152 73.2448 56.1651 72.758C53.7149 72.2713 51.4642 71.0686 49.6978 69.3022C47.9314 67.5358 46.7287 65.2851 46.242 62.8349C45.7552 60.3848 46.0063 57.8453 46.9634 55.5378C47.9205 53.2304 49.5406 51.2588 51.6187 49.8725C53.6968 48.4862 56.1394 47.7475 58.6375 47.75C61.9825 47.75 65.1906 49.0788 67.5559 51.4441C69.9212 53.8094 71.25 57.0175 71.25 60.3625ZM66.25 60.3625C66.25 60.031 66.1183 59.713 65.8839 59.4786C65.6495 59.2442 65.3315 59.1125 65 59.1125H60V54.1125C60 53.781 59.8683 53.463 59.6339 53.2286C59.3995 52.9942 59.0815 52.8625 58.75 52.8625C58.4185 52.8625 58.1005 52.9942 57.8661 53.2286C57.6317 53.463 57.5 53.781 57.5 54.1125V59.1125H52.5C52.1685 59.1125 51.8505 59.2442 51.6161 59.4786C51.3817 59.713 51.25 60.031 51.25 60.3625C51.25 60.694 51.3817 61.012 51.6161 61.2464C51.8505 61.4808 52.1685 61.6125 52.5 61.6125H57.5V66.6125C57.5 66.944 57.6317 67.262 57.8661 67.4964C58.1005 67.7308 58.4185 67.8625 58.75 67.8625C59.0815 67.8625 59.3995 67.7308 59.6339 67.4964C59.8683 67.262 60 66.944 60 66.6125V61.6125H65C65.3315 61.6125 65.6495 61.4808 65.8839 61.2464C66.1183 61.012 66.25 60.694 66.25 60.3625Z" fill="#9896FF"/>
</svg>
