<svg width="80" height="80" viewBox="0 0 80 80" fill="none" xmlns="http://www.w3.org/2000/svg">
<path d="M34.9792 12.5527H24.9375C23.6431 12.5527 22.5938 13.6021 22.5938 14.8965V24.9382C22.5938 26.2326 23.6431 27.282 24.9375 27.282H34.9792C36.2736 27.282 37.323 26.2326 37.323 24.9382V14.8965C37.323 13.6021 36.2736 12.5527 34.9792 12.5527ZM34.8125 45.0215V34.9798C34.8125 33.6854 33.7631 32.636 32.4688 32.636H22.427C21.1327 32.636 20.0833 33.6854 20.0833 34.9798V45.0215C20.0833 46.3159 21.1327 47.3652 22.427 47.3652H32.4688C33.7631 47.3652 34.8125 46.3159 34.8125 45.0215ZM34.9792 52.7195H24.9375C23.6431 52.7195 22.5938 53.7688 22.5938 55.0632V65.1049C22.5938 66.3993 23.6431 67.4487 24.9375 67.4487H34.9792C36.2736 67.4487 37.323 66.3993 37.323 65.1049V55.0632C37.323 53.7688 36.2736 52.7195 34.9792 52.7195ZM12.3855 42.6777H2.34375C1.04937 42.6777 0 43.7271 0 45.0215V55.0632C0 56.3576 1.04937 57.407 2.34375 57.407H12.3855C13.6798 57.407 14.7292 56.3576 14.7292 55.0632V45.0215C14.7292 43.7271 13.6798 42.6777 12.3855 42.6777ZM12.3855 22.5945H2.34375C1.04937 22.5945 0 23.6438 0 24.9382V34.9799C0 36.2743 1.04937 37.3237 2.34375 37.3237H12.3855C13.6798 37.3237 14.7292 36.2743 14.7292 34.9799V24.9382C14.7292 23.6438 13.6798 22.5945 12.3855 22.5945Z" fill="#D4D3FD"/>
<path d="M73.4392 36.1942L79.1808 41.1184C79.5958 41.4743 79.8733 41.9641 79.9653 42.503C80.0573 43.042 79.9581 43.5961 79.6847 44.0695L74.0362 53.8525C73.7629 54.3259 73.3326 54.6889 72.8199 54.8786C72.3072 55.0684 71.7443 55.0729 71.2286 54.8916L64.0883 52.3794C62.2609 53.8128 60.2407 54.9816 58.0872 55.8514L56.6933 63.2836C56.5925 63.8209 56.3071 64.306 55.8865 64.6551C55.4658 65.0042 54.9363 65.1953 54.3897 65.1953H45.0195C43.7252 65.1953 42.6758 64.1459 42.6758 62.8516V44.7162C42.6757 44.349 42.762 43.9869 42.9276 43.6591C43.0932 43.3313 43.3335 43.047 43.6292 42.8292C43.9249 42.6113 44.2676 42.466 44.6298 42.405C44.9919 42.344 45.3633 42.3689 45.7141 42.4778C52.123 44.5687 59.0586 39.4833 58.9495 32.7266C59.0583 25.9684 52.1236 20.8858 45.7141 22.9752C45.3633 23.084 44.9919 23.1089 44.6298 23.0479C44.2677 22.9868 43.925 22.8415 43.6294 22.6236C43.0297 22.1819 42.6758 21.4816 42.6758 20.7367V2.60156C42.6758 1.30719 43.7252 0.257812 45.0195 0.257812H54.3897C54.9363 0.257812 55.4658 0.448889 55.8865 0.797989C56.3071 1.14709 56.5925 1.63225 56.6933 2.16953L58.0872 9.60172C60.2407 10.4715 62.2609 11.6403 64.0883 13.0737L71.2286 10.5616C71.7443 10.3802 72.3072 10.3848 72.8199 10.5745C73.3326 10.7643 73.7628 11.1272 74.0362 11.6006L79.6847 21.3836C79.958 21.857 80.0573 22.4111 79.9653 22.95C79.8732 23.4889 79.5957 23.9786 79.1808 24.3345L73.4392 29.2587C73.7584 31.5596 73.7584 33.8934 73.4392 36.1942Z" fill="#9896FF"/>
</svg>
