<svg width="60" height="60" viewBox="0 0 60 60" fill="none" xmlns="http://www.w3.org/2000/svg">
<path d="M14.6367 7.9725H48.6917C50.5317 7.9725 52.0242 9.465 52.0242 11.305V45.36H57.4992C58.1623 45.36 58.7981 45.0966 59.267 44.6278C59.7358 44.1589 59.9992 43.523 59.9992 42.86V2.5C59.9992 1.83696 59.7358 1.20107 59.267 0.732234C58.7981 0.263393 58.1623 0 57.4992 0H17.1367C16.4737 0 15.8378 0.263393 15.369 0.732234C14.9001 1.20107 14.6367 1.83696 14.6367 2.5V7.9725Z" fill="#2859C5"/>
<path d="M2.5 59.9992H42.8625C43.5255 59.9992 44.1614 59.7358 44.6303 59.267C45.0991 58.7981 45.3625 58.1623 45.3625 57.4992V17.1367C45.3625 16.4737 45.0991 15.8378 44.6303 15.369C44.1614 14.9001 43.5255 14.6367 42.8625 14.6367H2.5C1.83696 14.6367 1.20107 14.9001 0.732234 15.369C0.263393 15.8378 0 16.4737 0 17.1367V57.4992C0 58.1623 0.263393 58.7981 0.732234 59.267C1.20107 59.7358 1.83696 59.9992 2.5 59.9992Z" fill="#8FBFFA"/>
</svg>
