<svg width="80" height="80" viewBox="0 0 80 80" fill="none" xmlns="http://www.w3.org/2000/svg">
<path fill-rule="evenodd" clip-rule="evenodd" d="M24.9638 32.209C21.5745 32.209 18.3208 33.5126 15.8596 35.8381C14.641 36.9966 13.6705 38.3905 13.0071 39.9354C12.3436 41.4804 12.001 43.144 12 44.8253C11.999 46.5067 12.3397 48.1707 13.0014 49.7164C13.6631 51.262 14.6319 52.6571 15.8492 53.817L37.7857 75.1434C38.2723 75.6164 38.9242 75.881 39.6029 75.881C40.2815 75.881 40.9334 75.6164 41.42 75.1434L63.3618 53.817C64.5782 52.6572 65.5464 51.2624 66.2076 49.7172C66.8688 48.172 67.2092 46.5086 67.2082 44.8279C67.2072 43.1472 66.8649 41.4842 66.2019 39.9398C65.5389 38.3954 64.5691 37.0017 63.3513 35.8433C60.8941 33.5107 57.6353 32.2102 54.2472 32.2102C50.8591 32.2102 47.6003 33.5107 45.1431 35.8433L45.0909 35.8903L39.6055 41.3757L34.1148 35.8903L34.0627 35.8381C31.605 33.51 28.3491 32.2114 24.9638 32.209Z" fill="#8FBFFA"/>
<path fill-rule="evenodd" clip-rule="evenodd" d="M39.6101 4C36.4087 4 33.3384 5.27177 31.0746 7.53554C28.8108 9.7993 27.5391 12.8696 27.5391 16.0711C27.5391 19.2725 28.8108 22.3428 31.0746 24.6066C33.3384 26.8704 36.4087 28.1421 39.6101 28.1421C42.8116 28.1421 45.8819 26.8704 48.1457 24.6066C50.4094 22.3428 51.6812 19.2725 51.6812 16.0711C51.6812 12.8696 50.4094 9.7993 48.1457 7.53554C45.8819 5.27177 42.8116 4 39.6101 4Z" fill="#2859C5"/>
</svg>
