<svg width="80" height="80" viewBox="0 0 80 80" fill="none" xmlns="http://www.w3.org/2000/svg">
<path d="M71.7214 54.7987C78.5184 38.4192 70.4272 18.3825 54.1747 11.2886C54.0197 11.2179 53.8524 11.1784 53.6821 11.1724C53.5119 11.1664 53.3421 11.194 53.1826 11.2537C53.023 11.3133 52.8768 11.4037 52.7522 11.5199C52.6275 11.636 52.527 11.7755 52.4564 11.9305C52.3857 12.0855 52.3462 12.2529 52.3402 12.4231C52.3342 12.5933 52.3618 12.7631 52.4215 12.9226C52.4811 13.0822 52.5715 13.2285 52.6877 13.3531C52.8038 13.4777 52.9433 13.5782 53.0983 13.6489C58.5872 16.1485 63.2422 20.1727 66.5093 25.2424C69.7764 30.3121 71.5181 36.2137 71.5269 42.245C71.5303 46.1462 70.8001 50.0132 69.3741 53.6445C67.9287 53.2928 66.4044 53.4871 65.0934 54.19C63.7824 54.8929 62.777 56.0549 62.27 57.4534C61.7629 58.8519 61.7899 60.3883 62.3458 61.768C62.9017 63.1478 63.9473 64.2738 65.2822 64.9302C66.6171 65.5866 68.1473 65.7271 69.5794 65.3249C71.0115 64.9226 72.2448 64.0059 73.0427 62.7505C73.8406 61.4951 74.147 59.9893 73.9032 58.5219C73.6594 57.0544 72.8825 55.7287 71.7214 54.7987ZM7.56503 46.395C9.65948 46.2251 8.55065 43.6067 8.74518 42.245C8.7541 34.8348 11.3793 27.6658 16.1579 22.0023C20.9364 16.3388 27.5613 12.5445 34.8642 11.2886C35.2633 12.6896 36.1555 13.899 37.3764 14.6937C38.5973 15.4884 40.0644 15.8148 41.507 15.6125C42.9497 15.4103 44.2705 14.6931 45.2258 13.5933C46.1811 12.4935 46.7063 11.0853 46.7047 9.62856C46.5685 2.24545 35.9458 1.44788 34.7086 8.69481C26.242 10.0835 18.6112 14.6158 13.341 21.3862C8.07093 28.1566 5.54967 36.6663 6.28112 45.2148C6.30754 45.5369 6.45434 45.8373 6.69228 46.056C6.93023 46.2747 7.24184 46.3957 7.56503 46.395ZM57.7722 68.2006C51.2368 72.6442 43.2649 74.4571 35.4505 73.2768C27.6361 72.0965 20.5553 68.0099 15.6238 61.8343C16.6029 60.7186 17.1354 59.2806 17.1193 57.7963C17.1031 56.312 16.5394 54.886 15.5363 53.7918C14.5332 52.6977 13.1613 52.0126 11.684 51.8679C10.2067 51.7232 8.72801 52.1291 7.53167 53.0078C6.33532 53.8865 5.50562 55.1761 5.20176 56.629C4.89791 58.082 5.14132 59.5959 5.88528 60.8804C6.62925 62.1649 7.82135 63.1294 9.23283 63.5888C10.6443 64.0482 12.1757 63.9702 13.5332 63.3698C18.8619 70.088 26.5353 74.5411 35.012 75.8349C43.4888 77.1286 52.1411 75.1671 59.2312 70.3444C59.5072 70.1475 59.695 69.8504 59.7546 69.5167C59.8142 69.183 59.7408 68.8392 59.5501 68.559C59.3594 68.2788 59.0665 68.0844 58.7342 68.0174C58.4019 67.9504 58.0566 68.0162 57.7722 68.2006Z" fill="#9896FF"/>
<path d="M39.5933 21.4113C30.3374 21.2799 25.1547 32.6672 31.2572 39.5142C32.2959 40.704 33.5772 41.6576 35.015 42.311C36.4529 42.9644 38.0139 43.3024 39.5933 43.3024C41.1726 43.3024 42.7337 42.9644 44.1715 42.311C45.6094 41.6576 46.8907 40.704 47.9294 39.5142C53.9881 32.6672 48.8346 21.2799 39.5933 21.4113Z" fill="#9896FF"/>
<path d="M48.6023 42.6705C47.1694 43.8337 45.5203 44.7017 43.7503 45.2244C41.9803 45.7472 40.1242 45.9142 38.2893 45.7161C36.4544 45.5179 34.6768 44.9585 33.0592 44.0699C31.4415 43.1814 30.0158 41.9813 28.8642 40.5391C26.5686 42.0542 24.6098 44.0263 23.1102 46.3321C21.6107 48.638 20.6024 51.2282 20.1485 53.9411C20.0565 54.516 20.0896 55.104 20.2456 55.6649C20.4015 56.2258 20.6767 56.7465 21.0523 57.1913C21.4279 57.6362 21.895 57.9948 22.4218 58.2426C22.9486 58.4905 23.5227 58.6217 24.1049 58.6274H55.4493C56.0329 58.6243 56.6089 58.4949 57.1377 58.2481C57.6665 58.0014 58.1357 57.6431 58.513 57.1978C58.8902 56.7526 59.1667 56.231 59.3233 55.6688C59.4799 55.1067 59.513 54.5173 59.4203 53.9411C58.9598 51.2286 57.9473 48.6396 56.4456 46.3343C54.9439 44.029 52.9849 42.0565 50.69 40.5391C50.0775 41.3267 49.3771 42.0418 48.6023 42.6705Z" fill="#D4D3FD"/>
</svg>
