<svg width="80" height="80" viewBox="0 0 80 80" fill="none" xmlns="http://www.w3.org/2000/svg">
<path fill-rule="evenodd" clip-rule="evenodd" d="M36.9768 55.0664V72.4416H31.4493C30.2627 72.4416 29.3004 71.483 29.3004 70.2927C29.3004 63.8425 21.4976 60.6116 16.9371 65.1719C16.0985 66.0107 14.7382 66.0107 13.8995 65.1719L9.26949 60.5459C8.4309 59.7073 8.4309 58.3429 9.26949 57.5043C13.826 52.9478 10.5951 45.141 4.14886 45.141C2.96235 45.141 2 44.1788 2 42.9923V36.4493C2 35.2627 2.96235 34.3006 4.14886 34.3006C10.5951 34.3006 13.826 26.4938 9.26949 21.9373C8.4309 21.0987 8.4309 19.7382 9.26949 18.8996L13.8995 14.2696C14.7382 13.4309 16.0985 13.4309 16.9371 14.2696C21.4936 18.8262 29.3004 15.5953 29.3004 9.14886C29.3004 7.96235 30.2627 7 31.4493 7H36.9768V24.3752H22.2547C20.6654 24.3752 19.3771 25.6635 19.3771 27.2529V52.1887C19.3771 53.778 20.6654 55.0664 22.2547 55.0664H36.9768Z" fill="#1F807B"/>
<path fill-rule="evenodd" clip-rule="evenodd" d="M47.6174 27C47.9939 27 48.299 27.3051 48.299 27.6816V52.6174C48.299 52.9939 47.9939 53.299 47.6174 53.299H22.6816C22.5008 53.299 22.3274 53.2272 22.1996 53.0994C22.0718 52.9715 22 52.7982 22 52.6174V27.6816C22 27.3051 22.3051 27 22.6816 27H47.6174ZM35.1495 48.2635C39.6163 48.2635 43.2615 44.6182 43.2615 40.1514C43.2615 35.6827 39.6163 32.0394 35.1495 32.0394C30.6806 32.0394 27.0373 35.6827 27.0373 40.1514C27.0373 44.6182 30.6806 48.2635 35.1495 48.2635ZM35.1495 46.0674C31.8905 46.0674 29.2334 43.4089 29.2334 40.1514C29.2334 36.8924 31.8905 34.2355 35.1495 34.2355C38.4071 34.2355 41.0654 36.8924 41.0654 40.1514C41.0654 43.4089 38.4071 46.0674 35.1495 46.0674Z" fill="#A5CCC9"/>
<path fill-rule="evenodd" clip-rule="evenodd" d="M49.024 9.9082C49.2048 9.90824 49.3782 9.98008 49.506 10.1079C49.6338 10.2358 49.7057 10.4091 49.7057 10.5899V18.9322C49.7056 19.113 49.6338 19.2863 49.506 19.4141C49.3781 19.5419 49.2048 19.6137 49.024 19.6138H40.6817C40.5922 19.6138 40.5035 19.5962 40.4208 19.562C40.3381 19.5277 40.2629 19.4775 40.1996 19.4142C40.1363 19.351 40.0861 19.2758 40.0519 19.1931C40.0176 19.1104 40 19.0217 40 18.9322V10.5899C40 10.5004 40.0176 10.4117 40.0518 10.329C40.0861 10.2463 40.1363 10.1711 40.1996 10.1078C40.2629 10.0445 40.3381 9.99431 40.4208 9.96005C40.5035 9.9258 40.5922 9.90818 40.6817 9.9082H49.024ZM60.093 24.1852C60.1825 24.1852 60.2712 24.2029 60.3539 24.2371C60.4366 24.2714 60.5117 24.3216 60.575 24.3849C60.6383 24.4482 60.6885 24.5234 60.7228 24.6061C60.757 24.6888 60.7746 24.7774 60.7746 24.8669V33.2092C60.7746 33.2987 60.757 33.3874 60.7228 33.4701C60.6885 33.5528 60.6383 33.628 60.575 33.6913C60.5117 33.7546 60.4366 33.8048 60.3539 33.8391C60.2712 33.8733 60.1825 33.8909 60.093 33.8909H51.7507C51.6612 33.891 51.5726 33.8734 51.4898 33.8391C51.4071 33.8048 51.332 33.7546 51.2686 33.6913C51.2053 33.628 51.1551 33.5529 51.1209 33.4701C51.0866 33.3874 51.069 33.2988 51.069 33.2092V24.8669C51.0691 24.6862 51.1409 24.5128 51.2687 24.3849C51.3966 24.2571 51.57 24.1853 51.7507 24.1852H60.093ZM74.9564 17.1438C75.0459 17.1438 75.1346 17.1614 75.2173 17.1957C75.3 17.2299 75.3752 17.2801 75.4385 17.3434C75.5018 17.4067 75.552 17.4819 75.5863 17.5646C75.6205 17.6473 75.6381 17.736 75.6381 17.8255V26.1678C75.6381 26.3486 75.5662 26.522 75.4384 26.6498C75.3106 26.7777 75.1372 26.8495 74.9564 26.8495H66.6141C66.4334 26.8495 66.26 26.7776 66.1322 26.6498C66.0044 26.5219 65.9326 26.3486 65.9326 26.1678V17.8255C65.9327 17.6448 66.0045 17.4715 66.1323 17.3437C66.2601 17.2159 66.4334 17.144 66.6141 17.1438H74.9564ZM74.9564 49.6949C75.0459 49.6949 75.1346 49.7125 75.2173 49.7467C75.3 49.781 75.3752 49.8312 75.4385 49.8945C75.5018 49.9578 75.552 50.033 75.5863 50.1157C75.6205 50.1984 75.6381 50.2871 75.6381 50.3766V58.7189C75.6381 58.8997 75.5662 59.073 75.4384 59.2009C75.3106 59.3287 75.1372 59.4006 74.9564 59.4006H66.6141C66.4334 59.4005 66.26 59.3287 66.1322 59.2008C66.0044 59.073 65.9326 58.8996 65.9326 58.7189V50.3766C65.9327 50.1959 66.0045 50.0225 66.1323 49.8947C66.2601 49.7669 66.4334 49.695 66.6141 49.6949H74.9564ZM60.093 44.5705C60.1825 44.5705 60.2712 44.5881 60.3539 44.6224C60.4366 44.6566 60.5117 44.7069 60.575 44.7702C60.6383 44.8335 60.6885 44.9086 60.7228 44.9913C60.757 45.074 60.7746 45.1627 60.7746 45.2522V53.5945C60.7746 53.684 60.757 53.7726 60.7227 53.8553C60.6885 53.938 60.6383 54.0131 60.575 54.0764C60.5117 54.1397 60.4365 54.1899 60.3538 54.2242C60.2712 54.2584 60.1825 54.276 60.093 54.276H51.7507C51.6612 54.2761 51.5726 54.2585 51.4899 54.2242C51.4072 54.19 51.332 54.1398 51.2687 54.0765C51.2054 54.0132 51.1552 53.938 51.1209 53.8553C51.0867 53.7726 51.069 53.684 51.069 53.5945V45.2522C51.069 45.1627 51.0866 45.074 51.1209 44.9913C51.1551 44.9086 51.2053 44.8334 51.2686 44.7701C51.332 44.7068 51.4071 44.6566 51.4898 44.6223C51.5726 44.5881 51.6612 44.5705 51.7507 44.5705H60.093ZM49.024 60.3843C49.2048 60.3843 49.3782 60.4561 49.506 60.5839C49.6338 60.7117 49.7057 60.8851 49.7057 61.0658V69.4081C49.7057 69.4977 49.6881 69.5863 49.6539 69.669C49.6196 69.7518 49.5694 69.8269 49.5061 69.8902C49.4428 69.9535 49.3676 70.0037 49.2849 70.038C49.2022 70.0723 49.1135 70.0899 49.024 70.0899H40.6817C40.5922 70.0899 40.5035 70.0723 40.4208 70.038C40.3381 70.0037 40.2629 69.9535 40.1996 69.8902C40.1363 69.8269 40.0861 69.7518 40.0518 69.669C40.0176 69.5863 40 69.4977 40 69.4081V61.0658C40.0001 60.8851 40.0719 60.7118 40.1998 60.5839C40.3276 60.4561 40.501 60.3843 40.6817 60.3843H49.024ZM62.6573 40.3288H51.069C50.4631 40.3288 49.971 39.8367 49.971 39.2307C49.971 38.6246 50.4631 38.1327 51.069 38.1327H62.6573C63.1166 36.764 64.4102 35.7771 65.9326 35.7771C67.8386 35.7771 69.3862 37.3245 69.3862 39.2307C69.3862 41.1368 67.8386 42.6844 65.9326 42.6844C64.4102 42.6844 63.1166 41.6972 62.6573 40.3288Z" fill="#A5CCC9"/>
</svg>
