<svg width="80" height="80" viewBox="0 0 80 80" fill="none" xmlns="http://www.w3.org/2000/svg">
<g clip-path="url(#clip0_2744_486)">
<path d="M46.5625 6H13.0208C8.5875 6 5 9.5875 5 14.0208V59.2292C5 63.6625 8.5875 67.25 13.0208 67.25H36.7917C34.3417 63.3708 32.7083 58.7917 32.7083 53.5417V41.8458C32.7083 41.7 32.7083 41.5542 32.7375 41.4083C32.8542 38.9292 34.0208 36.6542 35.8583 35.1667C36.675 34.4375 37.6083 33.9125 38.6292 33.5625L45.6292 31.1708L53.9417 28.3417C54.1458 28.2542 54.35 28.1958 54.5833 28.1667V14.0208C54.5833 9.5875 50.9958 6 46.5625 6Z" fill="#D8EED9"/>
<path d="M45.6292 31.1702L38.6292 33.5618C37.6083 33.9118 36.675 34.4368 35.8583 35.166H16.6667C15.0625 35.166 13.75 33.8535 13.75 32.2493C13.75 30.6452 15.0625 29.3327 16.6667 29.3327H42.9167C44.1417 29.3327 45.1917 30.091 45.6292 31.1702ZM32.7375 41.4077C32.7083 41.5535 32.7083 41.6994 32.7083 41.8452V46.4243C32.2708 46.6868 31.775 46.8327 31.25 46.8327H16.6667C15.0625 46.8327 13.75 45.5202 13.75 43.916C13.75 42.3118 15.0625 40.9993 16.6667 40.9993H31.25C31.8042 40.9993 32.3 41.1452 32.7375 41.4077ZM28.3333 23.4993H16.6667C15.8931 23.4993 15.1513 23.1921 14.6043 22.6451C14.0573 22.0981 13.75 21.3562 13.75 20.5827C13.75 19.8091 14.0573 19.0673 14.6043 18.5203C15.1513 17.9733 15.8931 17.666 16.6667 17.666H28.3333C29.1069 17.666 29.8487 17.9733 30.3957 18.5203C30.9427 19.0673 31.25 19.8091 31.25 20.5827C31.25 21.3562 30.9427 22.0981 30.3957 22.6451C29.8487 23.1921 29.1069 23.4993 28.3333 23.4993Z" fill="#595959"/>
<path d="M56.7721 76.0004C56.3791 76.0013 55.99 75.9219 55.6288 75.7671C54.9317 75.4696 38.543 68.3325 38.543 53.5508V41.8316C38.5428 41.2224 38.7334 40.6284 39.0881 40.133C39.4428 39.6376 39.9437 39.2657 40.5205 39.0696L55.833 33.8604C56.4426 33.6533 57.1046 33.6533 57.7142 33.8604L73.0267 39.0696C74.208 39.475 75.0013 40.5833 75.0013 41.8346V53.5537C75.0013 68.3325 58.6126 75.4725 57.9155 75.77C57.5536 75.9225 57.1648 76.0009 56.7721 76.0004Z" fill="#4CAF50"/>
<path d="M56.0425 62.8738C55.6594 62.8746 55.28 62.7994 54.926 62.6527C54.5721 62.5061 54.2507 62.2908 53.9804 62.0193L48.1471 56.1859C47.8763 55.9151 47.6615 55.5936 47.515 55.2398C47.3684 54.886 47.293 54.5068 47.293 54.1238C47.293 53.7409 47.3684 53.3617 47.515 53.0078C47.6615 52.654 47.8763 52.3325 48.1471 52.0618C48.4179 51.791 48.7394 51.5761 49.0932 51.4296C49.447 51.283 49.8262 51.2076 50.2092 51.2076C50.5922 51.2076 50.9714 51.283 51.3252 51.4296C51.679 51.5761 52.0005 51.791 52.2713 52.0618L55.7275 55.518L62.4592 46.5405C62.689 46.2343 62.9769 45.9763 63.3064 45.7813C63.6359 45.5864 64.0006 45.4582 64.3796 45.4042C64.7587 45.3501 65.1446 45.3713 65.5155 45.4664C65.8864 45.5616 66.2348 45.7288 66.5411 45.9586C66.8473 46.1884 67.1053 46.4763 67.3002 46.8058C67.4952 47.1353 67.6234 47.5 67.6774 47.8791C67.7314 48.2581 67.7103 48.6441 67.6151 49.0149C67.52 49.3858 67.3528 49.7343 67.1229 50.0405L58.3729 61.7072C58.1022 62.0697 57.7505 62.3639 57.3459 62.5665C56.9413 62.769 56.495 62.8743 56.0425 62.8738Z" fill="white"/>
</g>
<defs>
<clipPath id="clip0_2744_486">
<rect width="70" height="70" fill="white" transform="translate(5 6)"/>
</clipPath>
</defs>
</svg>
