<svg width="80" height="80" viewBox="0 0 80 80" fill="none" xmlns="http://www.w3.org/2000/svg">
<rect x="6.05078" y="10" width="67.8914" height="56.7747" rx="5" fill="#B5E7FA"/>
<path d="M20.0508 38.5085L33.0322 45.5253V41.227L25.2693 37.1435L33.0322 33.0597V28.7614L20.0508 35.7782V38.5085ZM35.2984 45.7582H39.2197L46.5738 25.7754H42.6263L35.2984 45.7582ZM48.0694 28.765V33.062L55.8868 37.1435L48.0694 41.2247V45.5218L61.0508 38.5344V35.7523L48.0694 28.765Z" fill="black"/>
<path d="M72.2479 68.8959H8.21762C6.44063 68.8959 5 66.9687 5 64.5914V52.0684H29.8897L31.819 58.4723H48.6465L50.5756 52.0684H75.4655V64.5914C75.4655 66.9687 74.0249 68.8959 72.2479 68.8959Z" fill="white"/>
<path d="M72.2479 70.9995H8.21762C6.44063 70.9995 5 69.0722 5 66.6949V54.1719H28.9437L30.8729 60.5758H49.5586L51.4877 54.1719H75.4655V66.6949C75.4655 69.0722 74.0249 70.9995 72.2479 70.9995Z" fill="#52C1FF"/>
</svg>
