<svg width="80" height="80" viewBox="0 0 80 80" fill="none" xmlns="http://www.w3.org/2000/svg">
<path d="M5.33203 58.8832C5.332 59.3005 5.4423 59.7103 5.65173 60.0712C5.86117 60.4321 6.1623 60.7312 6.5246 60.9382L37.3668 78.5622V41.9542L5.33203 23.7299V58.8832ZM40.9078 1.91134C40.5502 1.70706 40.1455 1.59961 39.7336 1.59961C39.3218 1.59961 38.917 1.70706 38.5594 1.91134L7.62486 19.5883L39.7505 37.8644L72.3288 19.8664L40.9078 1.91134Z" fill="#A5CCC9"/>
<path d="M72.9438 60.9376L42.1016 78.5616V41.9734L74.1364 24.2754V58.8826C74.1364 59.2999 74.0261 59.7097 73.8167 60.0706C73.6072 60.4315 73.3061 60.7306 72.9438 60.9376Z" fill="#1F807B"/>
</svg>
